<?xml version="1.0" encoding="utf-8"?>
<!-- Generator: Adobe Illustrator 20.1.0, SVG Export Plug-In . SVG Version: 6.00 Build 0)  -->
<svg version="1.1" id="Layer_1" xmlns="http://www.w3.org/2000/svg" xmlns:xlink="http://www.w3.org/1999/xlink" x="0px" y="0px"
	 viewBox="0 0 408 281" style="enable-background:new 0 0 408 281;" xml:space="preserve">
<style type="text/css">
	.st0{clip-path:url(#SVGID_2_);}
	.st1{fill:#FFED00;stroke:#FFFFFF;stroke-width:4;stroke-miterlimit:10;}
	.st2{clip-path:url(#SVGID_4_);}
	.st3{fill:none;stroke:#FFFFFF;stroke-width:4;stroke-miterlimit:10;}
	.st4{fill:#FFFFFF;}
	.st5{clip-path:url(#SVGID_6_);}
	.st6{fill:#FFED00;}
	.st7{clip-path:url(#SVGID_8_);}
	.st8{fill:#312783;}
	.st9{fill:#006837;}
</style>
<g>
	<g>
		<defs>
			<polygon id="SVGID_1_" points="13.6,10.9 252.7,10.9 335,10.9 335,109.5 335,229.4 13.6,229.4 13.6,136.9 			"/>
		</defs>
		<clipPath id="SVGID_2_">
			<use xlink:href="#SVGID_1_"  style="overflow:visible;"/>
		</clipPath>
		<g class="st0">
			<polygon class="st1" points="252.7,10.9 253.7,20.7 253.9,30.1 253.3,39.2 251.9,47.8 249.8,56 246.9,63.9 243.3,71.4 239,78.5 
				234.1,85.2 228.6,91.5 222.5,97.4 215.9,103 208.7,108.2 201.1,113 193,117.4 184.4,121.5 175.5,125.2 166.2,128.5 187.7,120.8 
				195.1,118.2 202.3,115.2 209.1,112 215.6,108.4 221.7,104.6 227.4,100.4 232.8,96 237.6,91.2 242,86.2 245.9,80.8 249.4,75.2 
				252.2,69.2 254.5,62.9 256.3,56.3 257.4,49.4 257.9,42.1 257.7,34.6 256.9,26.8 			"/>
			<polygon class="st1" points="161.2,119.2 153.2,120.7 145.1,122.1 136.8,123.3 128.3,124.3 119.6,125.2 110.9,125.9 102,126.5 
				93,126.9 83.9,127.3 74.8,127.5 65.6,127.6 13.6,136.9 25.1,136.8 36.5,136.5 47.9,136.1 59.1,135.6 70.2,134.9 81.1,134 
				91.9,132.9 102.5,131.6 112.9,130.1 123.1,128.4 133.1,126.4 142.7,124.2 168.9,117.4 			"/>
			<g>
				<g>
					<defs>
						<rect id="SVGID_3_" x="0.2" y="-7.7" width="356" height="247.7"/>
					</defs>
					<clipPath id="SVGID_4_">
						<use xlink:href="#SVGID_3_"  style="overflow:visible;"/>
					</clipPath>
					<g class="st2">
						<path class="st3" d="M13.6,136.9c120.9,20.1,254.9-19.2,239.1-126C250.7,115,136.5,136.2,13.6,136.9"/>
						<path class="st3" d="M238.1,101.8c5.4,0,9.8,4.4,9.8,9.8s-4.4,9.8-9.8,9.8s-9.8-4.4-9.8-9.8
							C228.3,106.2,232.7,101.8,238.1,101.8L238.1,101.8"/>
						<polygon class="st3" points="245,86.7 261.2,95.2 262.6,96.9 264,98.5 265.4,100 266.9,101.4 268.4,102.7 269.9,103.9 
							271.5,105.1 273.1,106.1 274.8,107.1 276.5,108 278.3,108.8 266.3,103.7 264.1,102.7 261.9,101.6 259.8,100.3 257.8,99 
							255.8,97.6 253.9,96 252,94.4 250.2,92.6 248.4,90.8 246.7,88.8 						"/>
						<polygon class="st3" points="335,109.5 333.2,113.5 329.7,114.4 326.3,115.3 322.8,116 319.4,116.6 316,117.1 312.7,117.4 
							309.5,117.7 306.2,117.8 303.1,117.8 300,117.8 297,117.6 294.1,117.3 291.2,117 288.5,116.5 285.8,116 283.3,115.3 
							280.8,114.6 269.4,110.9 272.5,111.8 275.7,112.6 279,113.3 282.4,113.9 286,114.4 289.6,114.7 293.4,114.9 297.3,115 
							301.2,114.9 305.2,114.8 309.3,114.4 313.5,114 317.7,113.4 322,112.7 326.2,111.8 330.6,110.7 						"/>
						<path class="st3" d="M245,86.7c17.8,23,42.1,25.3,90,22.8C288.3,123.2,245.1,109.7,245,86.7"/>
						<polygon class="st3" points="268.6,118.2 258.7,130.8 255.7,132.4 253.1,134.1 250.7,136 248.6,138 246.8,140.1 245.2,142.3 
							251.9,132.5 253.8,129.8 256.1,127.2 258.7,124.7 261.6,122.4 265,120.2 						"/>
						<polygon class="st3" points="296.4,229.4 280.9,219.9 275.2,215.8 269.9,211.6 265.1,207.4 260.7,203.2 256.7,199.1 
							253.1,194.9 249.8,190.9 246.9,186.8 244.4,182.9 242.2,178.9 240.4,175.1 238.8,171.4 237.6,167.8 236.7,164.2 236.1,160.8 
							235.7,157.6 235.6,154.5 235.8,151.5 236.2,148.7 236.8,146.1 237.7,143.6 238.8,141.4 243.8,131.2 242.4,134 241.4,137 
							240.6,140.3 240,143.8 239.8,147.5 239.9,151.4 240.4,155.5 241.2,159.8 242.3,164.2 243.9,168.7 245.8,173.4 248.1,178.1 
							250.8,183 254,188 257.6,193 261.6,198.1 266.2,203.3 271.2,208.5 276.7,213.7 282.7,218.9 289.3,224.2 						"/>
						<path class="st3" d="M268.6,119.2c-41.3,20.9-19.3,68.7,27.7,110.2C217.8,173.9,233.7,113.8,268.6,119.2"/>
						<polygon class="st3" points="196.8,119.4 206.2,128.1 210.7,129 214.6,130.1 217.9,131.4 220.5,132.8 222.5,134.5 224,136.3 
							219.1,129.7 217.2,127.4 214.7,125.4 211.4,123.6 207.3,122 202.5,120.6 						"/>
						<polygon class="st3" points="122.2,225.3 146.5,212.8 153.1,209.3 159.6,205.8 165.9,202.1 172.1,198.4 178.1,194.6 
							183.8,190.8 189.4,186.9 194.8,183 199.8,179.1 204.6,175.2 209.1,171.4 213.3,167.6 217.1,163.9 220.6,160.3 223.8,156.8 
							226.5,153.4 228.8,150.1 230.6,147 232,144 233,141.2 233.4,138.7 233.3,136.4 232.7,134.3 229.9,127.2 230.7,129.8 
							230.8,132.7 230.3,135.9 229.1,139.4 227.3,143 225,146.9 222.1,151 218.7,155.3 214.9,159.7 210.5,164.2 205.7,168.9 
							200.4,173.6 194.8,178.4 188.8,183.2 182.5,188.1 175.8,193 168.9,197.8 161.6,202.6 154.1,207.4 146.4,212 138.5,216.6 
							130.4,221 						"/>
						<path class="st3" d="M196.8,119.4c65.2,10.8-16.2,63.9-82.9,109.9C203.5,186.5,276.2,111.3,196.8,119.4"/>
						<path class="st3" d="M225,59.4c0.1-0.2,0.3-0.8,0.6-1.8c0.2-0.6,0.5-1.2,0.8-1.7c1.2-1.7,2.7-1.8,4.3-0.3
							c0.7,0.7,1.4,1.5,2,2.4c0.6,0.8,1.2,1.7,1.8,2.6c0.7,1.1,0.9,1.8,0.7,2.1l-0.5,0.7c-0.5,0.6-0.9,1.3-1.3,2h-0.2l-2.1-4.1
							c-0.6-1.3-1.5-2.6-2.5-3.7c-0.3-0.3-0.7-0.4-1.1-0.1c-0.1,0.1-0.1,0.1-0.2,0.2c-0.8,1-1.1,2.3-0.6,3.6
							c0.5,1.2,1.2,2.2,2.1,3.1c1,1.1,2,2,2.8,2.9c-0.1,0.3-0.3,0.6-0.5,0.9l-0.2,0.3l-0.2,0.3l-0.8,1.1l-0.4,0.4l-0.2-0.1
							c-2.5-2.5-4.7-5.3-6.4-8.4c-0.9-1.2-1.6-2.6-2-4l0.9-1.2c0.3-0.4,0.6-0.8,1-1.1h0.2C223.3,56.9,224,58.2,225,59.4 M221.6,64.4
							c0.2,0.4,0.3,0.8,0.2,1.2c0,0.4-0.1,0.9-0.3,1.3c-0.8-0.4-1.8-0.1-2.3,0.6c-0.8,0.8-1.1,1.9-1,3s0.5,2.2,1.2,3
							c0.4,0.6,1.1,0.9,1.8,0.8s1.3-0.5,1.8-1c1-1,1.5-2.4,1.3-3.8h0.2l0.3,0.3c0.8,0.9,1.1,2.3,0.6,3.4c-0.3,1.2-1,2.3-1.9,3.2
							c-0.8,0.9-1.8,1.5-3,1.7c-1.2,0.1-2.4-0.4-3.1-1.4c-1.4-1.6-2.1-3.6-1.8-5.7c0.2-2.1,1-4,2.5-5.5c0.5-0.5,1-0.9,1.6-1.2
							C220.6,63.9,221.2,63.9,221.6,64.4 M217.6,79.8c0.2,0.4,0.2,0.9,0,1.3s-0.4,0.8-0.8,1.2c-0.3,0.3-0.6,0.4-1,0.5s-0.8,0-1-0.4
							c-0.3-0.4-0.3-0.9-0.1-1.4c0.1-0.5,0.4-0.9,0.8-1.2C216.3,79.2,216.9,79.1,217.6,79.8 M206.8,73.1c0.2,0.4,0.2,0.9,0,1.2
							c-0.2,0.4-0.5,0.7-0.8,1c-0.3,0.2-0.6,0.4-1,0.5c-0.5,0.1-0.8,0-1-0.3c-0.2-0.4-0.2-0.9,0-1.3s0.5-0.7,0.9-1
							c0.3-0.2,0.6-0.4,1-0.4C206.2,72.7,206.6,72.8,206.8,73.1 M207.4,76.1c0.7,2.2,1.6,4.3,2.8,6.2c0.5,0.9,1.2,2.1,2.1,3.5
							c0,0.2-0.1,0.3-0.2,0.4c-0.8,0.6-1.7,1.2-2.7,1.9c-0.2-0.1-0.4-0.3-0.5-0.5c-1.4-2.4-2.4-5-3.2-7.6c-0.5-1.6-0.7-2.4-0.4-2.6
							s0.6-0.4,1.1-0.7c0.3-0.2,0.7-0.4,1.1-0.5 M201.8,80c0.2-0.1,0.4-0.2,0.6-0.2l0.2,0.1l0.3,1.8l-1.7,0.8c-0.2,1,0,2.1,0.4,3
							c0.3,1,0.8,2,1.3,2.9c0.3,0.6,0.7,1.1,1.1,1.6l0.8,0.9c-0.8,0.9-1.8,1.7-2.8,2.3c-0.2-0.1-0.5-0.4-0.8-0.9l-0.1-0.2
							c-0.6-1.2-1.2-2.5-1.6-3.8l-1.3-3.9l-0.1-0.1c-0.4,0.4-0.9,0.8-1.4,1.2l-0.1-0.1l-0.1-0.1c-0.1-0.2-0.2-0.4-0.3-0.7
							c0,0-0.1-0.3-0.2-0.7c0.2-0.3,0.5-0.5,0.9-0.7l0.4-0.3l0.4-0.3l0.1-0.1c0-0.4,0-1-0.1-1.8c0.4-0.7,0.9-1.3,1.5-1.8
							c0.4-0.3,0.7-0.7,0.9-1.1l0.1,0.2c0.1,0.3,0.2,0.6,0.1,0.9c0,0.6,0.1,1.3,0.2,1.9c0.1-0.1,0.3-0.2,0.6-0.4
							C201.4,80.3,201.6,80.1,201.8,80 M192.7,81.4l0.4-0.2l0.2,0.1c0.3,4.2,1.4,8.2,3.2,12c0.4,0.8,0.8,1.5,1.2,2.2l-0.2,0.3
							c-0.4,0.2-1,0.5-1.8,1l-1.1,0.6l-0.4-0.5c-1.4-3.2-2.4-6.6-3-10c-0.4-1.4-0.6-2.9-0.6-4.3L192.7,81.4z M186.9,92.3
							c-0.1-0.3-0.4-0.5-0.9-0.5c-0.4-0.1-0.8,0-1.1,0.1c-0.8,0.3-1.4,0.9-1.8,1.7c-0.4,0.8-0.5,1.6-0.4,2.5h0.2
							c0.8-0.5,1.6-1.1,2.3-1.8C186.4,93.2,186.9,92.5,186.9,92.3 M189.3,90.5c0.3,1.2,0.1,2.5-0.6,3.6c-0.6,1.1-1.4,2-2.3,2.9
							c-0.8,0.8-1.7,1.5-2.7,2v0.3c0.2,0.3,0.6,0.4,1.3,0.4c0.5,0,1-0.1,1.5-0.3c1-0.5,1.9-1.3,2.4-2.2c0.2-0.3,0.5-0.9,1-1.9
							l0.3,0.4c0.1,0.1,0.2,0.3,0.3,0.5c0.4,1,0.1,2.2-0.9,3.4c-0.8,1-1.8,1.7-2.9,2.2c-1.1,0.6-2.3,0.8-3.6,0.6
							c-1.3-0.3-2.2-1.3-2.6-2.5c-1.5-3.9,0.3-8.2,4-10c0.8-0.4,1.7-0.6,2.7-0.7C188.1,89,189,89.6,189.3,90.5 M172.3,103.8
							c0.2,0.6,0.7,0.8,1.5,0.7c0.6-0.1,1.2-0.3,1.8-0.6c0.4-0.2,0.6-0.4,0.6-0.6l-0.6-1.8c0-0.1-0.1-0.3-0.1-0.4s-0.1-0.3-0.1-0.4
							s-0.1-0.2-0.3-0.2H175c-0.7,0.3-1.4,0.7-2,1.2C172.3,102.4,172.1,103,172.3,103.8 M172.4,97.2c-1.1,0.4-1.9,1.3-2.1,2.5
							c-0.7,0-1.3-0.3-1.7-0.8c0-0.9,0.4-1.8,1.1-2.3c0.6-0.6,1.4-1.1,2.2-1.4c2.9-1.2,4.8-0.8,5.6,1.4c0.6,1.6,1,3.3,1.4,5l0.5,2.7
							c-0.5,0.5-1.1,0.9-1.8,1.1l-0.5,0.2l-0.5,0.2c-4.1,1.7-6.5,1.7-7.1-0.1c-0.5-1.2-0.3-2.6,0.4-3.7c0.8-0.9,1.7-1.6,2.7-2.3
							c1.2-0.8,1.8-1.5,2-2c-0.2-0.4-0.6-0.7-1-0.7C173.3,96.9,172.9,96.9,172.4,97.2 M159.1,103.1c0.1,0.5,0.4,0.9,0.9,1.1
							c0.4,0.2,0.9,0.2,1.4,0.1c0.6-0.2,1.2-0.7,1.5-1.2c0.4-0.6,0.5-1.3,0.3-1.9c-0.3-1.2-1-1.6-2.1-1.3c-0.7,0.2-1.2,0.7-1.6,1.2
							C159,101.7,158.9,102.4,159.1,103.1 M165.7,96.8c-0.1,0.4-0.4,0.7-0.6,1l-0.8,0.9c0.6,0.5,1.1,1.1,1.3,1.8
							c0.4,1,0.3,2.1-0.2,3.1c-0.5,0.8-1.2,1.4-2,1.8l-2.6,1.3c-0.5,0.3-0.9,0.7-1.3,1.2c-0.6,0.7-0.8,1.2-0.7,1.5
							c0.1,0.2,0.3,0.3,0.5,0.3s0.4-0.1,0.6-0.1c0.8-0.3,1.5-0.7,2.1-1.2c1-0.9,2.2-1.7,3.4-2.3c0.3-0.1,0.6-0.1,0.9,0
							c0.3,0,0.6,0.3,0.6,0.6c0,0.6-0.1,1.2-0.3,1.7c-0.3,0.8-0.6,1.3-0.9,1.4c-0.6-0.3-1.3-0.4-1.9-0.3c-0.9,0.4-1.8,0.9-2.6,1.5
							c-0.5,0.3-1,0.6-1.6,0.8c-0.6,0.2-1.3,0.3-1.9,0.2c-0.7,0-1.3-0.5-1.4-1.2c-0.2-1,0.1-2,0.9-2.7l1.2-1.2l-0.8-0.6
							c-0.5-0.4-0.8-0.9-1-1.5c-0.6-2.1,0.3-3.8,2.8-5c0.9-0.4,1.9-0.8,2.9-1.1c0.9-0.7,1.6-1.6,2.3-2.5
							C164.9,96.1,165.4,96.4,165.7,96.8 M149.1,112.4c0.5-0.1,0.9-0.3,1.3-0.6c0.4-0.3,0.7-0.8,0.6-1.3c-0.1-0.4-0.7-0.7-1.7-0.9
							c-1.8-0.3-2.8-0.5-2.9-0.5c-0.9-0.2-1.7-0.8-1.9-1.8c-0.3-1.2,0.2-2.5,1.2-3.3c0.9-0.8,2-1.4,3.2-1.7c0.8-0.2,1.6-0.3,2.3-0.2
							c0.8,0,1.6,0.3,2.1,0.8c-0.2,0.6-0.5,1.2-1.1,1.6c-0.9-0.9-2.3-1.3-3.6-1.1c-0.4,0.1-0.8,0.4-1.1,0.7
							c-0.4,0.3-0.5,0.8-0.5,1.2c0.1,0.5,0.7,0.9,1.8,1.1l3,0.6c1,0.2,1.7,0.9,2,1.9c0.3,1.4-0.3,2.8-1.4,3.6
							c-1,0.9-2.2,1.5-3.5,1.8c-0.9,0.3-1.9,0.3-2.9,0.1c-1-0.2-1.8-1-2-2c-0.1-0.8,0-1.5,0.2-2.3c0.5,0.8,1.2,1.4,2.1,1.8
							C147.2,112.5,148.2,112.6,149.1,112.4 M137.8,116c-0.1,0.1-0.6,0.4-1.3,0.9c-0.4,0.3-0.9,0.6-1.4,0.7
							c-1.9,0.4-3.1-0.5-3.5-2.8c-0.1-1-0.2-2.1-0.1-3.1c0-1.3,0.1-2.3,0.2-3.2c0.1-1.3,0.3-2,0.6-2l2.2-0.5
							c0.2-0.1,0.5-0.1,0.7-0.1c-0.8,2.5-1,5.2-0.6,7.8c0.3,1.6,1,2.3,1.9,2.1c1.7-0.4,2.4-2.1,2.1-5.2c-0.1-1.2-0.3-2.4-0.5-3.5
							l-0.1-0.4l-0.1-0.6l-0.1-0.6l0.1-0.2l0.3-0.1l2.4-0.6c0.2,0.4,0.3,0.8,0.4,1.2c0.1,0.7,0.3,1.8,0.4,3.3
							c0.2,1.6,0.2,3.1,0.2,4.7s-0.3,2.5-0.6,2.5c-0.5,0.1-1,0.2-1.6,0.2C138.8,116.4,138.3,116.3,137.8,116 M123.3,107.8l0.2,0.2
							l0.1,0.6c0,0.3,0.1,0.6,0.2,0.9l0.2,0.1c0.5-0.5,1-0.9,1.6-1.4c0.5-0.5,1.1-0.8,1.7-1c0.2,0,0.5,0,0.6,0.2
							c0.2,0.2,0.3,0.5,0.3,0.7c0.1,0.5,0,1.1-0.3,1.6c-0.2,0.5-0.6,0.9-1.1,1c-0.1-0.2-0.3-0.5-0.4-0.7c-0.3-0.3-0.7-0.4-1.1-0.3
							c-1.4,0.2-2.1,1.7-2.1,4.4c0,0.9,0.1,1.7,0.2,2.6c0.1,0.8,0.3,1.6,0.5,2.3l-0.3,0.2l-1.1,0.2l-0.9,0.2
							c-0.4,0.1-0.8,0.1-1.3,0.1c-0.1-0.3-0.1-0.5-0.2-0.6c-0.3-2.7-0.3-5.3-0.1-8c0-1,0.2-2,0.5-3l0.8-0.1l0.8-0.1
							C122.7,108,123,107.9,123.3,107.8 M114.6,112.3c0-0.3-0.3-0.6-0.8-0.8c-0.3-0.2-0.7-0.2-1.1-0.2c-0.8,0.1-1.5,0.5-2.1,1.1
							s-0.9,1.4-1,2.3l0.2,0.1c0.9-0.3,1.8-0.6,2.7-1.1C113.9,113,114.6,112.6,114.6,112.3 M117.4,111.3c0,1.3-0.5,2.5-1.5,3.2
							c-0.9,0.8-1.9,1.6-2.9,2.1c-0.9,0.6-2,0.9-3.1,1.2l-0.1,0.3c0.1,0.3,0.5,0.6,1.2,0.8c0.5,0.1,1,0.2,1.5,0.1
							c1.1-0.2,2.1-0.7,2.9-1.5c0.2-0.2,0.7-0.7,1.4-1.5c0.1,0.2,0.2,0.3,0.2,0.5c0.1,0.2,0.1,0.3,0.2,0.5c0.1,1.1-0.4,2.1-1.7,3
							c-1,0.7-2.1,1.2-3.3,1.3c-1.2,0.3-2.5,0.1-3.6-0.5c-1.1-0.7-1.9-1.8-1.9-3.1c-0.3-2,0.2-4,1.5-5.6c1.1-1.6,2.9-2.6,4.8-2.9
							c0.9-0.2,1.8-0.1,2.7,0.1C116.6,109.5,117.3,110.3,117.4,111.3 M98.1,112c0.2-0.1,0.8-0.3,1.6-0.8c0.5-0.3,1.1-0.5,1.7-0.6
							c2-0.2,3,0.8,3.3,3.1c0.1,1.1,0,2.1-0.1,3.2s-0.2,2.1-0.4,3.2c-0.3,1.3-0.5,2-0.9,2l-0.8,0.1c-0.8,0.1-1.5,0.2-2.2,0.4
							l-0.2-0.1l1.2-4.5c0.4-1.5,0.6-3,0.6-4.5c-0.1-0.7-0.4-1-1-0.8c-1.2,0.1-2.3,0.9-2.8,2c-0.4,1.2-0.6,2.5-0.5,3.8
							c0,1.5,0,3,0.1,4.2c-0.3,0.1-0.6,0.2-0.9,0.2h-0.4H96l-1.3,0.2h-0.5l-0.1-0.2c-0.1-3.6,0.2-7.2,1-10.8c0.2-1.5,0.6-3,1.2-4.3
							l1.4-0.2c0.5-0.1,0.9-0.1,1.4-0.1l0.1,0.2C98.5,109,98.1,110.5,98.1,112 M91.4,113.2c0,0.4-0.2,0.8-0.5,1.1
							c-0.3,0.3-0.6,0.6-1,0.8c-0.4-0.8-1.3-1.2-2.1-1.1c-1.1,0.1-2,0.7-2.5,1.7c-0.6,0.9-0.9,2.1-0.8,3.2c0,0.7,0.4,1.4,1,1.8
							s1.3,0.5,2,0.4c1.3-0.1,2.5-0.9,3.1-2.1l0.2,0.2l0.1,0.5c0.1,1.2-0.5,2.4-1.5,3.1s-2.1,1.1-3.3,1.2c-1.2,0.2-2.4-0.1-3.3-0.7
							c-1-0.8-1.6-1.9-1.6-3.2c-0.2-2.1,0.5-4.1,1.9-5.6c1.3-1.5,3.1-2.4,5.1-2.6c0.7-0.1,1.3,0,1.9,0.1
							C90.9,112.2,91.3,112.6,91.4,113.2"/>
					</g>
				</g>
				<path class="st4" d="M18.4,139.7c-1.1-0.4-18.4-2.5-18.4-2.5l18.6-3.2L18.4,139.7z"/>
				<polygon class="st4" points="250.6,13.9 254.8,10.9 251,0 				"/>
				<polygon class="st4" points="332,107.7 337.8,106.9 334.6,115.1 				"/>
				<polygon class="st4" points="292.5,229.4 297.8,231.1 297.7,227.9 				"/>
				<polygon class="st4" points="112.7,227.7 110.9,231.4 118.4,229.4 				"/>
				<g>
					<g>
						<defs>
							<rect id="SVGID_5_" x="13.6" y="10.9" width="321.3" height="218.5"/>
						</defs>
						<clipPath id="SVGID_6_">
							<use xlink:href="#SVGID_5_"  style="overflow:visible;"/>
						</clipPath>
						<g class="st5">
							<polygon class="st6" points="252.7,10.9 253.7,20.7 253.9,30.1 253.3,39.2 251.9,47.8 249.8,56 246.9,63.9 243.3,71.4 
								239,78.5 234.1,85.2 228.6,91.5 222.5,97.4 215.9,103 208.7,108.2 201.1,113 193,117.4 184.4,121.5 175.5,125.2 166.2,128.5 
								187.7,120.8 195.1,118.2 202.3,115.2 209.1,112 215.6,108.4 221.7,104.6 227.4,100.4 232.8,96 237.6,91.2 242,86.2 
								245.9,80.8 249.4,75.2 252.2,69.2 254.5,62.9 256.3,56.3 257.4,49.4 257.9,42.1 257.7,34.6 256.9,26.8 							"/>
							<polygon class="st6" points="161.2,119.2 153.2,120.7 145.1,122.1 136.8,123.3 128.3,124.3 119.6,125.2 110.9,125.9 
								102,126.5 93,126.9 83.9,127.3 74.8,127.5 65.6,127.6 13.6,136.9 25.1,136.8 36.5,136.5 47.9,136.1 59.1,135.6 70.2,134.9 
								81.1,134 91.9,132.9 102.5,131.6 112.9,130.1 123.1,128.4 133.1,126.4 142.7,124.2 168.9,117.4 							"/>
							<g>
								<g>
									<defs>
										<rect id="SVGID_7_" x="13.6" y="10.9" width="321.3" height="218.5"/>
									</defs>
									<clipPath id="SVGID_8_">
										<use xlink:href="#SVGID_7_"  style="overflow:visible;"/>
									</clipPath>
									<g class="st7">
										<path class="st8" d="M13.6,136.9c120.9,20.1,254.9-19.2,239.1-126C250.7,115,136.5,136.2,13.6,136.9"/>
										<path class="st8" d="M238.1,101.8c5.4,0,9.8,4.4,9.8,9.8s-4.4,9.8-9.8,9.8s-9.8-4.4-9.8-9.8
											C228.3,106.2,232.7,101.8,238.1,101.8L238.1,101.8"/>
										<polygon class="st6" points="245,86.7 261.2,95.2 262.6,96.9 264,98.5 265.4,100 266.9,101.4 268.4,102.7 269.9,103.9 
											271.5,105.1 273.1,106.1 274.8,107.1 276.5,108 278.3,108.8 266.3,103.7 264.1,102.7 261.9,101.6 259.8,100.3 257.8,99 
											255.8,97.6 253.9,96 252,94.4 250.2,92.6 248.4,90.8 246.7,88.8 										"/>
										<polygon class="st6" points="335,109.5 333.2,113.5 329.7,114.4 326.3,115.3 322.8,116 319.4,116.6 316,117.1 
											312.7,117.4 309.5,117.7 306.2,117.8 303.1,117.8 300,117.8 297,117.6 294.1,117.3 291.2,117 288.5,116.5 285.8,116 
											283.3,115.3 280.8,114.6 269.4,110.9 272.5,111.8 275.7,112.6 279,113.3 282.4,113.9 286,114.4 289.6,114.7 293.4,114.9 
											297.3,115 301.2,114.9 305.2,114.8 309.3,114.4 313.5,114 317.7,113.4 322,112.7 326.2,111.8 330.6,110.7 										"/>
										<path class="st8" d="M245,86.7c17.8,23,42.1,25.3,90,22.8C288.3,123.2,245.1,109.7,245,86.7"/>
										<polygon class="st6" points="268.6,119.2 258.7,131.8 255.7,133.4 253.1,135.1 250.7,137 248.6,139 246.8,141.1 
											245.2,143.3 251.9,133.5 253.8,130.8 256.1,128.2 258.7,125.7 261.6,123.4 265,121.2 										"/>
										<polygon class="st6" points="296.4,229.4 280.9,219.9 275.2,215.8 269.9,211.6 265.1,207.4 260.7,203.2 256.7,199.1 
											253.1,194.9 249.8,190.9 246.9,186.8 244.4,182.9 242.2,178.9 240.4,175.1 238.8,171.4 237.6,167.8 236.7,164.2 
											236.1,160.8 235.7,157.6 235.6,154.5 235.8,151.5 236.2,148.7 236.8,146.1 237.7,143.6 238.8,141.4 243.8,131.2 
											242.4,134 241.4,137 240.6,140.3 240,143.8 239.8,147.5 239.9,151.4 240.4,155.5 241.2,159.8 242.3,164.2 243.9,168.7 
											245.8,173.4 248.1,178.1 250.8,183 254,188 257.6,193 261.6,198.1 266.2,203.3 271.2,208.5 276.7,213.7 282.7,218.9 
											289.3,224.2 										"/>
										<path class="st8" d="M268.6,119.2c-41.3,20.9-19.3,68.7,27.7,110.2C217.8,173.9,233.7,113.8,268.6,119.2"/>
										<polygon class="st6" points="196.8,119.4 206.2,128.1 210.7,129 214.6,130.1 217.9,131.4 220.5,132.8 222.5,134.5 
											224,136.3 219.1,129.7 217.2,127.4 214.7,125.4 211.4,123.6 207.3,122 202.5,120.6 										"/>
										<polygon class="st6" points="122.2,225.3 146.5,212.8 153.1,209.3 159.6,205.8 165.9,202.1 172.1,198.4 178.1,194.6 
											183.8,190.8 189.4,186.9 194.8,183 199.8,179.1 204.6,175.2 209.1,171.4 213.3,167.6 217.1,163.9 220.6,160.3 
											223.8,156.8 226.5,153.4 228.8,150.1 230.6,147 232,144 233,141.2 233.4,138.7 233.3,136.4 232.7,134.3 229.9,127.2 
											230.7,129.8 230.8,132.7 230.3,135.9 229.1,139.4 227.3,143 225,146.9 222.1,151 218.7,155.3 214.9,159.7 210.5,164.2 
											205.7,168.9 200.4,173.6 194.8,178.4 188.8,183.2 182.5,188.1 175.8,193 168.9,197.8 161.6,202.6 154.1,207.4 146.4,212 
											138.5,216.6 130.4,221 										"/>
										<path class="st8" d="M196.8,119.4c65.2,10.8-16.2,63.9-82.9,109.9C203.5,186.5,276.2,111.3,196.8,119.4"/>
										<path class="st8" d="M225,59.4c0.1-0.2,0.3-0.8,0.6-1.8c0.2-0.6,0.5-1.2,0.8-1.7c1.2-1.7,2.7-1.8,4.3-0.3
											c0.7,0.7,1.4,1.5,2,2.4c0.6,0.8,1.2,1.7,1.8,2.6c0.7,1.1,0.9,1.8,0.7,2.1l-0.5,0.7c-0.5,0.6-0.9,1.3-1.3,2h-0.2l-2.1-4.1
											c-0.6-1.3-1.5-2.6-2.5-3.7c-0.3-0.3-0.7-0.4-1.1-0.1c-0.1,0.1-0.1,0.1-0.2,0.2c-0.8,1-1.1,2.3-0.6,3.6
											c0.5,1.2,1.2,2.2,2.1,3.1c1,1.1,2,2,2.8,2.9c-0.1,0.3-0.3,0.6-0.5,0.9l-0.2,0.3l-0.2,0.3l-0.8,1.1l-0.4,0.4l-0.2-0.1
											c-2.5-2.5-4.7-5.3-6.4-8.4c-0.9-1.2-1.6-2.6-2-4l0.9-1.2c0.3-0.4,0.6-0.8,1-1.1h0.2C223.3,56.9,224,58.2,225,59.4
											 M221.6,64.4c0.2,0.4,0.3,0.8,0.2,1.2c0,0.4-0.1,0.9-0.3,1.3c-0.8-0.4-1.8-0.1-2.3,0.6c-0.8,0.8-1.1,1.9-1,3
											s0.5,2.2,1.2,3c0.4,0.6,1.1,0.9,1.8,0.8s1.3-0.5,1.8-1c1-1,1.5-2.4,1.3-3.8h0.2l0.3,0.3c0.8,0.9,1.1,2.3,0.6,3.4
											c-0.3,1.2-1,2.3-1.9,3.2c-0.8,0.9-1.8,1.5-3,1.7c-1.2,0.1-2.4-0.4-3.1-1.4c-1.4-1.6-2.1-3.6-1.8-5.7c0.2-2.1,1-4,2.5-5.5
											c0.5-0.5,1-0.9,1.6-1.2C220.6,63.9,221.2,63.9,221.6,64.4 M217.6,79.8c0.2,0.4,0.2,0.9,0,1.3s-0.4,0.8-0.8,1.2
											c-0.3,0.3-0.6,0.4-1,0.5s-0.8,0-1-0.4c-0.3-0.4-0.3-0.9-0.1-1.4c0.1-0.5,0.4-0.9,0.8-1.2
											C216.3,79.2,216.9,79.1,217.6,79.8 M206.8,73.1c0.2,0.4,0.2,0.9,0,1.2c-0.2,0.4-0.5,0.7-0.8,1c-0.3,0.2-0.6,0.4-1,0.5
											c-0.5,0.1-0.8,0-1-0.3c-0.2-0.4-0.2-0.9,0-1.3s0.5-0.7,0.9-1c0.3-0.2,0.6-0.4,1-0.4C206.2,72.7,206.6,72.8,206.8,73.1
											 M207.4,76.1c0.7,2.2,1.6,4.3,2.8,6.2c0.5,0.9,1.2,2.1,2.1,3.5c0,0.2-0.1,0.3-0.2,0.4c-0.8,0.6-1.7,1.2-2.7,1.9
											c-0.2-0.1-0.4-0.3-0.5-0.5c-1.4-2.4-2.4-5-3.2-7.6c-0.5-1.6-0.7-2.4-0.4-2.6s0.6-0.4,1.1-0.7c0.3-0.2,0.7-0.4,1.1-0.5
											 M201.8,80c0.2-0.1,0.4-0.2,0.6-0.2l0.2,0.1l0.3,1.8l-1.7,0.8c-0.2,1,0,2.1,0.4,3c0.3,1,0.8,2,1.3,2.9
											c0.3,0.6,0.7,1.1,1.1,1.6l0.8,0.9c-0.8,0.9-1.8,1.7-2.8,2.3c-0.2-0.1-0.5-0.4-0.8-0.9l-0.1-0.2c-0.6-1.2-1.2-2.5-1.6-3.8
											l-1.3-3.9l-0.1-0.1c-0.4,0.4-0.9,0.8-1.4,1.2l-0.1-0.1l-0.1-0.1c-0.1-0.2-0.2-0.4-0.3-0.7c0,0-0.1-0.3-0.2-0.7
											c0.2-0.3,0.5-0.5,0.9-0.7l0.4-0.3l0.4-0.3l0.1-0.1c0-0.4,0-1-0.1-1.8c0.4-0.7,0.9-1.3,1.5-1.8c0.4-0.3,0.7-0.7,0.9-1.1
											l0.1,0.2c0.1,0.3,0.2,0.6,0.1,0.9c0,0.6,0.1,1.3,0.2,1.9c0.1-0.1,0.3-0.2,0.6-0.4C201.4,80.3,201.6,80.1,201.8,80
											 M192.7,81.4l0.4-0.2l0.2,0.1c0.3,4.2,1.4,8.2,3.2,12c0.4,0.8,0.8,1.5,1.2,2.2l-0.2,0.3c-0.4,0.2-1,0.5-1.8,1l-1.1,0.6
											l-0.4-0.5c-1.4-3.2-2.4-6.6-3-10c-0.4-1.4-0.6-2.9-0.6-4.3L192.7,81.4z M186.9,92.3c-0.1-0.3-0.4-0.5-0.9-0.5
											c-0.4-0.1-0.8,0-1.1,0.1c-0.8,0.3-1.4,0.9-1.8,1.7c-0.4,0.8-0.5,1.6-0.4,2.5h0.2c0.8-0.5,1.6-1.1,2.3-1.8
											C186.4,93.2,186.9,92.5,186.9,92.3 M189.3,90.5c0.3,1.2,0.1,2.5-0.6,3.6c-0.6,1.1-1.4,2-2.3,2.9c-0.8,0.8-1.7,1.5-2.7,2
											v0.3c0.2,0.3,0.6,0.4,1.3,0.4c0.5,0,1-0.1,1.5-0.3c1-0.5,1.9-1.3,2.4-2.2c0.2-0.3,0.5-0.9,1-1.9l0.3,0.4
											c0.1,0.1,0.2,0.3,0.3,0.5c0.4,1,0.1,2.2-0.9,3.4c-0.8,1-1.8,1.7-2.9,2.2c-1.1,0.6-2.3,0.8-3.6,0.6
											c-1.3-0.3-2.2-1.3-2.6-2.5c-1.5-3.9,0.3-8.2,4-10c0.8-0.4,1.7-0.6,2.7-0.7C188.1,89,189,89.6,189.3,90.5 M172.3,103.8
											c0.2,0.6,0.7,0.8,1.5,0.7c0.6-0.1,1.2-0.3,1.8-0.6c0.4-0.2,0.6-0.4,0.6-0.6l-0.6-1.8c0-0.1-0.1-0.3-0.1-0.4
											s-0.1-0.3-0.1-0.4s-0.1-0.2-0.3-0.2H175c-0.7,0.3-1.4,0.7-2,1.2C172.3,102.4,172.1,103,172.3,103.8 M172.4,97.2
											c-1.1,0.4-1.9,1.3-2.1,2.5c-0.7,0-1.3-0.3-1.7-0.8c0-0.9,0.4-1.8,1.1-2.3c0.6-0.6,1.4-1.1,2.2-1.4
											c2.9-1.2,4.8-0.8,5.6,1.4c0.6,1.6,1,3.3,1.4,5l0.5,2.7c-0.5,0.5-1.1,0.9-1.8,1.1l-0.5,0.2l-0.5,0.2
											c-4.1,1.7-6.5,1.7-7.1-0.1c-0.5-1.2-0.3-2.6,0.4-3.7c0.8-0.9,1.7-1.6,2.7-2.3c1.2-0.8,1.8-1.5,2-2c-0.2-0.4-0.6-0.7-1-0.7
											C173.3,96.9,172.9,96.9,172.4,97.2 M159.1,103.1c0.1,0.5,0.4,0.9,0.9,1.1c0.4,0.2,0.9,0.2,1.4,0.1
											c0.6-0.2,1.2-0.7,1.5-1.2c0.4-0.6,0.5-1.3,0.3-1.9c-0.3-1.2-1-1.6-2.1-1.3c-0.7,0.2-1.2,0.7-1.6,1.2
											C159,101.7,158.9,102.4,159.1,103.1 M165.7,96.8c-0.1,0.4-0.4,0.7-0.6,1l-0.8,0.9c0.6,0.5,1.1,1.1,1.3,1.8
											c0.4,1,0.3,2.1-0.2,3.1c-0.5,0.8-1.2,1.4-2,1.8l-2.6,1.3c-0.5,0.3-0.9,0.7-1.3,1.2c-0.6,0.7-0.8,1.2-0.7,1.5
											c0.1,0.2,0.3,0.3,0.5,0.3s0.4-0.1,0.6-0.1c0.8-0.3,1.5-0.7,2.1-1.2c1-0.9,2.2-1.7,3.4-2.3c0.3-0.1,0.6-0.1,0.9,0
											c0.3,0,0.6,0.3,0.6,0.6c0,0.6-0.1,1.2-0.3,1.7c-0.3,0.8-0.6,1.3-0.9,1.4c-0.6-0.3-1.3-0.4-1.9-0.3
											c-0.9,0.4-1.8,0.9-2.6,1.5c-0.5,0.3-1,0.6-1.6,0.8c-0.6,0.2-1.3,0.3-1.9,0.2c-0.7,0-1.3-0.5-1.4-1.2c-0.2-1,0.1-2,0.9-2.7
											l1.2-1.2l-0.8-0.6c-0.5-0.4-0.8-0.9-1-1.5c-0.6-2.1,0.3-3.8,2.8-5c0.9-0.4,1.9-0.8,2.9-1.1c0.9-0.7,1.6-1.6,2.3-2.5
											C164.9,96.1,165.4,96.4,165.7,96.8 M149.1,112.4c0.5-0.1,0.9-0.3,1.3-0.6c0.4-0.3,0.7-0.8,0.6-1.3
											c-0.1-0.4-0.7-0.7-1.7-0.9c-1.8-0.3-2.8-0.5-2.9-0.5c-0.9-0.2-1.7-0.8-1.9-1.8c-0.3-1.2,0.2-2.5,1.2-3.3
											c0.9-0.8,2-1.4,3.2-1.7c0.8-0.2,1.6-0.3,2.3-0.2c0.8,0,1.6,0.3,2.1,0.8c-0.2,0.6-0.5,1.2-1.1,1.6
											c-0.9-0.9-2.3-1.3-3.6-1.1c-0.4,0.1-0.8,0.4-1.1,0.7c-0.4,0.3-0.5,0.8-0.5,1.2c0.1,0.5,0.7,0.9,1.8,1.1l3,0.6
											c1,0.2,1.7,0.9,2,1.9c0.3,1.4-0.3,2.8-1.4,3.6c-1,0.9-2.2,1.5-3.5,1.8c-0.9,0.3-1.9,0.3-2.9,0.1c-1-0.2-1.8-1-2-2
											c-0.1-0.8,0-1.5,0.2-2.3c0.5,0.8,1.2,1.4,2.1,1.8C147.2,112.5,148.2,112.6,149.1,112.4 M137.8,116
											c-0.1,0.1-0.6,0.4-1.3,0.9c-0.4,0.3-0.9,0.6-1.4,0.7c-1.9,0.4-3.1-0.5-3.5-2.8c-0.1-1-0.2-2.1-0.1-3.1
											c0-1.3,0.1-2.3,0.2-3.2c0.1-1.3,0.3-2,0.6-2l2.2-0.5c0.2-0.1,0.5-0.1,0.7-0.1c-0.8,2.5-1,5.2-0.6,7.8
											c0.3,1.6,1,2.3,1.9,2.1c1.7-0.4,2.4-2.1,2.1-5.2c-0.1-1.2-0.3-2.4-0.5-3.5l-0.1-0.4l-0.1-0.6l-0.1-0.6l0.1-0.2l0.3-0.1
											l2.4-0.6c0.2,0.4,0.3,0.8,0.4,1.2c0.1,0.7,0.3,1.8,0.4,3.3c0.2,1.6,0.2,3.1,0.2,4.7s-0.3,2.5-0.6,2.5
											c-0.5,0.1-1,0.2-1.6,0.2C138.8,116.4,138.3,116.3,137.8,116 M123.3,107.8l0.2,0.2l0.1,0.6c0,0.3,0.1,0.6,0.2,0.9l0.2,0.1
											c0.5-0.5,1-0.9,1.6-1.4c0.5-0.5,1.1-0.8,1.7-1c0.2,0,0.5,0,0.6,0.2c0.2,0.2,0.3,0.5,0.3,0.7c0.1,0.5,0,1.1-0.3,1.6
											c-0.2,0.5-0.6,0.9-1.1,1c-0.1-0.2-0.3-0.5-0.4-0.7c-0.3-0.3-0.7-0.4-1.1-0.3c-1.4,0.2-2.1,1.7-2.1,4.4
											c0,0.9,0.1,1.7,0.2,2.6c0.1,0.8,0.3,1.6,0.5,2.3l-0.3,0.2l-1.1,0.2l-0.9,0.2c-0.4,0.1-0.8,0.1-1.3,0.1
											c-0.1-0.3-0.1-0.5-0.2-0.6c-0.3-2.7-0.3-5.3-0.1-8c0-1,0.2-2,0.5-3l0.8-0.1l0.8-0.1C122.7,108,123,107.9,123.3,107.8
											 M114.6,112.3c0-0.3-0.3-0.6-0.8-0.8c-0.3-0.2-0.7-0.2-1.1-0.2c-0.8,0.1-1.5,0.5-2.1,1.1s-0.9,1.4-1,2.3l0.2,0.1
											c0.9-0.3,1.8-0.6,2.7-1.1C113.9,113,114.6,112.6,114.6,112.3 M117.4,111.3c0,1.3-0.5,2.5-1.5,3.2
											c-0.9,0.8-1.9,1.6-2.9,2.1c-0.9,0.6-2,0.9-3.1,1.2l-0.1,0.3c0.1,0.3,0.5,0.6,1.2,0.8c0.5,0.1,1,0.2,1.5,0.1
											c1.1-0.2,2.1-0.7,2.9-1.5c0.2-0.2,0.7-0.7,1.4-1.5c0.1,0.2,0.2,0.3,0.2,0.5c0.1,0.2,0.1,0.3,0.2,0.5
											c0.1,1.1-0.4,2.1-1.7,3c-1,0.7-2.1,1.2-3.3,1.3c-1.2,0.3-2.5,0.1-3.6-0.5c-1.1-0.7-1.9-1.8-1.9-3.1c-0.3-2,0.2-4,1.5-5.6
											c1.1-1.6,2.9-2.6,4.8-2.9c0.9-0.2,1.8-0.1,2.7,0.1C116.6,109.5,117.3,110.3,117.4,111.3 M98.1,112
											c0.2-0.1,0.8-0.3,1.6-0.8c0.5-0.3,1.1-0.5,1.7-0.6c2-0.2,3,0.8,3.3,3.1c0.1,1.1,0,2.1-0.1,3.2s-0.2,2.1-0.4,3.2
											c-0.3,1.3-0.5,2-0.9,2l-0.8,0.1c-0.8,0.1-1.5,0.2-2.2,0.4l-0.2-0.1l1.2-4.5c0.4-1.5,0.6-3,0.6-4.5c-0.1-0.7-0.4-1-1-0.8
											c-1.2,0.1-2.3,0.9-2.8,2c-0.4,1.2-0.6,2.5-0.5,3.8c0,1.5,0,3,0.1,4.2c-0.3,0.1-0.6,0.2-0.9,0.2h-0.4H96l-1.3,0.2h-0.5
											l-0.1-0.2c-0.1-3.6,0.2-7.2,1-10.8c0.2-1.5,0.6-3,1.2-4.3l1.4-0.2c0.5-0.1,0.9-0.1,1.4-0.1l0.1,0.2
											C98.5,109,98.1,110.5,98.1,112 M91.4,113.2c0,0.4-0.2,0.8-0.5,1.1c-0.3,0.3-0.6,0.6-1,0.8c-0.4-0.8-1.3-1.2-2.1-1.1
											c-1.1,0.1-2,0.7-2.5,1.7c-0.6,0.9-0.9,2.1-0.8,3.2c0,0.7,0.4,1.4,1,1.8s1.3,0.5,2,0.4c1.3-0.1,2.5-0.9,3.1-2.1l0.2,0.2
											l0.1,0.5c0.1,1.2-0.5,2.4-1.5,3.1s-2.1,1.1-3.3,1.2c-1.2,0.2-2.4-0.1-3.3-0.7c-1-0.8-1.6-1.9-1.6-3.2
											c-0.2-2.1,0.5-4.1,1.9-5.6c1.3-1.5,3.1-2.4,5.1-2.6c0.7-0.1,1.3,0,1.9,0.1C90.9,112.2,91.3,112.6,91.4,113.2"/>
									</g>
								</g>
								<path class="st9" d="M292.1,226.3"/>
								<path class="st4" d="M124.1,229.5"/>
							</g>
						</g>
					</g>
				</g>
			</g>
		</g>
	</g>
</g>
</svg>
