<?xml version="1.0" encoding="utf-8"?>
<!-- Generator: Adobe Illustrator 20.1.0, SVG Export Plug-In . SVG Version: 6.00 Build 0)  -->
<svg version="1.1" id="Layer_1" xmlns="http://www.w3.org/2000/svg" xmlns:xlink="http://www.w3.org/1999/xlink" x="0px" y="0px"
	 viewBox="0 0 408 281" style="enable-background:new 0 0 408 281;" xml:space="preserve">
<style type="text/css">
	.st0{fill:#FFFFFF;}
	.st1{clip-path:url(#SVGID_2_);}
	.st2{fill:#FFED00;stroke:#FFFFFF;stroke-width:4;stroke-miterlimit:10;}
	.st3{clip-path:url(#SVGID_4_);}
	.st4{fill:none;stroke:#FFFFFF;stroke-width:4;stroke-miterlimit:10;}
	.st5{clip-path:url(#SVGID_6_);}
	.st6{fill:#FFED00;}
	.st7{clip-path:url(#SVGID_8_);}
	.st8{fill:#312783;}
	.st9{fill:#006837;}
</style>
<title>Logo</title>
<path class="st0" d="M202.2,63.3c-23.5,26.8-76.3,40.1-122.9,43.8c-6,0.5-20.6-2.3-48.4,5c-5,1.3-21.7,9.6-24.8,14.4
	c-7.3,11.7,2.3,29,13.6,35.4c44.6,25.4,167.4-21.4,170.8-12.7C199.1,170.6,123,185,94,240c-3.1,5.9-2.7,11.6,0,15
	c10.1,12.5,75.8-21.7,125-48.6c12.9-7.1,12.8-1.3,23.4,8.9c18.9,18.2,37.9,29.7,48.9,33.4c9,3,24.9,12.7,33.4,2.8
	c5.4-6.3-2.8-23.2-5.8-26.8c-30-35.5-27.2-24.2-34.8-52.6c-2.3-8.7-3.7-25,5-33c9.2-8.4,22.7-1.1,51.9-10c10.1-3.1,14.4-5.7,16.1-10
	c2.6-6.9-1.2-20.3-10-22c-19.6-3.8-19.6,4.9-44.7,2.4c-7.3-0.7-22.6-2.6-27.2-10.7c-5.4-9.4,4.1-13.7,6.9-37.7
	c1.3-11.2,3.1-26.1-6-37.1C270.3,6.9,259.8,1.2,250,3c-9.4,1.8-16.5,8-24,23C218.7,40.5,212.1,51.9,202.2,63.3z"/>
<g>
	<defs>
		<polygon id="SVGID_1_" points="19.6,13.9 258.7,13.9 341,13.9 341,112.5 341,232.4 19.6,232.4 19.6,139.9 		"/>
	</defs>
	<clipPath id="SVGID_2_">
		<use xlink:href="#SVGID_1_"  style="overflow:visible;"/>
	</clipPath>
	<g class="st1">
		<polygon class="st2" points="258.7,13.9 259.7,23.7 259.9,33.1 259.3,42.2 257.9,50.8 255.8,59 252.9,66.9 249.3,74.4 245,81.5 
			240.1,88.2 234.6,94.5 228.5,100.4 221.9,106 214.7,111.2 207.1,116 199,120.4 190.4,124.5 181.5,128.2 172.2,131.5 193.7,123.8 
			201.1,121.2 208.3,118.2 215.1,115 221.6,111.4 227.7,107.6 233.4,103.4 238.8,99 243.6,94.2 248,89.2 251.9,83.8 255.4,78.2 
			258.2,72.2 260.5,65.9 262.3,59.3 263.4,52.4 263.9,45.1 263.7,37.6 262.9,29.8 		"/>
		<polygon class="st2" points="167.2,122.2 159.2,123.7 151.1,125.1 142.8,126.3 134.3,127.3 125.6,128.2 116.9,128.9 108,129.5 
			99,129.9 89.9,130.3 80.8,130.5 71.6,130.6 19.6,139.9 31.1,139.8 42.5,139.5 53.9,139.1 65.1,138.6 76.2,137.9 87.1,137 
			97.9,135.9 108.5,134.6 118.9,133.1 129.1,131.4 139.1,129.4 148.7,127.2 174.9,120.4 		"/>
		<g>
			<defs>
				<rect id="SVGID_3_" x="6.2" y="-4.7" width="356" height="247.7"/>
			</defs>
			<clipPath id="SVGID_4_">
				<use xlink:href="#SVGID_3_"  style="overflow:visible;"/>
			</clipPath>
			<g class="st3">
				<path class="st4" d="M19.6,139.9c120.9,20.1,254.9-19.2,239.1-126C256.7,118,142.5,139.2,19.6,139.9"/>
				<path class="st4" d="M244.1,104.8c5.4,0,9.8,4.4,9.8,9.8c0,5.4-4.4,9.8-9.8,9.8s-9.8-4.4-9.8-9.8
					C234.3,109.2,238.7,104.8,244.1,104.8L244.1,104.8"/>
				<polygon class="st4" points="251,89.7 267.2,98.2 268.6,99.9 270,101.5 271.4,103 272.9,104.4 274.4,105.7 275.9,106.9 
					277.5,108.1 279.1,109.1 280.8,110.1 282.5,111 284.3,111.8 272.3,106.7 270.1,105.7 267.9,104.6 265.8,103.3 263.8,102 
					261.8,100.6 259.9,99 258,97.4 256.2,95.6 254.4,93.8 252.7,91.8 				"/>
				<polygon class="st4" points="341,112.5 339.2,116.5 335.7,117.4 332.3,118.3 328.8,119 325.4,119.6 322,120.1 318.7,120.4 
					315.5,120.7 312.2,120.8 309.1,120.8 306,120.8 303,120.6 300.1,120.3 297.2,120 294.5,119.5 291.8,119 289.3,118.3 
					286.8,117.6 275.4,113.9 278.5,114.8 281.7,115.6 285,116.3 288.4,116.9 292,117.4 295.6,117.7 299.4,117.9 303.3,118 
					307.2,117.9 311.2,117.8 315.3,117.4 319.5,117 323.7,116.4 328,115.7 332.2,114.8 336.6,113.7 				"/>
				<path class="st4" d="M251,89.7c17.8,23,42.1,25.3,90,22.8C294.3,126.2,251.1,112.7,251,89.7"/>
				<polygon class="st4" points="274.6,121.2 264.7,133.8 261.7,135.4 259,137.1 256.7,139 254.6,141 252.8,143.1 251.2,145.3 
					257.9,135.5 259.8,132.8 262.1,130.2 264.7,127.7 267.6,125.4 271,123.2 				"/>
				<polygon class="st4" points="302.4,232.4 286.9,222.9 281.2,218.8 275.9,214.6 271.1,210.4 266.7,206.2 262.7,202.1 
					259.1,197.9 255.8,193.9 252.9,189.8 250.4,185.9 248.2,181.9 246.4,178.1 244.8,174.4 243.6,170.8 242.7,167.2 242.1,163.8 
					241.7,160.6 241.6,157.5 241.8,154.5 242.2,151.7 242.8,149.1 243.7,146.6 244.8,144.4 249.8,134.2 248.4,137 247.4,140 
					246.6,143.3 246,146.8 245.8,150.5 245.9,154.4 246.4,158.5 247.2,162.8 248.3,167.2 249.9,171.7 251.8,176.4 254.1,181.1 
					256.8,186 260,191 263.6,196 267.6,201.1 272.2,206.3 277.2,211.5 282.7,216.7 288.7,221.9 295.3,227.2 				"/>
				<path class="st4" d="M274.6,122.2c-41.3,20.9-19.3,68.7,27.7,110.2C223.8,176.9,239.7,116.8,274.6,122.2"/>
				<polygon class="st4" points="202.8,122.4 212.2,131.1 216.7,132 220.6,133.1 223.9,134.4 226.5,135.8 228.5,137.5 230,139.3 
					225.1,132.7 223.2,130.4 220.7,128.4 217.4,126.6 213.3,125 208.5,123.6 				"/>
				<polygon class="st4" points="128.2,228.3 152.5,215.8 159.1,212.3 165.6,208.8 171.9,205.1 178.1,201.4 184.1,197.6 
					189.8,193.8 195.4,189.9 200.8,186 205.8,182.1 210.6,178.2 215.1,174.4 219.3,170.6 223.1,166.9 226.6,163.3 229.8,159.8 
					232.5,156.4 234.8,153.1 236.6,150 238,147 239,144.2 239.4,141.7 239.3,139.4 238.7,137.3 235.9,130.2 236.7,132.8 
					236.8,135.7 236.3,138.9 235.1,142.4 233.3,146 231,149.9 228.1,154 224.7,158.3 220.9,162.7 216.5,167.2 211.7,171.9 
					206.4,176.6 200.8,181.4 194.8,186.2 188.5,191.1 181.8,196 174.9,200.8 167.6,205.6 160.1,210.4 152.4,215 144.5,219.6 
					136.4,224 				"/>
				<path class="st4" d="M202.8,122.4c65.2,10.8-16.2,63.9-82.9,109.9C209.5,189.5,282.2,114.3,202.8,122.4"/>
				<path class="st4" d="M231,62.4c0.1-0.2,0.3-0.8,0.6-1.8c0.2-0.6,0.5-1.2,0.8-1.7c1.2-1.7,2.7-1.8,4.3-0.3c0.7,0.7,1.4,1.5,2,2.4
					c0.6,0.8,1.2,1.7,1.8,2.6c0.7,1.1,0.9,1.8,0.7,2.1l-0.5,0.7c-0.5,0.6-0.9,1.3-1.3,2h-0.2l-2.1-4.1c-0.6-1.3-1.5-2.6-2.5-3.7
					c-0.3-0.3-0.7-0.4-1.1-0.1c-0.1,0.1-0.1,0.1-0.2,0.2c-0.8,1-1.1,2.3-0.6,3.6c0.5,1.2,1.2,2.2,2.1,3.1c1,1.1,2,2,2.8,2.9
					c-0.1,0.3-0.3,0.6-0.5,0.9l-0.2,0.3l-0.2,0.3l-0.8,1.1l-0.4,0.4l-0.2-0.1c-2.5-2.5-4.7-5.3-6.4-8.4c-0.9-1.2-1.6-2.6-2-4
					l0.9-1.2c0.3-0.4,0.6-0.8,1-1.1h0.2C229.3,59.9,230,61.2,231,62.4 M227.6,67.4c0.2,0.4,0.3,0.8,0.2,1.2c0,0.4-0.1,0.9-0.3,1.3
					c-0.8-0.4-1.8-0.1-2.3,0.6c-0.8,0.8-1.1,1.9-1,3c0.1,1.1,0.5,2.2,1.2,3c0.4,0.6,1.1,0.9,1.8,0.8c0.7-0.1,1.3-0.5,1.8-1
					c1-1,1.5-2.4,1.3-3.8h0.2l0.3,0.3c0.8,0.9,1.1,2.3,0.6,3.4c-0.3,1.2-1,2.3-1.9,3.2c-0.8,0.9-1.8,1.5-3,1.7
					c-1.2,0.1-2.4-0.4-3.1-1.4c-1.4-1.6-2.1-3.6-1.8-5.7c0.2-2.1,1-4,2.5-5.5c0.5-0.5,1-0.9,1.6-1.2
					C226.6,66.9,227.2,66.9,227.6,67.4 M223.6,82.8c0.2,0.4,0.2,0.9,0,1.3c-0.2,0.4-0.4,0.8-0.8,1.2c-0.3,0.3-0.6,0.4-1,0.5
					c-0.4,0.1-0.8,0-1-0.4c-0.3-0.4-0.3-0.9-0.1-1.4c0.1-0.5,0.4-0.9,0.8-1.2C222.3,82.2,222.9,82.1,223.6,82.8 M212.8,76.1
					c0.2,0.4,0.2,0.9,0,1.2c-0.2,0.4-0.5,0.7-0.8,1c-0.3,0.2-0.6,0.4-1,0.5c-0.5,0.1-0.8,0-1-0.3c-0.2-0.4-0.2-0.9,0-1.3
					c0.2-0.4,0.5-0.7,0.9-1c0.3-0.2,0.6-0.4,1-0.4C212.2,75.7,212.6,75.8,212.8,76.1 M213.4,79.1c0.7,2.2,1.6,4.3,2.8,6.2
					c0.5,0.9,1.2,2.1,2.1,3.5c0,0.2-0.1,0.3-0.2,0.4c-0.8,0.6-1.7,1.2-2.7,1.9c-0.2-0.1-0.4-0.3-0.5-0.5c-1.4-2.4-2.4-5-3.2-7.6
					c-0.5-1.6-0.7-2.4-0.4-2.6s0.6-0.4,1.1-0.7c0.3-0.2,0.7-0.4,1.1-0.5 M207.8,83c0.2-0.1,0.4-0.2,0.6-0.2l0.2,0.1l0.3,1.8
					l-1.7,0.8c-0.2,1,0,2.1,0.4,3c0.3,1,0.8,2,1.3,2.9c0.3,0.6,0.7,1.1,1.1,1.6l0.8,0.9c-0.8,0.9-1.8,1.7-2.8,2.3
					c-0.2-0.1-0.5-0.4-0.8-0.9l-0.1-0.2c-0.6-1.2-1.2-2.5-1.6-3.8l-1.3-3.9l-0.1-0.1c-0.4,0.4-0.9,0.8-1.4,1.2l-0.1-0.1l-0.1-0.1
					c-0.1-0.2-0.2-0.4-0.3-0.7c0,0-0.1-0.3-0.2-0.7c0.2-0.3,0.5-0.5,0.9-0.7l0.4-0.3l0.4-0.3l0.1-0.1c0-0.4,0-1-0.1-1.8
					c0.4-0.7,0.9-1.3,1.5-1.8c0.4-0.3,0.7-0.7,0.9-1.1l0.1,0.2c0.1,0.3,0.2,0.6,0.1,0.9c0,0.6,0.1,1.3,0.2,1.9
					c0.1-0.1,0.3-0.2,0.6-0.4C207.4,83.3,207.6,83.1,207.8,83 M198.7,84.4l0.4-0.2l0.2,0.1c0.3,4.2,1.4,8.2,3.2,12
					c0.4,0.8,0.8,1.5,1.2,2.2l-0.2,0.3c-0.4,0.2-1,0.5-1.8,1l-1.1,0.6l-0.4-0.5c-1.4-3.2-2.4-6.6-3-10c-0.4-1.4-0.6-2.9-0.6-4.3
					L198.7,84.4z M192.9,95.3c-0.1-0.3-0.4-0.5-0.9-0.5c-0.4-0.1-0.8,0-1.1,0.1c-0.8,0.3-1.4,0.9-1.8,1.7c-0.4,0.8-0.5,1.6-0.4,2.5
					h0.2c0.8-0.5,1.6-1.1,2.3-1.8C192.4,96.2,192.9,95.5,192.9,95.3 M195.3,93.5c0.3,1.2,0.1,2.5-0.6,3.6c-0.6,1.1-1.4,2-2.3,2.9
					c-0.8,0.8-1.7,1.5-2.7,2v0.3c0.2,0.3,0.6,0.4,1.3,0.4c0.5,0,1-0.1,1.5-0.3c1-0.5,1.9-1.3,2.4-2.2c0.2-0.3,0.5-0.9,1-1.9l0.3,0.4
					c0.1,0.1,0.2,0.3,0.3,0.5c0.4,1,0.1,2.2-0.9,3.4c-0.8,1-1.8,1.7-2.9,2.2c-1.1,0.6-2.3,0.8-3.6,0.6c-1.3-0.3-2.2-1.3-2.6-2.5
					c-1.5-3.9,0.3-8.2,4-10c0.8-0.4,1.7-0.6,2.7-0.7C194.1,92,195,92.6,195.3,93.5 M178.3,106.8c0.2,0.6,0.7,0.8,1.5,0.7
					c0.6-0.1,1.2-0.3,1.8-0.6c0.4-0.2,0.6-0.4,0.6-0.6l-0.6-1.8c0-0.1-0.1-0.3-0.1-0.4c0-0.1-0.1-0.3-0.1-0.4c0-0.1-0.1-0.2-0.3-0.2
					c0,0-0.1,0-0.1,0c-0.7,0.3-1.4,0.7-2,1.2C178.3,105.4,178.1,106,178.3,106.8 M178.4,100.2c-1.1,0.4-1.9,1.3-2.1,2.5
					c-0.7,0-1.3-0.3-1.7-0.8c0-0.9,0.4-1.8,1.1-2.3c0.6-0.6,1.4-1.1,2.2-1.4c2.9-1.2,4.8-0.8,5.6,1.4c0.6,1.6,1,3.3,1.4,5l0.5,2.7
					c-0.5,0.5-1.1,0.9-1.8,1.1l-0.5,0.2l-0.5,0.2c-4.1,1.7-6.5,1.7-7.1-0.1c-0.5-1.2-0.3-2.6,0.4-3.7c0.8-0.9,1.7-1.6,2.7-2.3
					c1.2-0.8,1.8-1.5,2-2c-0.2-0.4-0.6-0.7-1-0.7C179.3,99.9,178.9,99.9,178.4,100.2 M165.1,106.1c0.1,0.5,0.4,0.9,0.9,1.1
					c0.4,0.2,0.9,0.2,1.4,0.1c0.6-0.2,1.2-0.7,1.5-1.2c0.4-0.6,0.5-1.3,0.3-1.9c-0.3-1.2-1-1.6-2.1-1.3c-0.7,0.2-1.2,0.7-1.6,1.2
					C165,104.7,164.9,105.4,165.1,106.1 M171.7,99.8c-0.1,0.4-0.4,0.7-0.6,1l-0.8,0.9c0.6,0.5,1.1,1.1,1.3,1.8
					c0.4,1,0.3,2.1-0.2,3.1c-0.5,0.8-1.2,1.4-2,1.8l-2.6,1.3c-0.5,0.3-0.9,0.7-1.3,1.2c-0.6,0.7-0.8,1.2-0.7,1.5
					c0.1,0.2,0.3,0.3,0.5,0.3c0.2,0,0.4-0.1,0.6-0.1c0.8-0.3,1.5-0.7,2.1-1.2c1-0.9,2.2-1.7,3.4-2.3c0.3-0.1,0.6-0.1,0.9,0
					c0.3,0,0.6,0.3,0.6,0.6c0,0.6-0.1,1.2-0.3,1.7c-0.3,0.8-0.6,1.3-0.9,1.4c-0.6-0.3-1.3-0.4-1.9-0.3c-0.9,0.4-1.8,0.9-2.6,1.5
					c-0.5,0.3-1,0.6-1.6,0.8c-0.6,0.2-1.3,0.3-1.9,0.2c-0.7,0-1.3-0.5-1.4-1.2c-0.2-1,0.1-2,0.9-2.7l1.2-1.2l-0.8-0.6
					c-0.5-0.4-0.8-0.9-1-1.5c-0.6-2.1,0.3-3.8,2.8-5c0.9-0.4,1.9-0.8,2.9-1.1c0.9-0.7,1.6-1.6,2.3-2.5
					C170.9,99.1,171.4,99.4,171.7,99.8 M155.1,115.4c0.5-0.1,0.9-0.3,1.3-0.6c0.4-0.3,0.7-0.8,0.6-1.3c-0.1-0.4-0.7-0.7-1.7-0.9
					c-1.8-0.3-2.8-0.5-2.9-0.5c-0.9-0.2-1.7-0.8-1.9-1.8c-0.3-1.2,0.2-2.5,1.2-3.3c0.9-0.8,2-1.4,3.2-1.7c0.8-0.2,1.6-0.3,2.3-0.2
					c0.8,0,1.6,0.3,2.1,0.8c-0.2,0.6-0.5,1.2-1.1,1.6c-0.9-0.9-2.3-1.3-3.6-1.1c-0.4,0.1-0.8,0.4-1.1,0.7c-0.4,0.3-0.5,0.8-0.5,1.2
					c0.1,0.5,0.7,0.9,1.8,1.1l3,0.6c1,0.2,1.7,0.9,2,1.9c0.3,1.4-0.3,2.8-1.4,3.6c-1,0.9-2.2,1.5-3.5,1.8c-0.9,0.3-1.9,0.3-2.9,0.1
					c-1-0.2-1.8-1-2-2c-0.1-0.8,0-1.5,0.2-2.3c0.5,0.8,1.2,1.4,2.1,1.8C153.2,115.5,154.2,115.6,155.1,115.4 M143.8,119
					c-0.1,0.1-0.6,0.4-1.3,0.9c-0.4,0.3-0.9,0.6-1.4,0.7c-1.9,0.4-3.1-0.5-3.5-2.8c-0.1-1-0.2-2.1-0.1-3.1c0-1.3,0.1-2.3,0.2-3.2
					c0.1-1.3,0.3-2,0.6-2l2.2-0.5c0.2-0.1,0.5-0.1,0.7-0.1c-0.8,2.5-1,5.2-0.6,7.8c0.3,1.6,1,2.3,1.9,2.1c1.7-0.4,2.4-2.1,2.1-5.2
					c-0.1-1.2-0.3-2.4-0.5-3.5l-0.1-0.4l-0.1-0.6l-0.1-0.6l0.1-0.2l0.3-0.1l2.4-0.6c0.2,0.4,0.3,0.8,0.4,1.2
					c0.1,0.7,0.3,1.8,0.4,3.3c0.2,1.6,0.2,3.1,0.2,4.7c0,1.6-0.3,2.5-0.6,2.5c-0.5,0.1-1,0.2-1.6,0.2
					C144.8,119.4,144.3,119.3,143.8,119 M129.3,110.8l0.2,0.2l0.1,0.6c0,0.3,0.1,0.6,0.2,0.9l0.2,0.1c0.5-0.5,1-0.9,1.6-1.4
					c0.5-0.5,1.1-0.8,1.7-1c0.2,0,0.5,0,0.6,0.2c0.2,0.2,0.3,0.5,0.3,0.7c0.1,0.5,0,1.1-0.3,1.6c-0.2,0.5-0.6,0.9-1.1,1
					c-0.1-0.2-0.3-0.5-0.4-0.7c-0.3-0.3-0.7-0.4-1.1-0.3c-1.4,0.2-2.1,1.7-2.1,4.4c0,0.9,0.1,1.7,0.2,2.6c0.1,0.8,0.3,1.6,0.5,2.3
					l-0.3,0.2l-1.1,0.2l-0.9,0.2c-0.4,0.1-0.8,0.1-1.3,0.1c-0.1-0.3-0.1-0.5-0.2-0.6c-0.3-2.7-0.3-5.3-0.1-8c0-1,0.2-2,0.5-3
					l0.8-0.1l0.8-0.1C128.7,111,129,110.9,129.3,110.8 M120.6,115.3c0-0.3-0.3-0.6-0.8-0.8c-0.3-0.2-0.7-0.2-1.1-0.2
					c-0.8,0.1-1.5,0.5-2.1,1.1c-0.6,0.6-0.9,1.4-1,2.3l0.2,0.1c0.9-0.3,1.8-0.6,2.7-1.1C119.9,116,120.6,115.6,120.6,115.3
					 M123.4,114.3c0,1.3-0.5,2.5-1.5,3.2c-0.9,0.8-1.9,1.6-2.9,2.1c-0.9,0.6-2,0.9-3.1,1.2l-0.1,0.3c0.1,0.3,0.5,0.6,1.2,0.8
					c0.5,0.1,1,0.2,1.5,0.1c1.1-0.2,2.1-0.7,2.9-1.5c0.2-0.2,0.7-0.7,1.4-1.5c0.1,0.2,0.2,0.3,0.2,0.5c0.1,0.2,0.1,0.3,0.2,0.5
					c0.1,1.1-0.4,2.1-1.7,3c-1,0.7-2.1,1.2-3.3,1.3c-1.2,0.3-2.5,0.1-3.6-0.5c-1.1-0.7-1.9-1.8-1.9-3.1c-0.3-2,0.2-4,1.5-5.6
					c1.1-1.6,2.9-2.6,4.8-2.9c0.9-0.2,1.8-0.1,2.7,0.1C122.6,112.5,123.3,113.3,123.4,114.3 M104.1,115c0.2-0.1,0.8-0.3,1.6-0.8
					c0.5-0.3,1.1-0.5,1.7-0.6c2-0.2,3,0.8,3.3,3.1c0.1,1.1,0,2.1-0.1,3.2c-0.1,1.1-0.2,2.1-0.4,3.2c-0.3,1.3-0.5,2-0.9,2l-0.8,0.1
					c-0.8,0.1-1.5,0.2-2.2,0.4l-0.2-0.1l1.2-4.5c0.4-1.5,0.6-3,0.6-4.5c-0.1-0.7-0.4-1-1-0.8c-1.2,0.1-2.3,0.9-2.8,2
					c-0.4,1.2-0.6,2.5-0.5,3.8c0,1.5,0,3,0.1,4.2c-0.3,0.1-0.6,0.2-0.9,0.2h-0.4H102l-1.3,0.2h-0.5l-0.1-0.2
					c-0.1-3.6,0.2-7.2,1-10.8c0.2-1.5,0.6-3,1.2-4.3l1.4-0.2c0.5-0.1,0.9-0.1,1.4-0.1l0.1,0.2C104.5,112,104.1,113.5,104.1,115
					 M97.4,116.2c0,0.4-0.2,0.8-0.5,1.1c-0.3,0.3-0.6,0.6-1,0.8c-0.4-0.8-1.3-1.2-2.1-1.1c-1.1,0.1-2,0.7-2.5,1.7
					c-0.6,0.9-0.9,2.1-0.8,3.2c0,0.7,0.4,1.4,1,1.8c0.6,0.4,1.3,0.5,2,0.4c1.3-0.1,2.5-0.9,3.1-2.1l0.2,0.2l0.1,0.5
					c0.1,1.2-0.5,2.4-1.5,3.1c-1,0.7-2.1,1.1-3.3,1.2c-1.2,0.2-2.4-0.1-3.3-0.7c-1-0.8-1.6-1.9-1.6-3.2c-0.2-2.1,0.5-4.1,1.9-5.6
					c1.3-1.5,3.1-2.4,5.1-2.6c0.7-0.1,1.3,0,1.9,0.1C96.9,115.2,97.3,115.6,97.4,116.2"/>
			</g>
		</g>
		<path class="st0" d="M24.4,142.7c-1.1-0.4-18.4-2.5-18.4-2.5l18.6-3.2L24.4,142.7z"/>
		<polygon class="st0" points="256.6,16.9 260.8,13.9 257,3 		"/>
		<polygon class="st0" points="338,110.7 343.8,109.9 340.6,118.1 		"/>
		<polygon class="st0" points="298.5,232.4 303.8,234.1 303.7,230.9 		"/>
		<polygon class="st0" points="118.7,230.7 116.9,234.4 124.4,232.4 		"/>
		<g>
			<defs>
				<rect id="SVGID_5_" x="19.6" y="13.9" width="321.3" height="218.5"/>
			</defs>
			<clipPath id="SVGID_6_">
				<use xlink:href="#SVGID_5_"  style="overflow:visible;"/>
			</clipPath>
			<g class="st5">
				<polygon class="st6" points="258.7,13.9 259.7,23.7 259.9,33.1 259.3,42.2 257.9,50.8 255.8,59 252.9,66.9 249.3,74.4 245,81.5 
					240.1,88.2 234.6,94.5 228.5,100.4 221.9,106 214.7,111.2 207.1,116 199,120.4 190.4,124.5 181.5,128.2 172.2,131.5 
					193.7,123.8 201.1,121.2 208.3,118.2 215.1,115 221.6,111.4 227.7,107.6 233.4,103.4 238.8,99 243.6,94.2 248,89.2 251.9,83.8 
					255.4,78.2 258.2,72.2 260.5,65.9 262.3,59.3 263.4,52.4 263.9,45.1 263.7,37.6 262.9,29.8 				"/>
				<polygon class="st6" points="167.2,122.2 159.2,123.7 151.1,125.1 142.8,126.3 134.3,127.3 125.6,128.2 116.9,128.9 108,129.5 
					99,129.9 89.9,130.3 80.8,130.5 71.6,130.6 19.6,139.9 31.1,139.8 42.5,139.5 53.9,139.1 65.1,138.6 76.2,137.9 87.1,137 
					97.9,135.9 108.5,134.6 118.9,133.1 129.1,131.4 139.1,129.4 148.7,127.2 174.9,120.4 				"/>
				<g>
					<defs>
						<rect id="SVGID_7_" x="19.6" y="13.9" width="321.3" height="218.5"/>
					</defs>
					<clipPath id="SVGID_8_">
						<use xlink:href="#SVGID_7_"  style="overflow:visible;"/>
					</clipPath>
					<g class="st7">
						<path class="st8" d="M19.6,139.9c120.9,20.1,254.9-19.2,239.1-126C256.7,118,142.5,139.2,19.6,139.9"/>
						<path class="st8" d="M244.1,104.8c5.4,0,9.8,4.4,9.8,9.8c0,5.4-4.4,9.8-9.8,9.8s-9.8-4.4-9.8-9.8
							C234.3,109.2,238.7,104.8,244.1,104.8L244.1,104.8"/>
						<polygon class="st6" points="251,89.7 267.2,98.2 268.6,99.9 270,101.5 271.4,103 272.9,104.4 274.4,105.7 275.9,106.9 
							277.5,108.1 279.1,109.1 280.8,110.1 282.5,111 284.3,111.8 272.3,106.7 270.1,105.7 267.9,104.6 265.8,103.3 263.8,102 
							261.8,100.6 259.9,99 258,97.4 256.2,95.6 254.4,93.8 252.7,91.8 						"/>
						<polygon class="st6" points="341,112.5 339.2,116.5 335.7,117.4 332.3,118.3 328.8,119 325.4,119.6 322,120.1 318.7,120.4 
							315.5,120.7 312.2,120.8 309.1,120.8 306,120.8 303,120.6 300.1,120.3 297.2,120 294.5,119.5 291.8,119 289.3,118.3 
							286.8,117.6 275.4,113.9 278.5,114.8 281.7,115.6 285,116.3 288.4,116.9 292,117.4 295.6,117.7 299.4,117.9 303.3,118 
							307.2,117.9 311.2,117.8 315.3,117.4 319.5,117 323.7,116.4 328,115.7 332.2,114.8 336.6,113.7 						"/>
						<path class="st8" d="M251,89.7c17.8,23,42.1,25.3,90,22.8C294.3,126.2,251.1,112.7,251,89.7"/>
						<polygon class="st6" points="274.6,122.2 264.7,134.8 261.7,136.4 259,138.1 256.7,140 254.6,142 252.8,144.1 251.2,146.3 
							257.9,136.5 259.8,133.8 262.1,131.2 264.7,128.7 267.6,126.4 271,124.2 						"/>
						<polygon class="st6" points="302.4,232.4 286.9,222.9 281.2,218.8 275.9,214.6 271.1,210.4 266.7,206.2 262.7,202.1 
							259.1,197.9 255.8,193.9 252.9,189.8 250.4,185.9 248.2,181.9 246.4,178.1 244.8,174.4 243.6,170.8 242.7,167.2 242.1,163.8 
							241.7,160.6 241.6,157.5 241.8,154.5 242.2,151.7 242.8,149.1 243.7,146.6 244.8,144.4 249.8,134.2 248.4,137 247.4,140 
							246.6,143.3 246,146.8 245.8,150.5 245.9,154.4 246.4,158.5 247.2,162.8 248.3,167.2 249.9,171.7 251.8,176.4 254.1,181.1 
							256.8,186 260,191 263.6,196 267.6,201.1 272.2,206.3 277.2,211.5 282.7,216.7 288.7,221.9 295.3,227.2 						"/>
						<path class="st8" d="M274.6,122.2c-41.3,20.9-19.3,68.7,27.7,110.2C223.8,176.9,239.7,116.8,274.6,122.2"/>
						<polygon class="st6" points="202.8,122.4 212.2,131.1 216.7,132 220.6,133.1 223.9,134.4 226.5,135.8 228.5,137.5 230,139.3 
							225.1,132.7 223.2,130.4 220.7,128.4 217.4,126.6 213.3,125 208.5,123.6 						"/>
						<polygon class="st6" points="128.2,228.3 152.5,215.8 159.1,212.3 165.6,208.8 171.9,205.1 178.1,201.4 184.1,197.6 
							189.8,193.8 195.4,189.9 200.8,186 205.8,182.1 210.6,178.2 215.1,174.4 219.3,170.6 223.1,166.9 226.6,163.3 229.8,159.8 
							232.5,156.4 234.8,153.1 236.6,150 238,147 239,144.2 239.4,141.7 239.3,139.4 238.7,137.3 235.9,130.2 236.7,132.8 
							236.8,135.7 236.3,138.9 235.1,142.4 233.3,146 231,149.9 228.1,154 224.7,158.3 220.9,162.7 216.5,167.2 211.7,171.9 
							206.4,176.6 200.8,181.4 194.8,186.2 188.5,191.1 181.8,196 174.9,200.8 167.6,205.6 160.1,210.4 152.4,215 144.5,219.6 
							136.4,224 						"/>
						<path class="st8" d="M202.8,122.4c65.2,10.8-16.2,63.9-82.9,109.9C209.5,189.5,282.2,114.3,202.8,122.4"/>
						<path class="st8" d="M231,62.4c0.1-0.2,0.3-0.8,0.6-1.8c0.2-0.6,0.5-1.2,0.8-1.7c1.2-1.7,2.7-1.8,4.3-0.3
							c0.7,0.7,1.4,1.5,2,2.4c0.6,0.8,1.2,1.7,1.8,2.6c0.7,1.1,0.9,1.8,0.7,2.1l-0.5,0.7c-0.5,0.6-0.9,1.3-1.3,2h-0.2l-2.1-4.1
							c-0.6-1.3-1.5-2.6-2.5-3.7c-0.3-0.3-0.7-0.4-1.1-0.1c-0.1,0.1-0.1,0.1-0.2,0.2c-0.8,1-1.1,2.3-0.6,3.6
							c0.5,1.2,1.2,2.2,2.1,3.1c1,1.1,2,2,2.8,2.9c-0.1,0.3-0.3,0.6-0.5,0.9l-0.2,0.3l-0.2,0.3l-0.8,1.1l-0.4,0.4l-0.2-0.1
							c-2.5-2.5-4.7-5.3-6.4-8.4c-0.9-1.2-1.6-2.6-2-4l0.9-1.2c0.3-0.4,0.6-0.8,1-1.1h0.2C229.3,59.9,230,61.2,231,62.4 M227.6,67.4
							c0.2,0.4,0.3,0.8,0.2,1.2c0,0.4-0.1,0.9-0.3,1.3c-0.8-0.4-1.8-0.1-2.3,0.6c-0.8,0.8-1.1,1.9-1,3c0.1,1.1,0.5,2.2,1.2,3
							c0.4,0.6,1.1,0.9,1.8,0.8c0.7-0.1,1.3-0.5,1.8-1c1-1,1.5-2.4,1.3-3.8h0.2l0.3,0.3c0.8,0.9,1.1,2.3,0.6,3.4
							c-0.3,1.2-1,2.3-1.9,3.2c-0.8,0.9-1.8,1.5-3,1.7c-1.2,0.1-2.4-0.4-3.1-1.4c-1.4-1.6-2.1-3.6-1.8-5.7c0.2-2.1,1-4,2.5-5.5
							c0.5-0.5,1-0.9,1.6-1.2C226.6,66.9,227.2,66.9,227.6,67.4 M223.6,82.8c0.2,0.4,0.2,0.9,0,1.3c-0.2,0.4-0.4,0.8-0.8,1.2
							c-0.3,0.3-0.6,0.4-1,0.5c-0.4,0.1-0.8,0-1-0.4c-0.3-0.4-0.3-0.9-0.1-1.4c0.1-0.5,0.4-0.9,0.8-1.2
							C222.3,82.2,222.9,82.1,223.6,82.8 M212.8,76.1c0.2,0.4,0.2,0.9,0,1.2c-0.2,0.4-0.5,0.7-0.8,1c-0.3,0.2-0.6,0.4-1,0.5
							c-0.5,0.1-0.8,0-1-0.3c-0.2-0.4-0.2-0.9,0-1.3c0.2-0.4,0.5-0.7,0.9-1c0.3-0.2,0.6-0.4,1-0.4C212.2,75.7,212.6,75.8,212.8,76.1
							 M213.4,79.1c0.7,2.2,1.6,4.3,2.8,6.2c0.5,0.9,1.2,2.1,2.1,3.5c0,0.2-0.1,0.3-0.2,0.4c-0.8,0.6-1.7,1.2-2.7,1.9
							c-0.2-0.1-0.4-0.3-0.5-0.5c-1.4-2.4-2.4-5-3.2-7.6c-0.5-1.6-0.7-2.4-0.4-2.6s0.6-0.4,1.1-0.7c0.3-0.2,0.7-0.4,1.1-0.5
							 M207.8,83c0.2-0.1,0.4-0.2,0.6-0.2l0.2,0.1l0.3,1.8l-1.7,0.8c-0.2,1,0,2.1,0.4,3c0.3,1,0.8,2,1.3,2.9
							c0.3,0.6,0.7,1.1,1.1,1.6l0.8,0.9c-0.8,0.9-1.8,1.7-2.8,2.3c-0.2-0.1-0.5-0.4-0.8-0.9l-0.1-0.2c-0.6-1.2-1.2-2.5-1.6-3.8
							l-1.3-3.9l-0.1-0.1c-0.4,0.4-0.9,0.8-1.4,1.2l-0.1-0.1l-0.1-0.1c-0.1-0.2-0.2-0.4-0.3-0.7c0,0-0.1-0.3-0.2-0.7
							c0.2-0.3,0.5-0.5,0.9-0.7l0.4-0.3l0.4-0.3l0.1-0.1c0-0.4,0-1-0.1-1.8c0.4-0.7,0.9-1.3,1.5-1.8c0.4-0.3,0.7-0.7,0.9-1.1
							l0.1,0.2c0.1,0.3,0.2,0.6,0.1,0.9c0,0.6,0.1,1.3,0.2,1.9c0.1-0.1,0.3-0.2,0.6-0.4C207.4,83.3,207.6,83.1,207.8,83 M198.7,84.4
							l0.4-0.2l0.2,0.1c0.3,4.2,1.4,8.2,3.2,12c0.4,0.8,0.8,1.5,1.2,2.2l-0.2,0.3c-0.4,0.2-1,0.5-1.8,1l-1.1,0.6l-0.4-0.5
							c-1.4-3.2-2.4-6.6-3-10c-0.4-1.4-0.6-2.9-0.6-4.3L198.7,84.4z M192.9,95.3c-0.1-0.3-0.4-0.5-0.9-0.5c-0.4-0.1-0.8,0-1.1,0.1
							c-0.8,0.3-1.4,0.9-1.8,1.7c-0.4,0.8-0.5,1.6-0.4,2.5h0.2c0.8-0.5,1.6-1.1,2.3-1.8C192.4,96.2,192.9,95.5,192.9,95.3
							 M195.3,93.5c0.3,1.2,0.1,2.5-0.6,3.6c-0.6,1.1-1.4,2-2.3,2.9c-0.8,0.8-1.7,1.5-2.7,2v0.3c0.2,0.3,0.6,0.4,1.3,0.4
							c0.5,0,1-0.1,1.5-0.3c1-0.5,1.9-1.3,2.4-2.2c0.2-0.3,0.5-0.9,1-1.9l0.3,0.4c0.1,0.1,0.2,0.3,0.3,0.5c0.4,1,0.1,2.2-0.9,3.4
							c-0.8,1-1.8,1.7-2.9,2.2c-1.1,0.6-2.3,0.8-3.6,0.6c-1.3-0.3-2.2-1.3-2.6-2.5c-1.5-3.9,0.3-8.2,4-10c0.8-0.4,1.7-0.6,2.7-0.7
							C194.1,92,195,92.6,195.3,93.5 M178.3,106.8c0.2,0.6,0.7,0.8,1.5,0.7c0.6-0.1,1.2-0.3,1.8-0.6c0.4-0.2,0.6-0.4,0.6-0.6
							l-0.6-1.8c0-0.1-0.1-0.3-0.1-0.4c0-0.1-0.1-0.3-0.1-0.4c0-0.1-0.1-0.2-0.3-0.2c0,0-0.1,0-0.1,0c-0.7,0.3-1.4,0.7-2,1.2
							C178.3,105.4,178.1,106,178.3,106.8 M178.4,100.2c-1.1,0.4-1.9,1.3-2.1,2.5c-0.7,0-1.3-0.3-1.7-0.8c0-0.9,0.4-1.8,1.1-2.3
							c0.6-0.6,1.4-1.1,2.2-1.4c2.9-1.2,4.8-0.8,5.6,1.4c0.6,1.6,1,3.3,1.4,5l0.5,2.7c-0.5,0.5-1.1,0.9-1.8,1.1l-0.5,0.2l-0.5,0.2
							c-4.1,1.7-6.5,1.7-7.1-0.1c-0.5-1.2-0.3-2.6,0.4-3.7c0.8-0.9,1.7-1.6,2.7-2.3c1.2-0.8,1.8-1.5,2-2c-0.2-0.4-0.6-0.7-1-0.7
							C179.3,99.9,178.9,99.9,178.4,100.2 M165.1,106.1c0.1,0.5,0.4,0.9,0.9,1.1c0.4,0.2,0.9,0.2,1.4,0.1c0.6-0.2,1.2-0.7,1.5-1.2
							c0.4-0.6,0.5-1.3,0.3-1.9c-0.3-1.2-1-1.6-2.1-1.3c-0.7,0.2-1.2,0.7-1.6,1.2C165,104.7,164.9,105.4,165.1,106.1 M171.7,99.8
							c-0.1,0.4-0.4,0.7-0.6,1l-0.8,0.9c0.6,0.5,1.1,1.1,1.3,1.8c0.4,1,0.3,2.1-0.2,3.1c-0.5,0.8-1.2,1.4-2,1.8l-2.6,1.3
							c-0.5,0.3-0.9,0.7-1.3,1.2c-0.6,0.7-0.8,1.2-0.7,1.5c0.1,0.2,0.3,0.3,0.5,0.3c0.2,0,0.4-0.1,0.6-0.1c0.8-0.3,1.5-0.7,2.1-1.2
							c1-0.9,2.2-1.7,3.4-2.3c0.3-0.1,0.6-0.1,0.9,0c0.3,0,0.6,0.3,0.6,0.6c0,0.6-0.1,1.2-0.3,1.7c-0.3,0.8-0.6,1.3-0.9,1.4
							c-0.6-0.3-1.3-0.4-1.9-0.3c-0.9,0.4-1.8,0.9-2.6,1.5c-0.5,0.3-1,0.6-1.6,0.8c-0.6,0.2-1.3,0.3-1.9,0.2c-0.7,0-1.3-0.5-1.4-1.2
							c-0.2-1,0.1-2,0.9-2.7l1.2-1.2l-0.8-0.6c-0.5-0.4-0.8-0.9-1-1.5c-0.6-2.1,0.3-3.8,2.8-5c0.9-0.4,1.9-0.8,2.9-1.1
							c0.9-0.7,1.6-1.6,2.3-2.5C170.9,99.1,171.4,99.4,171.7,99.8 M155.1,115.4c0.5-0.1,0.9-0.3,1.3-0.6c0.4-0.3,0.7-0.8,0.6-1.3
							c-0.1-0.4-0.7-0.7-1.7-0.9c-1.8-0.3-2.8-0.5-2.9-0.5c-0.9-0.2-1.7-0.8-1.9-1.8c-0.3-1.2,0.2-2.5,1.2-3.3
							c0.9-0.8,2-1.4,3.2-1.7c0.8-0.2,1.6-0.3,2.3-0.2c0.8,0,1.6,0.3,2.1,0.8c-0.2,0.6-0.5,1.2-1.1,1.6c-0.9-0.9-2.3-1.3-3.6-1.1
							c-0.4,0.1-0.8,0.4-1.1,0.7c-0.4,0.3-0.5,0.8-0.5,1.2c0.1,0.5,0.7,0.9,1.8,1.1l3,0.6c1,0.2,1.7,0.9,2,1.9
							c0.3,1.4-0.3,2.8-1.4,3.6c-1,0.9-2.2,1.5-3.5,1.8c-0.9,0.3-1.9,0.3-2.9,0.1c-1-0.2-1.8-1-2-2c-0.1-0.8,0-1.5,0.2-2.3
							c0.5,0.8,1.2,1.4,2.1,1.8C153.2,115.5,154.2,115.6,155.1,115.4 M143.8,119c-0.1,0.1-0.6,0.4-1.3,0.9c-0.4,0.3-0.9,0.6-1.4,0.7
							c-1.9,0.4-3.1-0.5-3.5-2.8c-0.1-1-0.2-2.1-0.1-3.1c0-1.3,0.1-2.3,0.2-3.2c0.1-1.3,0.3-2,0.6-2l2.2-0.5
							c0.2-0.1,0.5-0.1,0.7-0.1c-0.8,2.5-1,5.2-0.6,7.8c0.3,1.6,1,2.3,1.9,2.1c1.7-0.4,2.4-2.1,2.1-5.2c-0.1-1.2-0.3-2.4-0.5-3.5
							l-0.1-0.4l-0.1-0.6l-0.1-0.6l0.1-0.2l0.3-0.1l2.4-0.6c0.2,0.4,0.3,0.8,0.4,1.2c0.1,0.7,0.3,1.8,0.4,3.3
							c0.2,1.6,0.2,3.1,0.2,4.7c0,1.6-0.3,2.5-0.6,2.5c-0.5,0.1-1,0.2-1.6,0.2C144.8,119.4,144.3,119.3,143.8,119 M129.3,110.8
							l0.2,0.2l0.1,0.6c0,0.3,0.1,0.6,0.2,0.9l0.2,0.1c0.5-0.5,1-0.9,1.6-1.4c0.5-0.5,1.1-0.8,1.7-1c0.2,0,0.5,0,0.6,0.2
							c0.2,0.2,0.3,0.5,0.3,0.7c0.1,0.5,0,1.1-0.3,1.6c-0.2,0.5-0.6,0.9-1.1,1c-0.1-0.2-0.3-0.5-0.4-0.7c-0.3-0.3-0.7-0.4-1.1-0.3
							c-1.4,0.2-2.1,1.7-2.1,4.4c0,0.9,0.1,1.7,0.2,2.6c0.1,0.8,0.3,1.6,0.5,2.3l-0.3,0.2l-1.1,0.2l-0.9,0.2
							c-0.4,0.1-0.8,0.1-1.3,0.1c-0.1-0.3-0.1-0.5-0.2-0.6c-0.3-2.7-0.3-5.3-0.1-8c0-1,0.2-2,0.5-3l0.8-0.1l0.8-0.1
							C128.7,111,129,110.9,129.3,110.8 M120.6,115.3c0-0.3-0.3-0.6-0.8-0.8c-0.3-0.2-0.7-0.2-1.1-0.2c-0.8,0.1-1.5,0.5-2.1,1.1
							c-0.6,0.6-0.9,1.4-1,2.3l0.2,0.1c0.9-0.3,1.8-0.6,2.7-1.1C119.9,116,120.6,115.6,120.6,115.3 M123.4,114.3
							c0,1.3-0.5,2.5-1.5,3.2c-0.9,0.8-1.9,1.6-2.9,2.1c-0.9,0.6-2,0.9-3.1,1.2l-0.1,0.3c0.1,0.3,0.5,0.6,1.2,0.8
							c0.5,0.1,1,0.2,1.5,0.1c1.1-0.2,2.1-0.7,2.9-1.5c0.2-0.2,0.7-0.7,1.4-1.5c0.1,0.2,0.2,0.3,0.2,0.5c0.1,0.2,0.1,0.3,0.2,0.5
							c0.1,1.1-0.4,2.1-1.7,3c-1,0.7-2.1,1.2-3.3,1.3c-1.2,0.3-2.5,0.1-3.6-0.5c-1.1-0.7-1.9-1.8-1.9-3.1c-0.3-2,0.2-4,1.5-5.6
							c1.1-1.6,2.9-2.6,4.8-2.9c0.9-0.2,1.8-0.1,2.7,0.1C122.6,112.5,123.3,113.3,123.4,114.3 M104.1,115c0.2-0.1,0.8-0.3,1.6-0.8
							c0.5-0.3,1.1-0.5,1.7-0.6c2-0.2,3,0.8,3.3,3.1c0.1,1.1,0,2.1-0.1,3.2c-0.1,1.1-0.2,2.1-0.4,3.2c-0.3,1.3-0.5,2-0.9,2l-0.8,0.1
							c-0.8,0.1-1.5,0.2-2.2,0.4l-0.2-0.1l1.2-4.5c0.4-1.5,0.6-3,0.6-4.5c-0.1-0.7-0.4-1-1-0.8c-1.2,0.1-2.3,0.9-2.8,2
							c-0.4,1.2-0.6,2.5-0.5,3.8c0,1.5,0,3,0.1,4.2c-0.3,0.1-0.6,0.2-0.9,0.2h-0.4H102l-1.3,0.2h-0.5l-0.1-0.2
							c-0.1-3.6,0.2-7.2,1-10.8c0.2-1.5,0.6-3,1.2-4.3l1.4-0.2c0.5-0.1,0.9-0.1,1.4-0.1l0.1,0.2C104.5,112,104.1,113.5,104.1,115
							 M97.4,116.2c0,0.4-0.2,0.8-0.5,1.1c-0.3,0.3-0.6,0.6-1,0.8c-0.4-0.8-1.3-1.2-2.1-1.1c-1.1,0.1-2,0.7-2.5,1.7
							c-0.6,0.9-0.9,2.1-0.8,3.2c0,0.7,0.4,1.4,1,1.8c0.6,0.4,1.3,0.5,2,0.4c1.3-0.1,2.5-0.9,3.1-2.1l0.2,0.2l0.1,0.5
							c0.1,1.2-0.5,2.4-1.5,3.1c-1,0.7-2.1,1.1-3.3,1.2c-1.2,0.2-2.4-0.1-3.3-0.7c-1-0.8-1.6-1.9-1.6-3.2c-0.2-2.1,0.5-4.1,1.9-5.6
							c1.3-1.5,3.1-2.4,5.1-2.6c0.7-0.1,1.3,0,1.9,0.1C96.9,115.2,97.3,115.6,97.4,116.2"/>
					</g>
				</g>
				<path class="st9" d="M298.1,229.3"/>
				<path class="st0" d="M130.1,232.5"/>
			</g>
		</g>
	</g>
</g>
</svg>
