<?xml version="1.0" encoding="utf-8"?>
<!-- Generator: Adobe Illustrator 22.0.1, SVG Export Plug-In . SVG Version: 6.00 Build 0)  -->
<svg version="1.1" id="Layer_1" xmlns="http://www.w3.org/2000/svg" xmlns:xlink="http://www.w3.org/1999/xlink" x="0px" y="0px"
	 viewBox="0 0 841.9 595.3" style="enable-background:new 0 0 841.9 595.3;" xml:space="preserve">
<style type="text/css">
	.st0{opacity:0.2;}
	.st1{opacity:0.7;fill:#2D2E83;enable-background:new    ;}
	.st2{fill:#009FE3;}
	.st3{enable-background:new    ;}
	.st4{fill:#FFFFFF;}
	.st5{fill:none;stroke:#393186;stroke-width:15;stroke-miterlimit:10;}
	.st6{fill:none;stroke:#393186;stroke-width:16;stroke-miterlimit:10;}
	.st7{fill:none;stroke:#393186;stroke-width:0.75;stroke-miterlimit:10;}
	.st8{fill:#E94E1B;}
	.st9{fill:#CBBBA0;}
	.st10{fill:#EE7378;}
	.st11{fill:#1D1D1B;}
	.st12{fill:#A4D2B3;}
	.st13{clip-path:url(#SVGID_2_);}
	.st14{fill:#E62C35;}
	.st15{fill:#FDE7DF;}
	.st16{opacity:0.95;fill:#FFFFFF;enable-background:new    ;}
	.st17{fill:#F4F1B7;}
	.st18{opacity:0.7;fill:#2D2E82;}
	.st19{fill:#009EE2;}
	.st20{fill:none;}
	.st21{font-family:'Roboto-Regular';}
	.st22{font-size:9px;}
	.st23{fill:none;stroke:#383185;stroke-width:15;stroke-miterlimit:10;}
	.st24{fill:none;stroke:#383185;stroke-width:16;stroke-miterlimit:10;}
	.st25{font-family:'MyriadPro-Regular';}
	.st26{fill:#FFFFFF;stroke:#383185;stroke-width:0.75;stroke-miterlimit:10;}
	.st27{fill:#383185;}
	.st28{font-family:'MyriadPro-Bold';}
	.st29{font-size:10.2566px;}
	.st30{font-size:20px;}
	.st31{fill:#ED7278;}
	.st32{font-size:14px;}
	.st33{fill:#E84E1B;}
	.st34{font-size:12px;}
	.st35{fill:#CABA9F;}
	.st36{fill:#A4D2B2;}
	.st37{fill:#FFEC00;}
	.st38{fill:#E20613;}
	.st39{fill:#E61B72;}
</style>
<circle class="st18" cx="724.5" cy="324.9" r="47.9"/>
<g>
	<path class="st19" d="M134.5,186.5c14.7-5.1,28.8-10.8,42.5-17.4c13.6-6.6,26.9-13.9,40.2-21.5c13.2-7.6,26.4-15.5,39.7-23.2
		l10-5.8c3.4-1.9,6.7-3.8,10.2-5.7c3.5-1.9,7-3.7,10.6-5.4c3.5-1.7,7.1-3.4,10.8-5c14.4-6.4,29.4-11.4,44.4-16.1
		c15-4.6,30.1-8.9,45.2-13c7.6-2,15.2-3.9,22.9-5.5c7.8-1.5,15.6-3,24.1-2.7c2.1,0.1,4.3,0.3,6.7,0.9l0.9,0.2l0.9,0.3
		c0.6,0.2,1.2,0.5,1.8,0.7c0.6,0.2,1.2,0.7,1.8,1c0.6,0.4,1.2,0.8,1.8,1.4c1.2,1,2.1,2.4,2.9,3.9c0.3,0.8,0.6,1.5,0.8,2.3
		c0.1,0.4,0.2,0.8,0.2,1.2l0.1,1.1l0,0.6l0,0.4l0,0.7l0,1.5l0.1,2.9c0.2,7.9,0.5,15.7,0.3,23.6c-0.1,7.9-0.3,15.8-0.8,23.6
		c-0.2,3.9-0.5,7.9-0.8,11.8c-0.4,3.9-0.7,7.8-1.2,11.7c-1.8,15.6-4.6,31.1-7.4,46.3l-4.2,22.8c-1.4,7.5-2.6,15-3.6,22.1
		c-0.5,3.6-0.8,7.1-1,10.3c-0.1,0.8-0.1,1.6-0.1,2.3l0,1.1l0.1,1l0,1l0.1,0.8l0,0.4l0,0.2c0,0.1,0,0.1,0,0.3l0.2,1.3
		c1.2,7.2,2.7,14.1,4.6,20.7c1.9,6.6,4.4,12.7,7.6,18.1c3.1,5.5,7.2,10.3,12.1,14.9c5,4.6,10.8,9.1,17,13.8c3.1,2.3,6.2,4.7,9.3,7.2
		c1.6,1.2,3.1,2.5,4.7,3.7c1.5,1.3,3.1,2.6,4.6,3.9c1.5,1.3,3,2.6,4.5,4c1.5,1.3,3,2.7,4.4,4.1c1.5,1.4,2.9,2.9,4.4,4.3
		c1.5,1.4,2.8,3,4.2,4.5c5.5,6.1,10.4,12.5,14.8,19.2c8.9,13.4,15.6,27.9,20.8,42.6l-2.3,1.2c-9.2-12.6-18.5-24.8-29-35.5
		c-5.2-5.4-10.7-10.4-16.4-15.1c-2.8-2.3-5.7-4.5-8.7-6.7c-3-2.2-6.1-4.3-9.2-6.3c-6.2-4.1-12.6-8-19.3-12
		c-6.6-4.1-13.5-8.3-20.3-13.7c-6.8-5.4-13.4-12.1-18.4-19.8c-2.5-3.8-4.8-7.8-6.6-11.9c-0.5-1-0.9-2-1.3-3c-0.4-1-0.9-2-1.3-3.1
		c-0.7-2-1.5-4.1-2.2-6.1c-2.6-8.2-4.4-16.4-5.7-24.5l-0.2-1.5c0-0.1,0-0.3-0.1-0.5l-0.1-0.5l-0.1-1l-0.2-2.1l-0.1-1.9l0-1.9l0-1.8
		c0-1.2,0.1-2.4,0.2-3.5c0.3-4.5,1-8.7,1.7-12.8c1.4-8.1,3.2-15.8,5.1-23.4c1.9-7.6,3.8-15.1,5.7-22.6c3.8-14.9,7.3-29.8,10.8-44.7
		l2.6-11.2c0.9-3.7,1.7-7.4,2.5-11.2c1.6-7.5,3-15,4.3-22.5c1.2-7.5,2.2-15.1,2.9-22.7l0.2-2.9l0.1-1.4l0.1-0.7l0-0.3l0-0.2
		c0-0.1,0-0.2,0-0.3l0-0.3c0-0.2-0.1-0.3,0-0.5c-0.1-0.3-0.1-0.5-0.4-0.8c-0.4-0.6-1.6-1.3-2.9-1.7c-1.4-0.5-3-0.8-4.7-1
		c-3.4-0.4-7.1-0.3-10.8,0.1c-3.7,0.3-7.4,0.9-11.1,1.6c-7.4,1.4-14.8,3.5-22.1,5.9c-14.5,4.8-28.6,11.2-42.2,18.2
		c-13.6,7-26.9,14.7-40.1,22.2l-19.7,11.3c-3.2,1.9-6.6,3.8-10,5.7c-3.4,1.9-6.8,3.7-10.2,5.6c-13.6,7.4-27.5,14.6-41.9,21
		c-14.3,6.5-29.2,12.2-44.5,16.5c-7.7,2.1-15.4,3.9-23.3,5c-7.8,1.3-15.8,1.8-23.6,1.9L134.5,186.5z"/>
</g>
<rect x="207.7" y="124.8" class="st20" width="126" height="78"/>
<text transform="matrix(1 0 0 1 257.2687 131.5714)" class="st4 st21 st22">Eibach</text>
<circle class="st23" cx="203.3" cy="129.7" r="20.8"/>
<path class="st24" d="M194.7,113.3c-13.2-30.4-26.3-60.8-39.5-91.2"/>
<path class="st24" d="M97.5,166.1c27.6-9,55.2-18,82.8-27l0,0l0,0l0,0"/>
<path class="st23" d="M225.7,123.1c3.1-1.5,38.1-17,41-18.9c74.3-48.3,175.7-51.6,232.8-51.6c100.2,0.1,128.3,16.6,209.2,4.2
	c29.1-4.4,91.3-17.7,106-22"/>
<path class="st23" d="M657.4,181.2c26.9-8.6,60.8-18.1,87.7-26.7"/>
<path class="st23" d="M736.4,151.5c-10.2-29.8-20.4-59.6-30.7-89.3"/>
<path class="st23" d="M501.1,57.8c-10.1,27.5-19.4,65-32,116c-11,44.7,3,85.7,26,128.3"/>
<path class="st23" d="M469.1,173.8c-15.5-7.4-48.8-19.5-79.3-22c-41.4-3.4-60.2,18.4-101,18c-17.7-0.2-47,6-74.8-22.2"/>
<path class="st23" d="M282,173.1c0,0-24.3,63.7-73.9,89.7"/>
<path class="st23" d="M141.7,272.8c55.4-37,74.2-44,112.9-50.9"/>
<path class="st23" d="M461.7,357.8c9.7-13.7,27.3-45.3,37-59"/>
<path class="st23" d="M600,406.8c-29-67-61.3-93.4-103.3-106.9"/>
<path class="st23" d="M699.7,322.8c-77-13.1-129-15.1-192-19"/>
<path class="st23" d="M716.7,304.8c-45-116-64.1-131.6-81-137c-41.5-13.3-49.6-2.9-109,3c-20.7,2.1-43.7,4.4-55,6"/>
<circle class="st23" cx="724.6" cy="323.8" r="20.8"/>
<path class="st23" d="M707.2,339.6c-65.1,29.9-87.2,53.3-108.8,75.2"/>
<path class="st23" d="M856.7,363.8c-33-24.2-55.7-35.5-111.3-40"/>
<path class="st23" d="M869.7,561.3c-132.2-98-145.2-115.3-145.2-216.7"/>
<circle class="st23" cx="705.4" cy="59" r="15"/>
<g>
	<path class="st4" d="M833,527.7c0,0,0.1,0.1,0.1,0.1c0,0.1,0.1,0.1,0.1,0.1c0.2,0.7,0.5,1.4,0.7,2.2c0.4,1.3,0.8,2.5,1.2,3.8
		c0.1,0.4,0.3,0.7,0.3,1.1c-0.1,0.1-0.1,0.2-0.2,0.3c-0.2,0.1-0.5,0-0.7,0c-1.5-0.1-3-0.3-4.5-0.4c-0.7-0.1-1.4-0.1-2.1-0.2
		c-0.1,0-0.2-0.1-0.3-0.2c-0.1-0.1,0-0.2,0.1-0.3c0.3-0.4,0.7-0.8,1-1.2c0.2-0.3,0.2-0.6-0.1-0.8c-1.6-1.3-3.2-2.6-4.7-3.8
		c-0.3-0.2-0.5-0.4-0.5-0.8c0.7-0.8,1.4-1.7,2.1-2.5c0.3-0.1,0.6,0.1,0.9,0.3c1.6,1.3,3.2,2.6,4.7,3.8c0.3,0.2,0.6,0.2,0.8-0.1
		c0.3-0.4,0.6-0.8,1-1.2C832.7,527.8,832.8,527.7,833,527.7z"/>
</g>
<rect x="117.2" y="126.7" transform="matrix(0.9511 -0.309 0.309 0.9511 -37.6321 72.7122)" class="st20" width="187" height="57"/>
<text transform="matrix(0.9511 -0.309 0.309 0.9511 115.0024 163.0603)" class="st4 st25 st22">Sissach</text>
<rect x="210" y="196" transform="matrix(0.7986 -0.6018 0.6018 0.7986 -74.0293 227.8425)" class="st20" width="187" height="57"/>
<text transform="matrix(0.7986 -0.6018 0.6018 0.7986 215.4597 263.1611)" class="st4 st25 st22">Allmend</text>
<rect x="148.2" y="-85.7" transform="matrix(0.9205 -0.3907 0.3907 0.9205 10.9934 69.6766)" class="st20" width="57" height="187"/>
<text transform="matrix(-0.3907 -0.9205 0.9205 -0.3907 192.8431 102.5128)" class="st4 st25 st22">Rickenbach / Buus</text>
<rect x="642.1" y="284.6" transform="matrix(0.1219 -0.9925 0.9925 0.1219 253.5929 924.5703)" class="st20" width="14.4" height="68.8"/>
<text transform="matrix(0.9926 0.1219 -0.1219 0.9926 615.2553 314.0162)" class="st4 st25 st22">Rössligasse</text>
<rect x="749.2" y="39.2" transform="matrix(0.9781 -0.2079 0.2079 0.9781 6.92 163.8819)" class="st20" width="67.8" height="19.7"/>
<text transform="matrix(0.9782 -0.2079 0.2079 0.9782 749.1522 52.7786)" class="st4 st25 st22">Ormalingen</text>
<g>
	<g>
		<path class="st4" d="M723.2,290c-0.5-2.8-0.8-4.2-1.3-7c1.2-0.2,1.8-0.3,3.1-0.4c0.9-0.1,1.8,0,2.5,0.2c0.7,0.2,1.3,0.6,1.6,1.1
			c0.4,0.5,0.5,1.1,0.5,1.7c0,0.2,0,0.3,0,0.5c0,0.7-0.2,1.3-0.5,1.8c-0.3,0.5-0.8,0.9-1.4,1.2c-0.6,0.3-1.3,0.5-2,0.6
			C724.6,289.8,724.1,289.9,723.2,290z M723.4,283.6c0.3,2.2,0.5,3.3,0.8,5.5c0.5-0.1,0.7-0.1,1.2-0.2c0.9-0.1,1.6-0.4,2.1-0.8
			c0.5-0.5,0.8-1.1,0.7-1.9c0-0.2,0-0.2,0-0.4c0-0.8-0.3-1.4-0.8-1.9c-0.6-0.4-1.4-0.6-2.4-0.5C724.4,283.4,724.1,283.5,723.4,283.6
			z"/>
		<path class="st4" d="M730.9,286.9c0-0.5,0.2-1,0.5-1.4c0.3-0.4,0.7-0.7,1.3-0.8c0.5-0.2,1.1-0.2,1.8-0.1c1,0.2,1.7,0.6,2.2,1.2
			c0.5,0.6,0.6,1.3,0.4,2.1c0,0,0,0,0,0.1c-0.1,0.5-0.4,0.9-0.7,1.2c-0.3,0.3-0.7,0.6-1.2,0.7c-0.5,0.1-1,0.1-1.5,0.1
			c-0.8-0.1-1.5-0.5-2-1C731.1,288.5,730.8,287.8,730.9,286.9C730.9,286.9,730.9,286.9,730.9,286.9z M732.1,287.1
			c-0.1,0.6,0.1,1.1,0.4,1.5c0.3,0.4,0.7,0.6,1.2,0.7c0.5,0.1,1,0,1.4-0.3c0.4-0.3,0.7-0.7,0.8-1.4c0.1-0.6,0.1-1.1-0.2-1.5
			c-0.3-0.4-0.7-0.7-1.4-0.8c-0.6-0.1-1.1,0-1.5,0.3C732.4,286,732.1,286.5,732.1,287.1z"/>
		<path class="st4" d="M742.2,287.8c-0.2-0.1-0.3-0.2-0.5-0.3c-0.7-0.3-1.3-0.2-1.8,0.1c-0.5,1.4-0.7,2.1-1.2,3.5
			c-0.4-0.1-0.6-0.2-1-0.3c0.6-2,0.9-3,1.6-5c0.5,0.1,0.7,0.2,1.2,0.4c-0.1,0.2-0.1,0.3-0.2,0.6c0.5-0.3,1.2-0.3,1.9-0.1
			c0.2,0.1,0.4,0.2,0.5,0.3C742.4,287.3,742.3,287.5,742.2,287.8z"/>
		<path class="st4" d="M741.9,292.6c0.8-1.6,1.2-2.5,2-4.1c-0.4-0.2-0.6-0.3-1-0.5c0.1-0.3,0.2-0.4,0.3-0.6c0.4,0.2,0.6,0.3,1,0.5
			c0.1-0.2,0.1-0.3,0.2-0.5c0.2-0.5,0.6-0.8,1.2-0.9c0.5-0.1,1.2,0.1,1.9,0.5c0.3,0.2,0.5,0.3,0.7,0.5c-0.2,0.2-0.3,0.4-0.4,0.6
			c-0.2-0.1-0.4-0.3-0.6-0.4c-0.4-0.2-0.7-0.3-1-0.2c-0.3,0-0.5,0.2-0.6,0.5c-0.1,0.2-0.2,0.3-0.3,0.5c0.5,0.3,0.8,0.4,1.3,0.8
			c-0.1,0.2-0.2,0.4-0.4,0.6c-0.5-0.3-0.8-0.5-1.3-0.7c-0.9,1.6-1.3,2.4-2.2,4C742.4,292.9,742.2,292.8,741.9,292.6z"/>
		<path class="st4" d="M750.8,295.6c-0.5,0.6-1.2,0.9-1.8,1c-0.7,0.1-1.2-0.1-1.8-0.6c-0.6-0.5-0.9-1-1.1-1.5
			c-0.6,0.8-0.9,1.3-1.4,2.1c-0.3-0.2-0.5-0.3-0.8-0.5c1.6-2.5,2.4-3.7,4-6.2c0.4,0.2,0.6,0.4,0.9,0.6c-0.1,0.2-0.2,0.3-0.3,0.5
			c0.7-0.1,1.4,0.1,2.1,0.7c0.7,0.5,1.1,1.2,1.1,1.9C751.7,294.2,751.4,294.9,750.8,295.6C750.8,295.5,750.8,295.6,750.8,295.6z
			 M750,294.7c0.4-0.5,0.6-0.9,0.5-1.4c0-0.5-0.3-0.9-0.8-1.3c-0.6-0.4-1.2-0.6-1.7-0.4c-0.6,0.8-0.9,1.2-1.4,2.1
			c0,0.6,0.3,1.1,0.8,1.5c0.4,0.3,0.8,0.4,1.3,0.4C749.1,295.5,749.6,295.3,750,294.7z"/>
		<path class="st4" d="M750.8,299.2c-0.3-0.3-0.4-0.5-0.7-0.8c2.1-2.1,3.2-3.2,5.3-5.3c0.4,0.4,0.6,0.6,0.9,1
			C754.1,296.2,753,297.2,750.8,299.2z"/>
		<path class="st4" d="M754.2,303.6c0.1-0.1,0.2-0.2,0.4-0.4c-0.6-0.2-1.1-0.6-1.5-1.1c-0.4-0.5-0.5-1-0.6-1.5
			c0-0.5,0.1-0.9,0.5-1.2c0.4-0.4,0.9-0.4,1.5-0.2c0.6,0.2,1.2,0.7,1.7,1.6c0.3,0.4,0.4,0.6,0.6,1c0.1-0.1,0.2-0.1,0.4-0.2
			c0.3-0.2,0.4-0.4,0.4-0.7c0-0.3-0.1-0.7-0.4-1.1c-0.3-0.4-0.5-0.6-0.8-0.7c-0.3-0.1-0.6-0.1-0.7,0c-0.3-0.4-0.4-0.6-0.7-0.9
			c0.2-0.2,0.5-0.2,0.8-0.2c0.4,0,0.7,0.2,1.1,0.5c0.4,0.3,0.7,0.6,1,1.1c0.5,0.7,0.7,1.3,0.7,1.9c0,0.6-0.2,1-0.7,1.3
			c-0.8,0.5-1.3,0.7-2.1,1.2c-0.4,0.2-0.7,0.5-0.9,0.8c0,0,0,0-0.1,0C754.5,304.2,754.4,304,754.2,303.6z M753.7,301.7
			c0.2,0.3,0.4,0.5,0.7,0.7c0.3,0.2,0.6,0.3,0.8,0.3c0.4-0.2,0.5-0.3,0.9-0.6c-0.2-0.3-0.3-0.5-0.5-0.8c-0.8-1.2-1.5-1.5-2-1.1
			c-0.2,0.2-0.3,0.4-0.3,0.7C753.4,301.2,753.5,301.5,753.7,301.7z"/>
		<path class="st4" d="M762.1,304.5c-0.5,0.2-0.7,0.3-1.2,0.5c0.2,0.5,0.3,0.8,0.6,1.3c-0.3,0.1-0.4,0.2-0.6,0.3
			c-0.2-0.5-0.3-0.8-0.5-1.3c-1.2,0.5-1.8,0.8-3,1.4c-0.2,0.1-0.3,0.2-0.4,0.3c-0.1,0.1,0,0.3,0.1,0.6c0.1,0.1,0.1,0.3,0.3,0.5
			c-0.3,0.1-0.4,0.2-0.7,0.3c-0.2-0.2-0.3-0.5-0.4-0.7c-0.2-0.4-0.2-0.8-0.1-1.2s0.4-0.6,0.8-0.8c1.2-0.6,1.8-0.9,2.9-1.5
			c-0.2-0.5-0.4-0.7-0.6-1.2c0.2-0.1,0.4-0.2,0.6-0.3c0.3,0.5,0.4,0.7,0.6,1.2c0.5-0.2,0.7-0.3,1.1-0.6
			C761.7,303.8,761.8,304,762.1,304.5z"/>
		<path class="st4" d="M758,310.2c0.5,1.5,0.7,2.2,1,3.8c-0.3,0.1-0.4,0.1-0.7,0.1c-0.4-2.1-0.7-3.1-1.4-5c0.2-0.1,0.4-0.1,0.6-0.2
			c2,0.8,2.9,1.3,4.8,2.6c-0.4-1.6-0.6-2.4-1.2-3.9c0.3-0.1,0.4-0.2,0.7-0.3c0.8,2.1,1.1,3.3,1.5,5.6c-0.3,0-0.4,0.1-0.6,0.1
			C761,311.7,760,311.2,758,310.2z"/>
	</g>
</g>
<rect x="591.3" y="358.3" transform="matrix(0.829 -0.5592 0.5592 0.829 -102.7091 441.5713)" class="st20" width="159" height="61"/>
<text transform="matrix(0.829 -0.5592 0.5592 0.829 635.041 384.272)" class="st4 st21 st22">Ochsengasse</text>
<rect x="625.8" y="365.4" transform="matrix(1.745827e-02 -0.9998 0.9998 1.745827e-02 297.237 1094.1776)" class="st20" width="159" height="61"/>
<text transform="matrix(6.975000e-02 0.9976 -0.9976 6.975000e-02 722.6251 359.3654)" class="st26 st21 st22">Marktgasse</text>
<polygon class="st20" points="805.2,587.5 685.2,483.2 728.6,439.8 848.6,544.1 "/>
<text transform="matrix(0.7547 0.6561 -0.6561 0.7547 751.6815 468.8164)" class="st4 st21 st22">Tecknau / Rünenberg</text>
<g>
	<path class="st4" d="M105.7,168.1c0,0-0.1,0-0.1,0c0-0.1-0.1,0-0.2,0c-0.7-0.2-1.5-0.4-2.2-0.6c-1.3-0.4-2.6-0.7-3.9-1.1
		c-0.4-0.1-0.7-0.1-1.1-0.3c0-0.1-0.1-0.2-0.1-0.3c0-0.2,0.2-0.4,0.4-0.6c0.9-1.2,1.9-2.4,2.8-3.5c0.4-0.6,0.9-1.1,1.3-1.7
		c0.1-0.1,0.2-0.2,0.3-0.2c0.1,0,0.2,0.1,0.2,0.2c0.2,0.5,0.3,1,0.5,1.5c0.1,0.3,0.4,0.5,0.7,0.3c1.9-0.6,3.9-1.3,5.8-1.9
		c0.3-0.1,0.6-0.2,0.9,0c0.3,1,0.7,2.1,1,3.1c-0.1,0.3-0.4,0.5-0.8,0.6c-1.9,0.6-3.9,1.3-5.8,1.9c-0.3,0.1-0.5,0.4-0.4,0.7
		c0.2,0.5,0.3,1,0.5,1.5C105.8,167.8,105.8,167.9,105.7,168.1z"/>
</g>
<g>
	<path class="st4" d="M153.7,31.2c0,0,0-0.1-0.1-0.1c0.1,0,0-0.1,0-0.2c0.1-0.7,0.3-1.5,0.4-2.2c0.2-1.3,0.5-2.6,0.7-3.9
		c0.1-0.4,0.1-0.7,0.3-1.1c0.1,0,0.2-0.1,0.3-0.1c0.2,0,0.4,0.2,0.6,0.3c1.3,0.8,2.5,1.7,3.8,2.5c0.6,0.4,1.2,0.8,1.8,1.2
		c0.1,0.1,0.2,0.2,0.2,0.3c0,0.1-0.1,0.2-0.2,0.2c-0.5,0.2-1,0.4-1.4,0.6c-0.3,0.1-0.4,0.4-0.3,0.8c0.8,1.9,1.6,3.7,2.4,5.6
		c0.1,0.3,0.2,0.6,0.1,0.9c-1,0.4-2,0.9-3,1.3c-0.3-0.1-0.5-0.4-0.6-0.7c-0.8-1.9-1.6-3.7-2.4-5.6c-0.1-0.3-0.4-0.4-0.7-0.3
		c-0.5,0.2-0.9,0.4-1.4,0.6C154,31.2,153.8,31.2,153.7,31.2z"/>
</g>
<g>
	<path class="st4" d="M804.2,32.9c0,0,0.1,0,0.1,0c0,0.1,0.1,0,0.2,0c0.7,0.3,1.4,0.5,2.1,0.8c1.3,0.4,2.5,0.9,3.8,1.3
		c0.3,0.1,0.7,0.2,1,0.4c0,0.1,0.1,0.2,0.1,0.3c-0.1,0.2-0.3,0.4-0.4,0.6c-1,1.1-2,2.2-3.1,3.3c-0.5,0.5-1,1-1.4,1.6
		c-0.1,0.1-0.2,0.1-0.3,0.1c-0.1,0-0.2-0.1-0.2-0.2c-0.1-0.5-0.3-1-0.4-1.5c-0.1-0.3-0.3-0.5-0.7-0.4c-2,0.5-4,1-5.9,1.5
		c-0.3,0.1-0.6,0.1-0.9-0.1c-0.3-1.1-0.5-2.1-0.8-3.2c0.2-0.3,0.5-0.4,0.8-0.5c2-0.5,4-1,5.9-1.5c0.3-0.1,0.5-0.4,0.4-0.7
		c-0.1-0.5-0.2-1-0.4-1.5C804.1,33.1,804.1,33,804.2,32.9z"/>
</g>
<text transform="matrix(1 0 0 1 16.1293 344.6448)"><tspan x="0" y="0" class="st27 st28 st29">1) Joker Bar-Food-Disco</tspan><tspan x="0" y="12.3" class="st27 st25 st29">     Getränkestand</tspan><tspan x="0" y="24.6" class="st27 st28 st29">2) Bistro Duzi</tspan><tspan x="0" y="36.9" class="st27 st25 st29">     Fast Food Beizli</tspan><tspan x="0" y="49.2" class="st27 st28 st29">3) Rudin Streetfood</tspan><tspan x="0" y="61.5" class="st27 st25 st29">     Foodtruck / Burger</tspan><tspan x="0" y="73.8" class="st27 st28 st29">4) Chäs-Pierre</tspan><tspan x="0" y="86.2" class="st27 st25 st29">     Chässchnitte</tspan><tspan x="0" y="98.5" class="st27 st28 st29">5) Joker Bar-Food-Disco</tspan><tspan x="0" y="110.8" class="st27 st25 st29">     Barwagen</tspan><tspan x="0" y="123.1" class="st27 st28 st29">6) Thunderbeans</tspan><tspan x="0" y="135.4" class="st27 st25 st29">     Apfelküchlein</tspan><tspan x="0" y="147.7" class="st27 st28 st29">7) TV Buus</tspan><tspan x="0" y="160" class="st27 st25 st29">     Raclettestübli</tspan><tspan x="0" y="172.3" class="st27 st28 st29">8) Letz Fets Waggis</tspan><tspan x="0" y="184.6" class="st27 st25 st29">     Hamburger, Fischknusperli</tspan><tspan x="0" y="196.9" class="st27 st28 st29">9) cherusgaelti.ch</tspan><tspan x="0" y="209.2" class="st27 st25 st29">     Getränkestand</tspan><tspan x="0" y="221.5" class="st27 st28 st29">10) cherusgaelti.ch</tspan><tspan x="0" y="233.9" class="st27 st25 st29">        Grillstand</tspan></text>
<text transform="matrix(1 0 0 1 280.5179 344.9651)"><tspan x="0" y="0" class="st27 st28 st29">21) cherusgaelti.ch</tspan><tspan x="0" y="12.3" class="st27 st25 st29">        Festzelt</tspan><tspan x="0" y="24.6" class="st27 st28 st29">22) Cherplatz Rueche</tspan><tspan x="0" y="36.9" class="st27 st25 st29">        Älplermakkaroni Zelt</tspan><tspan x="0" y="49.2" class="st27 st28 st29">23) Lindbergh Pup</tspan><tspan x="0" y="61.5" class="st27 st25 st29">        Partyzelt</tspan><tspan x="0" y="73.8" class="st27 st28 st29">24) Wolfloch-Clique Böckten</tspan><tspan x="0" y="86.2" class="st27 st25 st29">        Bierwagen</tspan><tspan x="0" y="98.5" class="st27 st28 st29">25) Räbhübelschlurgi</tspan><tspan x="0" y="110.8" class="st27 st25 st29">        Risotteria</tspan><tspan x="0" y="123.1" class="st27 st28 st29">26) No Limit</tspan><tspan x="0" y="135.4" class="st27 st25 st29">        Mario&apos;s Bierwagen</tspan><tspan x="0" y="147.7" class="st27 st28 st29">27) Grillschränzer</tspan><tspan x="0" y="160" class="st27 st25 st29">        Barwagen m. HotDog</tspan><tspan x="0" y="172.3" class="st27 st28 st29">28) Rest. Rössli</tspan><tspan x="0" y="184.6" class="st27 st25 st29">        Kafi Bar</tspan><tspan x="0" y="196.9" class="st27 st28 st29">29) Wilde Hühner</tspan><tspan x="0" y="209.2" class="st27 st25 st29">        Mobiles Shotwägeli</tspan><tspan x="0" y="221.5" class="st27 st28 st29">30) Zipfelchappe Waggis</tspan><tspan x="0" y="233.9" class="st27 st25 st29">        Mobile Bar</tspan></text>
<rect x="-4.2" y="301.8" class="st20" width="213.3" height="17.2"/>
<text transform="matrix(1 0 0 1 27.9061 316.0219)" class="st27 st28 st30">Festwirtschaften</text>
<text transform="matrix(1 0 0 1 146.5931 344.719)"><tspan x="0" y="0" class="st27 st28 st29">11) Vinothek Raffaella</tspan><tspan x="0" y="12.3" class="st27 st25 st29">        Weinbar</tspan><tspan x="0" y="24.6" class="st27 st28 st29">12) Club 55</tspan><tspan x="0" y="36.9" class="st27 st25 st29">        Bierwagen</tspan><tspan x="0" y="49.2" class="st27 st28 st29">13) cherusgaelti.ch</tspan><tspan x="0" y="61.5" class="st27 st25 st29">        Crepes Stand</tspan><tspan x="0" y="73.8" class="st27 st28 st29">14) Bierstürzer Sissach</tspan><tspan x="0" y="86.2" class="st27 st25 st29">        Bar/ Bierschwemmi</tspan><tspan x="0" y="98.5" class="st27 st28 st29">15) Kinnas Pita &amp; Mehr</tspan><tspan x="0" y="110.8" class="st27 st25 st29">        Griechische Spezialitäten</tspan><tspan x="0" y="123.1" class="st27 st28 st29">16) Braui</tspan><tspan x="0" y="135.4" class="st27 st25 st29">        Braui Bar</tspan><tspan x="0" y="147.7" class="st27 st28 st29">17) Pro Dunnstigsrundi</tspan><tspan x="0" y="160" class="st27 st25 st29">        Hörnli und Ghackts</tspan><tspan x="0" y="172.3" class="st27 st28 st29">18) Schnörreböx</tspan><tspan x="0" y="184.6" class="st27 st25 st29">        Schnitzelbrotbeizli</tspan><tspan x="0" y="196.9" class="st27 st28 st29">19) Shotmaschine</tspan><tspan x="0" y="209.2" class="st27 st25 st29">        Shötliwage</tspan><tspan x="0" y="221.5" class="st27 st28 st29">20) Bistro Moni</tspan><tspan x="0" y="233.9" class="st27 st25 st29">        Pizza</tspan></text>
<g>
	<rect x="656.2" y="222.2" class="st31" width="18.4" height="18.4"/>
	<rect x="656.2" y="226" class="st20" width="18.4" height="12.3"/>
	<text transform="matrix(1 0 0 1 661.8007 235.9711)" class="st11 st25 st32">2</text>
</g>
<g>
	<rect x="670.8" y="242.5" class="st31" width="18.4" height="18.4"/>
	<rect x="670.8" y="246.4" class="st20" width="18.4" height="12.3"/>
	<text transform="matrix(1 0 0 1 676.4017 256.2945)" class="st11 st25 st32">3</text>
</g>
<g>
	<rect x="680.9" y="262.8" class="st31" width="18.4" height="18.4"/>
	<rect x="680.9" y="266.7" class="st20" width="18.4" height="12.3"/>
	<text transform="matrix(1 0 0 1 686.4917 276.6183)" class="st11 st25 st32">4</text>
</g>
<g>
	<rect x="699" y="223.9" class="st31" width="18.4" height="18.4"/>
	<rect x="699" y="227.7" class="st20" width="18.4" height="12.3"/>
	<text transform="matrix(1 0 0 1 704.6139 237.6849)" class="st11 st25 st32">5</text>
</g>
<g>
	<rect x="708.2" y="242" class="st31" width="18.4" height="18.4"/>
	<rect x="708.2" y="245.8" class="st20" width="18.4" height="12.3"/>
	<text transform="matrix(1 0 0 1 713.8046 255.7639)" class="st11 st25 st32">6</text>
</g>
<g>
	<rect x="713.6" y="260.2" class="st31" width="18.4" height="18.4"/>
	<rect x="713.6" y="264.1" class="st20" width="18.4" height="12.3"/>
	<text transform="matrix(1 0 0 1 719.224 274.0275)" class="st11 st25 st32">7</text>
</g>
<g>
	<rect x="734.7" y="251.1" class="st31" width="18.4" height="18.4"/>
	<rect x="734.7" y="255" class="st20" width="18.4" height="12.3"/>
	<text transform="matrix(1 0 0 1 740.2686 264.9331)" class="st11 st25 st32">8</text>
</g>
<g>
	<rect x="771.6" y="333.3" class="st31" width="18.4" height="18.4"/>
	<rect x="771.6" y="337.1" class="st20" width="18.4" height="12.3"/>
	<text transform="matrix(1 0 0 1 777.2294 347.0728)" class="st11 st25 st32">9</text>
</g>
<g>
	<rect x="746.5" y="334.1" class="st31" width="18.4" height="18.4"/>
	<rect x="746.5" y="337.9" class="st20" width="18.4" height="12.3"/>
	<text transform="matrix(1 0 0 1 748.535 347.8729)" class="st11 st25 st32">10</text>
</g>
<g>
	<rect x="762.4" y="363" class="st31" width="18.4" height="18.4"/>
	<rect x="762.4" y="366.8" class="st20" width="18.4" height="12.3"/>
	<text transform="matrix(1 0 0 1 764.4478 376.7633)" class="st11 st25 st32">11</text>
</g>
<g>
	<rect x="734.3" y="368.1" class="st31" width="18.4" height="18.4"/>
	<rect x="734.3" y="371.9" class="st20" width="18.4" height="12.3"/>
	<text transform="matrix(1 0 0 1 736.3138 381.8576)" class="st11 st25 st32">12</text>
</g>
<g>
	<rect x="736.2" y="391.8" class="st31" width="18.4" height="18.4"/>
	<rect x="736.2" y="395.7" class="st20" width="18.4" height="12.3"/>
	<text transform="matrix(1 0 0 1 738.1984 405.5985)" class="st11 st25 st32">13</text>
</g>
<g>
	<rect x="742.1" y="421.7" class="st31" width="18.4" height="18.4"/>
	<rect x="742.1" y="425.6" class="st20" width="18.4" height="12.3"/>
	<text transform="matrix(1 0 0 1 744.0624 435.5147)" class="st11 st25 st32">14</text>
</g>
<g>
	<rect x="720.2" y="446.3" class="st31" width="18.4" height="18.4"/>
	<rect x="720.2" y="450.2" class="st20" width="18.4" height="12.3"/>
	<text transform="matrix(1 0 0 1 722.2147 460.097)" class="st11 st25 st32">14</text>
</g>
<g>
	<rect x="711.2" y="430.6" class="st31" width="18.4" height="18.4"/>
	<rect x="711.2" y="434.4" class="st20" width="18.4" height="12.3"/>
	<text transform="matrix(1 0 0 1 713.1755 444.3825)" class="st11 st25 st32">15</text>
</g>
<g>
	<rect x="703.4" y="390.6" class="st31" width="18.4" height="18.4"/>
	<rect x="703.4" y="394.4" class="st20" width="18.4" height="12.3"/>
	<text transform="matrix(1 0 0 1 705.4414 404.3811)" class="st11 st25 st32">16</text>
</g>
<g>
	<rect x="703.4" y="371.1" class="st31" width="18.4" height="18.4"/>
	<rect x="703.4" y="374.9" class="st20" width="18.4" height="12.3"/>
	<text transform="matrix(1 0 0 1 705.4415 384.8571)" class="st11 st25 st32">17</text>
</g>
<g>
	<rect x="703.4" y="350.9" class="st31" width="18.4" height="18.4"/>
	<rect x="703.4" y="354.7" class="st20" width="18.4" height="12.3"/>
	<text transform="matrix(1 0 0 1 705.4415 364.6579)" class="st11 st25 st32">18</text>
</g>
<g>
	<rect x="686.2" y="342.5" class="st31" width="18.4" height="18.4"/>
	<rect x="686.2" y="346.3" class="st20" width="18.4" height="12.3"/>
	<text transform="matrix(1 0 0 1 688.1616 356.263)" class="st11 st25 st32">19</text>
</g>
<g>
	<rect x="671.7" y="361.9" class="st31" width="18.4" height="18.4"/>
	<rect x="671.7" y="365.7" class="st20" width="18.4" height="12.3"/>
	<text transform="matrix(1 0 0 1 673.7103 375.6664)" class="st11 st25 st32">20</text>
</g>
<g>
	<rect x="640.7" y="340.5" class="st31" width="18.4" height="18.4"/>
	<rect x="640.7" y="344.3" class="st20" width="18.4" height="12.3"/>
	<text transform="matrix(1 0 0 1 642.7058 354.2752)" class="st11 st25 st32">22</text>
</g>
<g>
	<rect x="612.1" y="375" class="st31" width="18.4" height="18.4"/>
	<rect x="612.1" y="378.8" class="st20" width="18.4" height="12.3"/>
	<text transform="matrix(1 0 0 1 614.1104 388.7724)" class="st11 st25 st32">21</text>
</g>
<g>
	<rect x="677" y="324" class="st31" width="18.4" height="18.4"/>
	<rect x="677" y="327.9" class="st20" width="18.4" height="12.3"/>
	<text transform="matrix(1 0 0 1 678.9709 337.8381)" class="st11 st25 st32">23</text>
</g>
<g>
	<rect x="653.2" y="320.3" class="st31" width="18.4" height="18.4"/>
	<rect x="653.2" y="324.2" class="st20" width="18.4" height="12.3"/>
	<text transform="matrix(1 0 0 1 655.1904 334.111)" class="st11 st25 st32">24</text>
</g>
<g>
	<rect x="660.5" y="293.5" class="st31" width="18.4" height="18.4"/>
	<rect x="660.5" y="297.3" class="st20" width="18.4" height="12.3"/>
	<text transform="matrix(1 0 0 1 662.4823 307.269)" class="st11 st25 st32">25</text>
</g>
<g>
	<rect x="553.2" y="311.1" class="st31" width="18.4" height="18.4"/>
	<rect x="553.2" y="315" class="st20" width="18.4" height="12.3"/>
	<text transform="matrix(1 0 0 1 555.1608 324.9203)" class="st11 st25 st32">26</text>
</g>
<g>
	<rect x="552.2" y="283.2" class="st31" width="18.4" height="18.4"/>
	<rect x="552.2" y="287.1" class="st20" width="18.4" height="12.3"/>
	<text transform="matrix(1 0 0 1 554.1608 297.0173)" class="st11 st25 st32">27</text>
</g>
<g>
	<rect x="517.4" y="280.9" class="st31" width="18.4" height="18.4"/>
	<rect x="517.4" y="284.8" class="st20" width="18.4" height="12.3"/>
	<text transform="matrix(1 0 0 1 519.4229 294.7463)" class="st11 st25 st32">28</text>
</g>
<g>
	<rect x="173.3" y="220" class="st31" width="18.4" height="18.4"/>
	<rect x="173.3" y="223.9" class="st20" width="18.4" height="12.3"/>
	<text transform="matrix(1 0 0 1 178.9154 233.8267)" class="st11 st25 st32">1</text>
</g>
<g class="st0">
	<g>
		<rect x="337" y="125.5" class="st33" width="78.4" height="16.8"/>
		<rect x="340.9" y="129.9" class="st20" width="74.5" height="12.5"/>
		<text transform="matrix(1 0 0 1 340.8911 138.3891)" class="st11 st25 st34">Kantonalbank</text>
	</g>
	<g>
		<rect x="367" y="165.7" class="st33" width="29.9" height="18.8"/>
		<rect x="370.9" y="170" class="st20" width="26" height="14.5"/>
		<text transform="matrix(1 0 0 1 370.8911 178.5195)" class="st11 st25 st34">Post</text>
	</g>
	<g>
		<rect x="242.1" y="251.9" class="st33" width="37" height="28.1"/>
		<rect x="247.8" y="261.9" class="st20" width="47.3" height="20.6"/>
		<text transform="matrix(1 0 0 1 247.7981 270.408)" class="st11 st25 st34">Coop</text>
	</g>
	<g>
		<path class="st35" d="M208.4,227.2h-0.4c-5.5,0-9.9-4.4-9.9-9.9v-0.4c0-5.5,4.4-9.9,9.9-9.9h0.4c5.5,0,9.9,4.4,9.9,9.9v0.4
			C218.3,222.7,213.9,227.2,208.4,227.2z"/>
		<rect x="196.2" y="210.4" class="st20" width="24" height="11.3"/>
		<text transform="matrix(1 0 0 1 199.9527 220.3414)" class="st11 st25 st32">wc</text>
	</g>
	<g>
		<path class="st35" d="M631.6,191.2h-0.4c-5.5,0-9.9-4.4-9.9-9.9V181c0-5.5,4.4-9.9,9.9-9.9h0.4c5.5,0,9.9,4.4,9.9,9.9v0.4
			C641.5,186.8,637,191.2,631.6,191.2z"/>
		<rect x="619.4" y="174.5" class="st20" width="24" height="11.3"/>
		<text transform="matrix(1 0 0 1 623.1033 184.4294)" class="st11 st25 st32">wc</text>
	</g>
	<g>
		<path class="st35" d="M585.9,334h-0.4c-5.5,0-9.9-4.4-9.9-9.9v-0.4c0-5.5,4.4-9.9,9.9-9.9h0.4c5.5,0,9.9,4.4,9.9,9.9v0.4
			C595.8,329.6,591.4,334,585.9,334z"/>
		<rect x="573.7" y="317.2" class="st20" width="24" height="11.3"/>
		<text transform="matrix(1 0 0 1 577.4366 327.1743)" class="st11 st25 st32">wc</text>
	</g>
	<g>
		<path class="st35" d="M814.5,333.5h-0.4c-5.5,0-9.9-4.4-9.9-9.9v-0.4c0-5.5,4.4-9.9,9.9-9.9h0.4c5.5,0,9.9,4.4,9.9,9.9v0.4
			C824.5,329.1,820,333.5,814.5,333.5z"/>
		<rect x="802.4" y="316.8" class="st20" width="24" height="11.3"/>
		<text transform="matrix(1 0 0 1 806.0729 326.707)" class="st11 st25 st32">wc</text>
	</g>
	<g>
		<path class="st35" d="M717.6,430.9h-0.4c-5.5,0-9.9-4.4-9.9-9.9v-0.4c0-5.5,4.4-9.9,9.9-9.9h0.4c5.5,0,9.9,4.4,9.9,9.9v0.4
			C727.5,426.5,723.1,430.9,717.6,430.9z"/>
		<rect x="705.4" y="414.2" class="st20" width="24" height="11.3"/>
		<text transform="matrix(1 0 0 1 709.1082 424.0927)" class="st11 st25 st32">wc</text>
	</g>
	<g>
		<path class="st35" d="M663.3,394.3l-0.4,0c-5.5,0.4-10.2-3.6-10.7-9.1l0-0.4c-0.4-5.5,3.6-10.2,9.1-10.7l0.4,0
			c5.5-0.4,10.2,3.6,10.7,9.1l0,0.4C672.9,389.1,668.8,393.9,663.3,394.3z"/>
		
			<rect x="650.3" y="377.6" transform="matrix(0.9969 -7.811569e-02 7.811569e-02 0.9969 -27.9144 52.9067)" class="st20" width="24" height="11.3"/>
		<text transform="matrix(0.9969 -7.812000e-02 7.812000e-02 0.9969 654.3666 388.0918)" class="st11 st25 st32">wc</text>
	</g>
	<g>
		
			<rect x="593.3" y="393.5" transform="matrix(0.4424 0.8968 -0.8968 0.4424 699.0604 -324.013)" class="st36" width="33.7" height="13.3"/>
		
			<rect x="603.5" y="383.7" transform="matrix(0.8968 -0.4424 0.4424 0.8968 -114.3192 310.8978)" class="st20" width="11.7" height="33.7"/>
		<text transform="matrix(0.4424 0.8968 -0.8968 0.4424 602.4335 395.7562)" class="st11 st25 st32">B4</text>
	</g>
	<g>
		
			<rect x="502.2" y="317.2" transform="matrix(0.8529 0.5221 -0.5221 0.8529 245.4305 -223.3404)" class="st36" width="33.7" height="13.3"/>
		
			<rect x="512.7" y="307.7" transform="matrix(0.5221 -0.8529 0.8529 0.5221 -28.9658 597.3694)" class="st20" width="11.7" height="33.7"/>
		<text transform="matrix(0.8529 0.5221 -0.5221 0.8529 510.1967 324.1812)" class="st11 st25 st32">B5</text>
	</g>
	<g>
		
			<rect x="672.6" y="190.9" transform="matrix(0.9515 0.3077 -0.3077 0.9515 94.2252 -202.5294)" class="st36" width="33.7" height="13.3"/>
		
			<rect x="683.4" y="181.5" transform="matrix(0.3077 -0.9515 0.9515 0.3077 288.4088 793.1014)" class="st20" width="11.7" height="33.7"/>
		<text transform="matrix(0.9515 0.3077 -0.3077 0.9515 680.8892 200.0537)" class="st11 st25 st32">B6</text>
	</g>
	<g>
		
			<rect x="738.9" y="451.5" transform="matrix(0.9333 -0.3591 0.3591 0.9333 -114.1175 301.9163)" class="st36" width="33.7" height="13.3"/>
		
			<rect x="739.2" y="453.1" transform="matrix(0.9333 -0.3591 0.3591 0.9333 -114.3769 302.0756)" class="st20" width="33.7" height="11.7"/>
		<text transform="matrix(0.9333 -0.3591 0.3591 0.9333 750.5735 465.4531)" class="st11 st25 st32">B3</text>
	</g>
	<g>
		
			<rect x="770.7" y="294.3" transform="matrix(0.3032 0.9529 -0.9529 0.3032 835.5342 -540.7544)" class="st36" width="33.7" height="13.3"/>
		
			<rect x="780.9" y="284.4" transform="matrix(0.9529 -0.3032 0.3032 0.9529 -54.2974 252.7465)" class="st20" width="11.7" height="33.7"/>
		<text transform="matrix(0.3032 0.9529 -0.9529 0.3032 780.5837 295.4552)" class="st11 st25 st32">B2</text>
	</g>
	<g>
		
			<rect x="752" y="264.7" transform="matrix(0.8206 0.5715 -0.5715 0.8206 293.0685 -390.744)" class="st36" width="33.7" height="13.3"/>
		
			<rect x="762.6" y="255.2" transform="matrix(0.5715 -0.8206 0.8206 0.5715 105.9636 747.0956)" class="st20" width="11.7" height="33.7"/>
		<text transform="matrix(0.8206 0.5715 -0.5715 0.8206 759.9652 271.191)" class="st11 st25 st32">B1</text>
	</g>
</g>
<g class="st0">
	<g>
		<path class="st37" d="M248.6,234.5c12.2-19.8,24.4-39.7,36.6-59.5c-1.1,0.6-2.2,1.2-3.2,1.9c19.5-1,38.2-5.9,55.7-14.4
			c8.4-4.1,17-7.2,26.4-8c10-0.9,20.1,0.4,30,1.6c19.7,2.3,38.7,7.5,57.3,14.5c4.2,1.6,8.4,3.2,12.5,4.9c4.3,1.8,8.6,4.7,13.3,4.5
			c11.4-0.5,22.8-2.2,34.1-3.4c15.5-1.7,31-3.5,46.4-5.8c10.4-1.6,20.9-4.1,31.4-5c18.3-1.7,37.8-0.9,53.5,9.7
			c14.3,9.6,23.9,26,32.1,40.8c15.2,27.6,27.1,57.2,37.3,86.9c0.6-1.4,1.1-2.8,1.7-4.2c-9.1,6.6-15.5,18-13.4,29.5
			c2.3,12.5,14.3,21.2,26.9,19.8c11.8-1.4,21-11.1,21.8-22.9c0.6-8.7-4.1-17-11-22c-3.9-2.8-7.7,3.7-3.8,6.5
			c11.4,8.1,8.9,27.8-6.5,30.8c-9.6,1.9-19.2-5.1-20.2-14.9c-0.8-7.8,3.8-15.8,10-20.3c1.3-0.9,2.3-2.6,1.7-4.2
			c-10.3-29.9-22.2-59.7-37.4-87.5c-8.9-16.3-19.4-33.7-35-44.4c-16.8-11.5-38.1-12.8-57.8-11c-12.1,1.1-24.1,4-36.1,5.7
			c-19,2.8-38.1,4.8-57.2,6.7c-3.6,0.4-7.2,0.7-10.8,1.1c-2.6,0.3-6.3,1.4-8.8,0.9c-2-0.3-4.4-2-6.3-2.8c-2.9-1.2-5.8-2.5-8.7-3.6
			c-9.1-3.6-18.2-7-27.6-9.7c-11-3.3-22.3-5.7-33.7-7.3c-11.7-1.6-23.8-3.3-35.7-2.3c-11,1-20.9,4.6-30.7,9.3
			c-12.1,5.9-25,9.9-38.3,11.8c-2.8,0.4-5.6,0.7-8.5,1c-2,0.2-4.7-0.2-6.5,0.8c-2.5,1.4-4.1,5.8-5.5,8.2c-2.1,3.4-4.2,6.8-6.3,10.2
			c-8.7,14.2-17.4,28.4-26.2,42.5C239.6,234.8,246.1,238.6,248.6,234.5L248.6,234.5z"/>
	</g>
</g>
<rect x="641.4" y="283.8" transform="matrix(-1.836970e-16 1 -1 -1.836970e-16 938.585 -351.305)" class="st38" width="7" height="19.7"/>
<rect x="641.4" y="283.8" transform="matrix(-1 -1.224647e-16 1.224647e-16 -1 1289.89 587.28)" class="st38" width="7" height="19.7"/>
<g>
	<g>
		<path d="M610.1,322.5H608v-1.4c0-0.3-0.2-0.5-0.5-0.5c0,0,0,0-0.1,0c0,0,0,0,0,0h-5h0h0c-0.3,0-0.5,0.2-0.5,0.5v1.4h-2.1
			c-0.6,0-1.1,0.5-1.1,1.1v0.8v1h0.9v10c0,0.6,0.5,1.1,1.1,1.1h8.5c0.6,0,1.1-0.5,1.1-1.1v-10h0.9v-1v-0.8
			C611.2,322.9,610.7,322.5,610.1,322.5z M602.9,321.6h4.1v0.9h-4.1V321.6z M609.3,335.3C609.3,335.4,609.3,335.4,609.3,335.3
			l-8.6,0.1c-0.1,0-0.1,0-0.1-0.1v-10h8.7V335.3z M610.2,324.3h-10.5v-0.8c0-0.1,0-0.1,0.1-0.1h10.3c0.1,0,0.1,0,0.1,0.1V324.3
			L610.2,324.3z"/>
		<rect x="606.8" y="326.4" width="1" height="8.1"/>
		<rect x="604.5" y="326.4" width="1" height="8.1"/>
		<rect x="602.2" y="326.4" width="1" height="8.1"/>
	</g>
</g>
<polygon class="st39" points="808.5,335.8 812.7,344.2 822.1,345.6 815.3,352.2 816.9,361.5 808.5,357.1 800.2,361.5 801.8,352.2 
	795,345.6 804.4,344.2 "/>
<g>
	<rect x="715.4" y="324" class="st31" width="18.4" height="18.4"/>
	<rect x="715.4" y="327.9" class="st20" width="18.4" height="12.3"/>
	<text transform="matrix(1 0 0 1 717.3699 337.8381)" class="st11 st25 st32">30</text>
</g>
<g>
	<rect x="713.6" y="301.9" class="st31" width="18.4" height="18.4"/>
	<rect x="713.6" y="305.8" class="st20" width="18.4" height="12.3"/>
	<text transform="matrix(1 0 0 1 715.6322 315.7296)" class="st11 st25 st32">29</text>
</g>
</svg>
