<?xml version="1.0" encoding="utf-8"?>
<!-- Generator: Adobe Illustrator 22.0.1, SVG Export Plug-In . SVG Version: 6.00 Build 0)  -->
<svg version="1.1" id="Layer_1" xmlns="http://www.w3.org/2000/svg" xmlns:xlink="http://www.w3.org/1999/xlink" x="0px" y="0px"
	 viewBox="0 0 841.9 595.3" style="enable-background:new 0 0 841.9 595.3;" xml:space="preserve">
<style type="text/css">
	.st0{fill:#F4F1B7;}
	.st1{fill:#2D2E82;enable-background:new    ;}
	.st2{fill:#009EE2;}
	.st3{fill:none;}
	.st4{fill:#FFFFFF;}
	.st5{font-family:'Roboto-Regular';}
	.st6{font-size:9px;}
	.st7{fill:none;stroke:#383185;stroke-width:15;stroke-miterlimit:10;}
	.st8{fill:none;stroke:#383185;stroke-width:16;stroke-miterlimit:10;}
	.st9{font-family:'MyriadPro-Regular';}
	.st10{font-size:9.0003px;}
	.st11{font-size:8.9997px;}
	.st12{font-size:9.0005px;}
	.st13{font-size:9.0004px;}
	.st14{fill:none;stroke:#383185;stroke-width:0.75;stroke-miterlimit:10;}
	.st15{fill:#E84E1B;}
	.st16{fill:#1D1D1B;}
	.st17{font-size:12px;}
	.st18{fill:#CABA9F;}
	.st19{font-size:14px;}
	.st20{font-size:13.9994px;}
	.st21{fill:#A4D2B2;}
	.st22{fill:#FFEC00;}
	.st23{fill:#E20613;enable-background:new    ;}
	.st24{fill:#ED7278;}
	.st25{fill:#E20613;}
	.st26{fill:#E61B72;}
	.st27{enable-background:new    ;}
	.st28{fill:#2C2F7C;}
	.st29{fill:none;stroke:#FFEC00;stroke-width:8;stroke-miterlimit:10;}
	.st30{opacity:0.95;fill:#FFFFFF;enable-background:new    ;}
	.st31{fill:#312782;}
	.st32{font-family:'MyriadPro-Bold';}
	.st33{letter-spacing:15;}
	.st34{letter-spacing:33;}
	.st35{letter-spacing:22;}
	.st36{letter-spacing:31;}
	.st37{letter-spacing:1;}
	.st38{letter-spacing:7;}
	.st39{letter-spacing:29;}
	.st40{letter-spacing:27;}
	.st41{letter-spacing:11;}
	.st42{letter-spacing:19;}
	.st43{letter-spacing:32;}
	.st44{letter-spacing:28;}
	.st45{letter-spacing:25;}
	.st46{letter-spacing:2;}
	.st47{letter-spacing:20;}
	.st48{letter-spacing:4;}
	.st49{letter-spacing:9;}
	.st50{letter-spacing:16;}
	.st51{letter-spacing:18;}
	.st52{letter-spacing:30;}
	.st53{letter-spacing:13;}
</style>
<circle class="st1" cx="724.5" cy="324.9" r="47.9"/>
<g>
	<path class="st2" d="M134.5,186.5c14.7-5.1,28.8-10.8,42.5-17.4c13.6-6.6,26.9-13.9,40.2-21.5c13.2-7.6,26.4-15.5,39.7-23.2l10-5.8
		c3.4-1.9,6.7-3.8,10.2-5.7c3.5-1.9,7-3.7,10.6-5.4c3.5-1.7,7.1-3.4,10.8-5c14.4-6.4,29.4-11.4,44.4-16.1c15-4.6,30.1-8.9,45.2-13
		c7.6-2,15.2-3.9,22.9-5.5c7.8-1.5,15.6-3,24.1-2.7c2.1,0.1,4.3,0.3,6.7,0.9l0.9,0.2l0.9,0.3c0.6,0.2,1.2,0.5,1.8,0.7
		c0.6,0.2,1.2,0.7,1.8,1c0.6,0.4,1.2,0.8,1.8,1.4c1.2,1,2.1,2.4,2.9,3.9c0.3,0.8,0.6,1.5,0.8,2.3c0.1,0.4,0.2,0.8,0.2,1.2l0.1,1.1
		v0.6v0.4v0.7v1.5l0.1,2.9c0.2,7.9,0.5,15.7,0.3,23.6c-0.1,7.9-0.3,15.8-0.8,23.6c-0.2,3.9-0.5,7.9-0.8,11.8
		c-0.4,3.9-0.7,7.8-1.2,11.7c-1.8,15.6-4.6,31.1-7.4,46.3l-4.2,22.8c-1.4,7.5-2.6,15-3.6,22.1c-0.5,3.6-0.8,7.1-1,10.3
		c-0.1,0.8-0.1,1.6-0.1,2.3v1.1l0.1,1v1l0.1,0.8v0.4v0.2c0,0.1,0,0.1,0,0.3l0.2,1.3c1.2,7.2,2.7,14.1,4.6,20.7s4.4,12.7,7.6,18.1
		c3.1,5.5,7.2,10.3,12.1,14.9c5,4.6,10.8,9.1,17,13.8c3.1,2.3,6.2,4.7,9.3,7.2c1.6,1.2,3.1,2.5,4.7,3.7c1.5,1.3,3.1,2.6,4.6,3.9
		s3,2.6,4.5,4c1.5,1.3,3,2.7,4.4,4.1c1.5,1.4,2.9,2.9,4.4,4.3s2.8,3,4.2,4.5c5.5,6.1,10.4,12.5,14.8,19.2
		c8.9,13.4,15.6,27.9,20.8,42.6l-2.3,1.2c-9.2-12.6-18.5-24.8-29-35.5c-5.2-5.4-10.7-10.4-16.4-15.1c-2.8-2.3-5.7-4.5-8.7-6.7
		s-6.1-4.3-9.2-6.3c-6.2-4.1-12.6-8-19.3-12c-6.6-4.1-13.5-8.3-20.3-13.7c-6.8-5.4-13.4-12.1-18.4-19.8c-2.5-3.8-4.8-7.8-6.6-11.9
		c-0.5-1-0.9-2-1.3-3s-0.9-2-1.3-3.1c-0.7-2-1.5-4.1-2.2-6.1c-2.6-8.2-4.4-16.4-5.7-24.5l-0.2-1.5c0-0.1,0-0.3-0.1-0.5l-0.1-0.5
		l-0.1-1l-0.2-2.1l-0.1-1.9V260v-1.8c0-1.2,0.1-2.4,0.2-3.5c0.3-4.5,1-8.7,1.7-12.8c1.4-8.1,3.2-15.8,5.1-23.4
		c1.9-7.6,3.8-15.1,5.7-22.6c3.8-14.9,7.3-29.8,10.8-44.7l2.6-11.2c0.9-3.7,1.7-7.4,2.5-11.2c1.6-7.5,3-15,4.3-22.5
		c1.2-7.5,2.2-15.1,2.9-22.7l0.2-2.9l0.1-1.4l0.1-0.7v-0.3v-0.2c0-0.1,0-0.2,0-0.3v-0.3c0-0.2-0.1-0.3,0-0.5
		c-0.1-0.3-0.1-0.5-0.4-0.8c-0.4-0.6-1.6-1.3-2.9-1.7c-1.4-0.5-3-0.8-4.7-1c-3.4-0.4-7.1-0.3-10.8,0.1c-3.7,0.3-7.4,0.9-11.1,1.6
		c-7.4,1.4-14.8,3.5-22.1,5.9c-14.5,4.8-28.6,11.2-42.2,18.2c-13.6,7-26.9,14.7-40.1,22.2l-19.7,11.3c-3.2,1.9-6.6,3.8-10,5.7
		s-6.8,3.7-10.2,5.6c-13.6,7.4-27.5,14.6-41.9,21c-14.3,6.5-29.2,12.2-44.5,16.5c-7.7,2.1-15.4,3.9-23.3,5
		c-7.8,1.3-15.8,1.8-23.6,1.9L134.5,186.5z"/>
</g>
<rect x="207.7" y="124.8" class="st3" width="126" height="78"/>
<text transform="matrix(1 0 0 1 257.2687 131.5714)" class="st4 st5 st6">Eibach</text>
<circle class="st7" cx="203.3" cy="129.7" r="20.8"/>
<path class="st8" d="M194.7,113.3c-13.2-30.4-26.3-60.8-39.5-91.2"/>
<path class="st8" d="M97.5,166.1c27.6-9,55.2-18,82.8-27l0,0l0,0l0,0"/>
<path class="st7" d="M225.7,123.1c3.1-1.5,38.1-17,41-18.9C341,55.9,442.4,52.6,499.5,52.6c100.2,0.1,128.3,16.6,209.2,4.2
	c29.1-4.4,91.3-17.7,106-22"/>
<path class="st7" d="M657.4,181.2c26.9-8.6,60.8-18.1,87.7-26.7"/>
<path class="st7" d="M736.4,151.5c-10.2-29.8-20.4-59.6-30.7-89.3"/>
<path class="st7" d="M501.1,57.8c-10.1,27.5-19.4,65-32,116c-11,44.7,3,85.7,26,128.3"/>
<path class="st7" d="M469.1,173.8c-15.5-7.4-48.8-19.5-79.3-22c-41.4-3.4-60.2,18.4-101,18c-17.7-0.2-47,6-74.8-22.2"/>
<path class="st7" d="M282,173.1c0,0-24.3,63.7-73.9,89.7"/>
<path class="st7" d="M141.7,272.8c55.4-37,74.2-44,112.9-50.9"/>
<path class="st7" d="M461.7,357.8c9.7-13.7,27.3-45.3,37-59"/>
<path class="st7" d="M600,406.8c-29-67-61.3-93.4-103.3-106.9"/>
<path class="st7" d="M699.7,322.8c-77-13.1-129-15.1-192-19"/>
<path class="st7" d="M716.7,304.8c-45-116-64.1-131.6-81-137c-41.5-13.3-49.6-2.9-109,3c-20.7,2.1-43.7,4.4-55,6"/>
<circle class="st7" cx="724.6" cy="323.8" r="20.8"/>
<path class="st7" d="M707.2,339.6c-65.1,29.9-87.2,53.3-108.8,75.2"/>
<path class="st7" d="M856.7,363.8c-33-24.2-55.7-35.5-111.3-40"/>
<path class="st7" d="M869.7,561.3c-132.2-98-145.2-115.3-145.2-216.7"/>
<circle class="st7" cx="705.4" cy="59" r="15"/>
<g>
	<path class="st4" d="M833,527.7L833,527.7c0.1,0.2,0.2,0.2,0.2,0.2c0.2,0.7,0.5,1.4,0.7,2.2c0.4,1.3,0.8,2.5,1.2,3.8
		c0.1,0.4,0.3,0.7,0.3,1.1c-0.1,0.1-0.1,0.2-0.2,0.3c-0.2,0.1-0.5,0-0.7,0c-1.5-0.1-3-0.3-4.5-0.4c-0.7-0.1-1.4-0.1-2.1-0.2
		c-0.1,0-0.2-0.1-0.3-0.2c-0.1-0.1,0-0.2,0.1-0.3c0.3-0.4,0.7-0.8,1-1.2c0.2-0.3,0.2-0.6-0.1-0.8c-1.6-1.3-3.2-2.6-4.7-3.8
		c-0.3-0.2-0.5-0.4-0.5-0.8c0.7-0.8,1.4-1.7,2.1-2.5c0.3-0.1,0.6,0.1,0.9,0.3c1.6,1.3,3.2,2.6,4.7,3.8c0.3,0.2,0.6,0.2,0.8-0.1
		c0.3-0.4,0.6-0.8,1-1.2C832.7,527.8,832.8,527.7,833,527.7z"/>
</g>
<rect x="117.2" y="126.7" transform="matrix(0.9511 -0.309 0.309 0.9511 -37.6487 72.706)" class="st3" width="187" height="57"/>
<text transform="matrix(0.9511 -0.309 0.309 0.9511 115.0025 163.0606)" class="st4 st9 st10">Sissach</text>
<rect x="210" y="196" transform="matrix(0.7986 -0.6018 0.6018 0.7986 -73.9925 227.8269)" class="st3" width="187" height="57"/>
<text transform="matrix(0.7986 -0.6018 0.6018 0.7986 215.4596 263.1616)" class="st4 st9 st11">Allmend</text>
<rect x="148.2" y="-85.7" transform="matrix(0.9205 -0.3907 0.3907 0.9205 10.9892 69.6567)" class="st3" width="57" height="187"/>
<text transform="matrix(-0.3907 -0.9205 0.9205 -0.3907 192.843 102.513)" class="st4 st9 st6">Rickenbach / Buus</text>
<rect x="642.2" y="284.6" transform="matrix(0.1219 -0.9925 0.9925 0.1219 253.5442 924.6423)" class="st3" width="14.4" height="68.8"/>
<text transform="matrix(0.9925 0.1219 -0.1219 0.9925 615.2545 314.0166)" class="st4 st9 st12">Rössligasse</text>
<rect x="749.2" y="39.2" transform="matrix(0.9781 -0.2079 0.2079 0.9781 6.9134 163.8796)" class="st3" width="67.8" height="19.7"/>
<text transform="matrix(0.9782 -0.2079 0.2079 0.9782 749.1526 52.7786)" class="st4 st9 st13">Ormalingen</text>
<g>
	<g>
		<path class="st4" d="M723.2,290c-0.5-2.8-0.8-4.2-1.3-7c1.2-0.2,1.8-0.3,3.1-0.4c0.9-0.1,1.8,0,2.5,0.2s1.3,0.6,1.6,1.1
			c0.4,0.5,0.5,1.1,0.5,1.7c0,0.2,0,0.3,0,0.5c0,0.7-0.2,1.3-0.5,1.8s-0.8,0.9-1.4,1.2c-0.6,0.3-1.3,0.5-2,0.6
			C724.6,289.8,724.1,289.9,723.2,290z M723.4,283.6c0.3,2.2,0.5,3.3,0.8,5.5c0.5-0.1,0.7-0.1,1.2-0.2c0.9-0.1,1.6-0.4,2.1-0.8
			c0.5-0.5,0.8-1.1,0.7-1.9c0-0.2,0-0.2,0-0.4c0-0.8-0.3-1.4-0.8-1.9c-0.6-0.4-1.4-0.6-2.4-0.5C724.4,283.4,724.1,283.5,723.4,283.6
			z"/>
		<path class="st4" d="M730.9,286.9c0-0.5,0.2-1,0.5-1.4s0.7-0.7,1.3-0.8c0.5-0.2,1.1-0.2,1.8-0.1c1,0.2,1.7,0.6,2.2,1.2
			s0.6,1.3,0.4,2.1c0,0,0,0,0,0.1c-0.1,0.5-0.4,0.9-0.7,1.2c-0.3,0.3-0.7,0.6-1.2,0.7s-1,0.1-1.5,0.1c-0.8-0.1-1.5-0.5-2-1
			C731.1,288.5,730.8,287.8,730.9,286.9L730.9,286.9z M732.1,287.1c-0.1,0.6,0.1,1.1,0.4,1.5c0.3,0.4,0.7,0.6,1.2,0.7s1,0,1.4-0.3
			s0.7-0.7,0.8-1.4c0.1-0.6,0.1-1.1-0.2-1.5s-0.7-0.7-1.4-0.8c-0.6-0.1-1.1,0-1.5,0.3C732.4,286,732.1,286.5,732.1,287.1z"/>
		<path class="st4" d="M742.2,287.8c-0.2-0.1-0.3-0.2-0.5-0.3c-0.7-0.3-1.3-0.2-1.8,0.1c-0.5,1.4-0.7,2.1-1.2,3.5
			c-0.4-0.1-0.6-0.2-1-0.3c0.6-2,0.9-3,1.6-5c0.5,0.1,0.7,0.2,1.2,0.4c-0.1,0.2-0.1,0.3-0.2,0.6c0.5-0.3,1.2-0.3,1.9-0.1
			c0.2,0.1,0.4,0.2,0.5,0.3C742.4,287.3,742.3,287.5,742.2,287.8z"/>
		<path class="st4" d="M741.9,292.6c0.8-1.6,1.2-2.5,2-4.1c-0.4-0.2-0.6-0.3-1-0.5c0.1-0.3,0.2-0.4,0.3-0.6c0.4,0.2,0.6,0.3,1,0.5
			c0.1-0.2,0.1-0.3,0.2-0.5c0.2-0.5,0.6-0.8,1.2-0.9c0.5-0.1,1.2,0.1,1.9,0.5c0.3,0.2,0.5,0.3,0.7,0.5c-0.2,0.2-0.3,0.4-0.4,0.6
			c-0.2-0.1-0.4-0.3-0.6-0.4c-0.4-0.2-0.7-0.3-1-0.2c-0.3,0-0.5,0.2-0.6,0.5c-0.1,0.2-0.2,0.3-0.3,0.5c0.5,0.3,0.8,0.4,1.3,0.8
			c-0.1,0.2-0.2,0.4-0.4,0.6c-0.5-0.3-0.8-0.5-1.3-0.7c-0.9,1.6-1.3,2.4-2.2,4C742.4,292.9,742.2,292.8,741.9,292.6z"/>
		<path class="st4" d="M750.8,295.6c-0.5,0.6-1.2,0.9-1.8,1c-0.7,0.1-1.2-0.1-1.8-0.6s-0.9-1-1.1-1.5c-0.6,0.8-0.9,1.3-1.4,2.1
			c-0.3-0.2-0.5-0.3-0.8-0.5c1.6-2.5,2.4-3.7,4-6.2c0.4,0.2,0.6,0.4,0.9,0.6c-0.1,0.2-0.2,0.3-0.3,0.5c0.7-0.1,1.4,0.1,2.1,0.7
			c0.7,0.5,1.1,1.2,1.1,1.9C751.7,294.2,751.4,294.9,750.8,295.6C750.8,295.5,750.8,295.6,750.8,295.6z M750,294.7
			c0.4-0.5,0.6-0.9,0.5-1.4c0-0.5-0.3-0.9-0.8-1.3c-0.6-0.4-1.2-0.6-1.7-0.4c-0.6,0.8-0.9,1.2-1.4,2.1c0,0.6,0.3,1.1,0.8,1.5
			c0.4,0.3,0.8,0.4,1.3,0.4C749.1,295.5,749.6,295.3,750,294.7z"/>
		<path class="st4" d="M750.8,299.2c-0.3-0.3-0.4-0.5-0.7-0.8c2.1-2.1,3.2-3.2,5.3-5.3c0.4,0.4,0.6,0.6,0.9,1
			C754.1,296.2,753,297.2,750.8,299.2z"/>
		<path class="st4" d="M754.2,303.6c0.1-0.1,0.2-0.2,0.4-0.4c-0.6-0.2-1.1-0.6-1.5-1.1s-0.5-1-0.6-1.5c0-0.5,0.1-0.9,0.5-1.2
			c0.4-0.4,0.9-0.4,1.5-0.2c0.6,0.2,1.2,0.7,1.7,1.6c0.3,0.4,0.4,0.6,0.6,1c0.1-0.1,0.2-0.1,0.4-0.2c0.3-0.2,0.4-0.4,0.4-0.7
			c0-0.3-0.1-0.7-0.4-1.1c-0.3-0.4-0.5-0.6-0.8-0.7s-0.6-0.1-0.7,0c-0.3-0.4-0.4-0.6-0.7-0.9c0.2-0.2,0.5-0.2,0.8-0.2
			c0.4,0,0.7,0.2,1.1,0.5c0.4,0.3,0.7,0.6,1,1.1c0.5,0.7,0.7,1.3,0.7,1.9s-0.2,1-0.7,1.3c-0.8,0.5-1.3,0.7-2.1,1.2
			c-0.4,0.2-0.7,0.5-0.9,0.8c0,0,0,0-0.1,0C754.5,304.2,754.4,304,754.2,303.6z M753.7,301.7c0.2,0.3,0.4,0.5,0.7,0.7
			s0.6,0.3,0.8,0.3c0.4-0.2,0.5-0.3,0.9-0.6c-0.2-0.3-0.3-0.5-0.5-0.8c-0.8-1.2-1.5-1.5-2-1.1c-0.2,0.2-0.3,0.4-0.3,0.7
			C753.4,301.2,753.5,301.5,753.7,301.7z"/>
		<path class="st4" d="M762.1,304.5c-0.5,0.2-0.7,0.3-1.2,0.5c0.2,0.5,0.3,0.8,0.6,1.3c-0.3,0.1-0.4,0.2-0.6,0.3
			c-0.2-0.5-0.3-0.8-0.5-1.3c-1.2,0.5-1.8,0.8-3,1.4c-0.2,0.1-0.3,0.2-0.4,0.3c-0.1,0.1,0,0.3,0.1,0.6c0.1,0.1,0.1,0.3,0.3,0.5
			c-0.3,0.1-0.4,0.2-0.7,0.3c-0.2-0.2-0.3-0.5-0.4-0.7c-0.2-0.4-0.2-0.8-0.1-1.2s0.4-0.6,0.8-0.8c1.2-0.6,1.8-0.9,2.9-1.5
			c-0.2-0.5-0.4-0.7-0.6-1.2c0.2-0.1,0.4-0.2,0.6-0.3c0.3,0.5,0.4,0.7,0.6,1.2c0.5-0.2,0.7-0.3,1.1-0.6
			C761.7,303.8,761.8,304,762.1,304.5z"/>
		<path class="st4" d="M758,310.2c0.5,1.5,0.7,2.2,1,3.8c-0.3,0.1-0.4,0.1-0.7,0.1c-0.4-2.1-0.7-3.1-1.4-5c0.2-0.1,0.4-0.1,0.6-0.2
			c2,0.8,2.9,1.3,4.8,2.6c-0.4-1.6-0.6-2.4-1.2-3.9c0.3-0.1,0.4-0.2,0.7-0.3c0.8,2.1,1.1,3.3,1.5,5.6c-0.3,0-0.4,0.1-0.6,0.1
			C761,311.7,760,311.2,758,310.2z"/>
	</g>
</g>
<rect x="591.3" y="358.3" transform="matrix(0.829 -0.5592 0.5592 0.829 -102.7171 441.5939)" class="st3" width="159" height="61"/>
<text transform="matrix(0.829 -0.5592 0.5592 0.829 635.041 384.272)" class="st4 st5 st6">Ochsengasse</text>
<rect x="625.9" y="365.4" transform="matrix(1.745910e-02 -0.9998 0.9998 1.745910e-02 297.1859 1094.2815)" class="st3" width="159" height="61"/>
<text transform="matrix(6.974753e-02 0.9976 -0.9976 6.974753e-02 722.626 359.3651)" class="st4 st5 st10">Marktgasse</text>
<text transform="matrix(6.974753e-02 0.9976 -0.9976 6.974753e-02 722.626 359.3651)" class="st14 st5 st10">Marktgasse</text>
<polygon class="st3" points="805.2,587.5 685.2,483.2 728.6,439.8 848.6,544.1 "/>
<text transform="matrix(0.7547 0.6561 -0.6561 0.7547 751.6817 468.8163)" class="st4 st5 st6">Tecknau / Rünenberg</text>
<g>
	<path class="st4" d="M105.7,168.1L105.7,168.1c-0.1-0.1-0.2,0-0.3,0c-0.7-0.2-1.5-0.4-2.2-0.6c-1.3-0.4-2.6-0.7-3.9-1.1
		c-0.4-0.1-0.7-0.1-1.1-0.3c0-0.1-0.1-0.2-0.1-0.3c0-0.2,0.2-0.4,0.4-0.6c0.9-1.2,1.9-2.4,2.8-3.5c0.4-0.6,0.9-1.1,1.3-1.7
		c0.1-0.1,0.2-0.2,0.3-0.2c0.1,0,0.2,0.1,0.2,0.2c0.2,0.5,0.3,1,0.5,1.5c0.1,0.3,0.4,0.5,0.7,0.3c1.9-0.6,3.9-1.3,5.8-1.9
		c0.3-0.1,0.6-0.2,0.9,0c0.3,1,0.7,2.1,1,3.1c-0.1,0.3-0.4,0.5-0.8,0.6c-1.9,0.6-3.9,1.3-5.8,1.9c-0.3,0.1-0.5,0.4-0.4,0.7
		c0.2,0.5,0.3,1,0.5,1.5C105.8,167.8,105.8,167.9,105.7,168.1z"/>
</g>
<g>
	<path class="st4" d="M153.7,31.2c0,0,0-0.1-0.1-0.1c0.1,0,0-0.1,0-0.2c0.1-0.7,0.3-1.5,0.4-2.2c0.2-1.3,0.5-2.6,0.7-3.9
		c0.1-0.4,0.1-0.7,0.3-1.1c0.1,0,0.2-0.1,0.3-0.1c0.2,0,0.4,0.2,0.6,0.3c1.3,0.8,2.5,1.7,3.8,2.5c0.6,0.4,1.2,0.8,1.8,1.2
		c0.1,0.1,0.2,0.2,0.2,0.3c0,0.1-0.1,0.2-0.2,0.2c-0.5,0.2-1,0.4-1.4,0.6c-0.3,0.1-0.4,0.4-0.3,0.8c0.8,1.9,1.6,3.7,2.4,5.6
		c0.1,0.3,0.2,0.6,0.1,0.9c-1,0.4-2,0.9-3,1.3c-0.3-0.1-0.5-0.4-0.6-0.7c-0.8-1.9-1.6-3.7-2.4-5.6c-0.1-0.3-0.4-0.4-0.7-0.3
		c-0.5,0.2-0.9,0.4-1.4,0.6C154,31.2,153.8,31.2,153.7,31.2z"/>
</g>
<g>
	<path class="st4" d="M804.2,32.9L804.2,32.9c0.1,0.1,0.2,0,0.3,0c0.7,0.3,1.4,0.5,2.1,0.8c1.3,0.4,2.5,0.9,3.8,1.3
		c0.3,0.1,0.7,0.2,1,0.4c0,0.1,0.1,0.2,0.1,0.3c-0.1,0.2-0.3,0.4-0.4,0.6c-1,1.1-2,2.2-3.1,3.3c-0.5,0.5-1,1-1.4,1.6
		c-0.1,0.1-0.2,0.1-0.3,0.1s-0.2-0.1-0.2-0.2c-0.1-0.5-0.3-1-0.4-1.5c-0.1-0.3-0.3-0.5-0.7-0.4c-2,0.5-4,1-5.9,1.5
		c-0.3,0.1-0.6,0.1-0.9-0.1c-0.3-1.1-0.5-2.1-0.8-3.2c0.2-0.3,0.5-0.4,0.8-0.5c2-0.5,4-1,5.9-1.5c0.3-0.1,0.5-0.4,0.4-0.7
		c-0.1-0.5-0.2-1-0.4-1.5C804.1,33.1,804.1,33,804.2,32.9z"/>
</g>
<g>
	<g>
		<rect x="337" y="125.5" class="st15" width="78.4" height="16.8"/>
		<rect x="340.9" y="129.9" class="st3" width="74.5" height="12.5"/>
		<text transform="matrix(1 0 0 1 340.8911 138.3891)" class="st16 st9 st17">Kantonalbank</text>
	</g>
	<g>
		<rect x="367" y="165.7" class="st15" width="29.9" height="18.8"/>
		<rect x="370.9" y="170" class="st3" width="26" height="14.5"/>
		<text transform="matrix(1 0 0 1 370.8911 178.5195)" class="st16 st9 st17">Post</text>
	</g>
	<g>
		<rect x="242.1" y="251.9" class="st15" width="37" height="28.1"/>
		<rect x="247.8" y="261.9" class="st3" width="47.3" height="20.6"/>
		<text transform="matrix(1 0 0 1 247.7981 270.408)" class="st16 st9 st17">Coop</text>
	</g>
	<g>
		<path class="st18" d="M208.4,227.2H208c-5.5,0-9.9-4.4-9.9-9.9v-0.4c0-5.5,4.4-9.9,9.9-9.9h0.4c5.5,0,9.9,4.4,9.9,9.9v0.4
			C218.3,222.7,213.9,227.2,208.4,227.2z"/>
		<rect x="196.2" y="210.4" class="st3" width="24" height="11.3"/>
		<text transform="matrix(1 0 0 1 199.9527 220.3414)" class="st16 st9 st19">wc</text>
	</g>
	<g>
		<path class="st18" d="M631.6,191.2h-0.4c-5.5,0-9.9-4.4-9.9-9.9V181c0-5.5,4.4-9.9,9.9-9.9h0.4c5.5,0,9.9,4.4,9.9,9.9v0.4
			C641.5,186.8,637,191.2,631.6,191.2z"/>
		<rect x="619.4" y="174.5" class="st3" width="24" height="11.3"/>
		<text transform="matrix(1 0 0 1 623.1033 184.4294)" class="st16 st9 st19">wc</text>
	</g>
	<g>
		<path class="st18" d="M585.9,334h-0.4c-5.5,0-9.9-4.4-9.9-9.9v-0.4c0-5.5,4.4-9.9,9.9-9.9h0.4c5.5,0,9.9,4.4,9.9,9.9v0.4
			C595.8,329.6,591.4,334,585.9,334z"/>
		<rect x="573.7" y="317.2" class="st3" width="24" height="11.3"/>
		<text transform="matrix(1 0 0 1 577.4366 327.1743)" class="st16 st9 st19">wc</text>
	</g>
	<g>
		<path class="st18" d="M814.5,333.5h-0.4c-5.5,0-9.9-4.4-9.9-9.9v-0.4c0-5.5,4.4-9.9,9.9-9.9h0.4c5.5,0,9.9,4.4,9.9,9.9v0.4
			C824.5,329.1,820,333.5,814.5,333.5z"/>
		<rect x="802.4" y="316.8" class="st3" width="24" height="11.3"/>
		<text transform="matrix(1 0 0 1 806.0729 326.707)" class="st16 st9 st19">wc</text>
	</g>
	<g>
		<path class="st18" d="M717.6,430.9h-0.4c-5.5,0-9.9-4.4-9.9-9.9v-0.4c0-5.5,4.4-9.9,9.9-9.9h0.4c5.5,0,9.9,4.4,9.9,9.9v0.4
			C727.5,426.5,723.1,430.9,717.6,430.9z"/>
		<rect x="705.4" y="414.2" class="st3" width="24" height="11.3"/>
		<text transform="matrix(1 0 0 1 709.1082 424.0927)" class="st16 st9 st19">wc</text>
	</g>
	<g>
		<path class="st18" d="M663.3,394.3h-0.4c-5.5,0.4-10.2-3.6-10.7-9.1v-0.4c-0.4-5.5,3.6-10.2,9.1-10.7h0.4
			c5.5-0.4,10.2,3.6,10.7,9.1v0.4C672.9,389.1,668.8,393.9,663.3,394.3z"/>
		
			<rect x="650.3" y="377.6" transform="matrix(0.9969 -7.811914e-02 7.811914e-02 0.9969 -27.9139 52.9071)" class="st3" width="24" height="11.3"/>
		<text transform="matrix(0.9969 -7.812342e-02 7.812342e-02 0.9969 654.3669 388.0921)" class="st16 st9 st20">wc</text>
	</g>
	<g>
		
			<rect x="603.5" y="383.3" transform="matrix(0.8968 -0.4424 0.4424 0.8968 -114.0922 311.2231)" class="st21" width="13.3" height="33.7"/>
		
			<rect x="603.5" y="383.7" transform="matrix(0.8968 -0.4424 0.4424 0.8968 -114.3232 310.9099)" class="st3" width="11.7" height="33.7"/>
		<text transform="matrix(0.4424 0.8968 -0.8968 0.4424 602.4338 395.7562)" class="st16 st9 st19">B4</text>
	</g>
	<g>
		
			<rect x="512.4" y="307" transform="matrix(0.5221 -0.8529 0.8529 0.5221 -28.1669 597.467)" class="st21" width="13.3" height="33.7"/>
		
			<rect x="512.7" y="307.7" transform="matrix(0.5221 -0.8529 0.8529 0.5221 -28.9692 597.3918)" class="st3" width="11.7" height="33.7"/>
		<text transform="matrix(0.8529 0.5221 -0.5221 0.8529 510.1969 324.1813)" class="st16 st9 st19">B5</text>
	</g>
	<g>
		
			<rect x="682.8" y="180.7" transform="matrix(0.3077 -0.9515 0.9515 0.3077 289.3126 792.7898)" class="st21" width="13.3" height="33.7"/>
		
			<rect x="683.4" y="181.5" transform="matrix(0.3077 -0.9515 0.9515 0.3077 288.4599 793.076)" class="st3" width="11.7" height="33.7"/>
		<text transform="matrix(0.9515 0.3077 -0.3077 0.9515 680.8893 200.0537)" class="st16 st9 st19">B6</text>
	</g>
	<g>
		
			<rect x="738.9" y="451.5" transform="matrix(0.9333 -0.3591 0.3591 0.9333 -114.1011 301.9449)" class="st21" width="33.7" height="13.3"/>
		
			<rect x="739.2" y="453.1" transform="matrix(0.9333 -0.3591 0.3591 0.9333 -114.3673 302.1087)" class="st3" width="33.7" height="11.7"/>
		<text transform="matrix(0.9333 -0.3591 0.3591 0.9333 750.5735 465.4531)" class="st16 st9 st19">B3</text>
	</g>
	<g>
		
			<rect x="780.9" y="284.1" transform="matrix(0.9529 -0.3032 0.3032 0.9529 -54.1763 252.9569)" class="st21" width="13.3" height="33.7"/>
		
			<rect x="780.9" y="284.4" transform="matrix(0.9529 -0.3032 0.3032 0.9529 -54.3099 252.7266)" class="st3" width="11.7" height="33.7"/>
		<text transform="matrix(0.3032 0.9529 -0.9529 0.3032 780.5835 295.4553)" class="st16 st9 st19">B2</text>
	</g>
	<g>
		
			<rect x="762.3" y="254.5" transform="matrix(0.5715 -0.8206 0.8206 0.5715 106.8288 747.2307)" class="st21" width="13.3" height="33.7"/>
		
			<rect x="762.5" y="255.1" transform="matrix(0.5715 -0.8206 0.8206 0.5715 106.0599 747.0753)" class="st3" width="11.7" height="33.7"/>
		<text transform="matrix(0.8206 0.5715 -0.5715 0.8206 759.965 271.191)" class="st16 st9 st19">B1</text>
	</g>
</g>
<g>
	<g>
		<path class="st22" d="M248.6,234.5c12.2-19.8,24.4-39.7,36.6-59.5c-1.1,0.6-2.2,1.2-3.2,1.9c19.5-1,38.2-5.9,55.7-14.4
			c8.4-4.1,17-7.2,26.4-8c10-0.9,20.1,0.4,30,1.6c19.7,2.3,38.7,7.5,57.3,14.5c4.2,1.6,8.4,3.2,12.5,4.9c4.3,1.8,8.6,4.7,13.3,4.5
			c11.4-0.5,22.8-2.2,34.1-3.4c15.5-1.7,31-3.5,46.4-5.8c10.4-1.6,20.9-4.1,31.4-5c18.3-1.7,37.8-0.9,53.5,9.7
			c14.3,9.6,23.9,26,32.1,40.8c15.2,27.6,27.1,57.2,37.3,86.9c0.6-1.4,1.1-2.8,1.7-4.2c-9.1,6.6-15.5,18-13.4,29.5
			c2.3,12.5,14.3,21.2,26.9,19.8c11.8-1.4,21-11.1,21.8-22.9c0.6-8.7-4.1-17-11-22c-3.9-2.8-7.7,3.7-3.8,6.5
			c11.4,8.1,8.9,27.8-6.5,30.8c-9.6,1.9-19.2-5.1-20.2-14.9c-0.8-7.8,3.8-15.8,10-20.3c1.3-0.9,2.3-2.6,1.7-4.2
			c-10.3-29.9-22.2-59.7-37.4-87.5c-8.9-16.3-19.4-33.7-35-44.4c-16.8-11.5-38.1-12.8-57.8-11c-12.1,1.1-24.1,4-36.1,5.7
			c-19,2.8-38.1,4.8-57.2,6.7c-3.6,0.4-7.2,0.7-10.8,1.1c-2.6,0.3-6.3,1.4-8.8,0.9c-2-0.3-4.4-2-6.3-2.8c-2.9-1.2-5.8-2.5-8.7-3.6
			c-9.1-3.6-18.2-7-27.6-9.7c-11-3.3-22.3-5.7-33.7-7.3c-11.7-1.6-23.8-3.3-35.7-2.3c-11,1-20.9,4.6-30.7,9.3
			c-12.1,5.9-25,9.9-38.3,11.8c-2.8,0.4-5.6,0.7-8.5,1c-2,0.2-4.7-0.2-6.5,0.8c-2.5,1.4-4.1,5.8-5.5,8.2c-2.1,3.4-4.2,6.8-6.3,10.2
			c-8.7,14.2-17.4,28.4-26.2,42.5C239.6,234.8,246.1,238.6,248.6,234.5L248.6,234.5z"/>
	</g>
</g>
<rect x="635.1" y="290.1" class="st23" width="19.7" height="7"/>
<g>
	<g>
		<rect x="656.2" y="222.2" class="st24" width="18.4" height="18.4"/>
		<rect x="656.2" y="226" class="st3" width="18.4" height="12.3"/>
		<text transform="matrix(1 0 0 1 661.8007 235.9711)" class="st16 st9 st19">2</text>
	</g>
	<g>
		<rect x="670.8" y="242.5" class="st24" width="18.4" height="18.4"/>
		<rect x="670.8" y="246.4" class="st3" width="18.4" height="12.3"/>
		<text transform="matrix(1 0 0 1 676.4017 256.2945)" class="st16 st9 st19">3</text>
	</g>
	<g>
		<rect x="680.9" y="262.8" class="st24" width="18.4" height="18.4"/>
		<rect x="680.9" y="266.7" class="st3" width="18.4" height="12.3"/>
		<text transform="matrix(1 0 0 1 686.4917 276.6183)" class="st16 st9 st19">4</text>
	</g>
	<g>
		<rect x="699" y="223.9" class="st24" width="18.4" height="18.4"/>
		<rect x="699" y="227.7" class="st3" width="18.4" height="12.3"/>
		<text transform="matrix(1 0 0 1 704.6139 237.6849)" class="st16 st9 st19">5</text>
	</g>
	<g>
		<rect x="708.2" y="242" class="st24" width="18.4" height="18.4"/>
		<rect x="708.2" y="245.8" class="st3" width="18.4" height="12.3"/>
		<text transform="matrix(1 0 0 1 713.8046 255.7639)" class="st16 st9 st19">6</text>
	</g>
	<g>
		<rect x="713.6" y="260.2" class="st24" width="18.4" height="18.4"/>
		<rect x="713.6" y="264.1" class="st3" width="18.4" height="12.3"/>
		<text transform="matrix(1 0 0 1 719.224 274.0275)" class="st16 st9 st19">7</text>
	</g>
	<g>
		<rect x="734.7" y="251.1" class="st24" width="18.4" height="18.4"/>
		<rect x="734.7" y="255" class="st3" width="18.4" height="12.3"/>
		<text transform="matrix(1 0 0 1 740.2686 264.9331)" class="st16 st9 st19">8</text>
	</g>
	<g>
		<rect x="771.6" y="333.3" class="st24" width="18.4" height="18.4"/>
		<rect x="771.6" y="337.1" class="st3" width="18.4" height="12.3"/>
		<text transform="matrix(1 0 0 1 777.2294 347.0728)" class="st16 st9 st19">9</text>
	</g>
	<g>
		<rect x="746.5" y="334.1" class="st24" width="18.4" height="18.4"/>
		<rect x="746.5" y="337.9" class="st3" width="18.4" height="12.3"/>
		<text transform="matrix(1 0 0 1 748.535 347.8729)" class="st16 st9 st19">10</text>
	</g>
	<g>
		<rect x="762.4" y="363" class="st24" width="18.4" height="18.4"/>
		<rect x="762.4" y="366.8" class="st3" width="18.4" height="12.3"/>
		<text transform="matrix(1 0 0 1 764.4478 376.7633)" class="st16 st9 st19">11</text>
	</g>
	<g>
		<rect x="734.3" y="368.1" class="st24" width="18.4" height="18.4"/>
		<rect x="734.3" y="371.9" class="st3" width="18.4" height="12.3"/>
		<text transform="matrix(1 0 0 1 736.3138 381.8576)" class="st16 st9 st19">12</text>
	</g>
	<g>
		<rect x="736.2" y="391.8" class="st24" width="18.4" height="18.4"/>
		<rect x="736.2" y="395.7" class="st3" width="18.4" height="12.3"/>
		<text transform="matrix(1 0 0 1 738.1984 405.5985)" class="st16 st9 st19">13</text>
	</g>
	<g>
		<rect x="742.1" y="421.7" class="st24" width="18.4" height="18.4"/>
		<rect x="742.1" y="425.6" class="st3" width="18.4" height="12.3"/>
		<text transform="matrix(1 0 0 1 744.0624 435.5147)" class="st16 st9 st19">14</text>
	</g>
	<g>
		<rect x="720.2" y="446.3" class="st24" width="18.4" height="18.4"/>
		<rect x="720.2" y="450.2" class="st3" width="18.4" height="12.3"/>
		<text transform="matrix(1 0 0 1 722.2147 460.097)" class="st16 st9 st19">14</text>
	</g>
	<g>
		<rect x="711.2" y="430.6" class="st24" width="18.4" height="18.4"/>
		<rect x="711.2" y="434.4" class="st3" width="18.4" height="12.3"/>
		<text transform="matrix(1 0 0 1 713.1755 444.3825)" class="st16 st9 st19">15</text>
	</g>
	<g>
		<rect x="703.4" y="390.6" class="st24" width="18.4" height="18.4"/>
		<rect x="703.4" y="394.4" class="st3" width="18.4" height="12.3"/>
		<text transform="matrix(1 0 0 1 705.4414 404.3811)" class="st16 st9 st19">16</text>
	</g>
	<g>
		<rect x="703.4" y="371.1" class="st24" width="18.4" height="18.4"/>
		<rect x="703.4" y="374.9" class="st3" width="18.4" height="12.3"/>
		<text transform="matrix(1 0 0 1 705.4415 384.8571)" class="st16 st9 st19">17</text>
	</g>
	<g>
		<rect x="703.4" y="350.9" class="st24" width="18.4" height="18.4"/>
		<rect x="703.4" y="354.7" class="st3" width="18.4" height="12.3"/>
		<text transform="matrix(1 0 0 1 705.4415 364.6579)" class="st16 st9 st19">18</text>
	</g>
	<g>
		<rect x="686.2" y="342.5" class="st24" width="18.4" height="18.4"/>
		<rect x="686.2" y="346.3" class="st3" width="18.4" height="12.3"/>
		<text transform="matrix(1 0 0 1 688.1616 356.263)" class="st16 st9 st19">19</text>
	</g>
	<g>
		<rect x="671.7" y="361.9" class="st24" width="18.4" height="18.4"/>
		<rect x="671.7" y="365.7" class="st3" width="18.4" height="12.3"/>
		<text transform="matrix(1 0 0 1 673.7103 375.6664)" class="st16 st9 st19">20</text>
	</g>
	<g>
		<rect x="640.7" y="340.5" class="st24" width="18.4" height="18.4"/>
		<rect x="640.7" y="344.3" class="st3" width="18.4" height="12.3"/>
		<text transform="matrix(1 0 0 1 642.7058 354.2752)" class="st16 st9 st19">22</text>
	</g>
	<g>
		<rect x="612.1" y="375" class="st24" width="18.4" height="18.4"/>
		<rect x="612.1" y="378.8" class="st3" width="18.4" height="12.3"/>
		<text transform="matrix(1 0 0 1 614.1104 388.7724)" class="st16 st9 st19">21</text>
	</g>
	<g>
		<rect x="677" y="324" class="st24" width="18.4" height="18.4"/>
		<rect x="677" y="327.9" class="st3" width="18.4" height="12.3"/>
		<text transform="matrix(1 0 0 1 678.9709 337.8381)" class="st16 st9 st19">23</text>
	</g>
	<g>
		<rect x="653.2" y="320.3" class="st24" width="18.4" height="18.4"/>
		<rect x="653.2" y="324.2" class="st3" width="18.4" height="12.3"/>
		<text transform="matrix(1 0 0 1 655.1904 334.111)" class="st16 st9 st19">24</text>
	</g>
	<g>
		<rect x="660.5" y="293.5" class="st24" width="18.4" height="18.4"/>
		<rect x="660.5" y="297.3" class="st3" width="18.4" height="12.3"/>
		<text transform="matrix(1 0 0 1 662.4823 307.269)" class="st16 st9 st19">25</text>
	</g>
	<g>
		<rect x="553.2" y="311.1" class="st24" width="18.4" height="18.4"/>
		<rect x="553.2" y="315" class="st3" width="18.4" height="12.3"/>
		<text transform="matrix(1 0 0 1 555.1608 324.9203)" class="st16 st9 st19">26</text>
	</g>
	<g>
		<rect x="552.2" y="283.2" class="st24" width="18.4" height="18.4"/>
		<rect x="552.2" y="287.1" class="st3" width="18.4" height="12.3"/>
		<text transform="matrix(1 0 0 1 554.1608 297.0173)" class="st16 st9 st19">27</text>
	</g>
	<g>
		<rect x="517.4" y="280.9" class="st24" width="18.4" height="18.4"/>
		<rect x="517.4" y="284.8" class="st3" width="18.4" height="12.3"/>
		<text transform="matrix(1 0 0 1 519.4229 294.7463)" class="st16 st9 st19">28</text>
	</g>
	<g>
		<rect x="173.3" y="220" class="st24" width="18.4" height="18.4"/>
		<rect x="173.3" y="223.9" class="st3" width="18.4" height="12.3"/>
		<text transform="matrix(1 0 0 1 178.9154 233.8267)" class="st16 st9 st19">1</text>
	</g>
	<rect x="641.5" y="283.8" class="st25" width="7" height="19.7"/>
	<g>
		<g>
			<path d="M610.1,322.5H608v-1.4c0-0.3-0.2-0.5-0.5-0.5c0,0,0,0-0.1,0l0,0h-5l0,0l0,0c-0.3,0-0.5,0.2-0.5,0.5v1.4h-2.1
				c-0.6,0-1.1,0.5-1.1,1.1v0.8v1h0.9v10c0,0.6,0.5,1.1,1.1,1.1h8.5c0.6,0,1.1-0.5,1.1-1.1v-10h0.9v-1v-0.8
				C611.2,322.9,610.7,322.5,610.1,322.5z M602.9,321.6h4.1v0.9h-4.1V321.6z M609.3,335.3C609.3,335.4,609.3,335.4,609.3,335.3
				l-8.6,0.1c-0.1,0-0.1,0-0.1-0.1v-10h8.7L609.3,335.3L609.3,335.3z M610.2,324.3h-10.5v-0.8c0-0.1,0-0.1,0.1-0.1h10.3
				c0.1,0,0.1,0,0.1,0.1L610.2,324.3L610.2,324.3z"/>
			<rect x="606.8" y="326.4" width="1" height="8.1"/>
			<rect x="604.5" y="326.4" width="1" height="8.1"/>
			<rect x="602.2" y="326.4" width="1" height="8.1"/>
		</g>
	</g>
	<polygon class="st26" points="808.5,335.8 812.7,344.2 822.1,345.6 815.3,352.2 816.9,361.5 808.5,357.1 800.2,361.5 801.8,352.2 
		795,345.6 804.4,344.2 	"/>
	<g>
		<rect x="715.4" y="324" class="st24" width="18.4" height="18.4"/>
		<rect x="715.4" y="327.9" class="st3" width="18.4" height="12.3"/>
		<text transform="matrix(1 0 0 1 717.3699 337.8381)" class="st16 st9 st19">30</text>
	</g>
	<g>
		<rect x="713.6" y="301.9" class="st24" width="18.4" height="18.4"/>
		<rect x="713.6" y="305.8" class="st3" width="18.4" height="12.3"/>
		<text transform="matrix(1 0 0 1 715.6322 315.7296)" class="st16 st9 st19">29</text>
	</g>
</g>
<g>
	<g id="Ebene_15">
		<rect x="-51.5" y="-15.4" class="st30" width="481.5" height="626"/>
	</g>
	<text transform="matrix(1 0 0 1 14.1403 28.1553)" class="st31 st32 st6">Zeit </text>
	<text transform="matrix(1 0 0 1 31.6403 28.1553)" class="st31 st32 st6 st33"> </text>
	<text transform="matrix(1 0 0 1 50.1403 28.1553)" class="st31 st32 st6 st34"> </text>
	<text transform="matrix(1 0 0 1 86.1403 28.1553)" class="st31 st32 st6">Bühne 3 Marktgasse </text>
	<text transform="matrix(1 0 0 1 169.1403 28.1553)" class="st31 st32 st6 st35"> </text>
	<text transform="matrix(1 0 0 1 194.1403 28.1553)" class="st31 st32 st6">Bühne 5 Rössligasse </text>
	<text transform="matrix(1 0 0 1 276.4403 28.1553)" class="st31 st32 st6 st35"> </text>
	<text transform="matrix(1 0 0 1 302.1403 28.1553)" class="st31 st32 st6">Bühne 6 Schulgasse</text>
	<text transform="matrix(1 0 0 1 14.1403 41.9553)" class="st31 st9 st6">19.00 Uhr </text>
	<text transform="matrix(1 0 0 1 52.0403 41.9553)" class="st31 st9 st6 st36"> </text>
	<text transform="matrix(1 0 0 1 86.1403 41.9553)" class="st31 st9 st6">E.N.Bloosbälg (BL)</text>
	<text transform="matrix(1 0 0 1 153.4403 41.9553)" class="st31 st9 st6 st37"> </text>
	<text transform="matrix(1 0 0 1 158.1403 41.9553)" class="st31 st9 st6 st34"> </text>
	<text transform="matrix(1 0 0 1 194.1403 41.9553)" class="st31 st9 st6">Büchelgrübler 1970 (BL)</text>
	<text transform="matrix(1 0 0 1 283.8403 41.9553)" class="st31 st9 st6 st33"> </text>
	<text transform="matrix(1 0 0 1 302.1403 41.9553)" class="st31 st9 st6">Moskito-Würger (BL)</text>
	<text transform="matrix(1 0 0 1 14.1403 52.7553)" class="st31 st9 st6">19.15 Uhr </text>
	<text transform="matrix(1 0 0 1 52.0403 52.7553)" class="st31 st9 st6 st36"> </text>
	<text transform="matrix(1 0 0 1 86.1403 52.7553)" class="st31 st9 st6">Guggä-Rugger (BL)</text>
	<text transform="matrix(1 0 0 1 157.5403 52.7553)" class="st31 st9 st6"> </text>
	<text transform="matrix(1 0 0 1 158.1403 52.7553)" class="st31 st9 st6 st34"> </text>
	<text transform="matrix(1 0 0 1 194.1403 52.7553)" class="st31 st9 st6">Grüttgrabe Geischter (AG)</text>
	<text transform="matrix(1 0 0 1 291.4403 52.7553)" class="st31 st9 st6 st38"> </text>
	<text transform="matrix(1 0 0 1 302.1403 52.7553)" class="st31 st9 st6">Nuggisuuger (BL)</text>
	<text transform="matrix(1 0 0 1 14.1403 63.5553)" class="st31 st9 st6">19.30 Uhr </text>
	<text transform="matrix(1 0 0 1 52.0403 63.5553)" class="st31 st9 st6 st36"> </text>
	<text transform="matrix(1 0 0 1 86.1403 63.5553)" class="st31 st9 st6">Eibach Rugger (BL)</text>
	<text transform="matrix(1 0 0 1 156.5403 63.5553)" class="st31 st9 st6"> </text>
	<text transform="matrix(1 0 0 1 158.1403 63.5553)" class="st31 st9 st6 st34"> </text>
	<text transform="matrix(1 0 0 1 194.1403 63.5553)" class="st31 st9 st6">Ruine-Geischter (BL)</text>
	<text transform="matrix(1 0 0 1 269.9403 63.5553)" class="st31 st9 st6 st39"> </text>
	<text transform="matrix(1 0 0 1 302.1403 63.5553)" class="st31 st9 st6">Noote Chaote (BL)</text>
	<text transform="matrix(1 0 0 1 14.1403 74.3553)" class="st31 st9 st6">19.45 Uhr </text>
	<text transform="matrix(1 0 0 1 52.0403 74.3553)" class="st31 st9 st6 st36"> </text>
	<text transform="matrix(1 0 0 1 86.1403 74.3553)" class="st31 st9 st6">Bockers (D)</text>
	<text transform="matrix(1 0 0 1 128.2404 74.3553)" class="st31 st9 st6 st40"> </text>
	<text transform="matrix(1 0 0 1 158.1403 74.3553)" class="st31 st9 st6"> </text>
	<text transform="matrix(1 0 0 1 160.0403 74.3553)" class="st31 st9 st6 st36"> </text>
	<text transform="matrix(1 0 0 1 194.1403 74.3553)" class="st31 st9 st6">Erzbachgugge (SO)</text>
	<text transform="matrix(1 0 0 1 266.0403 74.3553)" class="st31 st9 st6"> </text>
	<text transform="matrix(1 0 0 1 266.1403 74.3553)" class="st31 st9 st6 st34"> </text>
	<text transform="matrix(1 0 0 1 302.1403 74.3553)" class="st31 st9 st6">Schlosshüüler (SO)</text>
	<text transform="matrix(1 0 0 1 14.1403 85.1553)" class="st31 st9 st6">20.00 Uhr </text>
	<text transform="matrix(1 0 0 1 52.0403 85.1553)" class="st31 st9 st6 st36"> </text>
	<text transform="matrix(1 0 0 1 86.1403 85.1553)" class="st31 st9 st6">Gassahuber (D)</text>
	<text transform="matrix(1 0 0 1 143.3403 85.1553)" class="st31 st9 st6 st41"> </text>
	<text transform="matrix(1 0 0 1 158.1403 85.1553)" class="st31 st9 st6"> </text>
	<text transform="matrix(1 0 0 1 160.0403 85.1553)" class="st31 st9 st6 st36"> </text>
	<text transform="matrix(1 0 0 1 194.1403 85.1553)" class="st31 st9 st6">Sädelgeischter (AG) </text>
	<text transform="matrix(1 0 0 1 269.5403 85.1553)" class="st31 st9 st6 st39"> </text>
	<text transform="matrix(1 0 0 1 302.1403 85.1553)" class="st31 st9 st6">CH-Guugger (LU)</text>
	<text transform="matrix(1 0 0 1 14.1403 95.9553)" class="st31 st9 st6">20.15 Uhr </text>
	<text transform="matrix(1 0 0 1 52.0403 95.9553)" class="st31 st9 st6 st36"> </text>
	<text transform="matrix(1 0 0 1 86.1403 95.9553)" class="st31 st9 st6">Noote Heuer (SO) </text>
	<text transform="matrix(1 0 0 1 153.7404 95.9553)" class="st31 st9 st6 st37"> </text>
	<text transform="matrix(1 0 0 1 158.1403 95.9553)" class="st31 st9 st6 st34"> </text>
	<text transform="matrix(1 0 0 1 194.1403 95.9553)" class="st31 st9 st6">Lyssbachfäger (BE)</text>
	<text transform="matrix(1 0 0 1 264.0403 95.9553)" class="st31 st9 st6"> </text>
	<text transform="matrix(1 0 0 1 266.1403 95.9553)" class="st31 st9 st6"> </text>
	<text transform="matrix(1 0 0 1 268.0403 95.9553)" class="st31 st9 st6 st36"> </text>
	<text transform="matrix(1 0 0 1 302.1403 95.9553)" class="st31 st9 st6">La Pacotière (FR)</text>
	<text transform="matrix(1 0 0 1 14.1403 106.7553)" class="st31 st9 st6">20.30 Uhr </text>
	<text transform="matrix(1 0 0 1 52.0403 106.7553)" class="st31 st9 st6 st36"> </text>
	<text transform="matrix(1 0 0 1 86.1403 106.7553)" class="st31 st9 st6">Böögge Brätscher (SO) </text>
	<text transform="matrix(1 0 0 1 172.1403 106.7553)" class="st31 st9 st6 st42"> </text>
	<text transform="matrix(1 0 0 1 194.1403 106.7553)" class="st31 st9 st6">Gassäspränger (BL)</text>
	<text transform="matrix(1 0 0 1 265.3403 106.7553)" class="st31 st9 st6"> </text>
	<text transform="matrix(1 0 0 1 266.1403 106.7553)" class="st31 st9 st6 st34"> </text>
	<text transform="matrix(1 0 0 1 302.1403 106.7553)" class="st31 st9 st6">Dek’Onex (GE)</text>
	<text transform="matrix(1 0 0 1 14.1403 117.5553)" class="st31 st9 st6">20.45 Uhr </text>
	<text transform="matrix(1 0 0 1 52.0403 117.5553)" class="st31 st9 st6 st36"> </text>
	<text transform="matrix(1 0 0 1 86.1403 117.5553)" class="st31 st9 st6">Hübelschränzer (AG)</text>
	<text transform="matrix(1 0 0 1 163.2404 117.5553)" class="st31 st9 st6 st40"> </text>
	<text transform="matrix(1 0 0 1 194.1403 117.5553)" class="st31 st9 st6">Eibach Rugger (BL) </text>
	<text transform="matrix(1 0 0 1 266.4403 117.5553)" class="st31 st9 st6 st43"> </text>
	<text transform="matrix(1 0 0 1 302.1403 117.5553)" class="st31 st9 st6">Gwaageschränzer (BL)</text>
	<text transform="matrix(1 0 0 1 14.1403 128.3553)" class="st31 st9 st6">21.00 Uhr </text>
	<text transform="matrix(1 0 0 1 52.0403 128.3553)" class="st31 st9 st6 st36"> </text>
	<text transform="matrix(1 0 0 1 86.1403 128.3553)" class="st31 st9 st6">Noote Chaote (BL)</text>
	<text transform="matrix(1 0 0 1 154.4403 128.3553)" class="st31 st9 st6"> </text>
	<text transform="matrix(1 0 0 1 158.1403 128.3553)" class="st31 st9 st6"> </text>
	<text transform="matrix(1 0 0 1 160.0403 128.3553)" class="st31 st9 st6 st36"> </text>
	<text transform="matrix(1 0 0 1 194.1403 128.3553)" class="st31 st9 st6">Moskito-Würger (BL)</text>
	<text transform="matrix(1 0 0 1 271.0403 128.3553)" class="st31 st9 st6 st44"> </text>
	<text transform="matrix(1 0 0 1 302.1403 128.3553)" class="st31 st9 st6">Seifesüder (AG)</text>
	<text transform="matrix(1 0 0 1 14.1403 139.1553)" class="st31 st9 st6">21.15 Uhr </text>
	<text transform="matrix(1 0 0 1 52.0403 139.1553)" class="st31 st9 st6 st36"> </text>
	<text transform="matrix(1 0 0 1 86.1403 139.1553)" class="st31 st9 st6">Erzbachgugge (SO)</text>
	<text transform="matrix(1 0 0 1 158.0403 139.1553)" class="st31 st9 st6"> </text>
	<text transform="matrix(1 0 0 1 158.1403 139.1553)" class="st31 st9 st6 st34"> </text>
	<text transform="matrix(1 0 0 1 194.1403 139.1553)" class="st31 st9 st6">Burn-Out Rugger (BL)</text>
	<text transform="matrix(1 0 0 1 274.1403 139.1553)" class="st31 st9 st6 st45"> </text>
	<text transform="matrix(1 0 0 1 302.1403 139.1553)" class="st31 st9 st6">Ruine-Geischter (BL)</text>
	<text transform="matrix(1 0 0 1 14.1403 149.9553)" class="st31 st9 st6">21.30 Uhr </text>
	<text transform="matrix(1 0 0 1 52.0403 149.9553)" class="st31 st9 st6 st36"> </text>
	<text transform="matrix(1 0 0 1 86.1403 149.9553)" class="st31 st9 st6">Wasserschloss-Fäger (AG) </text>
	<text transform="matrix(1 0 0 1 183.6403 149.9553)" class="st31 st9 st6 st38"> </text>
	<text transform="matrix(1 0 0 1 194.1403 149.9553)" class="st31 st9 st6">Guggä FGS (BL)</text>
	<text transform="matrix(1 0 0 1 252.0403 149.9553)" class="st31 st9 st6 st41"> </text>
	<text transform="matrix(1 0 0 1 266.1403 149.9553)" class="st31 st9 st6 st34"> </text>
	<text transform="matrix(1 0 0 1 302.1403 149.9553)" class="st31 st9 st6">StrauSchoeh-Schlurbi (D)</text>
	<text transform="matrix(1 0 0 1 14.1403 160.7553)" class="st31 st9 st6">21.45 Uhr </text>
	<text transform="matrix(1 0 0 1 52.0403 160.7553)" class="st31 st9 st6 st36"> </text>
	<text transform="matrix(1 0 0 1 86.1403 160.7553)" class="st31 st9 st6">Gassäspränger (BL) </text>
	<text transform="matrix(1 0 0 1 159.2404 160.7553)" class="st31 st9 st6 st36"> </text>
	<text transform="matrix(1 0 0 1 194.1403 160.7553)" class="st31 st9 st6">Schlammsuuger (BL)</text>
	<text transform="matrix(1 0 0 1 271.2403 160.7553)" class="st31 st9 st6 st44"> </text>
	<text transform="matrix(1 0 0 1 302.1403 160.7553)" class="st31 st9 st6">Windläfurzer (BL)</text>
	<text transform="matrix(1 0 0 1 14.1403 171.5553)" class="st31 st9 st6">22.00 Uhr </text>
	<text transform="matrix(1 0 0 1 52.0403 171.5553)" class="st31 st9 st6 st36"> </text>
	<text transform="matrix(1 0 0 1 86.1403 171.5553)" class="st31 st9 st6">Lyssbachfäger (BE)</text>
	<text transform="matrix(1 0 0 1 156.0403 171.5553)" class="st31 st9 st6"> </text>
	<text transform="matrix(1 0 0 1 158.1403 171.5553)" class="st31 st9 st6 st34"> </text>
	<text transform="matrix(1 0 0 1 194.1403 171.5553)" class="st31 st9 st6">Noote Chaote (BL)</text>
	<text transform="matrix(1 0 0 1 262.4403 171.5553)" class="st31 st9 st6"> </text>
	<text transform="matrix(1 0 0 1 266.1403 171.5553)" class="st31 st9 st6"> </text>
	<text transform="matrix(1 0 0 1 268.0403 171.5553)" class="st31 st9 st6 st36"> </text>
	<text transform="matrix(1 0 0 1 302.1403 171.5553)" class="st31 st9 st6">Hübelschränzer (AG)</text>
	<text transform="matrix(1 0 0 1 14.1403 182.3553)" class="st31 st9 st6">22.15 Uhr </text>
	<text transform="matrix(1 0 0 1 52.0403 182.3553)" class="st31 st9 st6 st36"> </text>
	<text transform="matrix(1 0 0 1 86.1403 182.3553)" class="st31 st9 st6">Moskito-Würger (BL)</text>
	<text transform="matrix(1 0 0 1 163.0403 182.3553)" class="st31 st9 st6 st44"> </text>
	<text transform="matrix(1 0 0 1 194.1403 182.3553)" class="st31 st9 st6">Nuggisuuger (BL) </text>
	<text transform="matrix(1 0 0 1 261.2403 182.3553)" class="st31 st9 st6 st46"> </text>
	<text transform="matrix(1 0 0 1 266.1403 182.3553)" class="st31 st9 st6 st34"> </text>
	<text transform="matrix(1 0 0 1 302.1403 182.3553)" class="st31 st9 st6">Eibach Rugger (BL)</text>
	<text transform="matrix(1 0 0 1 14.1403 193.1553)" class="st31 st9 st6">22.30 Uhr </text>
	<text transform="matrix(1 0 0 1 52.0403 193.1553)" class="st31 st9 st6 st36"> </text>
	<text transform="matrix(1 0 0 1 86.1403 193.1553)" class="st31 st9 st6">Aerdwybli Schränzer (BL)</text>
	<text transform="matrix(1 0 0 1 179.5403 193.1553)" class="st31 st9 st6 st41"> </text>
	<text transform="matrix(1 0 0 1 194.1403 193.1553)" class="st31 st9 st6">E.N.Bloosbälg (BL)</text>
	<text transform="matrix(1 0 0 1 261.4403 193.1553)" class="st31 st9 st6 st37"> </text>
	<text transform="matrix(1 0 0 1 266.1403 193.1553)" class="st31 st9 st6 st34"> </text>
	<text transform="matrix(1 0 0 1 302.1403 193.1553)" class="st31 st9 st6">Guggä FGS (BL)</text>
	<text transform="matrix(1 0 0 1 14.1403 203.9553)" class="st31 st9 st6">22.45 Uhr </text>
	<text transform="matrix(1 0 0 1 52.0403 203.9553)" class="st31 st9 st6 st36"> </text>
	<text transform="matrix(1 0 0 1 86.1403 203.9553)" class="st31 st9 st6">Schlammsuuger (BL) </text>
	<text transform="matrix(1 0 0 1 165.1403 203.9553)" class="st31 st9 st6 st40"> </text>
	<text transform="matrix(1 0 0 1 194.1403 203.9553)" class="st31 st9 st6">Gwaageschränzer (BL) </text>
	<text transform="matrix(1 0 0 1 279.0403 203.9553)" class="st31 st9 st6 st47"> </text>
	<text transform="matrix(1 0 0 1 302.1403 203.9553)" class="st31 st9 st6">Grüttgrabe Geischter (AG)</text>
	<text transform="matrix(1 0 0 1 14.1403 214.7553)" class="st31 st9 st6">23.00 Uhr </text>
	<text transform="matrix(1 0 0 1 52.0403 214.7553)" class="st31 st9 st6 st36"> </text>
	<text transform="matrix(1 0 0 1 86.1403 214.7553)" class="st31 st9 st6">Seifesüder (AG)</text>
	<text transform="matrix(1 0 0 1 143.7404 214.7553)" class="st31 st9 st6 st41"> </text>
	<text transform="matrix(1 0 0 1 158.1403 214.7553)" class="st31 st9 st6 st34"> </text>
	<text transform="matrix(1 0 0 1 194.1403 214.7553)" class="st31 st9 st6">Bockers (D)</text>
	<text transform="matrix(1 0 0 1 236.2404 214.7553)" class="st31 st9 st6 st40"> </text>
	<text transform="matrix(1 0 0 1 266.1403 214.7553)" class="st31 st9 st6 st34"> </text>
	<text transform="matrix(1 0 0 1 302.1403 214.7553)" class="st31 st9 st6">Burn-Out Rugger (BL)</text>
	<text transform="matrix(1 0 0 1 14.1403 225.5553)" class="st31 st9 st6">23.15 Uhr </text>
	<text transform="matrix(1 0 0 1 52.0403 225.5553)" class="st31 st9 st6 st36"> </text>
	<text transform="matrix(1 0 0 1 86.1403 225.5553)" class="st31 st9 st6">Schlosshüüler (SO)</text>
	<text transform="matrix(1 0 0 1 155.9403 225.5553)" class="st31 st9 st6"> </text>
	<text transform="matrix(1 0 0 1 158.1403 225.5553)" class="st31 st9 st6"> </text>
	<text transform="matrix(1 0 0 1 160.0403 225.5553)" class="st31 st9 st6 st36"> </text>
	<text transform="matrix(1 0 0 1 194.1403 225.5553)" class="st31 st9 st6">CH-Guugger (LU)</text>
	<text transform="matrix(1 0 0 1 258.3403 225.5553)" class="st31 st9 st6 st48"> </text>
	<text transform="matrix(1 0 0 1 266.1403 225.5553)" class="st31 st9 st6"> </text>
	<text transform="matrix(1 0 0 1 268.0403 225.5553)" class="st31 st9 st6 st36"> </text>
	<text transform="matrix(1 0 0 1 302.1403 225.5553)" class="st31 st9 st6">Sädelgeischter (AG)</text>
	<text transform="matrix(1 0 0 1 14.1403 236.3553)" class="st31 st9 st6">23.30 Uhr </text>
	<text transform="matrix(1 0 0 1 52.0403 236.3553)" class="st31 st9 st6 st36"> </text>
	<text transform="matrix(1 0 0 1 86.1403 236.3553)" class="st31 st9 st6">StrauSchoeh-Schlurbi (D) </text>
	<text transform="matrix(1 0 0 1 182.1403 236.3553)" class="st31 st9 st6 st49"> </text>
	<text transform="matrix(1 0 0 1 194.1403 236.3553)" class="st31 st9 st6">Gassahuber (D)</text>
	<text transform="matrix(1 0 0 1 251.3403 236.3553)" class="st31 st9 st6 st41"> </text>
	<text transform="matrix(1 0 0 1 266.1403 236.3553)" class="st31 st9 st6 st34"> </text>
	<text transform="matrix(1 0 0 1 302.1403 236.3553)" class="st31 st9 st6">Los Chrachos (D)</text>
	<text transform="matrix(1 0 0 1 14.1403 247.1553)" class="st31 st9 st6">23.45 Uhr </text>
	<text transform="matrix(1 0 0 1 52.0403 247.1553)" class="st31 st9 st6 st36"> </text>
	<text transform="matrix(1 0 0 1 86.1403 247.1553)" class="st31 st9 st6">La Pacotière (FR)</text>
	<text transform="matrix(1 0 0 1 148.0403 247.1553)" class="st31 st9 st6 st38"> </text>
	<text transform="matrix(1 0 0 1 158.1403 247.1553)" class="st31 st9 st6"> </text>
	<text transform="matrix(1 0 0 1 160.0403 247.1553)" class="st31 st9 st6 st36"> </text>
	<text transform="matrix(1 0 0 1 194.1403 247.1553)" class="st31 st9 st6">Aerdwybli Schränzer (BL)</text>
	<text transform="matrix(1 0 0 1 287.5403 247.1553)" class="st31 st9 st6 st41"> </text>
	<text transform="matrix(1 0 0 1 302.1403 247.1553)" class="st31 st9 st6">Wasserschloss-Fäger (AG)</text>
	<text transform="matrix(1 0 0 1 14.1403 257.9553)" class="st31 st9 st6 st34">  </text>
	<text transform="matrix(1 0 0 1 14.1403 268.7553)" class="st31 st9 st6 st34">  </text>
	<text transform="matrix(1 0 0 1 86.1403 268.7553)" class="st31 st9 st6">Bühne frei bis 01.00 Uhr</text>
	<text transform="matrix(1 0 0 1 175.1403 268.7553)" class="st31 st9 st6 st50"> </text>
	<text transform="matrix(1 0 0 1 194.1403 268.7553)" class="st31 st9 st6">Bühne frei bis 01.00 Uhr</text>
	<text transform="matrix(1 0 0 1 283.1403 268.7553)" class="st31 st9 st6 st50"> </text>
	<text transform="matrix(1 0 0 1 302.1403 268.7553)" class="st31 st9 st6">Bühne frei bis 01.00 Uhr</text>
	<text transform="matrix(1 0 0 1 14.14 301.9953)" class="st31 st32 st6">Zeit</text>
	<text transform="matrix(1 0 0 1 29.84 301.9953)" class="st31 st32 st6 st51"> </text>
	<text transform="matrix(1 0 0 1 50.14 301.9953)" class="st31 st32 st6">  </text>
	<text transform="matrix(1 0 0 1 53.74 301.9953)" class="st31 st32 st6 st39"> </text>
	<text transform="matrix(1 0 0 1 86.14 301.9953)" class="st31 st32 st6">Bühne 1  Dorfplatz</text>
	<text transform="matrix(1 0 0 1 160.64 301.9953)" class="st31 st32 st6 st52"> </text>
	<text transform="matrix(1 0 0 1 194.14 301.9953)" class="st31 st32 st6"> Zeit </text>
	<text transform="matrix(1 0 0 1 213.54 301.9953)" class="st31 st32 st6 st53"> </text>
	<text transform="matrix(1 0 0 1 230.14 301.9953)" class="st31 st32 st6">  </text>
	<text transform="matrix(1 0 0 1 233.74 301.9953)" class="st31 st32 st6 st39"> </text>
	<text transform="matrix(1 0 0 1 266.14 301.9953)" class="st31 st32 st6">Bühne 2 Dorfplatz</text>
	<text transform="matrix(1 0 0 1 338.84 301.9953)" class="st31 st9 st6">   </text>
	<text transform="matrix(1 0 0 1 14.14 315.7953)" class="st31 st9 st6">19.00 Uhr  </text>
	<text transform="matrix(1 0 0 1 53.94 315.7953)" class="st31 st9 st6 st39"> </text>
	<text transform="matrix(1 0 0 1 86.14 315.7953)" class="st31 st9 st6">Gwaageschränzer (BL)</text>
	<text transform="matrix(1 0 0 1 14.14 326.5953)" class="st31 st9 st6">19.22 Uhr  </text>
	<text transform="matrix(1 0 0 1 53.94 326.5953)" class="st31 st9 st6 st39"> </text>
	<text transform="matrix(1 0 0 1 86.14 326.5953)" class="st31 st9 st6">Seifesüder (AG)</text>
	<text transform="matrix(1 0 0 1 14.14 337.3953)" class="st31 st9 st6">19.44 Uhr  </text>
	<text transform="matrix(1 0 0 1 53.94 337.3953)" class="st31 st9 st6 st39"> </text>
	<text transform="matrix(1 0 0 1 86.14 337.3953)" class="st31 st9 st6">StrauSchoeh-Schlurbi (D)</text>
	<text transform="matrix(1 0 0 1 14.14 348.1953)" class="st31 st9 st6">20.06 Uhr </text>
	<text transform="matrix(1 0 0 1 52.04 348.1953)" class="st31 st9 st6 st36"> </text>
	<text transform="matrix(1 0 0 1 86.14 348.1953)" class="st31 st9 st6">Aerdwybli Schränzer (BL)</text>
	<text transform="matrix(1 0 0 1 14.14 358.9953)" class="st31 st9 st6">20.28 Uhr  </text>
	<text transform="matrix(1 0 0 1 53.94 358.9953)" class="st31 st9 st6 st39"> </text>
	<text transform="matrix(1 0 0 1 86.14 358.9953)" class="st31 st9 st6">Grüttgrabe Geischter (AG)</text>
	<text transform="matrix(1 0 0 1 14.14 369.7953)" class="st31 st9 st6">20.50 Uhr  </text>
	<text transform="matrix(1 0 0 1 53.94 369.7953)" class="st31 st9 st6 st39"> </text>
	<text transform="matrix(1 0 0 1 86.14 369.7953)" class="st31 st9 st6">Büchelgrübler 1970 (BL)</text>
	<text transform="matrix(1 0 0 1 14.14 380.5953)" class="st31 st9 st6">21.12 Uhr  </text>
	<text transform="matrix(1 0 0 1 53.94 380.5953)" class="st31 st9 st6 st39"> </text>
	<text transform="matrix(1 0 0 1 86.14 380.5953)" class="st31 st9 st6">Nuggisuuger (BL)</text>
	<text transform="matrix(1 0 0 1 14.14 391.3953)" class="st31 st9 st6">21.34 Uhr  </text>
	<text transform="matrix(1 0 0 1 53.94 391.3953)" class="st31 st9 st6 st39"> </text>
	<text transform="matrix(1 0 0 1 86.14 391.3953)" class="st31 st9 st6">Sädelgeischter (AG)</text>
	<text transform="matrix(1 0 0 1 14.14 402.1953)" class="st31 st9 st6">21.56 Uhr  </text>
	<text transform="matrix(1 0 0 1 53.94 402.1953)" class="st31 st9 st6 st39"> </text>
	<text transform="matrix(1 0 0 1 86.14 402.1953)" class="st31 st9 st6">CH-Guugger (LU)</text>
	<text transform="matrix(1 0 0 1 14.14 412.9953)" class="st31 st9 st6">22.18 Uhr  </text>
	<text transform="matrix(1 0 0 1 53.94 412.9953)" class="st31 st9 st6 st39"> </text>
	<text transform="matrix(1 0 0 1 86.14 412.9953)" class="st31 st9 st6">Los Chrachos (D)</text>
	<text transform="matrix(1 0 0 1 14.14 423.7953)" class="st31 st9 st6">22.40 Uhr  </text>
	<text transform="matrix(1 0 0 1 53.94 423.7953)" class="st31 st9 st6 st39"> </text>
	<text transform="matrix(1 0 0 1 86.14 423.7953)" class="st31 st9 st6">Erzbachgugge (SO)</text>
	<text transform="matrix(1 0 0 1 14.14 434.5953)" class="st31 st9 st6">23.02 Uhr  </text>
	<text transform="matrix(1 0 0 1 53.94 434.5953)" class="st31 st9 st6 st39"> </text>
	<text transform="matrix(1 0 0 1 86.14 434.5953)" class="st31 st9 st6">Windläfurzer (BL)</text>
	<text transform="matrix(1 0 0 1 14.14 445.3953)" class="st31 st9 st6">23.24 Uhr  </text>
	<text transform="matrix(1 0 0 1 53.94 445.3953)" class="st31 st9 st6 st39"> </text>
	<text transform="matrix(1 0 0 1 86.14 445.3953)" class="st31 st9 st6">Noote Heuer (SO)</text>
	<text transform="matrix(1 0 0 1 14.14 456.1953)" class="st31 st9 st6">23.46 Uhr  </text>
	<text transform="matrix(1 0 0 1 53.94 456.1953)" class="st31 st9 st6 st39"> </text>
	<text transform="matrix(1 0 0 1 86.14 456.1953)" class="st31 st9 st6">Hübelschränzer (AG)</text>
	<text transform="matrix(1 0 0 1 14.14 466.9953)" class="st31 st9 st6">00.08 Uhr  </text>
	<text transform="matrix(1 0 0 1 53.94 466.9953)" class="st31 st9 st6 st39"> </text>
	<text transform="matrix(1 0 0 1 86.14 466.9953)" class="st31 st9 st6">Bühne frei bis 01.00 Uhr</text>
	<rect x="194.9" y="309.5" class="st3" width="229.7" height="147.8"/>
	<text transform="matrix(1 0 0 1 194.8412 315.8161)" class="st31 st9 st6">19.11 Uhr  </text>
	<text transform="matrix(1 0 0 1 234.6412 315.8161)" class="st31 st9 st6 st39"> </text>
	<text transform="matrix(1 0 0 1 266.8412 315.8161)" class="st31 st9 st6">Wasserschloss-Fäger (AG)</text>
	<text transform="matrix(1 0 0 1 194.8412 326.6161)" class="st31 st9 st6">19.33 Uhr  </text>
	<text transform="matrix(1 0 0 1 234.6412 326.6161)" class="st31 st9 st6 st39"> </text>
	<text transform="matrix(1 0 0 1 266.8412 326.6161)" class="st31 st9 st6">Guggä FGS (BL)</text>
	<text transform="matrix(1 0 0 1 194.8412 337.4161)" class="st31 st9 st6">19.55 Uhr  </text>
	<text transform="matrix(1 0 0 1 234.6412 337.4161)" class="st31 st9 st6 st39"> </text>
	<text transform="matrix(1 0 0 1 266.8412 337.4161)" class="st31 st9 st6">Schlammsuuger (BL)</text>
	<text transform="matrix(1 0 0 1 194.8412 348.2161)" class="st31 st9 st6">20.17 Uhr  </text>
	<text transform="matrix(1 0 0 1 234.6412 348.2161)" class="st31 st9 st6 st39"> </text>
	<text transform="matrix(1 0 0 1 266.8412 348.2161)" class="st31 st9 st6">E.N.Bloosbälg (BL)</text>
	<text transform="matrix(1 0 0 1 194.8412 359.0161)" class="st31 st9 st6">20.39 Uhr  </text>
	<text transform="matrix(1 0 0 1 234.6412 359.0161)" class="st31 st9 st6 st39"> </text>
	<text transform="matrix(1 0 0 1 266.8412 359.0161)" class="st31 st9 st6">Bockers (D)</text>
	<text transform="matrix(1 0 0 1 194.8412 369.8161)" class="st31 st9 st6">21.01 Uhr  </text>
	<text transform="matrix(1 0 0 1 234.6412 369.8161)" class="st31 st9 st6 st39"> </text>
	<text transform="matrix(1 0 0 1 266.8412 369.8161)" class="st31 st9 st6">Schlosshüüler (SO)</text>
	<text transform="matrix(1 0 0 1 194.8412 380.6161)" class="st31 st9 st6">21.23 Uhr  </text>
	<text transform="matrix(1 0 0 1 234.6412 380.6161)" class="st31 st9 st6 st39"> </text>
	<text transform="matrix(1 0 0 1 266.8412 380.6161)" class="st31 st9 st6">Guggä Rugger (BL)</text>
	<text transform="matrix(1 0 0 1 194.8412 391.4161)" class="st31 st9 st6">21.45 Uhr  </text>
	<text transform="matrix(1 0 0 1 234.6412 391.4161)" class="st31 st9 st6 st39"> </text>
	<text transform="matrix(1 0 0 1 266.8412 391.4161)" class="st31 st9 st6">Gassahuber (D)</text>
	<text transform="matrix(1 0 0 1 194.8412 402.2161)" class="st31 st9 st6">22.07Uhr   </text>
	<text transform="matrix(1 0 0 1 234.6412 402.2161)" class="st31 st9 st6 st39"> </text>
	<text transform="matrix(1 0 0 1 266.8412 402.2161)" class="st31 st9 st6">Böögge Brätscher (SO)</text>
	<text transform="matrix(1 0 0 1 194.8412 413.0161)" class="st31 st9 st6">22.29 Uhr  </text>
	<text transform="matrix(1 0 0 1 234.6412 413.0161)" class="st31 st9 st6 st39"> </text>
	<text transform="matrix(1 0 0 1 266.8412 413.0161)" class="st31 st9 st6">La Pacotière (FR)</text>
	<text transform="matrix(1 0 0 1 194.8412 423.8161)" class="st31 st9 st6">22.51 Uhr  </text>
	<text transform="matrix(1 0 0 1 234.6412 423.8161)" class="st31 st9 st6 st39"> </text>
	<text transform="matrix(1 0 0 1 266.8412 423.8161)" class="st31 st9 st6">Ruine-Geischter (BL)</text>
	<text transform="matrix(1 0 0 1 194.8412 434.6161)" class="st31 st9 st6">23.13 Uhr  </text>
	<text transform="matrix(1 0 0 1 234.6412 434.6161)" class="st31 st9 st6 st39"> </text>
	<text transform="matrix(1 0 0 1 266.8412 434.6161)" class="st31 st9 st6">Lyssbachfäger (BE)</text>
	<text transform="matrix(1 0 0 1 194.8412 445.4161)" class="st31 st9 st6">23.35 Uhr  </text>
	<text transform="matrix(1 0 0 1 234.6412 445.4161)" class="st31 st9 st6 st39"> </text>
	<text transform="matrix(1 0 0 1 266.8412 445.4161)" class="st31 st9 st6">Dek’Onex (GE)</text>
	<text transform="matrix(1 0 0 1 194.8412 456.2161)" class="st31 st9 st6">23.57 Uhr</text>
	<text transform="matrix(1 0 0 1 230.8412 456.2161)" class="st31 st9 st6 st34"> </text>
	<text transform="matrix(1 0 0 1 266.8412 456.2161)" class="st31 st9 st6">Gassäspränger (BL)</text>
	<text transform="matrix(1 0 0 1 14.1404 500.2359)" class="st31 st32 st6">Zeit </text>
	<text transform="matrix(1 0 0 1 31.6404 500.2359)" class="st31 st32 st6 st33"> </text>
	<text transform="matrix(1 0 0 1 50.1404 500.2359)" class="st31 st32 st6">  </text>
	<text transform="matrix(1 0 0 1 53.7404 500.2359)" class="st31 st32 st6 st39"> </text>
	<text transform="matrix(1 0 0 1 86.1404 500.2359)" class="st31 st32 st6">Bühne 4 Ochsengasse</text>
	<text transform="matrix(1 0 0 1 14.1404 514.0359)" class="st31 st9 st6">20.00 Uhr  </text>
	<text transform="matrix(1 0 0 1 53.9404 514.0359)" class="st31 st9 st6 st39"> </text>
	<text transform="matrix(1 0 0 1 86.1404 514.0359)" class="st31 st9 st6">Burn-Out Rugger (BL)</text>
	<text transform="matrix(1 0 0 1 14.1404 524.8359)" class="st31 st9 st6">20.20 Uhr  </text>
	<text transform="matrix(1 0 0 1 53.9404 524.8359)" class="st31 st9 st6 st39"> </text>
	<text transform="matrix(1 0 0 1 86.1404 524.8359)" class="st31 st9 st6">Windläfurzer (BL)</text>
	<text transform="matrix(1 0 0 1 14.1404 535.6359)" class="st31 st9 st6">20.40 Uhr </text>
	<text transform="matrix(1 0 0 1 52.0404 535.6359)" class="st31 st9 st6 st36"> </text>
	<text transform="matrix(1 0 0 1 86.1404 535.6359)" class="st31 st9 st6">Los Chrachos (D)</text>
	<text transform="matrix(1 0 0 1 14.1404 546.4359)" class="st31 st9 st6">22.00 Uhr  </text>
	<text transform="matrix(1 0 0 1 53.9404 546.4359)" class="st31 st9 st6 st39"> </text>
	<text transform="matrix(1 0 0 1 86.1404 546.4359)" class="st31 st9 st6">Dek’Onex (GE)</text>
	<text transform="matrix(1 0 0 1 14.1404 557.2359)" class="st31 st9 st6">22.20 Uhr   </text>
	<text transform="matrix(1 0 0 1 55.8404 557.2359)" class="st31 st9 st6 st40"> </text>
	<text transform="matrix(1 0 0 1 86.1404 557.2359)" class="st31 st9 st6">Noote Heuer (SO)</text>
	<text transform="matrix(1 0 0 1 14.1404 568.0359)" class="st31 st9 st6">24.00 Uhr  </text>
	<text transform="matrix(1 0 0 1 53.9404 568.0359)" class="st31 st9 st6 st39"> </text>
	<text transform="matrix(1 0 0 1 86.1404 568.0359)" class="st31 st9 st6">Böögge Brätscher (SO)</text>
	<text transform="matrix(1 0 0 1 14.1404 578.8359)" class="st31 st9 st6">00.20 Uhr  </text>
	<text transform="matrix(1 0 0 1 53.9404 578.8359)" class="st31 st9 st6 st39"> </text>
	<text transform="matrix(1 0 0 1 86.1404 578.8359)" class="st31 st9 st6">Büchelgrübler 1970 (BL)</text>
</g>
</svg>
