<svg xmlns="http://www.w3.org/2000/svg" xmlns:xlink="http://www.w3.org/1999/xlink" viewBox="0 0 841.89 595.28"><defs><style>.cls-1,.cls-26,.cls-7,.cls-8{fill:none;}.cls-13,.cls-2,.cls-6,.cls-9{fill:#fff;}.cls-3{opacity:0.2;}.cls-4{fill:#2d2e83;opacity:0.7;}.cls-5{fill:#009fe3;}.cls-13,.cls-6,.cls-9{font-size:9px;}.cls-13,.cls-6{font-family:Roboto-Regular, Roboto;}.cls-13,.cls-7,.cls-8{stroke:#393186;}.cls-13,.cls-26,.cls-7,.cls-8{stroke-miterlimit:10;}.cls-7{stroke-width:15px;}.cls-8{stroke-width:16px;}.cls-18,.cls-38,.cls-48,.cls-9{font-family:MyriadPro-Regular, Myriad Pro;}.cls-10{letter-spacing:0em;}.cls-11{letter-spacing:0.01em;}.cls-12{letter-spacing:0em;}.cls-13{stroke-width:0.75px;}.cls-14{letter-spacing:-0.05em;}.cls-15{letter-spacing:-0.01em;}.cls-16{opacity:0.3;}.cls-17{fill:#e94e1b;}.cls-18{font-size:12px;}.cls-18,.cls-24,.cls-33,.cls-38,.cls-44,.cls-96{fill:#1d1d1b;}.cls-19{letter-spacing:0.02em;}.cls-20{letter-spacing:0em;}.cls-21{letter-spacing:-0.01em;}.cls-22{letter-spacing:-0.02em;}.cls-23{letter-spacing:-0.01em;}.cls-24,.cls-33,.cls-44{font-size:11px;}.cls-24,.cls-33,.cls-44,.cls-96{font-family:MyriadPro-Bold, Myriad Pro;}.cls-24,.cls-33,.cls-45,.cls-96{font-weight:700;}.cls-25{letter-spacing:-0.01em;}.cls-26{stroke:#ffed00;stroke-width:8px;}.cls-27{letter-spacing:-0.08em;}.cls-28{letter-spacing:0em;}.cls-29{letter-spacing:0em;}.cls-30,.cls-33{letter-spacing:-0.01em;}.cls-31{letter-spacing:0em;}.cls-32{letter-spacing:-0.01em;}.cls-34{letter-spacing:-0.02em;}.cls-35{letter-spacing:-0.01em;}.cls-36{letter-spacing:-0.01em;}.cls-37{fill:#cbbba0;}.cls-38{font-size:14px;}.cls-39{letter-spacing:-0.01em;}.cls-40{fill:#a4d2b3;}.cls-41{clip-path:url(#clip-path);}.cls-42{fill:#e62c35;}.cls-43{fill:#fde7df;}.cls-46{letter-spacing:-0.01em;}.cls-47{letter-spacing:0em;}.cls-49{letter-spacing:0.03em;}.cls-50{letter-spacing:0em;}.cls-51{letter-spacing:0.01em;}.cls-52{letter-spacing:-0.01em;}.cls-53{letter-spacing:0em;}.cls-54{letter-spacing:-0.04em;}.cls-55{letter-spacing:-0.07em;}.cls-56{letter-spacing:-0.01em;}.cls-57{letter-spacing:-0.03em;}.cls-58{letter-spacing:-0.01em;}.cls-59{letter-spacing:-0.01em;}.cls-60{letter-spacing:0em;}.cls-61{letter-spacing:-0.01em;}.cls-62{letter-spacing:-0.01em;}.cls-63{letter-spacing:0.01em;}.cls-64{letter-spacing:0em;}.cls-65{letter-spacing:0.02em;}.cls-66{letter-spacing:0em;}.cls-67{letter-spacing:-0.01em;}.cls-68{letter-spacing:0.02em;}.cls-69{letter-spacing:0.03em;}.cls-70{letter-spacing:0.01em;}.cls-71{letter-spacing:-0.01em;}.cls-72{letter-spacing:-0.03em;}.cls-73{letter-spacing:-0.04em;}.cls-74{letter-spacing:-0.04em;}.cls-75{letter-spacing:0.02em;}.cls-76{letter-spacing:0.01em;}.cls-77{letter-spacing:0em;}.cls-78{letter-spacing:-0.04em;}.cls-79{letter-spacing:0em;}.cls-80{letter-spacing:0em;}.cls-81{letter-spacing:0em;}.cls-82{letter-spacing:-0.01em;}.cls-83{letter-spacing:0.01em;}.cls-84{letter-spacing:-0.01em;}.cls-85{letter-spacing:-0.04em;}.cls-86{letter-spacing:-0.04em;}.cls-87{letter-spacing:0.02em;}.cls-88{letter-spacing:0em;}.cls-89{letter-spacing:-0.01em;}.cls-90{letter-spacing:0.01em;}.cls-91{letter-spacing:-0.01em;}.cls-92{letter-spacing:0em;}.cls-93{letter-spacing:-0.01em;}.cls-94{letter-spacing:0em;}.cls-95{letter-spacing:-0.03em;}.cls-96{font-size:20px;}.cls-97{letter-spacing:-0.03em;}.cls-98{letter-spacing:0em;}.cls-99{letter-spacing:0.02em;}.cls-100{letter-spacing:0.01em;}.cls-101{letter-spacing:0em;}.cls-102{letter-spacing:-0.02em;}.cls-103{letter-spacing:0.02em;}.cls-104{letter-spacing:0em;}.cls-105{letter-spacing:0.03em;}.cls-106{letter-spacing:-0.01em;}.cls-107{letter-spacing:0.01em;}.cls-108{letter-spacing:-0.01em;}.cls-109{letter-spacing:0.01em;}.cls-110{letter-spacing:-0.02em;}.cls-111{letter-spacing:0.01em;}.cls-112{letter-spacing:-0.01em;}.cls-113{letter-spacing:0.02em;}.cls-114{letter-spacing:0.02em;}.cls-115{fill:#ee7378;}.cls-116{opacity:0.26;}.cls-117{clip-path:url(#clip-path-2);}</style><clipPath id="clip-path"><rect class="cls-1" x="454.08" y="517.58" width="14.04" height="18.08"/></clipPath><clipPath id="clip-path-2"><rect class="cls-1" x="803.82" y="332.8" width="19.42" height="25"/></clipPath></defs><title>Cherus_Map_Homepage_Festwirtschaften</title><g id="Gelbe_flächen" data-name="Gelbe flächen"><rect class="cls-2" x="-253" y="-169" width="1241.38" height="963"/><g class="cls-3"><path d="M600.89,330a2.2,2.2,0,0,0,.45,1.34h-3.71c-.93,0-2.24-1.67-2.24-2.53v-5.46a6,6,0,0,0-.93-2.26v-2.21h9.06v8.95a2.28,2.28,0,0,0-.43,0,2.21,2.21,0,0,0-2.21,2.21Zm3.17-11.8v-.94a.17.17,0,0,0-.17-.17h-2.2v-.43a.17.17,0,0,0-.17-.17h-4.09a.17.17,0,0,0-.17.17v.43h-3a.17.17,0,0,0-.17.17v.94a.17.17,0,0,0,.17.17h9.67a.17.17,0,0,0,.17-.17Zm.82,11.83a1.69,1.69,0,1,1-1.69-1.69,1.69,1.69,0,0,1,1.69,1.69Zm-.7,0a1,1,0,1,0-1,1,1,1,0,0,0,1-1Zm0,0"/></g></g><g id="Dorfplatz"><circle class="cls-4" cx="719.74" cy="321.58" r="47.92"/></g><g id="Eibach"><path class="cls-5" d="M129.76,183.21l2-.75,5.93-2.07,9.27-3.5c3.61-1.54,7.78-3.1,12.34-5.17,9.15-4,20-9.28,32.22-15.84s25.82-14.38,40.68-23.15L243.65,126l11.91-6.92c4-2.35,8.17-4.75,12.4-7.09s8.75-4.77,13.33-7A311.73,311.73,0,0,1,310,92.67c10-3.72,20.33-7.17,30.89-10.4s21.33-6.35,32.25-9.37,22-6,33.42-8.36A133.81,133.81,0,0,1,424.21,62a47.81,47.81,0,0,1,9.48.18,23.6,23.6,0,0,1,5.16,1.15,15,15,0,0,1,5.39,3.16,12.18,12.18,0,0,1,3.57,6.23,10.43,10.43,0,0,1,.28,1.7l.07.84c0,.08,0,.38,0,.43V76l.07,2.17c.11,2.9.25,5.78.27,8.77l.12,4.46,0,4.43c0,3,0,5.91,0,8.86a435.51,435.51,0,0,1-6.1,70.13c-1.9,11.4-4,22.63-6.1,33.62s-4.09,21.76-5.58,32a128.22,128.22,0,0,0-1.38,14.35c0,1-.05,2.13,0,3,0,.44,0,1,.08,1.33s.1.74.14,1.12v.14c0,.07,0-.22,0,0l.09.49.17,1,.35,1.95.34,1.94c.11.65.23,1.17.34,1.76l.68,3.43.78,3.47c.24,1.17.55,2.28.84,3.41s.57,2.25.9,3.33a93.1,93.1,0,0,0,4.34,12.37,63.36,63.36,0,0,0,13.29,19.75,107.13,107.13,0,0,0,9.24,8.24c3.29,2.68,6.75,5.3,10.21,7.92,6.91,5.26,13.78,10.55,20,16,1.57,1.33,3.07,2.72,4.57,4.06.75.67,1.46,1.37,2.19,2.05l2.27,2.15,3.91,4c1.33,1.38,2.67,2.87,3.95,4.28A166.35,166.35,0,0,1,530,393.11,198.59,198.59,0,0,1,540.2,415c2,5.15,3,7.93,3,7.93l-2.3,1.22-5-6.75c-3.23-4.38-8-10.75-14.48-18.32a204.08,204.08,0,0,0-25.05-24.85l-3.89-3.11L488,367.71l-4.36-3.06c-1.54-1-3.07-2.14-4.67-3.18-6.37-4.24-13.23-8.43-20.71-13s-15.63-9.51-23.79-16.59a83.82,83.82,0,0,1-11.53-12.16A85.86,85.86,0,0,1,413.82,305a106.36,106.36,0,0,1-6.25-16c-.46-1.36-.79-2.72-1.17-4.08s-.76-2.74-1.06-4.1l-1-4.12-.84-4.26c-.13-.7-.29-1.46-.4-2.1l-.32-1.95-.31-2-.15-1-.08-.49c0,.08-.06-.38-.07-.47l0-.35-.29-2.83c-.1-1-.08-1.76-.12-2.65-.08-1.79,0-3.35.05-5s.22-3.12.33-4.68l.56-4.47.67-4.35.76-4.27c1-5.64,2.34-11.12,3.63-16.6s2.68-10.9,4.06-16.34c2.78-10.87,5.52-21.77,8.16-32.76s5.27-22,7.79-33.14,4.84-22.32,6.71-33.62c.44-2.83.9-5.66,1.27-8.49l.59-4.25.5-4.23c.33-2.79.57-5.7.81-8.59l.17-2.17,0-.63a1.78,1.78,0,0,0,0-.44,2.07,2.07,0,0,0-.43-1.3c-.67-.89-2.75-1.91-5.13-2.35a38.85,38.85,0,0,0-7.74-.62,94.88,94.88,0,0,0-16.44,1.87A189,189,0,0,0,376,81.63,304.74,304.74,0,0,0,346.08,95.1c-9.61,4.91-18.89,10-27.88,15.14L292,125.2l-12.53,7.21c-4.2,2.42-8.37,4.72-12.52,7s-8.19,4.47-12.22,6.59l-11.92,6.17a435,435,0,0,1-44.1,19.64,237.79,237.79,0,0,1-36.06,10.52c-2.55.53-5,1-7.27,1.34s-4.44.68-6.44,1-3.9.42-5.62.57-3.27.34-4.64.38l-6.28.2-2.16,0Z"/><text class="cls-6" transform="translate(252.54 128.24)">Eibach</text></g><g id="Strasse"><circle class="cls-7" cx="198.61" cy="126.34" r="20.83"/><path class="cls-8" d="M190,110,150.5,18.74"/><path class="cls-8" d="M92.75,162.74l82.75-27h0"/><path class="cls-7" d="M221,119.74c3.13-1.49,38.06-17,41-18.92,74.33-48.33,175.66-51.64,232.75-51.58C594.94,49.34,623,65.8,704,53.49c29.05-4.42,91.34-17.65,106-22"/><path class="cls-7" d="M652.67,177.83c26.89-8.56,60.78-18.11,87.67-26.67"/><path class="cls-7" d="M731.67,148.16,701,58.83"/><path class="cls-7" d="M496.33,54.49c-10.08,27.46-19.44,65-32,116-11,44.67,3,85.67,26,128.33"/><path class="cls-7" d="M464.33,170.49c-15.45-7.38-48.81-19.49-79.33-22-41.36-3.41-60.22,18.41-101,18-17.72-.18-47,6-74.84-22.2"/><path class="cls-7" d="M277.29,169.75s-24.29,63.74-73.9,89.74"/><path class="cls-7" d="M137,269.49c55.43-37,74.16-44,112.85-50.89"/><path class="cls-7" d="M457,354.49c9.67-13.67,27.33-45.33,37-59"/><path class="cls-7" d="M595.31,403.43C566.31,336.43,534,310,492,296.49"/><path class="cls-7" d="M695,319.49c-77-13.05-129-15.13-192-19"/><path class="cls-7" d="M712,301.49c-45-116-64.06-131.56-81-137-41.5-13.33-49.65-2.92-109,3-20.71,2.07-43.7,4.36-55,6"/><circle class="cls-7" cx="719.83" cy="320.49" r="20.83"/><path class="cls-7" d="M702.5,336.32c-65.07,29.86-87.23,53.3-108.84,75.2"/><path class="cls-7" d="M852,360.49c-33-24.17-55.67-35.5-111.34-40"/><path class="cls-7" d="M865,558C732.83,460,719.83,442.74,719.83,341.32"/><circle class="cls-7" cx="700.68" cy="55.65" r="14.96"/></g><g id="Beschriftungen"><path class="cls-2" d="M828.27,524.4l.1.08c0,.07.05.09.07.14.22.72.45,1.44.68,2.16.4,1.27.81,2.54,1.2,3.81a3.87,3.87,0,0,1,.28,1.07l-.21.26a1.49,1.49,0,0,1-.7,0l-4.5-.44-2.11-.2a.36.36,0,0,1-.29-.16c-.06-.1,0-.2.07-.28l1-1.22a.52.52,0,0,0-.1-.8c-1.58-1.28-3.16-2.57-4.75-3.84a1.08,1.08,0,0,1-.51-.79l2.06-2.54a1.09,1.09,0,0,1,.88.33c1.58,1.29,3.16,2.57,4.74,3.85a.54.54,0,0,0,.79-.06c.32-.4.65-.79,1-1.19A.45.45,0,0,1,828.27,524.4Z"/><text class="cls-9" transform="translate(110.28 159.73) rotate(-18)">Sissach</text><text class="cls-9" transform="translate(210.73 259.83) rotate(-37)"><tspan class="cls-10">A</tspan><tspan x="5.48" y="0">llmend</tspan></text><text class="cls-9" transform="translate(188.12 99.18) rotate(-113)"><tspan class="cls-11">R</tspan><tspan x="4.93" y="0">ickenbach / Buus</tspan></text><text class="cls-9" transform="translate(610.53 310.69) rotate(7)"><tspan class="cls-12">R</tspan><tspan x="4.88" y="0">össligasse</tspan></text><text class="cls-9" transform="matrix(0.98, -0.21, 0.21, 0.98, 744.43, 49.45)">O<tspan class="cls-12" x="6.2" y="0">r</tspan><tspan x="9.18" y="0">malingen</tspan></text><path class="cls-2" d="M718.45,286.71l-1.29-7c1.23-.23,1.84-.31,3.06-.44a5.81,5.81,0,0,1,2.49.24,3.24,3.24,0,0,1,1.62,1.15,2.82,2.82,0,0,1,.52,1.75v.45a3.24,3.24,0,0,1-.54,1.75,3.47,3.47,0,0,1-1.38,1.18,6,6,0,0,1-2,.56C719.9,286.46,719.42,286.53,718.45,286.71Zm.25-6.47.8,5.52c.5-.07.75-.1,1.24-.16a3.46,3.46,0,0,0,2.09-.82,2.5,2.5,0,0,0,.75-1.94v-.42a2.23,2.23,0,0,0-.84-1.86,3.39,3.39,0,0,0-2.41-.52C719.67,280.1,719.34,280.14,718.69,280.24Z"/><path class="cls-2" d="M726.17,283.58a2.4,2.4,0,0,1,.51-1.36,2.53,2.53,0,0,1,1.26-.84,3.8,3.8,0,0,1,1.77-.09,3.36,3.36,0,0,1,2.22,1.21,2.37,2.37,0,0,1,.37,2.14l0,.06a2.73,2.73,0,0,1-.7,1.25,2.65,2.65,0,0,1-1.21.7,3.55,3.55,0,0,1-1.54.05,3.26,3.26,0,0,1-2-1,2.65,2.65,0,0,1-.68-2Zm1.17.21a2,2,0,0,0,.36,1.46,1.85,1.85,0,0,0,1.25.72,1.81,1.81,0,0,0,1.41-.28,2.19,2.19,0,0,0,.82-1.37,1.84,1.84,0,0,0-.23-1.49,2.18,2.18,0,0,0-2.89-.48A2,2,0,0,0,727.34,283.79Z"/><path class="cls-2" d="M737.45,284.48a4.32,4.32,0,0,0-.54-.26,1.61,1.61,0,0,0-1.77.14l-1.24,3.54-1-.33,1.57-5,1.15.38-.18.58a2,2,0,0,1,1.86-.05,1.61,1.61,0,0,1,.48.27Z"/><path class="cls-2" d="M737.13,289.25l2-4.12-1-.48.29-.64,1,.49.24-.49a1.48,1.48,0,0,1,1.16-.89,3,3,0,0,1,1.86.48,4.43,4.43,0,0,1,.74.53l-.44.59a4.6,4.6,0,0,0-.58-.39,1.52,1.52,0,0,0-1-.25.86.86,0,0,0-.65.49l-.26.49c.55.29.82.44,1.35.76l-.35.6c-.52-.31-.79-.46-1.32-.74l-2.15,4Z"/><path class="cls-2" d="M746.07,292.25a2.9,2.9,0,0,1-1.8,1,2.39,2.39,0,0,1-1.82-.55,2.69,2.69,0,0,1-1.07-1.54l-1.45,2.09-.82-.54,4-6.16.94.63-.28.52a2.76,2.76,0,0,1,2.08.68,2.64,2.64,0,0,1,1.12,1.86,2.57,2.57,0,0,1-.8,2Zm-.79-.84a1.9,1.9,0,0,0,.53-1.4,1.78,1.78,0,0,0-.77-1.27,1.82,1.82,0,0,0-1.75-.37l-1.44,2.08a1.76,1.76,0,0,0,.78,1.46,1.66,1.66,0,0,0,1.29.37A2.27,2.27,0,0,0,745.28,291.41Z"/><path class="cls-2" d="M746.08,295.9c-.29-.31-.43-.46-.73-.76l5.33-5.28c.37.37.55.57.91,1Z"/><path class="cls-2" d="M749.44,300.29a1.7,1.7,0,0,1,.39-.43,2.87,2.87,0,0,1-1.55-1.11,2.67,2.67,0,0,1-.57-1.47,1.39,1.39,0,0,1,2-1.37,4.12,4.12,0,0,1,1.72,1.56c.26.38.39.57.63,1l.35-.22a.88.88,0,0,0,.43-.73,1.82,1.82,0,0,0-.4-1.1,2.11,2.11,0,0,0-.84-.75.69.69,0,0,0-.74,0c-.29-.38-.44-.57-.75-.94a1.05,1.05,0,0,1,.83-.19,2.48,2.48,0,0,1,1.1.46,4.18,4.18,0,0,1,1,1.06,3.33,3.33,0,0,1,.7,1.91,1.44,1.44,0,0,1-.7,1.27l-2.1,1.23a2.58,2.58,0,0,0-.89.78l-.07,0C749.8,300.86,749.68,300.67,749.44,300.29Zm-.43-1.87a2.42,2.42,0,0,0,.74.68,1.58,1.58,0,0,0,.85.26l.91-.58L751,298c-.79-1.17-1.5-1.52-2-1.12a.78.78,0,0,0-.32.68A1.58,1.58,0,0,0,749,298.42Z"/><path class="cls-2" d="M757.34,301.15l-1.16.53c.23.51.34.76.55,1.28l-.65.26c-.21-.51-.32-.76-.54-1.26l-3,1.36a.64.64,0,0,0-.37.35.8.8,0,0,0,.08.57,3.73,3.73,0,0,0,.26.47l-.67.27a4.36,4.36,0,0,1-.41-.73,1.58,1.58,0,0,1-.13-1.15,1.42,1.42,0,0,1,.77-.8l2.93-1.46c-.24-.47-.36-.71-.61-1.17l.61-.34c.26.47.38.71.62,1.2l1.15-.57C757,300.42,757.12,300.66,757.34,301.15Z"/><path class="cls-2" d="M753.33,306.91a26,26,0,0,1,1,3.8l-.72.13a25.29,25.29,0,0,0-1.37-5l.62-.23a24.22,24.22,0,0,1,4.83,2.59,29,29,0,0,0-1.17-3.88l.7-.26a29.7,29.7,0,0,1,1.55,5.59l-.63.12A24.16,24.16,0,0,0,753.33,306.91Z"/><text class="cls-6" transform="translate(630.32 380.94) rotate(-34)">Ochsengasse</text><text class="cls-13" transform="translate(717.9 356.04) rotate(86)">Marktgasse</text><text class="cls-6" transform="translate(747.15 465.66) rotate(41)"><tspan class="cls-14">T</tspan><tspan x="4.94" y="0">ecknau / Rünenbe</tspan><tspan class="cls-15" x="76.98" y="0">r</tspan><tspan x="79.95" y="0">g</tspan></text><path class="cls-2" d="M101,164.73l-.12,0c0-.07-.1,0-.16,0l-2.19-.61-3.85-1.07a3.87,3.87,0,0,1-1.06-.35l-.1-.31a1.49,1.49,0,0,1,.38-.6l2.82-3.53,1.32-1.66a.36.36,0,0,1,.29-.15c.12,0,.16.11.19.21l.48,1.49a.52.52,0,0,0,.72.35c1.94-.63,3.87-1.25,5.8-1.89a1.08,1.08,0,0,1,.94,0l1,3.11a1.09,1.09,0,0,1-.76.56l-5.81,1.88a.54.54,0,0,0-.38.7c.16.49.31,1,.48,1.45A.45.45,0,0,1,101,164.73Z"/><path class="cls-2" d="M149,27.86l-.05-.12c.06,0,0-.1,0-.16.14-.74.28-1.49.42-2.23.24-1.31.48-2.62.73-3.93a3.87,3.87,0,0,1,.25-1.08l.3-.13a1.49,1.49,0,0,1,.63.32L155,23l1.77,1.17a.36.36,0,0,1,.18.28c0,.12-.1.17-.2.21l-1.45.61a.52.52,0,0,0-.28.75c.8,1.87,1.58,3.75,2.39,5.62a1.08,1.08,0,0,1,.08.94l-3,1.28a1.09,1.09,0,0,1-.62-.71c-.79-1.88-1.59-3.75-2.38-5.62a.54.54,0,0,0-.73-.32l-1.41.6A.45.45,0,0,1,149,27.86Z"/><path class="cls-2" d="M799.5,29.52l.13,0c0,.07.1,0,.15,0l2.14.76,3.77,1.33a3.87,3.87,0,0,1,1,.42l.08.32a1.49,1.49,0,0,1-.42.57l-3.06,3.33-1.43,1.57a.36.36,0,0,1-.3.13c-.12,0-.15-.12-.18-.23L801,36.2a.52.52,0,0,0-.7-.4c-2,.49-4,1-5.92,1.48a1.08,1.08,0,0,1-.94-.07L792.68,34a1.09,1.09,0,0,1,.79-.5l5.93-1.47a.54.54,0,0,0,.43-.67c-.12-.5-.24-1-.37-1.48A.45.45,0,0,1,799.5,29.52Z"/></g><g id="Standartgeb." class="cls-16"><rect class="cls-17" x="332.24" y="122.21" width="78.39" height="16.83"/><text class="cls-18" transform="translate(336.17 135.06)"><tspan class="cls-19">K</tspan><tspan x="6.7" y="0">a</tspan><tspan class="cls-20" x="12.48" y="0">n</tspan><tspan class="cls-21" x="19.09" y="0">t</tspan><tspan x="22.99" y="0">onalbank</tspan></text><rect class="cls-17" x="362.24" y="162.34" width="29.93" height="18.83"/><text class="cls-18" transform="translate(366.17 175.19)"><tspan class="cls-22">P</tspan><tspan x="6.08" y="0">ost</tspan></text><rect class="cls-17" x="237.34" y="248.52" width="36.95" height="28.07"/><text class="cls-18" transform="translate(243.07 267.08)"><tspan class="cls-23">C</tspan><tspan x="6.83" y="0">oop</tspan></text></g><g id="Legende"><rect class="cls-2" x="431.33" y="446.26" width="110.06" height="118.25"/><text class="cls-24" transform="translate(431.91 442.14)"><tspan class="cls-25">L</tspan><tspan x="5.52" y="0">egende</tspan></text><line class="cls-26" x1="436.43" y1="460.07" x2="471.73" y2="460.07"/><text class="cls-24" transform="translate(476 483.81)"><tspan class="cls-27">T</tspan><tspan class="cls-28" x="5.14" y="0">oilet</tspan><tspan class="cls-29" x="27.37" y="0">t</tspan><tspan x="31.35" y="0">en</tspan></text><text class="cls-24" transform="translate(476 506.31)">Bühnen</text><text class="cls-24" transform="translate(475.29 530.65)"><tspan class="cls-25">Z</tspan><tspan x="6.25" y="0">e</tspan><tspan class="cls-30" x="12.06" y="0">n</tspan><tspan class="cls-31" x="18.44" y="0">t</tspan><tspan class="cls-32" x="22.47" y="0">r</tspan><tspan x="26.53" y="0">allager</tspan></text><text class="cls-33" transform="translate(475.29 553.65)">A<tspan class="cls-31" x="7.15" y="0">bfalllager</tspan></text><text class="cls-24" transform="translate(477.29 462.12)"><tspan class="cls-34">P</tspan><tspan x="6.19" y="0">a</tspan><tspan class="cls-32" x="12" y="0">r</tspan><tspan x="16.06" y="0">ade</tspan><tspan class="cls-35" x="34.23" y="0">r</tspan><tspan x="38.32" y="0">ou</tspan><tspan class="cls-36" x="51.08" y="0">t</tspan><tspan class="cls-28" x="55.07" y="0">e</tspan></text><rect class="cls-37" x="448.33" y="470.65" width="20.18" height="20.18" rx="9.91" ry="9.91"/><text class="cls-38" transform="translate(450.2 484.02)"><tspan class="cls-39">w</tspan><tspan x="10.16" y="0">c</tspan></text><rect class="cls-40" x="437.25" y="497.48" width="33.67" height="11.5"/><g class="cls-41"><path class="cls-42" d="M468.12,524.6c0,5.62-6.35,10.83-6.35,10.83a1.11,1.11,0,0,1-1.35,0s-6.35-5.21-6.35-10.83a7,7,0,0,1,14,0Z"/></g><path class="cls-43" d="M461.1,528.13a3.53,3.53,0,1,1,3.53-3.53,3.54,3.54,0,0,1-3.53,3.53Z"/><path d="M462.5,556.13a2.2,2.2,0,0,0,.45,1.34h-3.71c-.93,0-2.24-1.67-2.24-2.53v-5.46a6,6,0,0,0-.93-2.26V545h9.06V554a2.28,2.28,0,0,0-.43,0,2.21,2.21,0,0,0-2.21,2.21Zm3.17-11.8v-.94a.17.17,0,0,0-.17-.17h-2.2v-.43a.17.17,0,0,0-.17-.17H459a.17.17,0,0,0-.17.17v.43h-3a.17.17,0,0,0-.17.17v.94a.17.17,0,0,0,.17.17h9.67a.17.17,0,0,0,.17-.17Zm.82,11.83a1.69,1.69,0,1,1-1.69-1.69,1.69,1.69,0,0,1,1.69,1.69Zm-.7,0a1,1,0,1,0-1,1,1,1,0,0,0,1-1Zm0,0"/></g><g id="Wirtschaften"><text class="cls-44" transform="translate(19.4 340.52)"><tspan class="cls-45">1) Jo<tspan class="cls-46" x="22.65" y="0">k</tspan><tspan x="28.46" y="0">er </tspan><tspan class="cls-47" x="40.67" y="0">G</tspan><tspan x="48.2" y="0">mbH</tspan></tspan><tspan class="cls-48"><tspan x="0" y="13.2" xml:space="preserve">     Ba</tspan><tspan class="cls-49" x="22.92" y="13.2">r</tspan><tspan class="cls-50" x="26.79" y="13.2">w</tspan><tspan class="cls-28" x="34.85" y="13.2">agen</tspan></tspan><tspan class="cls-45"><tspan x="0" y="26.4">2) Jo</tspan><tspan class="cls-46" x="22.65" y="26.4">k</tspan><tspan x="28.46" y="26.4">er </tspan><tspan class="cls-47" x="40.67" y="26.4">G</tspan><tspan x="48.2" y="26.4">mbH</tspan></tspan><tspan class="cls-48"><tspan x="0" y="39.6" xml:space="preserve">     Ba</tspan><tspan class="cls-51" x="22.92" y="39.6">r</tspan><tspan class="cls-52" x="26.62" y="39.6">z</tspan><tspan x="31.25" y="39.6">elt</tspan></tspan><tspan class="cls-45"><tspan x="0" y="52.8">3) </tspan><tspan class="cls-53" x="11.78" y="52.8">D</tspan><tspan class="cls-31" x="19.49" y="52.8">uzi</tspan><tspan class="cls-54" x="34.08" y="52.8"> </tspan><tspan class="cls-55" x="35.87" y="52.8">T</tspan><tspan x="41.17" y="52.8">a</tspan><tspan class="cls-56" x="46.98" y="52.8">k</tspan><tspan class="cls-28" x="52.79" y="52.8">e </tspan><tspan class="cls-57" x="60.82" y="52.8">A</tspan><tspan class="cls-58" x="67.69" y="52.8">w</tspan><tspan class="cls-59" x="75.97" y="52.8">a</tspan><tspan x="81.64" y="52.8">y</tspan></tspan><tspan class="cls-48"><tspan x="0" y="66" xml:space="preserve">     </tspan><tspan class="cls-60" x="11.66" y="66">B</tspan><tspan x="17.67" y="66">eizli</tspan></tspan><tspan class="cls-45"><tspan x="0" y="79.2">4) Restau</tspan><tspan class="cls-61" x="45.14" y="79.2">r</tspan><tspan class="cls-28" x="49.2" y="79.2">a</tspan><tspan class="cls-62" x="55.01" y="79.2">n</tspan><tspan x="61.39" y="79.2">t Linde</tspan></tspan><tspan class="cls-48"><tspan x="0" y="92.4" xml:space="preserve">     </tspan><tspan class="cls-63" x="11.66" y="92.4">M</tspan><tspan class="cls-64" x="20.57" y="92.4">e</tspan><tspan class="cls-28" x="26.05" y="92.4">xi</tspan><tspan class="cls-65" x="33.71" y="92.4">k</tspan><tspan x="39.07" y="92.4">anisch</tspan></tspan><tspan class="cls-45"><tspan x="0" y="105.6">5)</tspan><tspan class="cls-54" x="9.56" y="105.6"> </tspan><tspan class="cls-59" x="11.35" y="105.6">T</tspan><tspan x="17.25" y="105.6">hunde</tspan><tspan class="cls-64" x="48.92" y="105.6">r</tspan><tspan class="cls-66" x="53.06" y="105.6">b</tspan><tspan x="59.67" y="105.6">eans</tspan></tspan><tspan class="cls-48"><tspan x="0" y="118.8" xml:space="preserve">     </tspan><tspan class="cls-64" x="11.66" y="118.8">A</tspan><tspan x="18.36" y="118.8">p</tspan><tspan class="cls-67" x="24.62" y="118.8">f</tspan><tspan x="27.69" y="118.8">el</tspan><tspan class="cls-60" x="35.79" y="118.8">k</tspan><tspan class="cls-28" x="41" y="118.8">üchlein und </tspan><tspan class="cls-68" x="97.91" y="118.8">K</tspan><tspan x="104.05" y="118.8">a</tspan><tspan class="cls-67" x="109.35" y="118.8">ff</tspan><tspan x="115.62" y="118.8">ee</tspan></tspan><tspan class="cls-45"><tspan x="0" y="132">6)</tspan><tspan class="cls-54" x="9.56" y="132"> </tspan><tspan class="cls-69" x="11.35" y="132">T</tspan><tspan x="17.69" y="132">V Buus</tspan></tspan><tspan class="cls-48"><tspan x="0" y="145.2" xml:space="preserve">     </tspan><tspan class="cls-70" x="11.66" y="145.2">R</tspan><tspan class="cls-28" x="17.71" y="145.2">aclet</tspan><tspan class="cls-62" x="39.69" y="145.2">t</tspan><tspan x="43.26" y="145.2">e</tspan></tspan><tspan class="cls-45"><tspan x="0" y="158.4">7) </tspan><tspan class="cls-71" x="11.78" y="158.4">L</tspan><tspan x="17.3" y="158.4">et&apos;s </tspan><tspan class="cls-72" x="36.4" y="158.4">F</tspan><tspan class="cls-28" x="41.91" y="158.4">etz</tspan><tspan class="cls-73" x="56.91" y="158.4"> </tspan><tspan class="cls-74" x="58.73" y="158.4">W</tspan><tspan class="cls-28" x="68.03" y="158.4">aggis</tspan></tspan><tspan class="cls-48"><tspan x="0" y="171.6" xml:space="preserve">     </tspan><tspan class="cls-72" x="11.66" y="171.6">F</tspan><tspan x="16.73" y="171.6">isch</tspan><tspan class="cls-75" x="34.69" y="171.6">k</tspan><tspan class="cls-28" x="40.04" y="171.6">nuspe</tspan><tspan class="cls-60" x="68.33" y="171.6">r</tspan><tspan x="71.97" y="171.6">li</tspan></tspan><tspan class="cls-45"><tspan x="0" y="184.8">8) che</tspan><tspan class="cls-64" x="29" y="184.8">r</tspan><tspan x="33.14" y="184.8">usgaelti.ch</tspan></tspan><tspan class="cls-48"><tspan x="0" y="198" xml:space="preserve">     </tspan><tspan class="cls-76" x="11.66" y="198">G</tspan><tspan x="18.82" y="198">et</tspan><tspan class="cls-77" x="27.97" y="198">r</tspan><tspan x="31.51" y="198">änke</tspan><tspan class="cls-78" x="53.59" y="198"> </tspan><tspan class="cls-58" x="55.47" y="198">T</tspan><tspan x="60.86" y="198">heke</tspan></tspan><tspan class="cls-45"><tspan x="0" y="211.2">9) che</tspan><tspan class="cls-64" x="29" y="211.2">r</tspan><tspan x="33.14" y="211.2">usgaelti.ch</tspan></tspan><tspan class="cls-48"><tspan x="0" y="224.4" xml:space="preserve">     G</tspan><tspan class="cls-60" x="18.77" y="224.4">r</tspan><tspan x="22.41" y="224.4">illstand</tspan></tspan></text><text class="cls-44"><tspan class="cls-45"><tspan x="298.42" y="366.8">19) che</tspan><tspan class="cls-79" x="333.52" y="366.8">r</tspan><tspan x="337.66" y="366.8">usgaelti.ch</tspan></tspan><tspan class="cls-48"><tspan x="298.42" y="380" xml:space="preserve">        </tspan><tspan class="cls-57" x="317.07" y="380">F</tspan><tspan x="322.09" y="380">est</tspan><tspan class="cls-52" x="335.59" y="380">z</tspan><tspan x="340.23" y="380">elt mit Shotbar</tspan></tspan><tspan class="cls-45"><tspan x="298.42" y="393.2">20) Lind</tspan><tspan class="cls-80" x="337.94" y="393.2">b</tspan><tspan x="344.55" y="393.2">e</tspan><tspan class="cls-35" x="350.36" y="393.2">r</tspan><tspan class="cls-81" x="354.45" y="393.2">gh </tspan><tspan class="cls-82" x="369.55" y="393.2">P</tspan><tspan x="375.83" y="393.2">ub</tspan></tspan><tspan class="cls-48"><tspan x="298.42" y="406.4" xml:space="preserve">        Ba</tspan><tspan class="cls-83" x="328.33" y="406.4">r</tspan><tspan class="cls-84" x="332.03" y="406.4">z</tspan><tspan x="336.66" y="406.4">elt</tspan></tspan><tspan class="cls-45"><tspan x="298.42" y="419.6">21)</tspan><tspan class="cls-85" x="314.08" y="419.6"> </tspan><tspan class="cls-86" x="315.89" y="419.6">W</tspan><tspan x="325.2" y="419.6">olfl</tspan><tspan class="cls-80" x="341.04" y="419.6">o</tspan><tspan x="347.42" y="419.6">ch</tspan><tspan class="cls-70" x="358.83" y="419.6">-</tspan><tspan class="cls-79" x="362.5" y="419.6">C</tspan><tspan x="369.01" y="419.6">lique</tspan></tspan><tspan class="cls-48"><tspan x="298.42" y="432.8" xml:space="preserve">        Bie</tspan><tspan class="cls-87" x="331.12" y="432.8">r</tspan><tspan class="cls-88" x="334.99" y="432.8">w</tspan><tspan x="343.04" y="432.8">agen</tspan></tspan><tspan class="cls-45"><tspan x="298.42" y="446">22) </tspan><tspan class="cls-83" x="316.3" y="446">R</tspan><tspan x="322.92" y="446">äbhü</tspan><tspan class="cls-80" x="348.17" y="446">b</tspan><tspan class="cls-81" x="354.78" y="446">elschlu</tspan><tspan class="cls-89" x="389.23" y="446">r</tspan><tspan class="cls-81" x="393.32" y="446">gi</tspan></tspan><tspan class="cls-48"><tspan x="298.42" y="459.2" xml:space="preserve">        </tspan><tspan class="cls-90" x="317.07" y="459.2">R</tspan><tspan x="323.1" y="459.2">isot</tspan><tspan class="cls-62" x="339.71" y="459.2">t</tspan><tspan x="343.28" y="459.2">o Hüt</tspan><tspan class="cls-91" x="368.53" y="459.2">t</tspan><tspan x="372.1" y="459.2">e</tspan></tspan><tspan class="cls-45"><tspan x="298.42" y="472.4">23) </tspan><tspan class="cls-80" x="316.3" y="472.4">M</tspan><tspan x="325.64" y="472.4">ari</tspan><tspan class="cls-68" x="338.64" y="472.4">o</tspan><tspan x="345.16" y="472.4">- </tspan><tspan class="cls-64" x="350.93" y="472.4">N</tspan><tspan x="358.49" y="472.4">o Limit</tspan></tspan><tspan class="cls-48"><tspan x="298.42" y="485.6" xml:space="preserve">        Ba</tspan><tspan class="cls-83" x="328.33" y="485.6">r</tspan><tspan class="cls-84" x="332.03" y="485.6">z</tspan><tspan x="336.66" y="485.6">elt</tspan></tspan><tspan class="cls-45"><tspan x="298.42" y="498.8">24) </tspan><tspan class="cls-80" x="316.3" y="498.8">G</tspan><tspan class="cls-92" x="323.84" y="498.8">rillsch</tspan><tspan class="cls-93" x="353.26" y="498.8">r</tspan><tspan x="357.32" y="498.8">än</tspan><tspan class="cls-58" x="369.57" y="498.8">z</tspan><tspan class="cls-81" x="374.66" y="498.8">er</tspan></tspan><tspan class="cls-48"><tspan x="298.42" y="512" xml:space="preserve">        G</tspan><tspan class="cls-94" x="324.18" y="512">r</tspan><tspan class="cls-92" x="327.82" y="512">illstand</tspan></tspan><tspan class="cls-45"><tspan x="298.42" y="525.2">25) Rössli</tspan></tspan><tspan class="cls-48"><tspan x="298.42" y="538.4" xml:space="preserve">        </tspan><tspan class="cls-68" x="317.07" y="538.4">K</tspan><tspan x="323.21" y="538.4">a</tspan><tspan class="cls-67" x="328.51" y="538.4">ff</tspan><tspan x="334.78" y="538.4">eebar</tspan></tspan><tspan class="cls-45"><tspan x="298.42" y="551.6">26)</tspan><tspan class="cls-85" x="314.08" y="551.6"> </tspan><tspan class="cls-95" x="315.89" y="551.6">W</tspan><tspan class="cls-92" x="325.37" y="551.6">ildi Hühner</tspan></tspan><tspan class="cls-48"><tspan x="298.42" y="564.8" xml:space="preserve">       Sho</tspan><tspan class="cls-83" x="332.31" y="564.8">t</tspan><tspan class="cls-50" x="336.05" y="564.8">w</tspan><tspan class="cls-92" x="344.1" y="564.8">ägeli</tspan></tspan></text><text class="cls-96" transform="translate(90.08 312.69)"><tspan class="cls-97">F</tspan><tspan x="10.02" y="0">es</tspan><tspan class="cls-98" x="29.26" y="0">t</tspan><tspan x="36.7" y="0">wi</tspan><tspan class="cls-99" x="57.36" y="0">r</tspan><tspan x="65.38" y="0">tscha</tspan><tspan class="cls-100" x="112.7" y="0">f</tspan><tspan class="cls-101" x="119.82" y="0">t</tspan><tspan x="127.06" y="0">en</tspan></text><text class="cls-44"><tspan class="cls-45"><tspan x="156.93" y="340.14">10) Sissacher </tspan><tspan class="cls-102" x="222.74" y="340.14">F</tspan><tspan x="228.37" y="340.14">lueh</tspan></tspan><tspan class="cls-48"><tspan x="156.93" y="353.34" xml:space="preserve">        Bie</tspan><tspan class="cls-103" x="189.63" y="353.34">r</tspan><tspan class="cls-50" x="193.5" y="353.34">w</tspan><tspan class="cls-92" x="201.56" y="353.34">agen</tspan></tspan><tspan class="cls-45"><tspan x="156.93" y="366.54">11)</tspan><tspan class="cls-85" x="172.59" y="366.54"> </tspan><tspan class="cls-95" x="174.41" y="366.54">V</tspan><tspan class="cls-92" x="181.11" y="366.54">inothek </tspan><tspan class="cls-83" x="221.39" y="366.54">R</tspan><tspan x="228.01" y="366.54">affaella</tspan></tspan><tspan class="cls-48"><tspan x="156.93" y="379.74" xml:space="preserve">        Bar</tspan></tspan><tspan class="cls-45"><tspan x="156.93" y="392.94">12) </tspan><tspan class="cls-104" x="174.82" y="392.94">D</tspan><tspan x="182.52" y="392.94">ie </tspan><tspan class="cls-60" x="193.56" y="392.94">Z</tspan><tspan x="199.95" y="392.94">ämmegwü</tspan><tspan class="cls-105" x="251.68" y="392.94">r</tspan><tspan class="cls-92" x="256.16" y="392.94">fle</tspan><tspan class="cls-29" x="268.43" y="392.94">t</tspan><tspan class="cls-81" x="272.42" y="392.94">e</tspan></tspan><tspan class="cls-48"><tspan x="156.93" y="406.14" xml:space="preserve">        Spaghetti </tspan><tspan class="cls-60" x="222.52" y="406.14">B</tspan><tspan x="228.53" y="406.14">eizli</tspan></tspan><tspan class="cls-45"><tspan x="156.93" y="419.34">13) Zip</tspan><tspan class="cls-106" x="190.75" y="419.34">f</tspan><tspan x="194.39" y="419.34">elchap</tspan><tspan class="cls-47" x="227.02" y="419.34">p</tspan><tspan x="233.63" y="419.34">e</tspan><tspan class="cls-85" x="239.44" y="419.34"> </tspan><tspan class="cls-86" x="241.25" y="419.34">W</tspan><tspan x="250.56" y="419.34">aggis</tspan></tspan><tspan class="cls-48"><tspan x="156.93" y="432.54" xml:space="preserve">        Essstand</tspan></tspan><tspan class="cls-45"><tspan x="156.93" y="445.74">14) Bierstü</tspan><tspan class="cls-107" x="209.68" y="445.74">r</tspan><tspan class="cls-84" x="213.94" y="445.74">z</tspan><tspan x="219.02" y="445.74">er</tspan></tspan><tspan class="cls-48"><tspan x="156.93" y="458.94" xml:space="preserve">        Biersc</tspan><tspan class="cls-108" x="202.51" y="458.94">h</tspan><tspan class="cls-82" x="208.47" y="458.94">w</tspan><tspan class="cls-92" x="216.46" y="458.94">emmi</tspan></tspan><tspan class="cls-45"><tspan x="156.93" y="472.14">15) che</tspan><tspan class="cls-79" x="192.03" y="472.14">r</tspan><tspan x="196.18" y="472.14">usgaelti.ch</tspan></tspan><tspan class="cls-48"><tspan x="156.93" y="485.34" xml:space="preserve">        </tspan><tspan class="cls-64" x="175.58" y="485.34">C</tspan><tspan class="cls-82" x="181.93" y="485.34">r</tspan><tspan x="185.42" y="485.34">epe </tspan><tspan class="cls-79" x="205.03" y="485.34">S</tspan><tspan x="210.42" y="485.34">tand</tspan></tspan><tspan class="cls-45"><tspan x="156.93" y="498.54">16) </tspan><tspan class="cls-109" x="174.82" y="498.54">S</tspan><tspan x="180.83" y="498.54">chnör</tspan><tspan class="cls-35" x="209.21" y="498.54">r</tspan><tspan x="213.3" y="498.54">e</tspan><tspan class="cls-80" x="219.11" y="498.54">b</tspan><tspan class="cls-110" x="225.72" y="498.54">ö</tspan><tspan x="231.81" y="498.54">x</tspan></tspan><tspan class="cls-48"><tspan x="156.93" y="511.74" xml:space="preserve">        </tspan><tspan class="cls-111" x="175.58" y="511.74">S</tspan><tspan x="181.07" y="511.74">chnit</tspan><tspan class="cls-84" x="204.43" y="511.74">z</tspan><tspan x="209.06" y="511.74">elb</tspan><tspan class="cls-106" x="223.42" y="511.74">r</tspan><tspan x="226.91" y="511.74">ot</tspan></tspan><tspan class="cls-45"><tspan x="156.93" y="524.94">17) </tspan><tspan class="cls-50" x="174.82" y="524.94">S</tspan><tspan x="180.71" y="524.94">hotmaschine</tspan></tspan><tspan class="cls-48"><tspan x="156.93" y="538.14" xml:space="preserve">        Shotbar</tspan></tspan><tspan class="cls-45"><tspan x="156.93" y="551.34">18) </tspan><tspan class="cls-64" x="174.82" y="551.34">C</tspan><tspan class="cls-92" x="181.33" y="551.34">herpl</tspan><tspan class="cls-112" x="207.36" y="551.34">a</tspan><tspan x="213.08" y="551.34">tz </tspan><tspan class="cls-79" x="224.5" y="551.34">r</tspan><tspan x="228.65" y="551.34">ueche</tspan></tspan><tspan class="cls-48"><tspan x="156.93" y="564.54" xml:space="preserve">        </tspan><tspan class="cls-64" x="175.58" y="564.54">Ä</tspan><tspan class="cls-92" x="182.28" y="564.54">lple</tspan><tspan class="cls-94" x="199.25" y="564.54">r</tspan><tspan class="cls-92" x="202.89" y="564.54">ma</tspan><tspan class="cls-113" x="217.36" y="564.54">k</tspan><tspan class="cls-114" x="222.71" y="564.54">k</tspan><tspan class="cls-92" x="228.06" y="564.54">a</tspan><tspan class="cls-106" x="233.37" y="564.54">r</tspan><tspan x="236.85" y="564.54">oni</tspan></tspan></text></g><g id="WC_s" data-name="WC&apos;s" class="cls-3"><rect class="cls-37" x="193.43" y="203.65" width="20.18" height="20.18" rx="9.91" ry="9.91"/><text class="cls-38" transform="translate(195.3 217.01)"><tspan class="cls-39">w</tspan><tspan x="10.16" y="0">c</tspan></text><rect class="cls-37" x="616.58" y="167.74" width="20.18" height="20.18" rx="9.91" ry="9.91"/><text class="cls-38" transform="translate(618.45 181.1)"><tspan class="cls-39">w</tspan><tspan x="10.16" y="0">c</tspan></text><rect class="cls-37" x="570.91" y="310.48" width="20.18" height="20.18" rx="9.91" ry="9.91"/><text class="cls-38" transform="translate(572.78 323.84)"><tspan class="cls-39">w</tspan><tspan x="10.16" y="0">c</tspan></text><rect class="cls-37" x="803.44" y="309.4" width="20.18" height="20.18" rx="9.91" ry="9.91"/><text class="cls-38" transform="translate(805.31 322.77)"><tspan class="cls-39">w</tspan><tspan x="10.16" y="0">c</tspan></text><rect class="cls-37" x="702.58" y="409.4" width="20.18" height="20.18" rx="9.91" ry="9.91"/><text class="cls-38" transform="translate(704.45 422.76)"><tspan class="cls-39">w</tspan><tspan x="10.16" y="0">c</tspan></text><rect class="cls-37" x="655.99" y="365.4" width="20.18" height="20.18" rx="9.91" ry="9.91"/><text class="cls-38" transform="translate(657.86 378.77)"><tspan class="cls-39">w</tspan><tspan x="10.16" y="0">c</tspan></text></g><g id="Festwirtschaften"><rect class="cls-115" x="648.08" y="209.41" width="18.38" height="18.38"/><text class="cls-38" transform="translate(653.68 223.21)">2</text><rect class="cls-115" x="680.29" y="201.17" width="18.38" height="18.38"/><text class="cls-38" transform="translate(685.88 214.97)">3</text><rect class="cls-115" x="666.98" y="250.3" width="18.38" height="18.38"/><text class="cls-38" transform="translate(672.58 264.1)">4</text><rect class="cls-115" x="693.31" y="226.2" width="18.38" height="18.38"/><text class="cls-38" transform="translate(698.91 239.99)">5</text><rect class="cls-115" x="699.71" y="247.88" width="18.38" height="18.38"/><text class="cls-38" transform="translate(705.31 261.68)">6</text><rect class="cls-115" x="724.98" y="247.88" width="18.38" height="18.38"/><text class="cls-38" transform="translate(730.58 261.68)">7</text><rect class="cls-115" x="769.14" y="332.13" width="18.38" height="18.38"/><text class="cls-38" transform="translate(774.74 345.93)">8</text><rect class="cls-115" x="745.71" y="329.11" width="18.38" height="18.38"/><text class="cls-38" transform="translate(751.31 342.91)">9</text><rect class="cls-115" x="731.14" y="364.64" width="18.38" height="18.38"/><text class="cls-38" transform="translate(733.15 378.44)">10</text><rect class="cls-115" x="764.43" y="360.3" width="18.38" height="18.38"/><text class="cls-38" transform="translate(766.44 374.1)">11</text><rect class="cls-115" x="736.89" y="402.95" width="18.38" height="18.38"/><text class="cls-38" transform="translate(738.9 416.74)">12</text><rect class="cls-115" x="754.95" y="431.98" width="18.38" height="18.38"/><text class="cls-38" transform="translate(756.96 445.78)">13</text><rect class="cls-115" x="713.57" y="431.6" width="18.38" height="18.38"/><text class="cls-38" transform="translate(715.58 445.4)">14</text><rect class="cls-115" x="699.71" y="389" width="18.38" height="18.38"/><text class="cls-38" transform="translate(701.72 402.79)">15</text><rect class="cls-115" x="698.71" y="365.49" width="18.38" height="18.38"/><text class="cls-38" transform="translate(700.72 379.29)">16</text><rect class="cls-115" x="684.81" y="347.41" width="18.38" height="18.38"/><text class="cls-38" transform="translate(686.82 361.21)">17</text><rect class="cls-115" x="627.57" y="339.13" width="18.38" height="18.38"/><text class="cls-38" transform="translate(629.57 352.93)">18</text><rect class="cls-115" x="618.38" y="380.64" width="18.38" height="18.38"/><text class="cls-38" transform="translate(620.38 394.44)">19</text><rect class="cls-115" x="661.86" y="322.94" width="18.38" height="18.38"/><text class="cls-38" transform="translate(663.87 336.74)">20</text><rect class="cls-115" x="638.89" y="317.6" width="18.38" height="18.38"/><text class="cls-38" transform="translate(640.9 331.4)">21</text><rect class="cls-115" x="656.89" y="291.06" width="18.38" height="18.38"/><text class="cls-38" transform="translate(658.9 304.85)">22</text><rect class="cls-115" x="550.62" y="309.3" width="18.38" height="18.38"/><text class="cls-38" transform="translate(552.63 323.1)">23</text><rect class="cls-115" x="550.62" y="278.66" width="18.38" height="18.38"/><text class="cls-38" transform="translate(552.63 292.46)">24</text><rect class="cls-115" x="514.29" y="278.66" width="18.38" height="18.38"/><text class="cls-38" transform="translate(516.29 292.46)">25</text><rect class="cls-115" x="684.81" y="285.66" width="18.38" height="18.38"/><text class="cls-38" transform="translate(686.82 299.46)">26</text><rect class="cls-115" x="168.59" y="216.7" width="18.38" height="18.38"/><text class="cls-38" transform="translate(174.19 230.5)">1</text></g><g id="Bühnen" class="cls-116"><rect class="cls-40" x="592.72" y="390.16" width="33.67" height="13.33" transform="translate(695.77 -325.39) rotate(63.74)"/><text class="cls-38" transform="translate(601.9 392.43) rotate(63.74)">B4</text><rect class="cls-40" x="497.45" y="313.83" width="33.67" height="13.33" transform="translate(243 -221.36) rotate(31.47)"/><text class="cls-38" transform="matrix(0.85, 0.52, -0.52, 0.85, 505.47, 320.85)">B5</text><rect class="cls-40" x="667.89" y="187.58" width="33.67" height="13.33" transform="matrix(0.95, 0.31, -0.31, 0.95, 92.97, -201.24)"/><text class="cls-38" transform="matrix(0.95, 0.31, -0.31, 0.95, 676.16, 196.72)">B6</text><rect class="cls-40" x="715.31" y="454.7" width="33.67" height="13.33" transform="translate(105.34 -135.3) rotate(11.37)"/><text class="cls-38" transform="translate(723.9 464.78) rotate(11.37)">B3</text><rect class="cls-40" x="765.98" y="290.97" width="33.67" height="13.33" transform="translate(829.07 -538.57) rotate(72.35)"/><text class="cls-38" transform="translate(775.86 292.13) rotate(72.35)">B2</text><rect class="cls-40" x="742.59" y="259.6" width="33.67" height="13.33" transform="translate(288.44 -386.27) rotate(34.86)"/><text class="cls-38" transform="translate(750.52 266.06) rotate(34.86)">B1</text><g class="cls-117"><path class="cls-42" d="M823.24,342.51c0,7.77-8.78,15-8.78,15a1.54,1.54,0,0,1-1.86,0s-8.78-7.2-8.78-15a9.71,9.71,0,0,1,19.42,0Z"/></g><path class="cls-43" d="M813.53,347.4a4.88,4.88,0,1,1,4.88-4.88,4.89,4.89,0,0,1-4.88,4.88Z"/></g></svg>