<?xml version="1.0" encoding="utf-8"?>
<!-- Generator: Adobe Illustrator 21.0.0, SVG Export Plug-In . SVG Version: 6.00 Build 0)  -->
<svg version="1.1" xmlns="http://www.w3.org/2000/svg" xmlns:xlink="http://www.w3.org/1999/xlink" x="0px" y="0px"
	 viewBox="0 0 841.9 595.3" style="enable-background:new 0 0 841.9 595.3;" xml:space="preserve">
<style type="text/css">
	.st0{display:none;}
	.st1{display:inline;opacity:5.000000e-02;}
	.st2{fill:#FFFFFF;}
	.st3{fill:#F4F2B7;}
	.st4{opacity:0.7;fill:#2D2E83;}
	.st5{fill:#009FE3;}
	.st6{fill:none;}
	.st7{fill:none;stroke:#393186;stroke-width:15;stroke-miterlimit:10;}
	.st8{fill:none;stroke:#393186;stroke-width:16;stroke-miterlimit:10;}
	.st9{fill:#FFFFFF;stroke:#393186;stroke-width:0.75;stroke-miterlimit:10;}
	.st10{fill:#CBBBA0;}
	.st11{fill:#A4D2B3;}
	.st12{fill:#FFEA36;}
	.st13{fill:#312783;}
	.st14{clip-path:url(#SVGID_2_);fill:#FFED00;}
	.st15{clip-path:url(#SVGID_2_);}
	.st16{clip-path:url(#SVGID_4_);fill-rule:evenodd;clip-rule:evenodd;fill:#312783;}
	.st17{clip-path:url(#SVGID_4_);fill-rule:evenodd;clip-rule:evenodd;fill:#FFED00;}
	.st18{clip-path:url(#SVGID_4_);fill:#312783;}
	.st19{fill:#2E2C7D;}
	.st20{fill:#393186;}
	.st21{display:inline;}
	.st22{opacity:0.2;}
	.st23{fill:#E94E1B;}
	.st24{fill:#EE7378;}
	.st25{clip-path:url(#SVGID_6_);fill:#E62C35;}
	.st26{display:inline;fill:#FDE7DF;}
	.st27{fill:#FFED00;}
	.st28{clip-path:url(#SVGID_8_);fill:#E62C35;}
	.st29{fill:#2D2F7C;}
	.st30{fill:none;stroke:#FFED00;stroke-width:8;stroke-miterlimit:10;}
	.st31{fill:url(#SVGID_9_);stroke:url(#SVGID_10_);stroke-miterlimit:10;}
	.st32{fill:url(#SVGID_11_);stroke:url(#SVGID_12_);stroke-miterlimit:10;}
	.st33{fill:#E30613;}
	.st34{clip-path:url(#SVGID_14_);fill:#E62C35;}
</style>
<g id="Hintergrund" class="st0">
	<g id="Ebene_1" class="st1">
	</g>
</g>
<g id="Bühne_1_x26_2">
	<g id="Gelbflächen">
	</g>
</g>
<g id="Logo">
</g>
<g id="Bühne_4">
</g>
<g id="Bühne_3_x2C_4_x2C_5_Kopie_2">
</g>
<g id="Bühne_3_x2C_4_x2C_5_Kopie">
	<path class="st7" d="M-3.2,363.6c-33-24.2-55.7-35.5-111.3-40"/>
	<path class="st7" d="M9.8,561.1c-132.2-98-145.2-115.3-145.2-216.7"/>
	<circle class="st4" cx="726.4" cy="324.7" r="47.9"/>
	<g>
		<path class="st5" d="M136.5,186.3c14.7-5.1,28.8-10.8,42.5-17.4c13.6-6.6,26.9-13.9,40.2-21.5c13.2-7.6,26.4-15.5,39.7-23.2
			l10-5.8c3.4-1.9,6.7-3.8,10.2-5.7c3.5-1.9,7-3.7,10.6-5.4c3.5-1.7,7.1-3.4,10.8-5c14.4-6.4,29.4-11.4,44.4-16.1
			c15-4.6,30.1-8.9,45.2-13c7.6-2,15.2-3.9,22.9-5.5c7.8-1.5,15.6-3,24.1-2.7c2.1,0.1,4.3,0.3,6.7,0.9l0.9,0.2l0.9,0.3
			c0.6,0.2,1.2,0.5,1.8,0.7c0.6,0.2,1.2,0.7,1.8,1c0.6,0.4,1.2,0.8,1.8,1.4c1.2,1,2.1,2.4,2.9,3.9c0.3,0.8,0.6,1.5,0.8,2.3
			c0.1,0.4,0.2,0.8,0.2,1.2l0.1,1.1l0,0.6l0,0.4l0,0.7l0,1.5l0.1,2.9c0.2,7.9,0.5,15.7,0.3,23.6c-0.1,7.9-0.3,15.8-0.8,23.6
			c-0.2,3.9-0.5,7.9-0.8,11.8c-0.4,3.9-0.7,7.8-1.2,11.7c-1.8,15.6-4.6,31.1-7.4,46.3l-4.2,22.8c-1.4,7.5-2.6,15-3.6,22.1
			c-0.5,3.6-0.8,7.1-1,10.3c-0.1,0.8-0.1,1.6-0.1,2.3l0,1.1l0.1,1l0,1l0.1,0.8l0,0.4l0,0.2c0,0.1,0,0.1,0,0.3l0.2,1.3
			c1.2,7.2,2.7,14.1,4.6,20.7c1.9,6.6,4.4,12.7,7.6,18.1c3.1,5.5,7.2,10.3,12.1,14.9c5,4.6,10.8,9.1,17,13.8
			c3.1,2.3,6.2,4.7,9.3,7.2c1.6,1.2,3.1,2.5,4.7,3.7c1.5,1.3,3.1,2.6,4.6,3.9c1.5,1.3,3,2.6,4.5,4c1.5,1.3,3,2.7,4.4,4.1
			c1.5,1.4,2.9,2.9,4.4,4.3c1.5,1.4,2.8,3,4.2,4.5c5.5,6.1,10.4,12.5,14.8,19.2c8.9,13.4,15.6,27.9,20.8,42.6l-2.3,1.2
			c-9.2-12.6-18.5-24.8-29-35.5c-5.2-5.4-10.7-10.4-16.4-15.1c-2.8-2.3-5.7-4.5-8.7-6.7c-3-2.2-6.1-4.3-9.2-6.3
			c-6.2-4.1-12.6-8-19.3-12c-6.6-4.1-13.5-8.3-20.3-13.7c-6.8-5.4-13.4-12.1-18.4-19.8c-2.5-3.8-4.8-7.8-6.6-11.9
			c-0.5-1-0.9-2-1.3-3c-0.4-1-0.9-2-1.3-3.1c-0.7-2-1.5-4.1-2.2-6.1c-2.6-8.2-4.4-16.4-5.7-24.5l-0.2-1.5c0-0.1,0-0.3-0.1-0.5
			l-0.1-0.5l-0.1-1l-0.2-2.1l-0.1-1.9l0-1.9l0-1.8c0-1.2,0.1-2.4,0.2-3.5c0.3-4.5,1-8.7,1.7-12.8c1.4-8.1,3.2-15.8,5.1-23.4
			c1.9-7.6,3.8-15.1,5.7-22.6c3.8-14.9,7.3-29.8,10.8-44.7l2.6-11.2c0.9-3.7,1.7-7.4,2.5-11.2c1.6-7.5,3-15,4.3-22.5
			c1.2-7.5,2.2-15.1,2.9-22.7l0.2-2.9l0.1-1.4l0.1-0.7l0-0.3l0-0.2c0-0.1,0-0.2,0-0.3l0-0.3c0-0.2-0.1-0.3,0-0.5
			c-0.1-0.3-0.1-0.5-0.4-0.8c-0.4-0.6-1.6-1.3-2.9-1.7c-1.4-0.5-3-0.8-4.7-1c-3.4-0.4-7.1-0.3-10.8,0.1c-3.7,0.3-7.4,0.9-11.1,1.6
			c-7.4,1.4-14.8,3.5-22.1,5.9c-14.5,4.8-28.6,11.2-42.2,18.2c-13.6,7-26.9,14.7-40.1,22.2l-19.7,11.3c-3.2,1.9-6.6,3.8-10,5.7
			c-3.4,1.9-6.8,3.7-10.2,5.6c-13.6,7.4-27.5,14.6-41.9,21c-14.3,6.5-29.2,12.2-44.5,16.5c-7.7,2.1-15.4,3.9-23.3,5
			c-7.8,1.3-15.8,1.8-23.6,1.9L136.5,186.3z"/>
	</g>
	<g>
		<rect x="209.7" y="124.6" class="st6" width="126" height="78"/>
		<path class="st2" d="M263.6,128.4h-2.8v2.3h3.2v0.7H260V125h4v0.7h-3.2v2.1h2.8V128.4z"/>
		<path class="st2" d="M265,125.3c0-0.1,0-0.2,0.1-0.3c0.1-0.1,0.2-0.1,0.4-0.1s0.3,0,0.4,0.1s0.1,0.2,0.1,0.3c0,0.1,0,0.2-0.1,0.3
			s-0.2,0.1-0.4,0.1s-0.3,0-0.4-0.1C265,125.6,265,125.5,265,125.3z M265.9,131.4H265v-4.8h0.8V131.4z"/>
		<path class="st2" d="M271.2,129c0,0.7-0.2,1.3-0.5,1.8c-0.3,0.4-0.8,0.7-1.3,0.7c-0.6,0-1.1-0.2-1.4-0.6l0,0.5h-0.7v-6.7h0.8v2.5
			c0.3-0.4,0.8-0.6,1.4-0.6s1,0.2,1.4,0.7C271,127.6,271.2,128.2,271.2,129L271.2,129z M270.4,128.9c0-0.6-0.1-1-0.3-1.3
			s-0.5-0.5-0.9-0.5c-0.5,0-0.9,0.2-1.2,0.7v2.1c0.2,0.5,0.6,0.7,1.2,0.7c0.4,0,0.7-0.2,0.9-0.5S270.4,129.6,270.4,128.9z"/>
		<path class="st2" d="M275.1,131.4c0-0.1-0.1-0.3-0.1-0.5c-0.4,0.4-0.8,0.6-1.4,0.6c-0.5,0-0.9-0.1-1.2-0.4c-0.3-0.3-0.5-0.6-0.5-1
			c0-0.5,0.2-0.9,0.6-1.2c0.4-0.3,0.9-0.4,1.6-0.4h0.8v-0.4c0-0.3-0.1-0.5-0.3-0.7c-0.2-0.2-0.4-0.3-0.8-0.3c-0.3,0-0.5,0.1-0.7,0.2
			c-0.2,0.1-0.3,0.3-0.3,0.5h-0.8c0-0.2,0.1-0.5,0.3-0.7c0.2-0.2,0.4-0.4,0.7-0.5c0.3-0.1,0.6-0.2,1-0.2c0.5,0,1,0.1,1.3,0.4
			c0.3,0.3,0.5,0.7,0.5,1.1v2.2c0,0.4,0.1,0.8,0.2,1v0.1H275.1z M273.8,130.7c0.3,0,0.5-0.1,0.7-0.2s0.4-0.3,0.5-0.5v-1h-0.6
			c-1,0-1.5,0.3-1.5,0.9c0,0.3,0.1,0.5,0.3,0.6S273.5,130.7,273.8,130.7z"/>
		<path class="st2" d="M279,130.8c0.3,0,0.5-0.1,0.8-0.3s0.3-0.4,0.4-0.7h0.8c0,0.3-0.1,0.5-0.3,0.8s-0.4,0.4-0.7,0.6
			c-0.3,0.1-0.6,0.2-0.9,0.2c-0.6,0-1.2-0.2-1.5-0.6c-0.4-0.4-0.6-1-0.6-1.8v-0.1c0-0.5,0.1-0.9,0.3-1.2c0.2-0.4,0.4-0.6,0.7-0.8
			c0.3-0.2,0.7-0.3,1.1-0.3c0.5,0,1,0.2,1.3,0.5c0.4,0.3,0.5,0.7,0.6,1.2h-0.8c0-0.3-0.1-0.6-0.3-0.8c-0.2-0.2-0.5-0.3-0.8-0.3
			c-0.4,0-0.7,0.1-1,0.4c-0.2,0.3-0.3,0.7-0.3,1.3v0.2c0,0.5,0.1,1,0.3,1.3S278.6,130.8,279,130.8z"/>
		<path class="st2" d="M282.6,127.2c0.4-0.4,0.8-0.7,1.4-0.7c1,0,1.5,0.6,1.5,1.7v3.1h-0.8v-3.1c0-0.3-0.1-0.6-0.2-0.8
			c-0.2-0.2-0.4-0.2-0.7-0.2c-0.3,0-0.5,0.1-0.7,0.2s-0.4,0.3-0.5,0.6v3.4h-0.8v-6.7h0.8V127.2z"/>
	</g>
	<circle class="st7" cx="205.3" cy="129.5" r="20.8"/>
	<path class="st8" d="M196.7,113.1c-13.2-30.4-26.3-60.8-39.5-91.2"/>
	<path class="st8" d="M99.4,165.9c27.6-9,55.2-18,82.7-27l0,0l0,0l0,0"/>
	<path class="st7" d="M227.7,122.9c3.1-1.5,38.1-17,41-18.9C343,55.6,444.4,52.3,501.4,52.4c100.2,0.1,128.3,16.6,209.2,4.2
		c29.1-4.4,91.3-17.7,106-22"/>
	<path class="st7" d="M659.4,180.9c26.9-8.6,60.8-18.1,87.7-26.7"/>
	<path class="st7" d="M738.4,151.3c-10.2-29.8-20.4-59.6-30.7-89.3"/>
	<path class="st7" d="M503,57.6c-10.1,27.5-19.4,65-32,116c-11,44.7,3,85.7,26,128.3"/>
	<path class="st7" d="M471,173.6c-15.5-7.4-48.8-19.5-79.3-22c-41.4-3.4-60.2,18.4-101,18c-17.7-0.2-47,6-74.8-22.2"/>
	<path class="st7" d="M284,172.9c0,0-24.3,63.7-73.9,89.7"/>
	<path class="st7" d="M143.7,272.6c55.4-37,74.2-44,112.9-50.9"/>
	<path class="st7" d="M463.7,357.6c9.7-13.7,27.3-45.3,37-59"/>
	<path class="st7" d="M602,406.6c-29-67-61.3-93.4-103.3-106.9"/>
	<path class="st7" d="M701.7,322.6c-77-13.1-129-15.1-192-19"/>
	<path class="st7" d="M718.7,304.6c-45-116-64.1-131.6-81-137c-41.5-13.3-49.6-2.9-109,3c-20.7,2.1-43.7,4.4-55,6"/>
	<circle class="st7" cx="726.5" cy="323.6" r="20.8"/>
	<path class="st7" d="M709.2,339.4c-65.1,29.9-87.2,53.3-108.8,75.2"/>
	<path class="st7" d="M858.7,363.6c-33-24.2-55.7-35.5-111.3-40"/>
	<path class="st7" d="M871.7,561.1c-132.2-98-145.2-115.3-145.2-216.7"/>
	<circle class="st7" cx="707.4" cy="58.8" r="15"/>
	<g>
		<path class="st2" d="M835,527.5c0,0,0.1,0.1,0.1,0.1c0,0.1,0.1,0.1,0.1,0.1c0.2,0.7,0.5,1.4,0.7,2.2c0.4,1.3,0.8,2.5,1.2,3.8
			c0.1,0.4,0.3,0.7,0.3,1.1c-0.1,0.1-0.1,0.2-0.2,0.3c-0.2,0.1-0.5,0-0.7,0c-1.5-0.1-3-0.3-4.5-0.4c-0.7-0.1-1.4-0.1-2.1-0.2
			c-0.1,0-0.2-0.1-0.3-0.2c-0.1-0.1,0-0.2,0.1-0.3c0.3-0.4,0.7-0.8,1-1.2c0.2-0.3,0.2-0.6-0.1-0.8c-1.6-1.3-3.2-2.6-4.7-3.8
			c-0.3-0.2-0.5-0.4-0.5-0.8c0.7-0.8,1.4-1.7,2.1-2.5c0.3-0.1,0.6,0.1,0.9,0.3c1.6,1.3,3.2,2.6,4.7,3.8c0.3,0.2,0.6,0.2,0.8-0.1
			c0.3-0.4,0.6-0.8,1-1.2C834.7,527.6,834.8,527.5,835,527.5z"/>
	</g>
	<g>
		<path class="st2" d="M117.2,161.8c0.4,0.1,0.9,0.1,1.5-0.1c0.8-0.2,1.1-0.8,0.9-1.4c-0.2-0.5-0.6-0.7-1.5-0.8
			c-1,0-1.8-0.3-2.1-1.1c-0.3-0.9,0.2-1.8,1.4-2.2c0.6-0.2,1.1-0.2,1.4-0.1l0,0.7c-0.2,0-0.7-0.1-1.2,0.1c-0.8,0.3-0.9,0.8-0.8,1.2
			c0.2,0.5,0.6,0.7,1.5,0.7c1.1,0.1,1.7,0.4,2,1.2c0.3,0.9-0.1,1.9-1.5,2.3c-0.6,0.2-1.2,0.2-1.6,0.1L117.2,161.8z"/>
		<path class="st2" d="M120.9,155.7c0.1,0.3,0,0.5-0.3,0.6c-0.3,0.1-0.5-0.1-0.6-0.3c-0.1-0.3,0-0.5,0.3-0.6
			C120.6,155.3,120.8,155.4,120.9,155.7z M121.8,161.3l-1.3-4.1l0.8-0.2l1.3,4.1L121.8,161.3z"/>
		<path class="st2" d="M123.5,159.9c0.3,0.1,0.7,0.1,1.1,0c0.5-0.2,0.7-0.5,0.6-0.9c-0.1-0.4-0.4-0.5-1-0.5c-0.8,0-1.3-0.3-1.5-0.8
			c-0.2-0.7,0.1-1.4,1-1.7c0.4-0.1,0.8-0.1,1.1-0.1l0,0.6c-0.2,0-0.5-0.1-0.9,0c-0.4,0.1-0.6,0.5-0.5,0.8c0.1,0.3,0.4,0.4,1,0.4
			c0.8,0,1.3,0.3,1.5,0.9c0.2,0.7-0.2,1.4-1.1,1.7c-0.5,0.1-0.9,0.2-1.3,0.1L123.5,159.9z"/>
		<path class="st2" d="M126.9,158.8c0.3,0.1,0.7,0.1,1.1,0c0.5-0.2,0.7-0.5,0.6-0.9c-0.1-0.4-0.4-0.5-1-0.5c-0.8,0-1.3-0.3-1.5-0.8
			c-0.2-0.7,0.1-1.4,1-1.7c0.4-0.1,0.8-0.1,1.1-0.1l0,0.6c-0.2,0-0.5-0.1-0.9,0c-0.4,0.1-0.6,0.5-0.5,0.8c0.1,0.3,0.4,0.4,1,0.4
			c0.8,0,1.3,0.3,1.5,0.9c0.2,0.7-0.2,1.4-1.1,1.7c-0.5,0.1-0.9,0.2-1.3,0.1L126.9,158.8z"/>
		<path class="st2" d="M132.9,157.7l-0.2-0.5l0,0c-0.1,0.4-0.5,0.8-1.1,1c-0.8,0.3-1.5-0.2-1.7-0.8c-0.3-1,0.4-1.8,2-2.4l0-0.1
			c-0.1-0.3-0.4-0.9-1.3-0.7c-0.4,0.1-0.7,0.4-1,0.7l-0.3-0.4c0.3-0.3,0.7-0.6,1.2-0.8c1.3-0.4,1.9,0.4,2.1,1.2l0.5,1.5
			c0.1,0.4,0.2,0.7,0.4,1L132.9,157.7z M132.1,155.6c-0.8,0.3-1.7,0.7-1.5,1.5c0.2,0.5,0.6,0.6,0.9,0.5c0.5-0.2,0.8-0.6,0.8-1
			c0-0.1,0-0.2,0-0.3L132.1,155.6z"/>
		<path class="st2" d="M137.6,156c-0.2,0.2-0.6,0.4-1.1,0.6c-1.2,0.4-2.3-0.2-2.8-1.4c-0.4-1.3,0.2-2.5,1.5-2.9
			c0.4-0.1,0.9-0.2,1.1-0.1l0,0.6c-0.2,0-0.5,0-0.9,0.1c-1,0.3-1.2,1.2-1,2c0.3,1,1.1,1.4,1.9,1.1c0.4-0.1,0.7-0.3,0.9-0.5
			L137.6,156z"/>
		<path class="st2" d="M136.6,149.8l0.8-0.2l0.8,2.6l0,0c0-0.3,0.2-0.5,0.4-0.7c0.2-0.2,0.4-0.4,0.7-0.5c0.6-0.2,1.6-0.1,2,1.3
			l0.8,2.5l-0.8,0.2l-0.8-2.4c-0.2-0.7-0.6-1.2-1.4-0.9c-0.5,0.2-0.8,0.6-0.8,1.1c0,0.1,0,0.2,0.1,0.4l0.8,2.5l-0.8,0.2L136.6,149.8
			z"/>
	</g>
	<g>
		<path class="st2" d="M217.6,260.4l0.6,1.9l-0.6,0.5l-2-6.1l0.8-0.6l5.3,3.6l-0.7,0.5l-1.7-1.1L217.6,260.4z M218.8,258.7l-1.5-1
			c-0.3-0.2-0.6-0.5-0.9-0.7l0,0c0.1,0.3,0.3,0.7,0.4,1.1l0.6,1.8L218.8,258.7z"/>
		<path class="st2" d="M218.5,254.2l0.6-0.5l3.8,5.1l-0.6,0.5L218.5,254.2z"/>
		<path class="st2" d="M220.2,252.9l0.6-0.5l3.8,5.1L224,258L220.2,252.9z"/>
		<path class="st2" d="M223.8,254.2c-0.3-0.4-0.5-0.6-0.7-0.9l0.6-0.4l0.5,0.5l0,0c-0.1-0.5,0-1,0.6-1.5c0.5-0.4,1-0.3,1.5,0l0,0
			c0-0.3,0-0.5,0-0.7c0.1-0.3,0.3-0.6,0.6-0.8c0.5-0.3,1.4-0.6,2.3,0.6l1.5,2l-0.6,0.5l-1.5-2c-0.5-0.7-1.1-0.9-1.6-0.5
			c-0.4,0.3-0.4,0.7-0.3,1.1c0,0.1,0.1,0.2,0.2,0.4l1.6,2.1l-0.6,0.5l-1.6-2.1c-0.4-0.6-1-0.8-1.4-0.4c-0.4,0.3-0.4,0.8-0.3,1.2
			c0,0.1,0.1,0.2,0.2,0.3l1.6,2.1l-0.6,0.5L223.8,254.2z"/>
		<path class="st2" d="M230.8,250.3c0.7,0.8,1.5,0.8,2.1,0.3c0.5-0.3,0.7-0.6,0.8-0.9l0.4,0.4c-0.1,0.3-0.4,0.7-1,1.1
			c-1.1,0.8-2.2,0.6-3-0.5s-0.8-2.3,0.2-3.1c1.1-0.9,2.2-0.1,2.7,0.6c0.1,0.1,0.2,0.2,0.2,0.3L230.8,250.3z M232.4,248.4
			c-0.3-0.4-0.9-0.9-1.7-0.4c-0.6,0.5-0.5,1.3-0.2,1.8L232.4,248.4z"/>
		<path class="st2" d="M233.4,246.9c-0.3-0.4-0.5-0.6-0.7-0.9l0.6-0.4l0.5,0.5l0,0c-0.1-0.5,0.1-1.1,0.7-1.5
			c0.5-0.4,1.4-0.6,2.3,0.6l1.6,2.1l-0.6,0.5l-1.5-2c-0.4-0.6-1-0.9-1.6-0.4c-0.4,0.3-0.5,0.9-0.4,1.3c0,0.1,0.1,0.2,0.2,0.3
			l1.6,2.1l-0.6,0.5L233.4,246.9z"/>
		<path class="st2" d="M238.5,239.1l3.2,4.2c0.2,0.3,0.5,0.7,0.7,0.9l-0.6,0.4l-0.5-0.6l0,0c0.1,0.5-0.1,1.1-0.7,1.6
			c-0.8,0.6-2,0.4-2.8-0.6c-0.9-1.2-0.7-2.4,0.2-3c0.5-0.4,1.1-0.4,1.5-0.3l0,0l-1.6-2.1L238.5,239.1z M240.1,242.6
			c-0.1-0.1-0.1-0.2-0.2-0.2c-0.4-0.3-1-0.4-1.5,0c-0.7,0.5-0.6,1.4,0,2.1c0.5,0.7,1.3,1,2,0.5c0.4-0.3,0.6-0.9,0.4-1.5
			c0-0.1-0.1-0.2-0.2-0.3L240.1,242.6z"/>
	</g>
	<g>
		<path class="st2" d="M189,104c-0.2-0.3-0.5-0.8-0.7-1.3c-0.3-0.8-0.4-1.3-0.2-1.8c0.1-0.4,0.4-0.7,0.9-0.9
			c0.7-0.3,1.4-0.1,1.9,0.4l0,0c0-0.5,0.3-0.9,0.8-1.3c0.7-0.5,1.2-0.9,1.3-1.1l0.3,0.7c-0.1,0.2-0.5,0.5-1.2,0.9
			c-0.7,0.5-0.9,0.9-0.6,1.6l0.3,0.7l2.4-1l0.3,0.7L189,104z M191.3,102.2l-0.3-0.7c-0.3-0.8-1-1.1-1.6-0.8c-0.7,0.3-0.8,1-0.5,1.7
			c0.1,0.3,0.3,0.6,0.4,0.7L191.3,102.2z"/>
		<path class="st2" d="M187.1,98.5c0.2-0.1,0.5,0,0.6,0.3c0.1,0.3,0,0.5-0.3,0.6c-0.3,0.1-0.5,0-0.7-0.3
			C186.8,98.9,186.9,98.6,187.1,98.5z M192.6,97.2l-4,1.7l-0.3-0.7l4-1.7L192.6,97.2z"/>
		<path class="st2" d="M190.4,92.4c0.2,0.1,0.5,0.5,0.7,1.1c0.5,1.2,0,2.3-1.2,2.9c-1.2,0.5-2.5,0.1-3-1.3c-0.2-0.4-0.2-0.9-0.2-1.1
			l0.6-0.1c0,0.2,0,0.5,0.2,0.9c0.4,0.9,1.3,1.1,2.1,0.8c0.9-0.4,1.2-1.2,0.9-2c-0.2-0.4-0.4-0.6-0.6-0.8L190.4,92.4z"/>
		<path class="st2" d="M187.8,91.7L187.8,91.7c-0.2-0.1-0.4-0.1-0.6-0.2l-1.9-0.6l-0.4-0.9l2.3,0.8l1.6-2.8l0.4,0.9l-1.3,2.2
			l0.6,0.2l1.5-0.6l0.3,0.7l-5.9,2.5l-0.3-0.7L187.8,91.7z"/>
		<path class="st2" d="M186.5,88c1-0.4,1.1-1.2,0.8-2c-0.2-0.5-0.4-0.8-0.7-1l0.5-0.3c0.2,0.2,0.5,0.6,0.8,1.2
			c0.5,1.2,0,2.3-1.2,2.8s-2.5,0.2-3-1c-0.6-1.3,0.4-2.1,1.2-2.5c0.1-0.1,0.3-0.1,0.4-0.1L186.5,88z M185.1,86.1
			c-0.5,0.2-1.1,0.7-0.8,1.5c0.3,0.7,1.1,0.8,1.7,0.6L185.1,86.1z"/>
		<path class="st2" d="M183.9,84.7c-0.4,0.2-0.8,0.3-1.1,0.5l-0.3-0.6l0.6-0.3l0,0c-0.5,0-1-0.3-1.3-1c-0.2-0.6-0.3-1.6,1.1-2.1
			l2.4-1l0.3,0.7l-2.3,1c-0.6,0.3-1.1,0.7-0.8,1.4c0.2,0.5,0.7,0.7,1.2,0.7c0.1,0,0.2,0,0.4-0.1l2.4-1l0.3,0.7L183.9,84.7z"/>
		<path class="st2" d="M184.9,78.9c-0.3,0.1-0.7,0.3-1,0.4l-4.8,2.1l-0.3-0.7l2.5-1.1l0,0c-0.6-0.1-1-0.4-1.3-1.1
			c-0.4-1,0.1-2.1,1.3-2.6c1.4-0.6,2.5,0,2.9,0.9c0.2,0.6,0.2,1.1-0.2,1.7l0,0l0.7-0.2L184.9,78.9z M183,78.8c0.1,0,0.2-0.1,0.3-0.1
			c0.4-0.4,0.6-0.9,0.4-1.5c-0.3-0.8-1.1-1-2.1-0.6c-0.8,0.3-1.3,1-1,1.8c0.2,0.5,0.7,0.8,1.4,0.7c0.1,0,0.2,0,0.3-0.1L183,78.8z"/>
		<path class="st2" d="M181.9,71.9l-0.5,0.3l0,0c0.4,0.1,0.9,0.4,1.1,1c0.3,0.8-0.1,1.5-0.6,1.7c-1,0.4-1.9-0.2-2.5-1.8l-0.1,0
			c-0.3,0.1-0.9,0.5-0.5,1.3c0.2,0.4,0.4,0.7,0.7,0.9l-0.4,0.4c-0.4-0.2-0.7-0.7-0.9-1.2c-0.5-1.2,0.2-1.9,1-2.2l1.5-0.6
			c0.3-0.1,0.7-0.3,0.9-0.5L181.9,71.9z M179.9,72.9c0.3,0.8,0.8,1.6,1.6,1.3c0.5-0.2,0.6-0.6,0.4-1c-0.2-0.5-0.7-0.7-1.1-0.7
			c-0.1,0-0.2,0-0.2,0.1L179.9,72.9z"/>
		<path class="st2" d="M179.8,67.4c0.2,0.1,0.5,0.5,0.7,1.1c0.5,1.2,0,2.3-1.2,2.9c-1.2,0.5-2.5,0.1-3-1.2c-0.2-0.4-0.2-0.9-0.2-1.1
			l0.6-0.1c0,0.2,0,0.5,0.2,0.9c0.4,0.9,1.3,1.1,2.1,0.8c0.9-0.4,1.2-1.2,0.9-2c-0.2-0.4-0.4-0.6-0.6-0.8L179.8,67.4z"/>
		<path class="st2" d="M173.7,69l-0.3-0.7l2.5-1.1l0,0c-0.3,0-0.5-0.1-0.7-0.3c-0.2-0.2-0.4-0.4-0.5-0.7c-0.2-0.5-0.3-1.5,1.1-2.1
			l2.4-1l0.3,0.7l-2.3,1c-0.6,0.3-1.1,0.7-0.8,1.4c0.2,0.5,0.7,0.7,1.1,0.7c0.1,0,0.2,0,0.4-0.1l2.4-1l0.3,0.7L173.7,69z"/>
		<path class="st2" d="M177.5,60.6l-7,0.2l-0.2-0.6l7-0.2L177.5,60.6z"/>
		<path class="st2" d="M169.4,57.8c-0.2-0.3-0.5-0.8-0.7-1.3c-0.3-0.7-0.4-1.2-0.2-1.7c0.1-0.4,0.3-0.7,0.8-0.9
			c0.5-0.2,1.2-0.1,1.6,0.4l0,0c-0.1-0.6,0.1-1.4,0.9-1.7c0.5-0.2,0.9-0.2,1.3,0c0.5,0.2,1,0.8,1.3,1.7c0.2,0.5,0.3,0.9,0.4,1.1
			L169.4,57.8z M171.4,56.1l-0.3-0.7c-0.3-0.8-0.9-1-1.5-0.8c-0.7,0.3-0.7,0.9-0.4,1.6c0.1,0.3,0.2,0.5,0.3,0.6L171.4,56.1z
			 M174.1,55c0-0.2-0.1-0.4-0.2-0.6c-0.3-0.7-0.9-1.3-1.7-1c-0.8,0.3-0.8,1.1-0.5,1.9l0.3,0.6L174.1,55z"/>
		<path class="st2" d="M170.5,48.1c0.4-0.2,0.8-0.3,1.1-0.5l0.3,0.6l-0.6,0.3l0,0c0.4,0.1,1,0.3,1.3,1c0.3,0.6,0.2,1.5-1.2,2.1
			l-2.3,1l-0.3-0.7l2.2-0.9c0.8-0.3,1.2-0.8,0.9-1.4c-0.2-0.5-0.7-0.7-1.1-0.7c-0.1,0-0.3,0-0.4,0.1l-2.5,1l-0.3-0.7L170.5,48.1z"/>
		<path class="st2" d="M168.6,43.6c0.4-0.2,0.8-0.3,1.1-0.5l0.3,0.6l-0.6,0.3l0,0c0.4,0.1,1,0.3,1.3,1c0.3,0.6,0.2,1.5-1.2,2.1
			l-2.3,1l-0.3-0.7l2.2-0.9c0.8-0.3,1.2-0.8,0.9-1.4c-0.2-0.5-0.7-0.7-1.1-0.7c-0.1,0-0.3,0-0.4,0.1l-2.5,1l-0.3-0.7L168.6,43.6z"/>
		<path class="st2" d="M168.5,42.3c0.1-0.3,0-0.7-0.1-1.1c-0.2-0.5-0.6-0.7-0.9-0.5c-0.3,0.1-0.5,0.4-0.4,1.1c0,0.8-0.2,1.3-0.7,1.5
			c-0.6,0.3-1.4,0-1.8-0.9c-0.2-0.4-0.2-0.8-0.2-1.1l0.6,0c0,0.2,0,0.5,0.1,0.9c0.2,0.4,0.5,0.6,0.8,0.4c0.3-0.1,0.4-0.4,0.4-1
			c0-0.8,0.2-1.3,0.8-1.6c0.7-0.3,1.4,0,1.8,1c0.2,0.4,0.3,0.9,0.2,1.2L168.5,42.3z"/>
	</g>
	<g>
		
			<rect x="644.1" y="284.3" transform="matrix(0.1219 -0.9925 0.9925 0.1219 255.5294 926.3425)" class="st6" width="14.4" height="68.8"/>
		<path class="st2" d="M618.6,307.9c0.4,0,1,0,1.5,0.1c0.8,0.1,1.3,0.3,1.7,0.7c0.3,0.3,0.4,0.7,0.3,1.2c-0.1,0.8-0.7,1.3-1.3,1.4
			l0,0c0.4,0.2,0.7,0.7,0.7,1.3c0.1,0.9,0.2,1.5,0.3,1.7l-0.8-0.1c-0.1-0.2-0.1-0.7-0.2-1.5c-0.1-0.9-0.4-1.2-1.1-1.3l-0.7-0.1
			l-0.3,2.6l-0.8-0.1L618.6,307.9z M619.1,310.8l0.8,0.1c0.8,0.1,1.4-0.3,1.5-1c0.1-0.8-0.4-1.2-1.2-1.3c-0.4,0-0.6,0-0.8,0
			L619.1,310.8z"/>
		<path class="st2" d="M626.9,312.8c-0.2,1.6-1.4,2.2-2.4,2c-1.2-0.1-2-1.1-1.8-2.5c0.2-1.4,1.2-2.2,2.4-2
			C626.3,310.4,627.1,311.4,626.9,312.8z M623.5,312.4c-0.1,0.9,0.3,1.7,1.1,1.8c0.8,0.1,1.4-0.5,1.5-1.5c0.1-0.7-0.2-1.7-1.1-1.8
			C624.1,310.8,623.6,311.6,623.5,312.4z M623.9,309c0-0.2,0.3-0.4,0.5-0.4c0.2,0,0.4,0.3,0.4,0.5c0,0.2-0.2,0.4-0.5,0.4
			C624.1,309.5,623.9,309.2,623.9,309z M625.6,309.2c0-0.2,0.3-0.4,0.5-0.4c0.2,0,0.4,0.3,0.4,0.5c0,0.2-0.2,0.4-0.5,0.4
			C625.7,309.7,625.6,309.4,625.6,309.2z"/>
		<path class="st2" d="M627.6,314.3c0.2,0.2,0.6,0.4,1,0.4c0.6,0.1,0.9-0.2,0.9-0.5c0-0.4-0.2-0.6-0.7-0.9c-0.7-0.4-1.1-0.8-1-1.4
			c0.1-0.7,0.7-1.2,1.6-1.1c0.4,0.1,0.8,0.2,1,0.4l-0.3,0.5c-0.2-0.1-0.5-0.3-0.9-0.4c-0.5-0.1-0.8,0.2-0.8,0.5
			c0,0.4,0.2,0.5,0.7,0.8c0.7,0.4,1.1,0.8,1,1.4c-0.1,0.8-0.7,1.2-1.8,1.1c-0.5-0.1-0.9-0.2-1.2-0.4L627.6,314.3z"/>
		<path class="st2" d="M631.2,314.7c0.2,0.2,0.6,0.4,1,0.4c0.6,0.1,0.9-0.2,0.9-0.5c0-0.4-0.2-0.6-0.7-0.9c-0.7-0.4-1.1-0.8-1-1.4
			c0.1-0.7,0.7-1.2,1.6-1.1c0.4,0.1,0.8,0.2,1,0.4l-0.3,0.5c-0.2-0.1-0.5-0.3-0.9-0.4c-0.5-0.1-0.8,0.2-0.8,0.5
			c0,0.4,0.2,0.5,0.7,0.8c0.7,0.4,1.1,0.8,1,1.4c-0.1,0.8-0.7,1.2-1.8,1.1c-0.5-0.1-0.9-0.2-1.2-0.4L631.2,314.7z"/>
		<path class="st2" d="M635.5,309.6l0.8,0.1l-0.8,6.3l-0.8-0.1L635.5,309.6z"/>
		<path class="st2" d="M636.8,316.2l0.5-4.3l0.8,0.1l-0.5,4.3L636.8,316.2z M638.4,310.8c0,0.3-0.2,0.5-0.6,0.4
			c-0.3,0-0.4-0.3-0.4-0.5c0-0.3,0.3-0.5,0.6-0.4C638.2,310.3,638.4,310.5,638.4,310.8z"/>
		<path class="st2" d="M643.2,312.6c-0.1,0.3-0.1,0.7-0.2,1.2l-0.3,2.5c-0.1,1-0.4,1.6-0.9,1.9c-0.5,0.3-1.1,0.4-1.6,0.3
			c-0.5-0.1-1.1-0.3-1.4-0.5l0.3-0.6c0.3,0.2,0.7,0.4,1.2,0.5c0.8,0.1,1.4-0.2,1.6-1.3l0.1-0.5l0,0c-0.3,0.4-0.8,0.6-1.5,0.6
			c-1.1-0.1-1.7-1.1-1.6-2.3c0.2-1.5,1.2-2.2,2.2-2.1c0.8,0.1,1.1,0.5,1.3,0.9l0,0l0.1-0.6L643.2,312.6z M642.1,314.2
			c0-0.1,0-0.3,0-0.4c-0.1-0.5-0.4-0.9-1-1c-0.8-0.1-1.4,0.5-1.5,1.5c-0.1,0.8,0.2,1.6,1.1,1.7c0.5,0.1,1-0.2,1.2-0.7
			c0.1-0.1,0.1-0.3,0.1-0.4L642.1,314.2z"/>
		<path class="st2" d="M646.3,317.4l0-0.6l0,0c-0.3,0.3-0.8,0.6-1.4,0.5c-0.9-0.1-1.2-0.8-1.2-1.4c0.1-1,1.1-1.5,2.8-1.3l0-0.1
			c0-0.4,0-1-0.9-1.1c-0.4,0-0.8,0-1.2,0.2l-0.1-0.5c0.4-0.2,0.9-0.3,1.5-0.2c1.3,0.2,1.5,1.1,1.4,2l-0.2,1.6c0,0.4-0.1,0.7-0.1,1
			L646.3,317.4z M646.4,315.2c-0.9-0.1-1.8-0.1-2,0.7c-0.1,0.5,0.2,0.8,0.6,0.8c0.6,0.1,1-0.2,1.1-0.6c0-0.1,0.1-0.2,0.1-0.2
			L646.4,315.2z"/>
		<path class="st2" d="M648.2,316.8c0.2,0.2,0.6,0.4,1,0.4c0.6,0.1,0.9-0.2,0.9-0.5c0-0.4-0.2-0.6-0.7-0.9c-0.7-0.4-1.1-0.8-1-1.4
			c0.1-0.7,0.7-1.2,1.6-1.1c0.4,0.1,0.8,0.2,1,0.4l-0.3,0.5c-0.2-0.1-0.5-0.3-0.9-0.4c-0.5-0.1-0.8,0.2-0.8,0.5
			c0,0.4,0.2,0.5,0.7,0.8c0.7,0.4,1.1,0.8,1,1.4c-0.1,0.8-0.7,1.2-1.8,1.1c-0.5-0.1-0.9-0.2-1.2-0.4L648.2,316.8z"/>
		<path class="st2" d="M651.7,317.2c0.2,0.2,0.6,0.4,1,0.4c0.6,0.1,0.9-0.2,0.9-0.5c0-0.4-0.2-0.6-0.7-0.9c-0.7-0.4-1.1-0.8-1-1.4
			c0.1-0.7,0.7-1.2,1.6-1.1c0.4,0.1,0.8,0.2,1,0.4l-0.3,0.5c-0.2-0.1-0.5-0.3-0.9-0.4c-0.5-0.1-0.8,0.2-0.8,0.5
			c0,0.4,0.2,0.5,0.7,0.8c0.7,0.4,1.1,0.8,1,1.4c-0.1,0.8-0.7,1.2-1.8,1.1c-0.5-0.1-0.9-0.2-1.2-0.4L651.7,317.2z"/>
		<path class="st2" d="M656,316.5c-0.1,1.1,0.5,1.6,1.3,1.7c0.6,0.1,0.9,0,1.2-0.1l0.1,0.6c-0.3,0.1-0.8,0.2-1.5,0.1
			c-1.3-0.2-2-1.1-1.9-2.4c0.2-1.3,1.1-2.2,2.3-2.1c1.4,0.2,1.6,1.5,1.5,2.3c0,0.2-0.1,0.3-0.1,0.4L656,316.5z M658.3,316.2
			c0.1-0.5,0-1.3-0.9-1.4c-0.8-0.1-1.2,0.6-1.4,1.1L658.3,316.2z"/>
	</g>
	<g>
		
			<rect x="751.1" y="39" transform="matrix(0.9781 -0.2079 0.2079 0.9781 7.0063 164.2869)" class="st6" width="67.8" height="19.7"/>
		<path class="st2" d="M756.2,48.3c0.4,2-0.6,3.4-2.1,3.7c-1.6,0.3-2.9-0.6-3.3-2.4c-0.4-1.9,0.5-3.4,2.1-3.7
			C754.5,45.5,755.8,46.6,756.2,48.3z M751.6,49.4c0.3,1.3,1.2,2.3,2.4,2c1.2-0.3,1.7-1.5,1.4-2.9c-0.3-1.2-1.1-2.3-2.4-2
			C751.7,46.8,751.4,48.1,751.6,49.4z"/>
		<path class="st2" d="M757.2,48.2c-0.1-0.5-0.2-0.9-0.3-1.3l0.7-0.1l0.2,0.8l0,0c0.1-0.6,0.5-1.1,1-1.2c0.1,0,0.2,0,0.2,0l0.2,0.7
			c-0.1,0-0.2,0-0.3,0c-0.5,0.1-0.8,0.6-0.8,1.2c0,0.1,0,0.2,0,0.4l0.5,2.3l-0.8,0.2L757.2,48.2z"/>
		<path class="st2" d="M760.1,47.4c-0.1-0.4-0.2-0.8-0.3-1.1l0.7-0.1l0.2,0.7l0,0c0.2-0.5,0.5-0.9,1.2-1.1c0.6-0.1,1.1,0.1,1.4,0.6
			l0,0c0.1-0.3,0.2-0.5,0.4-0.7c0.2-0.2,0.5-0.4,0.9-0.5c0.6-0.1,1.5,0.1,1.8,1.6l0.5,2.5l-0.8,0.2l-0.5-2.4
			c-0.2-0.8-0.6-1.2-1.2-1.1c-0.4,0.1-0.7,0.5-0.8,0.9c0,0.1,0,0.3,0,0.4l0.6,2.6l-0.8,0.2l-0.5-2.6c-0.1-0.7-0.5-1.1-1.1-1
			c-0.5,0.1-0.8,0.6-0.8,1c0,0.1,0,0.3,0,0.4l0.5,2.6l-0.8,0.2L760.1,47.4z"/>
		<path class="st2" d="M770.4,48.5l-0.2-0.5l0,0c-0.2,0.4-0.6,0.8-1.2,0.9c-0.9,0.2-1.4-0.3-1.6-0.9c-0.2-1,0.6-1.8,2.2-2.1l0-0.1
			c-0.1-0.4-0.3-1-1.2-0.8c-0.4,0.1-0.8,0.3-1,0.6l-0.3-0.5c0.3-0.3,0.8-0.6,1.3-0.7c1.3-0.3,1.8,0.5,2,1.4l0.3,1.6
			c0.1,0.4,0.2,0.7,0.3,1L770.4,48.5z M769.9,46.3c-0.8,0.2-1.8,0.5-1.6,1.3c0.1,0.5,0.5,0.7,0.9,0.6c0.6-0.1,0.8-0.5,0.9-0.9
			c0-0.1,0-0.2,0-0.3L769.9,46.3z"/>
		<path class="st2" d="M771,41.8l0.8-0.2l1.3,6.3l-0.8,0.2L771,41.8z"/>
		<path class="st2" d="M774.1,42c0.1,0.3-0.1,0.5-0.4,0.6c-0.3,0.1-0.5-0.1-0.6-0.4c-0.1-0.3,0.1-0.5,0.4-0.6
			C773.8,41.5,774.1,41.7,774.1,42z M774.4,47.6l-0.9-4.3l0.8-0.2l0.9,4.3L774.4,47.6z"/>
		<path class="st2" d="M775.8,44.1c-0.1-0.4-0.2-0.8-0.3-1.1l0.7-0.1l0.2,0.7l0,0c0.1-0.5,0.5-1,1.2-1.1c0.6-0.1,1.6,0,1.9,1.5
			l0.5,2.5l-0.8,0.2l-0.5-2.5c-0.1-0.7-0.5-1.2-1.3-1c-0.5,0.1-0.8,0.6-0.9,1c0,0.1,0,0.2,0,0.4l0.5,2.6l-0.8,0.2L775.8,44.1z"/>
		<path class="st2" d="M784.1,41.1c0,0.3,0.1,0.7,0.2,1.2l0.5,2.5c0.2,1,0.1,1.6-0.2,2.1c-0.3,0.5-0.9,0.7-1.4,0.8
			c-0.5,0.1-1.1,0.1-1.5-0.1l0.1-0.6c0.3,0.1,0.8,0.2,1.3,0.1c0.8-0.2,1.3-0.7,1.1-1.8l-0.1-0.5l0,0c-0.2,0.4-0.5,0.9-1.2,1
			c-1.1,0.2-2-0.5-2.3-1.7c-0.3-1.4,0.5-2.5,1.4-2.7c0.7-0.2,1.2,0.1,1.5,0.5l0,0l-0.1-0.7L784.1,41.1z M783.7,43
			c0-0.1-0.1-0.2-0.1-0.3c-0.2-0.4-0.7-0.7-1.3-0.6c-0.7,0.2-1.1,0.9-0.9,1.9c0.2,0.8,0.7,1.4,1.6,1.3c0.5-0.1,0.8-0.5,0.9-1
			c0-0.1,0-0.3,0-0.4L783.7,43z"/>
		<path class="st2" d="M786.3,43c0.2,1,1,1.3,1.8,1.2c0.6-0.1,0.9-0.3,1.1-0.5l0.2,0.5c-0.2,0.2-0.7,0.4-1.4,0.6
			c-1.3,0.3-2.3-0.4-2.6-1.7c-0.3-1.3,0.3-2.5,1.5-2.7c1.4-0.3,2,0.8,2.2,1.6c0,0.2,0,0.3,0.1,0.4L786.3,43z M788.4,42
			c-0.1-0.5-0.5-1.2-1.3-1c-0.8,0.2-1,1-0.9,1.5L788.4,42z"/>
		<path class="st2" d="M790,41.1c-0.1-0.4-0.2-0.8-0.3-1.1l0.7-0.1l0.2,0.7l0,0c0.1-0.5,0.5-1,1.2-1.1c0.6-0.1,1.6,0,1.9,1.5
			l0.5,2.5l-0.8,0.2l-0.5-2.5c-0.1-0.7-0.5-1.2-1.3-1c-0.5,0.1-0.8,0.6-0.9,1c0,0.1,0,0.2,0,0.4l0.5,2.6l-0.8,0.2L790,41.1z"/>
	</g>
	<g>
		<g>
			<path class="st2" d="M725.1,289.8c-0.5-2.8-0.8-4.2-1.3-7c1.2-0.2,1.8-0.3,3.1-0.4c0.9-0.1,1.8,0,2.5,0.2
				c0.7,0.2,1.3,0.6,1.6,1.1c0.4,0.5,0.5,1.1,0.5,1.7c0,0.2,0,0.3,0,0.5c0,0.7-0.2,1.3-0.5,1.8c-0.3,0.5-0.8,0.9-1.4,1.2
				c-0.6,0.3-1.3,0.5-2,0.6C726.6,289.6,726.1,289.6,725.1,289.8z M725.4,283.4c0.3,2.2,0.5,3.3,0.8,5.5c0.5-0.1,0.7-0.1,1.2-0.2
				c0.9-0.1,1.6-0.4,2.1-0.8c0.5-0.5,0.8-1.1,0.7-1.9c0-0.2,0-0.2,0-0.4c0-0.8-0.3-1.4-0.8-1.9c-0.6-0.4-1.4-0.6-2.4-0.5
				C726.4,283.2,726,283.3,725.4,283.4z"/>
			<path class="st2" d="M732.9,286.7c0-0.5,0.2-1,0.5-1.4c0.3-0.4,0.7-0.7,1.3-0.8c0.5-0.2,1.1-0.2,1.8-0.1c1,0.2,1.7,0.6,2.2,1.2
				c0.5,0.6,0.6,1.3,0.4,2.1c0,0,0,0,0,0.1c-0.1,0.5-0.4,0.9-0.7,1.2c-0.3,0.3-0.7,0.6-1.2,0.7c-0.5,0.1-1,0.1-1.5,0.1
				c-0.8-0.1-1.5-0.5-2-1C733,288.3,732.8,287.6,732.9,286.7C732.9,286.7,732.9,286.7,732.9,286.7z M734,286.9
				c-0.1,0.6,0.1,1.1,0.4,1.5c0.3,0.4,0.7,0.6,1.2,0.7c0.5,0.1,1,0,1.4-0.3c0.4-0.3,0.7-0.7,0.8-1.4c0.1-0.6,0.1-1.1-0.2-1.5
				c-0.3-0.4-0.7-0.7-1.4-0.8c-0.6-0.1-1.1,0-1.5,0.3S734.1,286.3,734,286.9z"/>
			<path class="st2" d="M744.1,287.6c-0.2-0.1-0.3-0.2-0.5-0.3c-0.7-0.3-1.3-0.2-1.8,0.1c-0.5,1.4-0.7,2.1-1.2,3.5
				c-0.4-0.1-0.6-0.2-1-0.3c0.6-2,0.9-3,1.6-5c0.5,0.1,0.7,0.2,1.2,0.4c-0.1,0.2-0.1,0.3-0.2,0.6c0.5-0.3,1.2-0.3,1.9-0.1
				c0.2,0.1,0.4,0.2,0.5,0.3C744.3,287.1,744.3,287.3,744.1,287.6z"/>
			<path class="st2" d="M743.8,292.4c0.8-1.6,1.2-2.5,2-4.1c-0.4-0.2-0.6-0.3-1-0.5c0.1-0.3,0.2-0.4,0.3-0.6c0.4,0.2,0.6,0.3,1,0.5
				c0.1-0.2,0.1-0.3,0.2-0.5c0.2-0.5,0.6-0.8,1.2-0.9c0.5-0.1,1.2,0.1,1.9,0.5c0.3,0.2,0.5,0.3,0.7,0.5c-0.2,0.2-0.3,0.4-0.4,0.6
				c-0.2-0.1-0.4-0.3-0.6-0.4c-0.4-0.2-0.7-0.3-1-0.2c-0.3,0-0.5,0.2-0.6,0.5c-0.1,0.2-0.2,0.3-0.3,0.5c0.5,0.3,0.8,0.4,1.3,0.8
				c-0.1,0.2-0.2,0.4-0.4,0.6c-0.5-0.3-0.8-0.5-1.3-0.7c-0.9,1.6-1.3,2.4-2.2,4C744.4,292.7,744.2,292.6,743.8,292.4z"/>
			<path class="st2" d="M752.8,295.4c-0.5,0.6-1.2,0.9-1.8,1s-1.2-0.1-1.8-0.6c-0.6-0.5-0.9-1-1.1-1.5c-0.6,0.8-0.9,1.3-1.4,2.1
				c-0.3-0.2-0.5-0.3-0.8-0.5c1.6-2.5,2.4-3.7,4-6.2c0.4,0.2,0.6,0.4,0.9,0.6c-0.1,0.2-0.2,0.3-0.3,0.5c0.7-0.1,1.4,0.1,2.1,0.7
				c0.7,0.5,1.1,1.2,1.1,1.9C753.7,294,753.4,294.7,752.8,295.4C752.8,295.3,752.8,295.3,752.8,295.4z M752,294.5
				c0.4-0.5,0.6-0.9,0.5-1.4c0-0.5-0.3-0.9-0.8-1.3c-0.6-0.4-1.2-0.6-1.7-0.4c-0.6,0.8-0.9,1.2-1.4,2.1c0,0.6,0.3,1.1,0.8,1.5
				c0.4,0.3,0.8,0.4,1.3,0.4C751.1,295.3,751.5,295,752,294.5z"/>
			<path class="st2" d="M752.8,299c-0.3-0.3-0.4-0.5-0.7-0.8c2.1-2.1,3.2-3.2,5.3-5.3c0.4,0.4,0.6,0.6,0.9,1
				C756.1,296,755,297,752.8,299z"/>
			<path class="st2" d="M756.1,303.4c0.1-0.1,0.2-0.2,0.4-0.4c-0.6-0.2-1.1-0.6-1.5-1.1c-0.4-0.5-0.5-1-0.6-1.5
				c0-0.5,0.1-0.9,0.5-1.2c0.4-0.4,0.9-0.4,1.5-0.2c0.6,0.2,1.2,0.7,1.7,1.6c0.3,0.4,0.4,0.6,0.6,1c0.1-0.1,0.2-0.1,0.4-0.2
				c0.3-0.2,0.4-0.4,0.4-0.7c0-0.3-0.1-0.7-0.4-1.1c-0.3-0.4-0.5-0.6-0.8-0.7c-0.3-0.1-0.6-0.1-0.7,0c-0.3-0.4-0.4-0.6-0.7-0.9
				c0.2-0.2,0.5-0.2,0.8-0.2c0.4,0,0.7,0.2,1.1,0.5c0.4,0.3,0.7,0.6,1,1.1c0.5,0.7,0.7,1.3,0.7,1.9c0,0.6-0.2,1-0.7,1.3
				c-0.8,0.5-1.3,0.7-2.1,1.2c-0.4,0.2-0.7,0.5-0.9,0.8c0,0,0,0-0.1,0C756.5,304,756.4,303.8,756.1,303.4z M755.7,301.5
				c0.2,0.3,0.4,0.5,0.7,0.7c0.3,0.2,0.6,0.3,0.8,0.3c0.4-0.2,0.5-0.3,0.9-0.6c-0.2-0.3-0.3-0.5-0.5-0.8c-0.8-1.2-1.5-1.5-2-1.1
				c-0.2,0.2-0.3,0.4-0.3,0.7C755.4,301,755.5,301.3,755.7,301.5z"/>
			<path class="st2" d="M764,304.3c-0.5,0.2-0.7,0.3-1.2,0.5c0.2,0.5,0.3,0.8,0.6,1.3c-0.3,0.1-0.4,0.2-0.6,0.3
				c-0.2-0.5-0.3-0.8-0.5-1.3c-1.2,0.5-1.8,0.8-3,1.4c-0.2,0.1-0.3,0.2-0.4,0.3c-0.1,0.1,0,0.3,0.1,0.6c0.1,0.1,0.1,0.3,0.3,0.5
				c-0.3,0.1-0.4,0.2-0.7,0.3c-0.2-0.2-0.3-0.5-0.4-0.7c-0.2-0.4-0.2-0.8-0.1-1.2c0.1-0.3,0.4-0.6,0.8-0.8c1.2-0.6,1.8-0.9,2.9-1.5
				c-0.2-0.5-0.4-0.7-0.6-1.2c0.2-0.1,0.4-0.2,0.6-0.3c0.3,0.5,0.4,0.7,0.6,1.2c0.5-0.2,0.7-0.3,1.1-0.6
				C763.7,303.5,763.8,303.8,764,304.3z"/>
			<path class="st2" d="M760,310c0.5,1.5,0.7,2.2,1,3.8c-0.3,0.1-0.4,0.1-0.7,0.1c-0.4-2.1-0.7-3.1-1.4-5c0.2-0.1,0.4-0.1,0.6-0.2
				c2,0.8,2.9,1.3,4.8,2.6c-0.4-1.6-0.6-2.4-1.2-3.9c0.3-0.1,0.4-0.2,0.7-0.3c0.8,2.1,1.1,3.3,1.5,5.6c-0.3,0-0.4,0.1-0.6,0.1
				C762.9,311.5,762,311,760,310z"/>
		</g>
	</g>
	<g>
		
			<rect x="593.3" y="358.1" transform="matrix(0.829 -0.5592 0.5592 0.829 -102.2559 442.6372)" class="st6" width="159" height="61"/>
		<path class="st2" d="M640,378.4c0.3,0.5,0.6,1,0.7,1.5c0.1,0.5,0,1-0.1,1.4s-0.5,0.8-0.9,1.1c-0.4,0.3-0.9,0.4-1.3,0.4
			c-0.5,0-0.9-0.1-1.3-0.4c-0.4-0.3-0.8-0.6-1.2-1.1l-0.3-0.4c-0.3-0.5-0.6-1-0.6-1.5s0-1,0.1-1.4c0.2-0.4,0.5-0.8,0.9-1.1
			c0.4-0.3,0.9-0.4,1.3-0.5c0.5,0,0.9,0.1,1.4,0.4c0.4,0.3,0.8,0.7,1.2,1.2L640,378.4z M639.1,378.5c-0.4-0.6-0.9-1-1.4-1.2
			s-0.9-0.1-1.4,0.2c-0.4,0.3-0.7,0.7-0.7,1.2c0,0.5,0.2,1.1,0.6,1.7l0.3,0.4c0.4,0.6,0.9,1,1.4,1.2c0.5,0.2,1,0.1,1.4-0.2
			c0.5-0.3,0.7-0.7,0.7-1.2c0-0.5-0.2-1.1-0.6-1.7L639.1,378.5z"/>
		<path class="st2" d="M643.9,378.7c0.2-0.2,0.4-0.4,0.5-0.6c0.1-0.3,0.1-0.5-0.1-0.7l0.6-0.4c0.1,0.2,0.2,0.5,0.2,0.8
			s-0.1,0.6-0.2,0.9c-0.2,0.3-0.4,0.5-0.6,0.7c-0.5,0.4-1.1,0.5-1.6,0.3c-0.6-0.1-1-0.5-1.5-1.1l-0.1-0.1c-0.3-0.4-0.4-0.8-0.5-1.2
			c-0.1-0.4,0-0.8,0.1-1.1c0.2-0.3,0.4-0.6,0.8-0.9c0.4-0.3,0.9-0.4,1.4-0.3s0.9,0.3,1.2,0.7l-0.6,0.4c-0.2-0.2-0.4-0.4-0.7-0.4
			s-0.6,0-0.8,0.2c-0.3,0.2-0.5,0.5-0.5,0.9c0,0.4,0.1,0.8,0.4,1.3l0.1,0.1c0.3,0.5,0.6,0.7,1,0.9S643.6,379,643.9,378.7z"/>
		<path class="st2" d="M644.9,373.7c0.1-0.6,0.3-1,0.8-1.3c0.8-0.6,1.6-0.4,2.2,0.6l1.8,2.6L649,376l-1.8-2.6
			c-0.2-0.3-0.4-0.4-0.6-0.5c-0.2-0.1-0.5,0-0.7,0.2c-0.2,0.1-0.4,0.3-0.5,0.6c-0.1,0.2-0.1,0.5-0.1,0.7l1.9,2.8l-0.7,0.5l-3.8-5.6
			l0.7-0.5L644.9,373.7z"/>
		<path class="st2" d="M652.3,372.3c-0.1-0.2-0.3-0.3-0.5-0.3c-0.2,0-0.5,0.1-0.9,0.2c-0.4,0.2-0.7,0.3-1,0.3c-0.3,0-0.5,0-0.7-0.1
			c-0.2-0.1-0.4-0.2-0.5-0.4c-0.2-0.3-0.3-0.7-0.1-1.1c0.1-0.4,0.4-0.8,0.8-1c0.4-0.3,0.9-0.4,1.3-0.4c0.4,0,0.8,0.2,1,0.6l-0.7,0.5
			c-0.1-0.2-0.3-0.3-0.6-0.3c-0.2,0-0.5,0-0.7,0.2c-0.2,0.2-0.4,0.3-0.5,0.5c-0.1,0.2,0,0.4,0.1,0.6c0.1,0.2,0.3,0.2,0.4,0.2
			c0.2,0,0.5-0.1,0.9-0.2c0.4-0.2,0.7-0.2,1-0.3c0.3,0,0.5,0,0.7,0.1c0.2,0.1,0.4,0.2,0.5,0.4c0.2,0.4,0.3,0.7,0.1,1.1
			c-0.1,0.4-0.4,0.8-0.9,1.1c-0.3,0.2-0.6,0.3-1,0.4c-0.3,0.1-0.6,0-0.9-0.1c-0.3-0.1-0.5-0.3-0.6-0.5l0.7-0.5
			c0.2,0.2,0.4,0.3,0.6,0.4c0.3,0,0.5-0.1,0.8-0.3c0.3-0.2,0.4-0.4,0.5-0.6C652.4,372.6,652.4,372.4,652.3,372.3z"/>
		<path class="st2" d="M656.2,371.2c-0.5,0.4-1.1,0.5-1.7,0.4c-0.6-0.1-1.1-0.5-1.5-1.1l-0.1-0.1c-0.3-0.4-0.4-0.8-0.5-1.2
			c-0.1-0.4,0-0.8,0.1-1.1s0.4-0.6,0.7-0.8c0.5-0.3,1-0.4,1.5-0.3c0.5,0.1,1,0.5,1.4,1.2l0.2,0.3l-2.7,1.8c0.3,0.4,0.6,0.6,1,0.7
			c0.4,0.1,0.7,0,1.1-0.2c0.2-0.2,0.4-0.3,0.5-0.6c0.1-0.2,0.2-0.4,0.2-0.7l0.6,0C657.2,370.2,656.9,370.8,656.2,371.2z
			 M653.7,367.8c-0.3,0.2-0.4,0.4-0.5,0.8c-0.1,0.3,0,0.7,0.2,1.1l2-1.3l0-0.1c-0.2-0.3-0.5-0.5-0.8-0.6
			C654.3,367.5,654,367.6,653.7,367.8z"/>
		<path class="st2" d="M656.4,365.2l0.4,0.5c0-0.6,0.3-1,0.8-1.4c0.8-0.6,1.6-0.4,2.2,0.6l1.8,2.6l-0.7,0.5l-1.8-2.6
			c-0.2-0.3-0.4-0.4-0.6-0.5c-0.2-0.1-0.5,0-0.7,0.2c-0.2,0.1-0.4,0.3-0.5,0.6c-0.1,0.2-0.1,0.5-0.1,0.7l1.9,2.8l-0.7,0.5l-2.7-3.9
			L656.4,365.2z"/>
		<path class="st2" d="M661.1,364.9c-0.4-0.6-0.6-1.2-0.6-1.8c0-0.6,0.3-1,0.8-1.3c0.5-0.3,1-0.4,1.5-0.2l-0.3-0.5l0.6-0.4l2.6,3.8
			c0.3,0.5,0.5,1,0.4,1.5c-0.1,0.5-0.4,0.9-0.9,1.3c-0.3,0.2-0.6,0.3-1,0.4s-0.7,0-1-0.1l0.1-0.6c0.5,0.2,1,0.1,1.4-0.2
			c0.3-0.2,0.5-0.5,0.6-0.8c0.1-0.3,0-0.6-0.3-1l-0.2-0.3c-0.1,0.5-0.3,0.9-0.8,1.2c-0.5,0.3-1,0.4-1.5,0.2
			C662,366,661.5,365.6,661.1,364.9z M661.8,364.5c0.3,0.4,0.6,0.7,1,0.9s0.7,0.1,1-0.1c0.4-0.3,0.6-0.7,0.5-1.2l-1.2-1.8
			c-0.5-0.2-0.9-0.2-1.3,0.1c-0.3,0.2-0.5,0.5-0.5,0.9C661.3,363.6,661.5,364,661.8,364.5z"/>
		<path class="st2" d="M669.2,362.4c-0.1-0.1-0.2-0.2-0.4-0.4c-0.1,0.5-0.4,1-0.8,1.2c-0.4,0.3-0.8,0.4-1.2,0.3
			c-0.4-0.1-0.7-0.2-0.9-0.6c-0.3-0.4-0.3-0.8-0.2-1.3c0.2-0.4,0.5-0.8,1.1-1.2l0.7-0.4l-0.2-0.3c-0.2-0.2-0.4-0.4-0.6-0.4
			c-0.2,0-0.5,0-0.8,0.2c-0.2,0.2-0.4,0.4-0.5,0.6c-0.1,0.2-0.1,0.4,0.1,0.6l-0.7,0.5c-0.1-0.2-0.2-0.4-0.2-0.7
			c0-0.3,0.1-0.6,0.3-0.8c0.2-0.3,0.4-0.5,0.7-0.7c0.5-0.3,0.9-0.4,1.3-0.4c0.4,0.1,0.8,0.3,1,0.7l1.2,1.8c0.2,0.4,0.5,0.6,0.7,0.8
			l0,0.1L669.2,362.4z M667.7,362.6c0.2-0.1,0.4-0.3,0.5-0.6c0.1-0.2,0.2-0.5,0.1-0.7l-0.5-0.8l-0.5,0.4c-0.8,0.6-1.1,1.1-0.8,1.6
			c0.1,0.2,0.3,0.3,0.5,0.4C667.3,362.8,667.5,362.7,667.7,362.6z"/>
		<path class="st2" d="M672.4,358.7c-0.1-0.2-0.3-0.3-0.5-0.3c-0.2,0-0.5,0.1-0.9,0.2c-0.4,0.2-0.7,0.3-1,0.3c-0.3,0-0.5,0-0.7-0.1
			c-0.2-0.1-0.4-0.2-0.5-0.4c-0.2-0.3-0.3-0.7-0.1-1.1c0.1-0.4,0.4-0.8,0.8-1c0.4-0.3,0.9-0.4,1.3-0.4c0.4,0,0.8,0.2,1,0.6l-0.7,0.5
			c-0.1-0.2-0.3-0.3-0.6-0.3c-0.2,0-0.5,0-0.7,0.2c-0.2,0.2-0.4,0.3-0.5,0.5c-0.1,0.2,0,0.4,0.1,0.6c0.1,0.2,0.3,0.2,0.4,0.2
			c0.2,0,0.5-0.1,0.9-0.2c0.4-0.2,0.7-0.2,1-0.3c0.3,0,0.5,0,0.7,0.1c0.2,0.1,0.4,0.2,0.5,0.4c0.2,0.4,0.3,0.7,0.1,1.1
			c-0.1,0.4-0.4,0.8-0.9,1.1c-0.3,0.2-0.6,0.3-1,0.4s-0.6,0-0.9-0.1c-0.3-0.1-0.5-0.3-0.6-0.5l0.7-0.5c0.2,0.2,0.4,0.3,0.6,0.4
			c0.3,0,0.5-0.1,0.8-0.3c0.3-0.2,0.4-0.4,0.5-0.6C672.5,359,672.5,358.8,672.4,358.7z"/>
		<path class="st2" d="M676.3,356.1c-0.1-0.2-0.3-0.3-0.5-0.3c-0.2,0-0.5,0.1-0.9,0.2c-0.4,0.2-0.7,0.3-1,0.3s-0.5,0-0.7-0.1
			c-0.2-0.1-0.4-0.2-0.5-0.4c-0.2-0.3-0.3-0.7-0.1-1.1c0.1-0.4,0.4-0.8,0.8-1c0.4-0.3,0.9-0.4,1.3-0.4c0.4,0,0.8,0.2,1,0.6l-0.7,0.5
			c-0.1-0.2-0.3-0.3-0.6-0.3c-0.2,0-0.5,0-0.7,0.2c-0.2,0.2-0.4,0.3-0.5,0.5c-0.1,0.2,0,0.4,0.1,0.6c0.1,0.2,0.3,0.2,0.4,0.2
			c0.2,0,0.5-0.1,0.9-0.2s0.7-0.2,1-0.3c0.3,0,0.5,0,0.7,0.1c0.2,0.1,0.4,0.2,0.5,0.4c0.2,0.4,0.3,0.7,0.1,1.1
			c-0.1,0.4-0.4,0.8-0.9,1.1c-0.3,0.2-0.6,0.3-1,0.4c-0.3,0.1-0.6,0-0.9-0.1s-0.5-0.3-0.6-0.5l0.7-0.5c0.2,0.2,0.4,0.3,0.6,0.4
			c0.3,0,0.5-0.1,0.8-0.3c0.3-0.2,0.4-0.4,0.5-0.6C676.4,356.4,676.4,356.2,676.3,356.1z"/>
		<path class="st2" d="M680.2,355c-0.5,0.4-1.1,0.5-1.7,0.4s-1.1-0.5-1.5-1.1l-0.1-0.1c-0.3-0.4-0.4-0.8-0.5-1.2
			c-0.1-0.4,0-0.8,0.1-1.1c0.2-0.4,0.4-0.6,0.7-0.8c0.5-0.3,1-0.4,1.5-0.3c0.5,0.1,1,0.5,1.4,1.2l0.2,0.3l-2.7,1.8
			c0.3,0.4,0.6,0.6,1,0.7c0.4,0.1,0.7,0,1.1-0.2c0.2-0.2,0.4-0.3,0.5-0.6c0.1-0.2,0.2-0.4,0.2-0.7l0.6,0
			C681.2,354,680.9,354.6,680.2,355z M677.7,351.6c-0.3,0.2-0.4,0.4-0.5,0.8c-0.1,0.3,0,0.7,0.2,1.1l2-1.3l0-0.1
			c-0.3-0.3-0.5-0.5-0.8-0.6C678.3,351.3,678,351.4,677.7,351.6z"/>
	</g>
	<g>
		
			<rect x="627.8" y="365.1" transform="matrix(1.745827e-02 -0.9998 0.9998 1.745827e-02 299.3806 1095.9424)" class="st6" width="159" height="61"/>
		<path class="st9" d="M731.1,360.5L726,363l5.4,1.7l0.1,1.1l-6.4,0.4l-0.1-0.8l2.5-0.2l2.7-0.1l-5.3-1.7l0-0.6l5-2.5l-2.7,0.3
			l-2.5,0.2l-0.1-0.8l6.4-0.4L731.1,360.5z"/>
		<path class="st9" d="M725.4,370.5c0.1-0.1,0.3-0.1,0.5-0.1c-0.4-0.4-0.6-0.8-0.7-1.3c0-0.5,0.1-0.9,0.3-1.2c0.2-0.3,0.6-0.5,1-0.5
			c0.5,0,0.9,0.1,1.2,0.5s0.5,0.9,0.5,1.6l0.1,0.8l0.4,0c0.3,0,0.5-0.1,0.7-0.3c0.2-0.2,0.2-0.4,0.2-0.8c0-0.3-0.1-0.5-0.3-0.7
			c-0.2-0.2-0.3-0.3-0.6-0.3l-0.1-0.8c0.2,0,0.5,0.1,0.7,0.2c0.2,0.2,0.4,0.4,0.6,0.6c0.1,0.3,0.2,0.6,0.3,0.9c0,0.5-0.1,1-0.3,1.3
			c-0.3,0.3-0.6,0.5-1.1,0.6l-2.2,0.2c-0.4,0-0.8,0.1-1,0.2l-0.1,0L725.4,370.5z M725.9,369.1c0,0.3,0.1,0.5,0.2,0.7
			c0.1,0.2,0.3,0.4,0.5,0.5l1-0.1l0-0.6c-0.1-1-0.4-1.5-1-1.4c-0.3,0-0.4,0.1-0.6,0.3C726,368.7,725.9,368.9,725.9,369.1z"/>
		<path class="st9" d="M729.7,374.5c0-0.1,0-0.3,0-0.4c0-0.5-0.3-0.9-0.8-1l-3.4,0.2l-0.1-0.8l4.7-0.3l0.1,0.8l-0.5,0.1
			c0.4,0.2,0.7,0.6,0.7,1.1c0,0.2,0,0.3,0,0.4L729.7,374.5z"/>
		<path class="st9" d="M728,376.7l-0.6-0.5l-1.7,0.1l-0.1-0.8l6.7-0.5l0.1,0.8l-4.1,0.3l0.6,0.4l1.7,1.4l0.1,1l-2.1-1.7l-2.6,2.3
			l-0.1-1L728,376.7z"/>
		<path class="st9" d="M732,380.8l-1.1,0.1l0.1,0.9l-0.6,0l-0.1-0.9l-2.9,0.2c-0.2,0-0.3,0.1-0.4,0.1c-0.1,0.1-0.1,0.2-0.1,0.4
			c0,0.1,0,0.2,0.1,0.4l-0.7,0c-0.1-0.2-0.1-0.4-0.1-0.6c0-0.4,0.1-0.6,0.3-0.8c0.2-0.2,0.5-0.3,0.9-0.3l2.9-0.2l-0.1-0.9l0.6,0
			l0.1,0.9l1.1-0.1L732,380.8z"/>
		<path class="st9" d="M728.7,382.7c0.7-0.1,1.3,0.1,1.8,0.4c0.5,0.3,0.7,0.7,0.8,1.3c0,0.6-0.1,1-0.5,1.4l0.5,0l0.1,0.7l-4.6,0.3
			c-0.6,0-1.1-0.1-1.5-0.4c-0.4-0.3-0.6-0.8-0.6-1.4c0-0.3,0-0.7,0.2-1c0.1-0.3,0.3-0.6,0.5-0.8l0.5,0.4c-0.4,0.4-0.6,0.8-0.6,1.3
			c0,0.4,0.2,0.7,0.4,0.9c0.2,0.2,0.6,0.3,1,0.3l0.4,0c-0.4-0.3-0.6-0.7-0.7-1.3c0-0.6,0.2-1,0.6-1.4
			C727.3,382.9,727.9,382.7,728.7,382.7z M728.6,383.5c-0.5,0-0.9,0.2-1.2,0.4s-0.4,0.6-0.4,1c0,0.5,0.3,0.9,0.8,1.1l2.2-0.2
			c0.4-0.3,0.6-0.7,0.6-1.2c0-0.4-0.2-0.7-0.5-0.9C729.7,383.5,729.2,383.4,728.6,383.5z"/>
		<path class="st9" d="M726.8,391c0.1-0.1,0.3-0.1,0.5-0.1c-0.4-0.3-0.6-0.8-0.7-1.3c0-0.5,0.1-0.9,0.3-1.2c0.2-0.3,0.6-0.5,1-0.5
			c0.5,0,0.9,0.1,1.2,0.5c0.3,0.4,0.5,0.9,0.5,1.6l0.1,0.8l0.4,0c0.3,0,0.5-0.1,0.7-0.3c0.2-0.2,0.2-0.4,0.2-0.8
			c0-0.3-0.1-0.5-0.3-0.7c-0.2-0.2-0.3-0.3-0.6-0.3l-0.1-0.8c0.2,0,0.5,0.1,0.7,0.2c0.2,0.2,0.4,0.4,0.6,0.6
			c0.1,0.3,0.2,0.6,0.3,0.9c0,0.5-0.1,1-0.3,1.3s-0.6,0.5-1.1,0.6l-2.2,0.2c-0.4,0-0.8,0.1-1,0.2l-0.1,0L726.8,391z M727.3,389.6
			c0,0.3,0.1,0.5,0.2,0.7c0.1,0.2,0.3,0.4,0.5,0.5l1-0.1l0-0.6c-0.1-1-0.4-1.5-1-1.4c-0.3,0-0.4,0.1-0.6,0.3
			C727.4,389.1,727.3,389.3,727.3,389.6z"/>
		<path class="st9" d="M728.4,395.6c0.2,0,0.4-0.1,0.5-0.3c0.1-0.2,0.2-0.5,0.3-0.9c0.1-0.4,0.1-0.8,0.2-1c0.1-0.2,0.2-0.4,0.4-0.6
			c0.2-0.1,0.4-0.2,0.6-0.2c0.4,0,0.7,0.1,1,0.4c0.3,0.3,0.5,0.7,0.5,1.2c0,0.5-0.1,1-0.3,1.3c-0.3,0.4-0.6,0.5-1,0.6l-0.1-0.8
			c0.2,0,0.4-0.1,0.6-0.3c0.1-0.2,0.2-0.4,0.2-0.7c0-0.3-0.1-0.5-0.2-0.7c-0.1-0.2-0.3-0.2-0.5-0.2c-0.2,0-0.3,0.1-0.4,0.3
			s-0.2,0.4-0.2,0.9c-0.1,0.4-0.1,0.7-0.3,1c-0.1,0.3-0.2,0.5-0.4,0.6c-0.2,0.1-0.4,0.2-0.6,0.2c-0.4,0-0.8-0.1-1.1-0.4
			c-0.3-0.3-0.4-0.8-0.5-1.3c0-0.4,0-0.7,0.1-1c0.1-0.3,0.3-0.5,0.5-0.7c0.2-0.2,0.5-0.3,0.8-0.3l0.1,0.8c-0.3,0-0.5,0.2-0.6,0.4
			c-0.1,0.2-0.2,0.5-0.2,0.8c0,0.3,0.1,0.5,0.2,0.7C728,395.5,728.2,395.6,728.4,395.6z"/>
		<path class="st9" d="M728.7,400.2c0.2,0,0.4-0.1,0.5-0.3c0.1-0.2,0.2-0.5,0.3-0.9c0.1-0.4,0.1-0.8,0.2-1c0.1-0.2,0.2-0.4,0.4-0.6
			c0.2-0.1,0.4-0.2,0.6-0.2c0.4,0,0.7,0.1,1,0.4c0.3,0.3,0.5,0.7,0.5,1.2c0,0.5-0.1,1-0.3,1.3c-0.3,0.4-0.6,0.5-1,0.6l-0.1-0.8
			c0.2,0,0.4-0.1,0.6-0.3c0.1-0.2,0.2-0.4,0.2-0.7c0-0.3-0.1-0.5-0.2-0.7c-0.1-0.2-0.3-0.2-0.5-0.2c-0.2,0-0.3,0.1-0.4,0.3
			c-0.1,0.2-0.2,0.4-0.2,0.9c-0.1,0.4-0.1,0.7-0.3,1c-0.1,0.3-0.2,0.5-0.4,0.6c-0.2,0.1-0.4,0.2-0.6,0.2c-0.4,0-0.8-0.1-1.1-0.4
			c-0.3-0.3-0.4-0.8-0.5-1.3c0-0.4,0-0.7,0.1-1c0.1-0.3,0.3-0.5,0.5-0.7c0.2-0.2,0.5-0.3,0.8-0.3l0.1,0.8c-0.3,0-0.5,0.2-0.6,0.4
			c-0.1,0.2-0.2,0.5-0.2,0.8c0,0.3,0.1,0.5,0.2,0.7S728.5,400.3,728.7,400.2z"/>
		<path class="st9" d="M727.7,404.2c0-0.6,0.1-1.2,0.5-1.6c0.4-0.4,0.9-0.7,1.7-0.7l0.1,0c0.5,0,0.9,0,1.3,0.2
			c0.4,0.2,0.7,0.4,0.9,0.7c0.2,0.3,0.4,0.7,0.4,1c0,0.6-0.1,1.1-0.5,1.5c-0.4,0.4-1,0.6-1.7,0.6l-0.3,0l-0.2-3.2
			c-0.5,0-0.8,0.2-1.1,0.5s-0.4,0.6-0.4,1c0,0.3,0.1,0.5,0.2,0.7c0.1,0.2,0.3,0.4,0.5,0.5l-0.4,0.5
			C728.1,405.5,727.7,405,727.7,404.2z M731.9,403.8c0-0.3-0.2-0.6-0.4-0.8c-0.3-0.2-0.6-0.3-1-0.3l0.2,2.4l0.1,0
			c0.4-0.1,0.7-0.2,0.9-0.4C731.8,404.4,731.9,404.1,731.9,403.8z"/>
	</g>
	<g>
		<polygon class="st6" points="807.2,587.3 687.2,483 730.5,439.6 850.5,543.9 		"/>
		<path class="st2" d="M761.5,467.9l-1.6-1.3l-3.7,4.3l-0.6-0.6l3.7-4.3l-1.5-1.3l0.5-0.5l3.7,3.2L761.5,467.9z"/>
		<path class="st2" d="M759.5,473.8c-0.5-0.4-0.7-0.9-0.8-1.5c0-0.6,0.2-1.1,0.7-1.7l0.1-0.1c0.3-0.4,0.7-0.6,1-0.8
			c0.4-0.2,0.8-0.2,1.1-0.2c0.4,0.1,0.7,0.2,1,0.5c0.5,0.4,0.7,0.9,0.7,1.4c0,0.5-0.3,1.1-0.8,1.7l-0.2,0.3l-2.4-2.1
			c-0.3,0.4-0.4,0.7-0.4,1.1c0,0.4,0.2,0.7,0.5,1c0.2,0.2,0.4,0.3,0.7,0.3c0.2,0,0.5,0,0.7,0l0.1,0.6
			C760.7,474.5,760.1,474.3,759.5,473.8z M762.2,470.5c-0.2-0.2-0.5-0.3-0.9-0.3c-0.3,0-0.6,0.2-1,0.5l1.8,1.6l0,0
			c0.3-0.3,0.4-0.6,0.4-0.9C762.6,471,762.4,470.7,762.2,470.5z"/>
		<path class="st2" d="M763.5,476.4c0.2,0.2,0.5,0.3,0.7,0.3c0.3,0,0.5-0.1,0.7-0.3l0.6,0.5c-0.2,0.2-0.4,0.3-0.7,0.4
			c-0.3,0.1-0.6,0.1-0.9,0c-0.3-0.1-0.6-0.2-0.8-0.4c-0.5-0.4-0.7-0.9-0.7-1.5c0-0.6,0.2-1.1,0.7-1.7l0.1-0.1c0.3-0.3,0.6-0.6,1-0.8
			c0.4-0.2,0.7-0.2,1.1-0.2s0.7,0.2,1,0.5c0.4,0.4,0.6,0.8,0.7,1.2s-0.1,0.9-0.4,1.3l-0.6-0.5c0.2-0.2,0.3-0.5,0.2-0.8
			c0-0.3-0.2-0.5-0.4-0.7c-0.3-0.3-0.7-0.4-1-0.3c-0.4,0.1-0.7,0.3-1.1,0.8l-0.1,0.1c-0.4,0.4-0.6,0.8-0.6,1.2
			C763,475.8,763.1,476.1,763.5,476.4z"/>
		<path class="st2" d="M767.6,477.8l-0.7,0.1l-1.1,1.3l-0.6-0.5l4.4-5.1l0.6,0.5l-2.7,3.1l0.7-0.1l2.1-0.2l0.7,0.6l-2.7,0.3
			l-0.3,3.4l-0.7-0.6L767.6,477.8z"/>
		<path class="st2" d="M772.3,478.5L772,479c0.6-0.1,1.1,0,1.5,0.4c0.8,0.7,0.8,1.4,0,2.3l-2.1,2.4l-0.6-0.5l2.1-2.4
			c0.2-0.3,0.3-0.5,0.3-0.7s-0.1-0.4-0.4-0.7c-0.2-0.2-0.4-0.3-0.7-0.3s-0.5,0-0.7,0.1l-2.2,2.6l-0.6-0.5l3.1-3.6L772.3,478.5z"/>
		<path class="st2" d="M774.6,486.8c0-0.1,0.1-0.3,0.2-0.5c-0.5,0-1-0.1-1.4-0.4c-0.4-0.3-0.6-0.7-0.6-1.1c-0.1-0.4,0.1-0.8,0.3-1.1
			c0.3-0.4,0.7-0.5,1.2-0.5c0.5,0,1,0.3,1.5,0.7l0.6,0.5l0.2-0.3c0.2-0.2,0.3-0.4,0.3-0.7c0-0.2-0.2-0.5-0.4-0.7
			c-0.2-0.2-0.5-0.3-0.7-0.3c-0.2,0-0.4,0.1-0.6,0.2l-0.6-0.5c0.2-0.2,0.4-0.3,0.6-0.4c0.3-0.1,0.6,0,0.9,0.1
			c0.3,0.1,0.6,0.3,0.8,0.5c0.4,0.4,0.6,0.7,0.7,1.2c0.1,0.4-0.1,0.8-0.4,1.2l-1.4,1.7c-0.3,0.3-0.5,0.6-0.6,0.9l0,0.1L774.6,486.8z
			 M774,485.5c0.2,0.2,0.4,0.3,0.7,0.3c0.3,0,0.5,0,0.7-0.1l0.6-0.7l-0.5-0.4c-0.8-0.7-1.3-0.8-1.7-0.3c-0.2,0.2-0.2,0.4-0.2,0.6
			C773.7,485.1,773.8,485.3,774,485.5z"/>
		<path class="st2" d="M778.6,489.7c-0.5,0.1-1-0.1-1.4-0.5c-0.4-0.3-0.6-0.7-0.6-1.1s0.2-0.8,0.6-1.2l2-2.3l0.6,0.5l-2,2.3
			c-0.5,0.5-0.5,1,0,1.4c0.5,0.4,0.9,0.5,1.4,0.3l2.3-2.6l0.6,0.5l-3.1,3.6l-0.6-0.5L778.6,489.7z"/>
		<path class="st2" d="M781.3,493.3l-0.5-0.5l6.6-3.5l0.5,0.5L781.3,493.3z"/>
		<path class="st2" d="M789.5,496.4l-1.1-1l-1.7,2l-0.6-0.6l4.2-4.8l1.6,1.4c0.5,0.5,0.9,1,0.9,1.5c0.1,0.5-0.1,1-0.5,1.5
			c-0.3,0.3-0.6,0.5-0.9,0.6c-0.4,0.1-0.7,0.1-1.1-0.1l-0.6,3l0,0l-0.7-0.6L789.5,496.4z M788.9,494.9l1,0.9c0.3,0.3,0.6,0.4,1,0.4
			c0.3,0,0.6-0.1,0.9-0.4c0.3-0.3,0.4-0.6,0.3-0.9c0-0.3-0.2-0.6-0.6-0.9l-1-0.8L788.9,494.9z"/>
		<path class="st2" d="M792.7,501.9c-0.5,0.1-1-0.1-1.4-0.5c-0.4-0.3-0.6-0.7-0.6-1.1c0-0.4,0.2-0.8,0.6-1.3l2-2.3l0.6,0.5l-2,2.3
			c-0.5,0.5-0.5,1,0,1.4c0.5,0.4,0.9,0.5,1.4,0.3l2.3-2.6l0.6,0.5l-3.1,3.6l-0.6-0.5L792.7,501.9z M794.5,496.1
			c0.1-0.1,0.2-0.2,0.3-0.2c0.1,0,0.2,0,0.4,0.1c0.1,0.1,0.2,0.2,0.2,0.3c0,0.1,0,0.2-0.1,0.3c-0.1,0.1-0.2,0.2-0.3,0.2
			c-0.1,0-0.2,0-0.4-0.1c-0.1-0.1-0.2-0.2-0.2-0.3C794.3,496.3,794.4,496.2,794.5,496.1z M795.9,497.4c0.1-0.1,0.2-0.2,0.3-0.2
			c0.1,0,0.2,0,0.4,0.1c0.1,0.1,0.2,0.2,0.2,0.3c0,0.1,0,0.2-0.1,0.3c-0.1,0.1-0.2,0.2-0.3,0.2c-0.1,0-0.2,0-0.4-0.1
			c-0.1-0.1-0.2-0.2-0.2-0.3C795.8,497.6,795.8,497.5,795.9,497.4z"/>
		<path class="st2" d="M797.6,500.5l-0.4,0.5c0.6-0.1,1.1,0,1.5,0.4c0.8,0.7,0.8,1.4,0,2.3l-2.1,2.4l-0.6-0.5l2.1-2.4
			c0.2-0.3,0.3-0.5,0.3-0.7s-0.1-0.4-0.4-0.7c-0.2-0.2-0.4-0.3-0.7-0.3c-0.2,0-0.5,0-0.7,0.1l-2.2,2.6l-0.6-0.5l3.1-3.6L797.6,500.5
			z"/>
		<path class="st2" d="M799.1,508.2c-0.5-0.4-0.7-0.9-0.8-1.5c0-0.6,0.2-1.1,0.7-1.7l0.1-0.1c0.3-0.4,0.7-0.6,1-0.8s0.8-0.2,1.1-0.2
			c0.4,0.1,0.7,0.2,1,0.5c0.5,0.4,0.7,0.9,0.7,1.4c0,0.5-0.3,1.1-0.8,1.7l-0.2,0.3l-2.4-2.1c-0.3,0.4-0.4,0.7-0.4,1.1
			c0,0.4,0.2,0.7,0.5,1c0.2,0.2,0.4,0.3,0.7,0.3c0.2,0,0.5,0,0.7,0l0.1,0.6C800.3,508.9,799.7,508.7,799.1,508.2z M801.8,504.9
			c-0.2-0.2-0.5-0.3-0.9-0.3c-0.3,0-0.6,0.2-1,0.5l1.8,1.6l0,0c0.3-0.3,0.4-0.6,0.4-0.9C802.2,505.4,802.1,505.2,801.8,504.9z"/>
		<path class="st2" d="M805,506.9l-0.4,0.5c0.6-0.1,1.1,0,1.5,0.4c0.8,0.7,0.8,1.4,0,2.3l-2.1,2.4l-0.6-0.5l2.1-2.4
			c0.2-0.3,0.3-0.5,0.3-0.7c0-0.2-0.1-0.4-0.4-0.7c-0.2-0.2-0.4-0.3-0.7-0.3s-0.5,0-0.7,0.1l-2.2,2.6l-0.6-0.5l3.1-3.6L805,506.9z"
			/>
		<path class="st2" d="M809.6,514.1c-0.5,0.5-1,0.9-1.5,1c-0.5,0.1-1,0-1.4-0.4c-0.5-0.4-0.7-0.9-0.6-1.4l-0.4,0.4l-0.6-0.5l4.4-5.1
			l0.6,0.5l-1.7,1.9c0.5-0.1,1,0.1,1.4,0.4c0.4,0.4,0.6,0.8,0.6,1.4C810.4,512.9,810.1,513.5,809.6,514.1L809.6,514.1z M809,513.5
			c0.4-0.4,0.6-0.8,0.6-1.2c0-0.4-0.1-0.7-0.4-0.9c-0.4-0.4-0.9-0.4-1.4-0.2l-1.3,1.6c-0.1,0.5,0,1,0.4,1.3c0.3,0.3,0.6,0.3,1,0.3
			C808.2,514.3,808.6,514,809,513.5z"/>
		<path class="st2" d="M810.2,517.9c-0.5-0.4-0.7-0.9-0.8-1.5s0.2-1.1,0.7-1.7l0.1-0.1c0.3-0.4,0.7-0.6,1-0.8
			c0.4-0.2,0.8-0.2,1.1-0.2c0.4,0.1,0.7,0.2,1,0.5c0.5,0.4,0.7,0.9,0.7,1.4c0,0.5-0.3,1.1-0.8,1.7l-0.2,0.3l-2.4-2.1
			c-0.3,0.4-0.4,0.7-0.4,1.1c0,0.4,0.2,0.7,0.5,1c0.2,0.2,0.4,0.3,0.7,0.3c0.2,0,0.5,0,0.7,0l0.1,0.6
			C811.5,518.6,810.8,518.4,810.2,517.9z M813,514.6c-0.2-0.2-0.5-0.3-0.9-0.3c-0.3,0-0.6,0.2-1,0.5l1.8,1.6l0,0
			c0.3-0.3,0.4-0.6,0.4-0.9C813.3,515.1,813.2,514.9,813,514.6z"/>
		<path class="st2" d="M816.8,518.2c-0.1-0.1-0.2-0.2-0.3-0.3c-0.4-0.3-0.8-0.4-1.3-0.2l-2.2,2.5l-0.6-0.5l3.1-3.6l0.6,0.5l-0.3,0.4
			c0.5-0.1,0.9-0.1,1.3,0.3c0.1,0.1,0.2,0.2,0.2,0.3L816.8,518.2z"/>
		<path class="st2" d="M816.1,519.7c0.5-0.6,1-0.9,1.5-1c0.5-0.1,1,0,1.5,0.4c0.4,0.4,0.6,0.8,0.6,1.4l0.4-0.4l0.6,0.5l-3,3.5
			c-0.4,0.5-0.9,0.7-1.4,0.7s-1-0.2-1.5-0.6c-0.3-0.2-0.5-0.5-0.6-0.8c-0.2-0.3-0.2-0.6-0.2-0.9l0.6-0.1c0,0.6,0.2,1,0.5,1.3
			c0.3,0.3,0.6,0.4,0.9,0.4c0.3,0,0.6-0.2,0.9-0.5l0.3-0.3c-0.5,0.1-1-0.1-1.4-0.5c-0.4-0.4-0.6-0.8-0.6-1.4
			C815.3,520.8,815.6,520.3,816.1,519.7z M816.6,520.3c-0.4,0.4-0.5,0.8-0.6,1.2c0,0.4,0.1,0.7,0.4,1c0.4,0.3,0.8,0.4,1.3,0.2
			l1.4-1.6c0.1-0.5,0-0.9-0.4-1.2c-0.3-0.3-0.6-0.3-1-0.3C817.4,519.6,817,519.8,816.6,520.3z"/>
	</g>
	<g>
		<path class="st2" d="M107.7,167.9c0,0-0.1,0-0.1,0c0-0.1-0.1,0-0.2,0c-0.7-0.2-1.5-0.4-2.2-0.6c-1.3-0.4-2.6-0.7-3.9-1.1
			c-0.4-0.1-0.7-0.1-1.1-0.3c0-0.1-0.1-0.2-0.1-0.3c0-0.2,0.2-0.4,0.4-0.6c0.9-1.2,1.9-2.4,2.8-3.5c0.4-0.6,0.9-1.1,1.3-1.7
			c0.1-0.1,0.2-0.2,0.3-0.2c0.1,0,0.2,0.1,0.2,0.2c0.2,0.5,0.3,1,0.5,1.5c0.1,0.3,0.4,0.5,0.7,0.3c1.9-0.6,3.9-1.3,5.8-1.9
			c0.3-0.1,0.6-0.2,0.9,0c0.3,1,0.7,2.1,1,3.1c-0.1,0.3-0.4,0.5-0.8,0.6c-1.9,0.6-3.9,1.3-5.8,1.9c-0.3,0.1-0.5,0.4-0.4,0.7
			c0.2,0.5,0.3,1,0.5,1.5C107.8,167.6,107.8,167.7,107.7,167.9z"/>
	</g>
	<g>
		<path class="st2" d="M155.7,31c0,0,0-0.1-0.1-0.1c0.1,0,0-0.1,0-0.2c0.1-0.7,0.3-1.5,0.4-2.2c0.2-1.3,0.5-2.6,0.7-3.9
			c0.1-0.4,0.1-0.7,0.3-1.1c0.1,0,0.2-0.1,0.3-0.1c0.2,0,0.4,0.2,0.6,0.3c1.3,0.8,2.5,1.7,3.8,2.5c0.6,0.4,1.2,0.8,1.8,1.2
			c0.1,0.1,0.2,0.2,0.2,0.3c0,0.1-0.1,0.2-0.2,0.2c-0.5,0.2-1,0.4-1.4,0.6c-0.3,0.1-0.4,0.4-0.3,0.8c0.8,1.9,1.6,3.7,2.4,5.6
			c0.1,0.3,0.2,0.6,0.1,0.9c-1,0.4-2,0.9-3,1.3c-0.3-0.1-0.5-0.4-0.6-0.7c-0.8-1.9-1.6-3.7-2.4-5.6c-0.1-0.3-0.4-0.4-0.7-0.3
			c-0.5,0.2-0.9,0.4-1.4,0.6C155.9,31,155.8,31,155.7,31z"/>
	</g>
	<g>
		<path class="st2" d="M806.2,32.6c0,0,0.1,0,0.1,0c0,0.1,0.1,0,0.2,0c0.7,0.3,1.4,0.5,2.1,0.8c1.3,0.4,2.5,0.9,3.8,1.3
			c0.3,0.1,0.7,0.2,1,0.4c0,0.1,0.1,0.2,0.1,0.3c-0.1,0.2-0.3,0.4-0.4,0.6c-1,1.1-2,2.2-3.1,3.3c-0.5,0.5-1,1-1.4,1.6
			c-0.1,0.1-0.2,0.1-0.3,0.1c-0.1,0-0.2-0.1-0.2-0.2c-0.1-0.5-0.3-1-0.4-1.5c-0.1-0.3-0.3-0.5-0.7-0.4c-2,0.5-4,1-5.9,1.5
			c-0.3,0.1-0.6,0.1-0.9-0.1c-0.3-1.1-0.5-2.1-0.8-3.2c0.2-0.3,0.5-0.4,0.8-0.5c2-0.5,4-1,5.9-1.5c0.3-0.1,0.5-0.4,0.4-0.7
			c-0.1-0.5-0.2-1-0.4-1.5C806.1,32.9,806.1,32.8,806.2,32.6z"/>
	</g>
	<g>
		<path class="st29" d="M71.2,329.6h3.9v14H82v3.3H71.2V329.6z"/>
		<path class="st29" d="M87,341.8c0.1,1.6,1.7,2.4,3.5,2.4c1.3,0,2.4-0.2,3.5-0.5l0.5,2.6c-1.3,0.5-2.8,0.8-4.5,0.8
			c-4.3,0-6.7-2.5-6.7-6.4c0-3.2,2-6.7,6.3-6.7c4,0,5.6,3.2,5.6,6.3c0,0.7-0.1,1.3-0.1,1.5H87z M91.6,339.1c0-0.9-0.4-2.5-2.2-2.5
			c-1.6,0-2.3,1.5-2.4,2.5H91.6z"/>
		<path class="st29" d="M109.5,334.3c-0.1,0.8-0.1,1.8-0.1,3.7v7c0,2.4-0.5,4.4-1.9,5.6c-1.4,1.2-3.3,1.5-5.1,1.5
			c-1.6,0-3.4-0.3-4.5-1l0.8-2.9c0.8,0.5,2.2,0.9,3.6,0.9c1.8,0,3.3-1,3.3-3.3v-0.8h-0.1c-0.7,1.1-1.9,1.6-3.4,1.6
			c-3.1,0-5.3-2.5-5.3-6.1c0-4,2.6-6.6,5.7-6.6c1.7,0,2.8,0.7,3.4,1.8h0.1l0.1-1.5H109.5z M105.5,339.4c0-0.3,0-0.5-0.1-0.7
			c-0.3-1-1-1.7-2.1-1.7c-1.4,0-2.6,1.3-2.6,3.6c0,1.9,0.9,3.3,2.6,3.3c1,0,1.8-0.7,2-1.6c0.1-0.3,0.1-0.7,0.1-1V339.4z"/>
		<path class="st29" d="M115.5,341.8c0.1,1.6,1.7,2.4,3.5,2.4c1.3,0,2.4-0.2,3.5-0.5l0.5,2.6c-1.3,0.5-2.8,0.8-4.5,0.8
			c-4.3,0-6.7-2.5-6.7-6.4c0-3.2,2-6.7,6.3-6.7c4,0,5.6,3.2,5.6,6.3c0,0.7-0.1,1.3-0.1,1.5H115.5z M120.1,339.1
			c0-0.9-0.4-2.5-2.2-2.5c-1.6,0-2.3,1.5-2.4,2.5H120.1z"/>
		<path class="st29" d="M126,338.3c0-1.6-0.1-2.9-0.1-4h3.4l0.2,1.7h0.1c0.5-0.8,1.8-2,3.9-2c2.6,0,4.5,1.7,4.5,5.4v7.4H134v-6.9
			c0-1.6-0.6-2.7-2-2.7c-1.1,0-1.7,0.7-2,1.5c-0.1,0.2-0.2,0.6-0.2,1v7.2H126V338.3z"/>
		<path class="st29" d="M153.2,328.6v14.4c0,1.4,0.1,2.9,0.1,3.7h-3.5l-0.2-1.8h-0.1c-0.8,1.4-2.3,2.1-3.9,2.1c-3,0-5.4-2.5-5.4-6.4
			c0-4.2,2.6-6.7,5.6-6.7c1.5,0,2.7,0.5,3.3,1.4h0.1v-6.8H153.2z M149.3,339.6c0-0.2,0-0.5-0.1-0.7c-0.2-1.1-1.1-1.9-2.3-1.9
			c-1.8,0-2.7,1.6-2.7,3.6c0,2.1,1,3.5,2.7,3.5c1.1,0,2-0.8,2.3-1.9c0.1-0.3,0.1-0.6,0.1-0.9V339.6z"/>
		<path class="st29" d="M159.3,341.8c0.1,1.6,1.7,2.4,3.5,2.4c1.3,0,2.4-0.2,3.5-0.5l0.5,2.6c-1.3,0.5-2.8,0.8-4.5,0.8
			c-4.3,0-6.7-2.5-6.7-6.4c0-3.2,2-6.7,6.3-6.7c4,0,5.6,3.2,5.6,6.3c0,0.7-0.1,1.3-0.1,1.5H159.3z M163.9,339.1
			c0-0.9-0.4-2.5-2.2-2.5c-1.6,0-2.3,1.5-2.4,2.5H163.9z"/>
	</g>
	<line class="st30" x1="80.1" y1="388.6" x2="162.3" y2="388.6"/>
	<g>
		<path class="st29" d="M176.9,376.3c1.2-0.2,2.9-0.4,5.3-0.4c2.4,0,4.1,0.5,5.3,1.4c1.1,0.9,1.8,2.3,1.8,4c0,1.7-0.6,3.1-1.6,4.1
			c-1.3,1.3-3.3,1.8-5.6,1.8c-0.5,0-1,0-1.3-0.1v6.2h-3.9V376.3z M180.8,384.2c0.3,0.1,0.7,0.1,1.3,0.1c2.1,0,3.4-1.1,3.4-2.8
			c0-1.6-1.1-2.5-3-2.5c-0.8,0-1.3,0.1-1.6,0.2V384.2z"/>
		<path class="st29" d="M198.4,393.4l-0.2-1.3h-0.1c-0.8,1-2.1,1.5-3.6,1.5c-2.5,0-4-1.8-4-3.8c0-3.3,2.9-4.8,7.4-4.8v-0.2
			c0-0.7-0.4-1.6-2.3-1.6c-1.3,0-2.6,0.4-3.5,0.9l-0.7-2.5c0.9-0.5,2.6-1.1,4.9-1.1c4.2,0,5.5,2.5,5.5,5.4v4.4c0,1.2,0.1,2.4,0.2,3
			H198.4z M197.9,387.4c-2,0-3.6,0.5-3.6,2c0,1,0.7,1.5,1.5,1.5c1,0,1.8-0.6,2-1.4c0.1-0.2,0.1-0.4,0.1-0.7V387.4z"/>
		<path class="st29" d="M204.8,385c0-1.8-0.1-3-0.1-4.1h3.4l0.1,2.3h0.1c0.6-1.8,2.2-2.6,3.4-2.6c0.4,0,0.5,0,0.8,0.1v3.7
			c-0.3-0.1-0.6-0.1-1.1-0.1c-1.4,0-2.4,0.8-2.7,2c-0.1,0.3-0.1,0.6-0.1,0.9v6.4h-3.9V385z"/>
		<path class="st29" d="M221.3,393.4l-0.2-1.3H221c-0.8,1-2.1,1.5-3.6,1.5c-2.5,0-4-1.8-4-3.8c0-3.3,2.9-4.8,7.4-4.8v-0.2
			c0-0.7-0.4-1.6-2.3-1.6c-1.3,0-2.6,0.4-3.5,0.9l-0.7-2.5c0.9-0.5,2.6-1.1,4.9-1.1c4.2,0,5.5,2.5,5.5,5.4v4.4c0,1.2,0.1,2.4,0.2,3
			H221.3z M220.9,387.4c-2,0-3.6,0.5-3.6,2c0,1,0.7,1.5,1.5,1.5c1,0,1.8-0.6,2-1.4c0.1-0.2,0.1-0.4,0.1-0.7V387.4z"/>
		<path class="st29" d="M239.9,375.2v14.4c0,1.4,0.1,2.9,0.1,3.7h-3.5l-0.2-1.8h-0.1c-0.8,1.4-2.3,2.1-3.9,2.1c-3,0-5.4-2.5-5.4-6.4
			c0-4.2,2.6-6.7,5.6-6.7c1.5,0,2.7,0.5,3.3,1.4h0.1v-6.8H239.9z M236,386.1c0-0.2,0-0.5-0.1-0.7c-0.2-1.1-1.1-1.9-2.3-1.9
			c-1.8,0-2.7,1.6-2.7,3.6c0,2.1,1,3.5,2.7,3.5c1.1,0,2-0.8,2.3-1.9c0.1-0.3,0.1-0.6,0.1-0.9V386.1z"/>
		<path class="st29" d="M246,388.3c0.1,1.6,1.7,2.4,3.5,2.4c1.3,0,2.4-0.2,3.5-0.5l0.5,2.6c-1.3,0.5-2.8,0.8-4.5,0.8
			c-4.3,0-6.7-2.5-6.7-6.4c0-3.2,2-6.7,6.3-6.7c4,0,5.6,3.2,5.6,6.3c0,0.7-0.1,1.3-0.1,1.5H246z M250.6,385.7c0-0.9-0.4-2.5-2.2-2.5
			c-1.6,0-2.3,1.5-2.4,2.5H250.6z"/>
		<path class="st29" d="M256.6,385c0-1.8-0.1-3-0.1-4.1h3.4l0.1,2.3h0.1c0.6-1.8,2.2-2.6,3.4-2.6c0.4,0,0.5,0,0.8,0.1v3.7
			c-0.3-0.1-0.6-0.1-1.1-0.1c-1.4,0-2.4,0.8-2.7,2c-0.1,0.3-0.1,0.6-0.1,0.9v6.4h-3.9V385z"/>
		<path class="st29" d="M278.5,387c0,4.6-3.3,6.7-6.6,6.7c-3.7,0-6.5-2.4-6.5-6.5c0-4,2.7-6.6,6.7-6.6
			C275.9,380.6,278.5,383.2,278.5,387z M269.4,387.1c0,2.2,0.9,3.8,2.6,3.8c1.5,0,2.5-1.5,2.5-3.8c0-1.9-0.7-3.8-2.5-3.8
			C270.1,383.3,269.4,385.2,269.4,387.1z"/>
		<path class="st29" d="M292.7,389.3c0,1.6,0.1,3,0.1,4h-3.4l-0.2-1.8h-0.1c-0.5,0.8-1.7,2-3.9,2c-2.5,0-4.4-1.6-4.4-5.5v-7.4h3.9
			v6.7c0,1.8,0.6,2.9,1.9,2.9c1.1,0,1.7-0.7,1.9-1.4c0.1-0.2,0.1-0.5,0.1-0.8v-7.5h3.9V389.3z"/>
		<path class="st29" d="M300.2,377.2v3.6h2.8v2.9h-2.8v4.5c0,1.5,0.4,2.2,1.5,2.2c0.5,0,0.9-0.1,1.2-0.1l0,2.9
			c-0.5,0.2-1.4,0.3-2.5,0.3c-1.3,0-2.3-0.4-2.9-1.1c-0.7-0.7-1.1-1.9-1.1-3.7v-5.1h-1.7v-2.9h1.7v-2.7L300.2,377.2z"/>
		<path class="st29" d="M308.1,388.3c0.1,1.6,1.7,2.4,3.5,2.4c1.3,0,2.4-0.2,3.5-0.5l0.5,2.6c-1.3,0.5-2.8,0.8-4.5,0.8
			c-4.3,0-6.7-2.5-6.7-6.4c0-3.2,2-6.7,6.3-6.7c4,0,5.6,3.2,5.6,6.3c0,0.7-0.1,1.3-0.1,1.5H308.1z M312.7,385.7
			c0-0.9-0.4-2.5-2.2-2.5c-1.6,0-2.3,1.5-2.4,2.5H312.7z"/>
	</g>
	<g>
		<path class="st29" d="M177.3,537.1h-4.6v-3.3h13.3v3.3h-4.7v14h-3.9V537.1z"/>
		<path class="st29" d="M198.1,544.7c0,4.6-3.3,6.7-6.6,6.7c-3.7,0-6.5-2.4-6.5-6.5c0-4,2.7-6.6,6.7-6.6
			C195.6,538.2,198.1,540.9,198.1,544.7z M189.1,544.8c0,2.2,0.9,3.8,2.6,3.8c1.5,0,2.5-1.5,2.5-3.8c0-1.9-0.7-3.8-2.5-3.8
			C189.8,541,189.1,542.9,189.1,544.8z"/>
		<path class="st29" d="M204.6,535c0,1.1-0.8,1.9-2.1,1.9c-1.2,0-2-0.9-2-1.9c0-1.1,0.8-2,2-2C203.8,533.1,204.6,533.9,204.6,535z
			 M200.6,551.1v-12.5h3.9v12.5H200.6z"/>
		<path class="st29" d="M207.6,532.9h3.9v18.2h-3.9V532.9z"/>
		<path class="st29" d="M217.6,546c0.1,1.6,1.7,2.4,3.5,2.4c1.3,0,2.4-0.2,3.5-0.5l0.5,2.6c-1.3,0.5-2.8,0.8-4.5,0.8
			c-4.3,0-6.7-2.5-6.7-6.4c0-3.2,2-6.7,6.3-6.7c4,0,5.6,3.2,5.6,6.3c0,0.7-0.1,1.3-0.1,1.5H217.6z M222.2,543.4
			c0-0.9-0.4-2.5-2.2-2.5c-1.6,0-2.3,1.5-2.4,2.5H222.2z"/>
		<path class="st29" d="M232.5,534.9v3.6h2.8v2.9h-2.8v4.5c0,1.5,0.4,2.2,1.5,2.2c0.5,0,0.9-0.1,1.2-0.1l0,2.9
			c-0.5,0.2-1.4,0.3-2.5,0.3c-1.3,0-2.3-0.4-2.9-1.1c-0.7-0.7-1.1-1.9-1.1-3.7v-5.1H227v-2.9h1.7v-2.7L232.5,534.9z"/>
		<path class="st29" d="M241.9,534.9v3.6h2.8v2.9h-2.8v4.5c0,1.5,0.4,2.2,1.5,2.2c0.5,0,0.9-0.1,1.2-0.1l0,2.9
			c-0.5,0.2-1.4,0.3-2.5,0.3c-1.3,0-2.3-0.4-2.9-1.1c-0.7-0.7-1.1-1.9-1.1-3.7v-5.1h-1.7v-2.9h1.7v-2.7L241.9,534.9z"/>
		<path class="st29" d="M249.8,546c0.1,1.6,1.7,2.4,3.5,2.4c1.3,0,2.4-0.2,3.5-0.5l0.5,2.6c-1.3,0.5-2.8,0.8-4.5,0.8
			c-4.3,0-6.7-2.5-6.7-6.4c0-3.2,2-6.7,6.3-6.7c4,0,5.6,3.2,5.6,6.3c0,0.7-0.1,1.3-0.1,1.5H249.8z M254.4,543.4
			c0-0.9-0.4-2.5-2.2-2.5c-1.6,0-2.3,1.5-2.4,2.5H254.4z"/>
		<path class="st29" d="M260.4,542.5c0-1.6-0.1-2.9-0.1-4h3.4l0.2,1.7h0.1c0.5-0.8,1.8-2,3.9-2c2.6,0,4.5,1.7,4.5,5.4v7.4h-3.9v-6.9
			c0-1.6-0.6-2.7-2-2.7c-1.1,0-1.7,0.7-2,1.5c-0.1,0.2-0.2,0.6-0.2,1v7.2h-3.9V542.5z"/>
	</g>
	<g>
		<path class="st10" d="M138.3,567.4L138.3,567.4c-13,0-23.5-10.5-23.5-23.5v0c0-13,10.5-23.5,23.5-23.5h0c13,0,23.5,10.5,23.5,23.5
			v0C161.8,556.9,151.3,567.4,138.3,567.4z"/>
		<g>
			<rect x="110.3" y="528.4" class="st6" width="55.9" height="26.4"/>
			<path d="M122.6,535.8l2.1,8c0.5,1.8,0.9,3.4,1.2,5h0.1c0.4-1.6,0.9-3.3,1.4-5l2.6-8.1h2.4l2.4,7.9c0.6,1.9,1,3.6,1.4,5.2h0.1
				c0.3-1.6,0.7-3.3,1.2-5.1l2.2-7.9h2.8l-5.1,15.8h-2.6l-2.4-7.5c-0.6-1.8-1-3.3-1.4-5.2h-0.1c-0.4,1.9-0.9,3.5-1.4,5.2l-2.5,7.5
				h-2.6l-4.8-15.8H122.6z"/>
			<path d="M156.4,550.9c-0.8,0.4-2.4,0.9-4.5,0.9c-4.8,0-7.9-3.2-7.9-8.1c0-4.9,3.3-8.4,8.5-8.4c1.7,0,3.2,0.4,4,0.8l-0.7,2.2
				c-0.7-0.4-1.8-0.8-3.3-0.8c-3.6,0-5.6,2.7-5.6,6c0,3.7,2.3,5.9,5.5,5.9c1.6,0,2.7-0.4,3.5-0.8L156.4,550.9z"/>
		</g>
	</g>
	<g>
		<path class="st29" d="M173.9,481.6c1-0.2,3.1-0.4,5-0.4c2.4,0,3.8,0.2,5.1,1c1.2,0.6,2.1,1.8,2.1,3.4c0,1.5-0.9,3-2.8,3.7v0.1
			c2,0.5,3.4,2,3.4,4.3c0,1.6-0.7,2.8-1.8,3.7c-1.3,1-3.4,1.6-6.8,1.6c-1.9,0-3.4-0.1-4.2-0.3V481.6z M177.8,488.2h1.3
			c2,0,3.2-0.8,3.2-2.1c0-1.3-1-2-2.8-2c-0.8,0-1.3,0.1-1.7,0.1V488.2z M177.8,495.9c0.4,0.1,0.8,0.1,1.5,0.1c1.8,0,3.3-0.7,3.3-2.5
			c0-1.7-1.6-2.4-3.5-2.4h-1.3V495.9z"/>
		<path class="st29" d="M201.1,494.6c0,1.6,0.1,3,0.1,4h-3.4l-0.2-1.8h-0.1c-0.5,0.8-1.7,2-3.9,2c-2.5,0-4.4-1.6-4.4-5.5v-7.4h3.9
			v6.7c0,1.8,0.6,2.9,1.9,2.9c1.1,0,1.7-0.7,1.9-1.4c0.1-0.2,0.1-0.5,0.1-0.8v-7.5h3.9V494.6z M190.8,482.6c0-1.1,0.8-1.8,1.8-1.8
			c1,0,1.7,0.8,1.7,1.8c0,1-0.7,1.8-1.7,1.8C191.6,484.4,190.8,483.6,190.8,482.6z M196.2,482.6c0-1.1,0.8-1.8,1.8-1.8
			c1,0,1.8,0.8,1.8,1.8c0,1-0.7,1.8-1.8,1.8C196.9,484.4,196.2,483.6,196.2,482.6z"/>
		<path class="st29" d="M204.2,480.5h3.9v7.1h0.1c0.4-0.5,0.9-0.9,1.5-1.3c0.6-0.3,1.3-0.5,2-0.5c2.5,0,4.4,1.7,4.4,5.5v7.3h-3.9
			v-6.9c0-1.6-0.6-2.8-2-2.8c-1,0-1.7,0.7-1.9,1.4c-0.1,0.3-0.1,0.6-0.1,0.9v7.4h-3.9V480.5z"/>
		<path class="st29" d="M219.2,490.1c0-1.6-0.1-2.9-0.1-4h3.4l0.2,1.7h0.1c0.5-0.8,1.8-2,3.9-2c2.6,0,4.5,1.7,4.5,5.4v7.4h-3.9v-6.9
			c0-1.6-0.6-2.7-2-2.7c-1.1,0-1.7,0.7-2,1.5c-0.1,0.2-0.2,0.6-0.2,1v7.2h-3.9V490.1z"/>
		<path class="st29" d="M237.3,493.6c0.1,1.6,1.7,2.4,3.5,2.4c1.3,0,2.4-0.2,3.5-0.5l0.5,2.6c-1.3,0.5-2.8,0.8-4.5,0.8
			c-4.3,0-6.7-2.5-6.7-6.4c0-3.2,2-6.7,6.3-6.7c4,0,5.6,3.2,5.6,6.3c0,0.7-0.1,1.3-0.1,1.5H237.3z M241.8,491c0-0.9-0.4-2.5-2.2-2.5
			c-1.6,0-2.3,1.5-2.4,2.5H241.8z"/>
		<path class="st29" d="M247.8,490.1c0-1.6-0.1-2.9-0.1-4h3.4l0.2,1.7h0.1c0.5-0.8,1.8-2,3.9-2c2.6,0,4.5,1.7,4.5,5.4v7.4h-3.9v-6.9
			c0-1.6-0.6-2.7-2-2.7c-1.1,0-1.7,0.7-2,1.5c-0.1,0.2-0.2,0.6-0.2,1v7.2h-3.9V490.1z"/>
	</g>
	<g>
		<rect x="82" y="475.7" class="st11" width="78.4" height="26.8"/>
	</g>
	<g id="Wc_3_">
		<g>
			<path class="st10" d="M210.4,226.9H210c-5.5,0-9.9-4.4-9.9-9.9v-0.4c0-5.5,4.4-9.9,9.9-9.9h0.4c5.5,0,9.9,4.4,9.9,9.9v0.4
				C220.3,222.5,215.9,226.9,210.4,226.9z"/>
			<g>
				<rect x="198.2" y="210.2" class="st6" width="24" height="11.3"/>
				<path d="M203.5,213.4l0.9,3.4c0.2,0.8,0.4,1.5,0.5,2.2h0c0.2-0.7,0.4-1.4,0.6-2.1l1.1-3.5h1l1,3.4c0.3,0.8,0.4,1.5,0.6,2.2h0
					c0.1-0.7,0.3-1.4,0.5-2.2l1-3.4h1.2l-2.2,6.8h-1.1l-1-3.2c-0.2-0.8-0.4-1.4-0.6-2.2h0c-0.2,0.8-0.4,1.5-0.6,2.2l-1.1,3.2h-1.1
					l-2-6.8H203.5z"/>
				<path d="M218,219.9c-0.3,0.2-1,0.4-1.9,0.4c-2,0-3.4-1.4-3.4-3.5c0-2.1,1.4-3.6,3.6-3.6c0.7,0,1.4,0.2,1.7,0.4l-0.3,1
					c-0.3-0.2-0.8-0.3-1.4-0.3c-1.6,0-2.4,1.1-2.4,2.6c0,1.6,1,2.5,2.4,2.5c0.7,0,1.2-0.2,1.5-0.3L218,219.9z"/>
			</g>
		</g>
		<g>
			<path class="st10" d="M633.5,191h-0.4c-5.5,0-9.9-4.4-9.9-9.9v-0.4c0-5.5,4.4-9.9,9.9-9.9h0.4c5.5,0,9.9,4.4,9.9,9.9v0.4
				C643.5,186.6,639,191,633.5,191z"/>
			<g>
				<rect x="621.4" y="174.3" class="st6" width="24" height="11.3"/>
				<path d="M626.7,177.4l0.9,3.4c0.2,0.8,0.4,1.5,0.5,2.2h0c0.2-0.7,0.4-1.4,0.6-2.1l1.1-3.5h1l1,3.4c0.3,0.8,0.4,1.5,0.6,2.2h0
					c0.1-0.7,0.3-1.4,0.5-2.2l1-3.4h1.2l-2.2,6.8h-1.1l-1-3.2c-0.2-0.8-0.4-1.4-0.6-2.2h0c-0.2,0.8-0.4,1.5-0.6,2.2l-1.1,3.2h-1.1
					l-2-6.8H626.7z"/>
				<path d="M641.2,184c-0.3,0.2-1,0.4-1.9,0.4c-2,0-3.4-1.4-3.4-3.5c0-2.1,1.4-3.6,3.6-3.6c0.7,0,1.4,0.2,1.7,0.4l-0.3,1
					c-0.3-0.2-0.8-0.3-1.4-0.3c-1.6,0-2.4,1.1-2.4,2.6c0,1.6,1,2.5,2.4,2.5c0.7,0,1.2-0.2,1.5-0.3L641.2,184z"/>
			</g>
		</g>
		<g>
			<path class="st10" d="M587.9,333.8h-0.4c-5.5,0-9.9-4.4-9.9-9.9v-0.4c0-5.5,4.4-9.9,9.9-9.9h0.4c5.5,0,9.9,4.4,9.9,9.9v0.4
				C597.8,329.3,593.3,333.8,587.9,333.8z"/>
			<g>
				<rect x="575.7" y="317" class="st6" width="24" height="11.3"/>
				<path d="M581,320.2l0.9,3.4c0.2,0.8,0.4,1.5,0.5,2.2h0c0.2-0.7,0.4-1.4,0.6-2.1l1.1-3.5h1l1,3.4c0.3,0.8,0.4,1.5,0.6,2.2h0
					c0.1-0.7,0.3-1.4,0.5-2.2l1-3.4h1.2l-2.2,6.8h-1.1l-1-3.2c-0.2-0.8-0.4-1.4-0.6-2.2h0c-0.2,0.8-0.4,1.5-0.6,2.2l-1.1,3.2h-1.1
					l-2-6.8H581z"/>
				<path d="M595.5,326.7c-0.3,0.2-1,0.4-1.9,0.4c-2,0-3.4-1.4-3.4-3.5c0-2.1,1.4-3.6,3.6-3.6c0.7,0,1.4,0.2,1.7,0.4l-0.3,1
					c-0.3-0.2-0.8-0.3-1.4-0.3c-1.6,0-2.4,1.1-2.4,2.6c0,1.6,1,2.5,2.4,2.5c0.7,0,1.2-0.2,1.5-0.3L595.5,326.7z"/>
			</g>
		</g>
		<g>
			<path class="st10" d="M820.4,332.7H820c-5.5,0-9.9-4.4-9.9-9.9v-0.4c0-5.5,4.4-9.9,9.9-9.9h0.4c5.5,0,9.9,4.4,9.9,9.9v0.4
				C830.3,328.3,825.9,332.7,820.4,332.7z"/>
			<g>
				<rect x="808.2" y="315.9" class="st6" width="24" height="11.3"/>
				<path d="M813.5,319.1l0.9,3.4c0.2,0.8,0.4,1.5,0.5,2.2h0c0.2-0.7,0.4-1.4,0.6-2.1l1.1-3.5h1l1.1,3.4c0.3,0.8,0.4,1.5,0.6,2.2h0
					c0.1-0.7,0.3-1.4,0.5-2.2l1-3.4h1.2l-2.2,6.8h-1.1l-1-3.2c-0.2-0.8-0.4-1.4-0.6-2.2h0c-0.2,0.8-0.4,1.5-0.6,2.2l-1.1,3.2h-1.1
					l-2-6.8H813.5z"/>
				<path d="M828,325.6c-0.3,0.2-1,0.4-1.9,0.4c-2,0-3.4-1.4-3.4-3.5c0-2.1,1.4-3.6,3.6-3.6c0.7,0,1.4,0.2,1.7,0.4l-0.3,1
					c-0.3-0.2-0.8-0.3-1.4-0.3c-1.6,0-2.4,1.1-2.4,2.6c0,1.6,1,2.5,2.4,2.5c0.7,0,1.2-0.2,1.5-0.3L828,325.6z"/>
			</g>
		</g>
		<g>
			<path class="st10" d="M719.5,432.7h-0.4c-5.5,0-9.9-4.4-9.9-9.9v-0.4c0-5.5,4.4-9.9,9.9-9.9h0.4c5.5,0,9.9,4.4,9.9,9.9v0.4
				C729.5,428.3,725,432.7,719.5,432.7z"/>
			<g>
				<rect x="707.4" y="415.9" class="st6" width="24" height="11.3"/>
				<path d="M712.7,419.1l0.9,3.4c0.2,0.8,0.4,1.5,0.5,2.2h0c0.2-0.7,0.4-1.4,0.6-2.1l1.1-3.5h1l1,3.4c0.3,0.8,0.4,1.5,0.6,2.2h0
					c0.1-0.7,0.3-1.4,0.5-2.2l1-3.4h1.2l-2.2,6.8h-1.1l-1-3.2c-0.2-0.8-0.4-1.4-0.6-2.2h0c-0.2,0.8-0.4,1.5-0.6,2.2l-1.1,3.2h-1.1
					l-2-6.8H712.7z"/>
				<path d="M727.2,425.6c-0.3,0.2-1,0.4-1.9,0.4c-2,0-3.4-1.4-3.4-3.5c0-2.1,1.4-3.6,3.6-3.6c0.7,0,1.4,0.2,1.7,0.4l-0.3,1
					c-0.3-0.2-0.8-0.3-1.4-0.3c-1.6,0-2.4,1.1-2.4,2.6c0,1.6,1,2.5,2.4,2.5c0.7,0,1.2-0.2,1.5-0.3L727.2,425.6z"/>
			</g>
		</g>
		<g>
			<path class="st10" d="M673,388.7h-0.4c-5.5,0-9.9-4.4-9.9-9.9v-0.4c0-5.5,4.4-9.9,9.9-9.9h0.4c5.5,0,9.9,4.4,9.9,9.9v0.4
				C682.9,384.3,678.4,388.7,673,388.7z"/>
			<g>
				<rect x="660.8" y="371.9" class="st6" width="24" height="11.3"/>
				<path d="M666.1,375.1l0.9,3.4c0.2,0.8,0.4,1.5,0.5,2.2h0c0.2-0.7,0.4-1.4,0.6-2.1l1.1-3.5h1l1,3.4c0.3,0.8,0.4,1.5,0.6,2.2h0
					c0.1-0.7,0.3-1.4,0.5-2.2l1-3.4h1.2l-2.2,6.8h-1.1l-1-3.2c-0.2-0.8-0.4-1.4-0.6-2.2h0c-0.2,0.8-0.4,1.5-0.6,2.2l-1.1,3.2h-1.1
					l-2-6.8H666.1z"/>
				<path d="M680.6,381.6c-0.3,0.2-1,0.4-1.9,0.4c-2,0-3.4-1.4-3.4-3.5c0-2.1,1.4-3.6,3.6-3.6c0.7,0,1.4,0.2,1.7,0.4l-0.3,1
					c-0.3-0.2-0.8-0.3-1.4-0.3c-1.6,0-2.4,1.1-2.4,2.6c0,1.6,1,2.5,2.4,2.5c0.7,0,1.2-0.2,1.5-0.3L680.6,381.6z"/>
			</g>
		</g>
	</g>
	<g>
		<rect x="338.9" y="125.3" class="st23" width="78.4" height="16.8"/>
		<g>
			<rect x="342.9" y="129.7" class="st6" width="74.5" height="12.5"/>
			<path d="M343.8,130.1h1v3.9h0c0.2-0.3,0.4-0.6,0.6-0.9l2.5-3h1.3l-2.9,3.4l3.2,4.7h-1.2l-2.7-4l-0.8,0.9v3.1h-1V130.1z"/>
			<path d="M353.6,138.2l-0.1-0.7h0c-0.3,0.5-0.9,0.9-1.8,0.9c-1.2,0-1.8-0.8-1.8-1.7c0-1.4,1.2-2.2,3.5-2.2v-0.1
				c0-0.5-0.1-1.3-1.3-1.3c-0.5,0-1.1,0.2-1.5,0.4l-0.2-0.7c0.5-0.3,1.2-0.5,1.9-0.5c1.8,0,2.2,1.2,2.2,2.4v2.2c0,0.5,0,1,0.1,1.4
				H353.6z M353.5,135.2c-1.2,0-2.5,0.2-2.5,1.3c0,0.7,0.5,1,1,1c0.8,0,1.2-0.5,1.4-1c0-0.1,0.1-0.2,0.1-0.3V135.2z"/>
			<path d="M356.2,133.9c0-0.6,0-1.1,0-1.6h0.9l0.1,1h0c0.3-0.6,1-1.1,1.9-1.1c0.8,0,2.1,0.5,2.1,2.5v3.5h-1.1v-3.3
				c0-0.9-0.3-1.7-1.3-1.7c-0.7,0-1.2,0.5-1.4,1.1c0,0.1-0.1,0.3-0.1,0.5v3.5h-1.1V133.9z"/>
			<path d="M364.1,130.7v1.7h1.5v0.8h-1.5v3.1c0,0.7,0.2,1.1,0.8,1.1c0.3,0,0.5,0,0.6-0.1l0,0.8c-0.2,0.1-0.5,0.1-0.9,0.1
				c-0.5,0-0.9-0.2-1.1-0.4c-0.3-0.3-0.4-0.8-0.4-1.5v-3.2h-0.9v-0.8h0.9V131L364.1,130.7z"/>
			<path d="M372,135.2c0,2.1-1.5,3.1-2.9,3.1c-1.6,0-2.8-1.2-2.8-3c0-1.9,1.3-3.1,2.9-3.1C370.9,132.2,372,133.5,372,135.2z
				 M367.4,135.3c0,1.3,0.7,2.2,1.8,2.2c1,0,1.8-0.9,1.8-2.3c0-1-0.5-2.2-1.7-2.2S367.4,134.2,367.4,135.3z"/>
			<path d="M373.3,133.9c0-0.6,0-1.1,0-1.6h0.9l0.1,1h0c0.3-0.6,1-1.1,1.9-1.1c0.8,0,2.1,0.5,2.1,2.5v3.5h-1.1v-3.3
				c0-0.9-0.3-1.7-1.3-1.7c-0.7,0-1.2,0.5-1.4,1.1c0,0.1-0.1,0.3-0.1,0.5v3.5h-1.1V133.9z"/>
			<path d="M383.2,138.2l-0.1-0.7h0c-0.3,0.5-0.9,0.9-1.8,0.9c-1.2,0-1.8-0.8-1.8-1.7c0-1.4,1.2-2.2,3.5-2.2v-0.1
				c0-0.5-0.1-1.3-1.3-1.3c-0.5,0-1.1,0.2-1.5,0.4l-0.2-0.7c0.5-0.3,1.2-0.5,1.9-0.5c1.8,0,2.2,1.2,2.2,2.4v2.2c0,0.5,0,1,0.1,1.4
				H383.2z M383,135.2c-1.2,0-2.5,0.2-2.5,1.3c0,0.7,0.5,1,1,1c0.8,0,1.2-0.5,1.4-1c0-0.1,0.1-0.2,0.1-0.3V135.2z"/>
			<path d="M385.8,129.7h1.1v8.5h-1.1V129.7z"/>
			<path d="M388.5,138.2c0-0.4,0-1,0-1.5v-7h1v3.6h0c0.4-0.6,1-1.1,2-1.1c1.4,0,2.5,1.2,2.4,3c0,2.1-1.3,3.1-2.6,3.1
				c-0.8,0-1.5-0.3-1.9-1.1h0l0,1H388.5z M389.6,135.9c0,0.1,0,0.3,0,0.4c0.2,0.7,0.8,1.2,1.6,1.2c1.1,0,1.8-0.9,1.8-2.2
				c0-1.2-0.6-2.2-1.7-2.2c-0.7,0-1.4,0.5-1.6,1.3c0,0.1-0.1,0.3-0.1,0.4V135.9z"/>
			<path d="M398.6,138.2l-0.1-0.7h0c-0.3,0.5-0.9,0.9-1.8,0.9c-1.2,0-1.8-0.8-1.8-1.7c0-1.4,1.2-2.2,3.5-2.2v-0.1
				c0-0.5-0.1-1.3-1.3-1.3c-0.5,0-1.1,0.2-1.5,0.4l-0.2-0.7c0.5-0.3,1.2-0.5,1.9-0.5c1.8,0,2.2,1.2,2.2,2.4v2.2c0,0.5,0,1,0.1,1.4
				H398.6z M398.5,135.2c-1.2,0-2.5,0.2-2.5,1.3c0,0.7,0.5,1,1,1c0.8,0,1.2-0.5,1.4-1c0-0.1,0.1-0.2,0.1-0.3V135.2z"/>
			<path d="M401.2,133.9c0-0.6,0-1.1,0-1.6h0.9l0.1,1h0c0.3-0.6,1-1.1,1.9-1.1c0.8,0,2.1,0.5,2.1,2.5v3.5h-1.1v-3.3
				c0-0.9-0.3-1.7-1.3-1.7c-0.7,0-1.2,0.5-1.4,1.1c0,0.1-0.1,0.3-0.1,0.5v3.5h-1.1V133.9z"/>
			<path d="M408.9,135L408.9,135c0.2-0.2,0.4-0.5,0.5-0.7l1.7-2h1.3l-2.2,2.4l2.6,3.4h-1.3l-2-2.8l-0.5,0.6v2.2h-1v-8.5h1V135z"/>
		</g>
		<rect x="368.9" y="165.5" class="st23" width="29.9" height="18.8"/>
		<g>
			<rect x="372.9" y="169.8" class="st6" width="26" height="14.5"/>
			<path d="M373.8,170.3c0.5-0.1,1.2-0.2,2-0.2c1,0,1.8,0.2,2.3,0.7c0.4,0.4,0.7,1,0.7,1.7c0,0.7-0.2,1.3-0.6,1.7
				c-0.6,0.6-1.5,0.9-2.5,0.9c-0.3,0-0.6,0-0.8-0.1v3.2h-1V170.3z M374.8,174.2c0.2,0.1,0.5,0.1,0.9,0.1c1.3,0,2-0.6,2-1.7
				c0-1.1-0.8-1.6-1.9-1.6c-0.5,0-0.8,0-1,0.1V174.2z"/>
			<path d="M385.1,175.4c0,2.1-1.5,3.1-2.9,3.1c-1.6,0-2.8-1.2-2.8-3c0-1.9,1.3-3.1,2.9-3.1C383.9,172.4,385.1,173.6,385.1,175.4z
				 M380.5,175.4c0,1.3,0.7,2.2,1.8,2.2c1,0,1.8-0.9,1.8-2.3c0-1-0.5-2.2-1.7-2.2C381,173.2,380.5,174.3,380.5,175.4z"/>
			<path d="M386.3,177.2c0.3,0.2,0.9,0.4,1.4,0.4c0.8,0,1.1-0.4,1.1-0.9c0-0.5-0.3-0.8-1.1-1.1c-1-0.4-1.5-0.9-1.5-1.6
				c0-0.9,0.8-1.7,2-1.7c0.6,0,1.1,0.2,1.4,0.4l-0.3,0.8c-0.2-0.1-0.6-0.3-1.2-0.3c-0.6,0-1,0.4-1,0.8c0,0.5,0.3,0.7,1.1,1
				c1,0.4,1.5,0.9,1.5,1.8c0,1-0.8,1.7-2.2,1.7c-0.6,0-1.2-0.2-1.6-0.4L386.3,177.2z"/>
			<path d="M392.4,170.8v1.7h1.5v0.8h-1.5v3.1c0,0.7,0.2,1.1,0.8,1.1c0.3,0,0.5,0,0.6-0.1l0,0.8c-0.2,0.1-0.5,0.1-0.9,0.1
				c-0.5,0-0.9-0.2-1.1-0.4c-0.3-0.3-0.4-0.8-0.4-1.5v-3.2h-0.9v-0.8h0.9v-1.4L392.4,170.8z"/>
		</g>
		<rect x="244" y="251.6" class="st23" width="37" height="28.1"/>
		<g>
			<rect x="249.8" y="261.7" class="st6" width="47.3" height="20.6"/>
			<path d="M256.3,269.9c-0.4,0.2-1.2,0.4-2.1,0.4c-2.3,0-4-1.4-4-4.1c0-2.5,1.7-4.2,4.2-4.2c1,0,1.6,0.2,1.9,0.4l-0.3,0.9
				c-0.4-0.2-1-0.3-1.6-0.3c-1.9,0-3.2,1.2-3.2,3.3c0,2,1.1,3.2,3.1,3.2c0.6,0,1.3-0.1,1.7-0.3L256.3,269.9z"/>
			<path d="M262.7,267.2c0,2.1-1.5,3.1-2.9,3.1c-1.6,0-2.8-1.2-2.8-3c0-1.9,1.3-3.1,2.9-3.1C261.6,264.3,262.7,265.5,262.7,267.2z
				 M258.1,267.3c0,1.3,0.7,2.2,1.8,2.2c1,0,1.8-0.9,1.8-2.3c0-1-0.5-2.2-1.7-2.2S258.1,266.2,258.1,267.3z"/>
			<path d="M269.3,267.2c0,2.1-1.5,3.1-2.9,3.1c-1.6,0-2.8-1.2-2.8-3c0-1.9,1.3-3.1,2.9-3.1C268.2,264.3,269.3,265.5,269.3,267.2z
				 M264.7,267.3c0,1.3,0.7,2.2,1.8,2.2c1,0,1.8-0.9,1.8-2.3c0-1-0.5-2.2-1.7-2.2S264.7,266.2,264.7,267.3z"/>
			<path d="M270.6,266.3c0-0.7,0-1.3,0-1.9h0.9l0,1h0c0.4-0.7,1.1-1.1,2.1-1.1c1.4,0,2.5,1.2,2.5,3c0,2.1-1.3,3.1-2.6,3.1
				c-0.8,0-1.4-0.3-1.8-0.9h0v3.2h-1V266.3z M271.7,267.8c0,0.2,0,0.3,0,0.4c0.2,0.7,0.8,1.2,1.6,1.2c1.1,0,1.8-0.9,1.8-2.2
				c0-1.2-0.6-2.2-1.7-2.2c-0.7,0-1.4,0.5-1.6,1.3c0,0.1-0.1,0.3-0.1,0.4V267.8z"/>
		</g>
	</g>
	<g id="Beizen_3_">
		<g>
			<rect x="654.8" y="212.5" class="st24" width="18.4" height="18.4"/>
			<g>
				<rect x="654.8" y="216.4" class="st6" width="18.4" height="12.3"/>
				<path d="M661,226.3v-0.8l1-0.9c2.3-2.2,3.4-3.4,3.4-4.8c0-0.9-0.4-1.8-1.8-1.8c-0.8,0-1.5,0.4-1.9,0.8l-0.4-0.9
					c0.6-0.5,1.5-0.9,2.6-0.9c2,0,2.8,1.3,2.8,2.6c0,1.7-1.2,3-3.1,4.9l-0.7,0.7v0h4.1v1H661z"/>
			</g>
		</g>
		<g>
			<rect x="687" y="204.3" class="st24" width="18.4" height="18.4"/>
			<g>
				<rect x="687" y="208.2" class="st6" width="18.4" height="12.3"/>
				<path d="M693.5,216.7c0.3,0.2,1.2,0.6,2,0.6c1.6,0,2.1-1,2.1-1.8c0-1.3-1.2-1.8-2.4-1.8h-0.7v-0.9h0.7c0.9,0,2-0.5,2-1.5
					c0-0.7-0.5-1.4-1.6-1.4c-0.7,0-1.4,0.3-1.8,0.6l-0.3-0.9c0.5-0.4,1.4-0.7,2.4-0.7c1.8,0,2.6,1.1,2.6,2.2c0,0.9-0.6,1.7-1.7,2.1
					v0c1.1,0.2,2,1.1,2,2.3c0,1.5-1.1,2.7-3.3,2.7c-1,0-1.9-0.3-2.4-0.6L693.5,216.7z"/>
			</g>
		</g>
		<g>
			<rect x="673.7" y="253.4" class="st24" width="18.4" height="18.4"/>
			<g>
				<rect x="673.7" y="257.3" class="st6" width="18.4" height="12.3"/>
				<path d="M683.7,267.2v-2.5h-4.2v-0.8l4.1-5.8h1.3v5.7h1.3v1h-1.3v2.5H683.7z M683.7,263.8v-3c0-0.5,0-1,0-1.4h0
					c-0.3,0.5-0.5,0.9-0.8,1.3l-2.2,3.1v0H683.7z"/>
			</g>
		</g>
		<g>
			<rect x="700" y="229.3" class="st24" width="18.4" height="18.4"/>
			<g>
				<rect x="700" y="233.2" class="st6" width="18.4" height="12.3"/>
				<path d="M711.7,235h-3.5l-0.4,2.3c0.2,0,0.4-0.1,0.7-0.1c0.7,0,1.4,0.2,2,0.5c0.7,0.4,1.3,1.2,1.3,2.3c0,1.8-1.4,3.1-3.4,3.1
					c-1,0-1.8-0.3-2.3-0.6l0.3-0.9c0.4,0.2,1.1,0.5,1.9,0.5c1.2,0,2.2-0.8,2.2-2c0-1.2-0.8-2-2.6-2c-0.5,0-0.9,0.1-1.3,0.1l0.6-4.4
					h4.4V235z"/>
			</g>
		</g>
		<g>
			<rect x="706.4" y="251" class="st24" width="18.4" height="18.4"/>
			<g>
				<rect x="706.4" y="254.9" class="st6" width="18.4" height="12.3"/>
				<path d="M717.8,256.6c-0.3,0-0.6,0-0.9,0.1c-1.9,0.3-3,1.7-3.2,3.2h0c0.4-0.6,1.2-1.1,2.2-1.1c1.6,0,2.7,1.2,2.7,2.9
					c0,1.7-1.1,3.2-3,3.2c-1.9,0-3.2-1.5-3.2-3.9c0-1.8,0.6-3.2,1.5-4.1c0.8-0.7,1.8-1.2,2.9-1.3c0.4-0.1,0.7-0.1,0.9-0.1V256.6z
					 M717.5,261.8c0-1.3-0.7-2.1-1.9-2.1c-0.7,0-1.4,0.5-1.8,1.1c-0.1,0.1-0.1,0.3-0.1,0.5c0,1.5,0.7,2.6,2,2.6
					C716.8,264,717.5,263.1,717.5,261.8z"/>
			</g>
		</g>
		<g>
			<rect x="731.7" y="251" class="st24" width="18.4" height="18.4"/>
			<g>
				<rect x="731.7" y="254.9" class="st6" width="18.4" height="12.3"/>
				<path d="M743.8,255.7v0.8l-4,8.3h-1.3l4-8.1v0h-4.5v-1H743.8z"/>
			</g>
		</g>
		<g>
			<rect x="775.8" y="335.2" class="st24" width="18.4" height="18.4"/>
			<g>
				<rect x="775.8" y="339.1" class="st6" width="18.4" height="12.3"/>
				<path d="M782,346.7c0-1.1,0.7-2,1.8-2.4l0,0c-1-0.5-1.4-1.3-1.4-2c0-1.4,1.2-2.4,2.8-2.4c1.8,0,2.6,1.1,2.6,2.2
					c0,0.8-0.4,1.6-1.5,2.1v0c1.1,0.4,1.8,1.2,1.8,2.4c0,1.6-1.4,2.6-3.1,2.6C783.1,349.2,782,348.1,782,346.7z M786.9,346.7
					c0-1.1-0.8-1.6-2-2c-1.1,0.3-1.6,1-1.6,1.9c0,0.9,0.7,1.7,1.8,1.7C786.1,348.3,786.9,347.6,786.9,346.7z M783.5,342.1
					c0,0.9,0.7,1.4,1.7,1.7c0.8-0.3,1.4-0.8,1.4-1.7c0-0.7-0.4-1.5-1.5-1.5C784,340.7,783.5,341.3,783.5,342.1z"/>
			</g>
		</g>
		<g>
			<rect x="752.4" y="332.2" class="st24" width="18.4" height="18.4"/>
			<g>
				<rect x="752.4" y="336.1" class="st6" width="18.4" height="12.3"/>
				<path d="M759.3,345.2c0.3,0,0.6,0,1,0c0.7-0.1,1.4-0.4,1.9-0.9c0.6-0.5,1-1.3,1.2-2.4h0c-0.5,0.6-1.2,1-2.1,1
					c-1.6,0-2.7-1.2-2.7-2.8c0-1.7,1.2-3.2,3.1-3.2c1.9,0,3,1.5,3,3.8c0,2-0.7,3.4-1.6,4.3c-0.7,0.7-1.7,1.1-2.6,1.2
					c-0.4,0.1-0.8,0.1-1.1,0.1V345.2z M759.8,339.9c0,1.1,0.7,1.9,1.8,1.9c0.8,0,1.5-0.4,1.8-1c0.1-0.1,0.1-0.3,0.1-0.4
					c0-1.6-0.6-2.7-1.9-2.7C760.5,337.7,759.8,338.6,759.8,339.9z"/>
			</g>
		</g>
		<g>
			<rect x="737.8" y="367.8" class="st24" width="18.4" height="18.4"/>
			<g>
				<rect x="737.8" y="371.6" class="st6" width="18.4" height="12.3"/>
				<path d="M743.2,373.6L743.2,373.6l-1.6,0.9l-0.2-0.9l2-1.1h1.1v9.1h-1.2V373.6z"/>
				<path d="M753.7,376.9c0,3.1-1.1,4.8-3.2,4.8c-1.8,0-3-1.7-3-4.7c0-3.1,1.3-4.7,3.2-4.7C752.6,372.3,753.7,374,753.7,376.9z
					 M748.8,377c0,2.4,0.7,3.7,1.8,3.7c1.3,0,1.9-1.5,1.9-3.8c0-2.2-0.6-3.7-1.8-3.7C749.5,373.3,748.8,374.6,748.8,377z"/>
			</g>
		</g>
		<g>
			<rect x="771.1" y="363.4" class="st24" width="18.4" height="18.4"/>
			<g>
				<rect x="771.1" y="367.3" class="st6" width="18.4" height="12.3"/>
				<path d="M776.4,369.3L776.4,369.3l-1.6,0.9l-0.2-0.9l2-1.1h1v9.1h-1.2V369.3z"/>
				<path d="M783.6,369.3L783.6,369.3l-1.6,0.9l-0.2-0.9l2-1.1h1v9.1h-1.2V369.3z"/>
			</g>
		</g>
		<g>
			<rect x="743.6" y="406.1" class="st24" width="18.4" height="18.4"/>
			<g>
				<rect x="743.6" y="409.9" class="st6" width="18.4" height="12.3"/>
				<path d="M748.9,411.9L748.9,411.9l-1.6,0.9l-0.2-0.9l2-1.1h1v9.1h-1.2V411.9z"/>
				<path d="M753.4,419.9v-0.8l1-0.9c2.3-2.2,3.4-3.4,3.4-4.8c0-0.9-0.4-1.8-1.8-1.8c-0.8,0-1.5,0.4-1.9,0.8l-0.4-0.9
					c0.6-0.5,1.5-0.9,2.6-0.9c2,0,2.8,1.3,2.8,2.6c0,1.7-1.2,3-3.1,4.9l-0.7,0.7v0h4.1v1H753.4z"/>
			</g>
		</g>
		<g>
			<rect x="761.6" y="435.1" class="st24" width="18.4" height="18.4"/>
			<g>
				<rect x="761.6" y="439" class="st6" width="18.4" height="12.3"/>
				<path d="M767,440.9L767,440.9l-1.6,0.9l-0.2-0.9l2-1.1h1v9.1H767V440.9z"/>
				<path d="M771.8,447.5c0.3,0.2,1.2,0.6,2,0.6c1.6,0,2.1-1,2.1-1.8c0-1.3-1.2-1.8-2.4-1.8h-0.7v-0.9h0.7c0.9,0,2-0.5,2-1.5
					c0-0.7-0.5-1.4-1.6-1.4c-0.7,0-1.4,0.3-1.8,0.6l-0.3-0.9c0.5-0.3,1.4-0.7,2.4-0.7c1.8,0,2.6,1.1,2.6,2.2c0,0.9-0.6,1.7-1.7,2.1
					v0c1.1,0.2,2,1.1,2,2.3c0,1.5-1.1,2.7-3.3,2.7c-1,0-1.9-0.3-2.4-0.6L771.8,447.5z"/>
			</g>
		</g>
		<g>
			<rect x="720.3" y="434.7" class="st24" width="18.4" height="18.4"/>
			<g>
				<rect x="720.3" y="438.6" class="st6" width="18.4" height="12.3"/>
				<path d="M725.6,440.6L725.6,440.6l-1.6,0.9l-0.2-0.9l2-1.1h1v9.1h-1.2V440.6z"/>
				<path d="M733.9,448.5V446h-4.2v-0.8l4.1-5.8h1.3v5.7h1.3v1h-1.3v2.5H733.9z M733.9,445.1v-3c0-0.5,0-1,0-1.4h0
					c-0.3,0.5-0.5,0.9-0.8,1.3l-2.2,3.1v0H733.9z"/>
			</g>
		</g>
		<g>
			<rect x="706.4" y="392.1" class="st24" width="18.4" height="18.4"/>
			<g>
				<rect x="706.4" y="396" class="st6" width="18.4" height="12.3"/>
				<path d="M711.7,398L711.7,398l-1.6,0.9l-0.2-0.9l2-1.1h1v9.1h-1.2V398z"/>
				<path d="M721.7,397.8h-3.5l-0.4,2.3c0.2,0,0.4-0.1,0.7-0.1c0.7,0,1.4,0.2,2,0.5c0.7,0.4,1.3,1.2,1.3,2.3c0,1.8-1.4,3.1-3.4,3.1
					c-1,0-1.8-0.3-2.3-0.6l0.3-0.9c0.4,0.2,1.1,0.5,1.9,0.5c1.2,0,2.2-0.8,2.2-2c0-1.2-0.8-2-2.6-2c-0.5,0-0.9,0.1-1.3,0.1l0.6-4.4
					h4.4V397.8z"/>
			</g>
		</g>
		<g>
			<rect x="705.4" y="368.6" class="st24" width="18.4" height="18.4"/>
			<g>
				<rect x="705.4" y="372.5" class="st6" width="18.4" height="12.3"/>
				<path d="M710.7,374.5L710.7,374.5l-1.6,0.9l-0.2-0.9l2-1.1h1v9.1h-1.2V374.5z"/>
				<path d="M720.4,374.2c-0.3,0-0.6,0-0.9,0.1c-1.9,0.3-3,1.7-3.2,3.2h0c0.4-0.6,1.2-1,2.2-1c1.6,0,2.7,1.2,2.7,2.9
					c0,1.7-1.1,3.2-3,3.2c-1.9,0-3.2-1.5-3.2-3.9c0-1.8,0.6-3.2,1.5-4.1c0.8-0.7,1.8-1.2,2.9-1.3c0.4-0.1,0.7-0.1,0.9-0.1V374.2z
					 M720.1,379.4c0-1.3-0.7-2.1-1.9-2.1c-0.7,0-1.4,0.5-1.8,1.1c-0.1,0.1-0.1,0.3-0.1,0.5c0,1.5,0.7,2.6,2,2.6
					C719.4,381.6,720.1,380.7,720.1,379.4z"/>
			</g>
		</g>
		<g>
			<rect x="691.5" y="350.5" class="st24" width="18.4" height="18.4"/>
			<g>
				<rect x="691.5" y="354.4" class="st6" width="18.4" height="12.3"/>
				<path d="M696.8,356.4L696.8,356.4l-1.6,0.9l-0.2-0.9l2-1.1h1v9.1h-1.2V356.4z"/>
				<path d="M707.2,355.2v0.8l-4,8.3H702l4-8.1v0h-4.5v-1H707.2z"/>
			</g>
		</g>
		<g>
			<rect x="634.3" y="342.2" class="st24" width="18.4" height="18.4"/>
			<g>
				<rect x="634.3" y="346.1" class="st6" width="18.4" height="12.3"/>
				<path d="M639.6,348.1L639.6,348.1l-1.6,0.9l-0.2-0.9l2-1.1h1v9.1h-1.2V348.1z"/>
				<path d="M644,353.7c0-1.1,0.7-2,1.8-2.4l0,0c-1-0.5-1.4-1.3-1.4-2c0-1.4,1.2-2.4,2.8-2.4c1.8,0,2.6,1.1,2.6,2.2
					c0,0.8-0.4,1.6-1.5,2.1v0c1.1,0.4,1.8,1.2,1.8,2.4c0,1.6-1.4,2.6-3.1,2.6C645.1,356.2,644,355.1,644,353.7z M648.9,353.7
					c0-1.1-0.8-1.6-2-2c-1.1,0.3-1.6,1-1.6,1.9c0,0.9,0.7,1.7,1.8,1.7C648.2,355.3,648.9,354.6,648.9,353.7z M645.5,349.1
					c0,0.9,0.7,1.4,1.7,1.7c0.8-0.3,1.4-0.8,1.4-1.7c0-0.7-0.4-1.5-1.5-1.5C646,347.7,645.5,348.3,645.5,349.1z"/>
			</g>
		</g>
		<g>
			<rect x="625.1" y="383.8" class="st24" width="18.4" height="18.4"/>
			<g>
				<rect x="625.1" y="387.6" class="st6" width="18.4" height="12.3"/>
				<path d="M630.4,389.6L630.4,389.6l-1.6,0.9l-0.2-0.9l2-1.1h1v9.1h-1.2V389.6z"/>
				<path d="M635.6,396.7c0.3,0,0.6,0,1,0c0.7-0.1,1.4-0.4,1.9-0.9c0.6-0.5,1-1.3,1.2-2.4h0c-0.5,0.6-1.2,1-2.1,1
					c-1.6,0-2.7-1.2-2.7-2.8c0-1.7,1.2-3.2,3.1-3.2c1.9,0,3,1.5,3,3.8c0,2-0.7,3.4-1.6,4.3c-0.7,0.7-1.7,1.1-2.6,1.2
					c-0.4,0.1-0.8,0.1-1.1,0.1V396.7z M636.1,391.4c0,1.1,0.7,1.9,1.8,1.9c0.8,0,1.5-0.4,1.8-1c0.1-0.1,0.1-0.3,0.1-0.4
					c0-1.6-0.6-2.7-1.9-2.7C636.8,389.2,636.1,390.2,636.1,391.4z"/>
			</g>
		</g>
		<g>
			<rect x="668.6" y="326.1" class="st24" width="18.4" height="18.4"/>
			<g>
				<rect x="668.6" y="329.9" class="st6" width="18.4" height="12.3"/>
				<path d="M671.2,339.9v-0.8l1-0.9c2.3-2.2,3.4-3.4,3.4-4.8c0-0.9-0.4-1.8-1.8-1.8c-0.8,0-1.5,0.4-1.9,0.8l-0.4-0.9
					c0.6-0.5,1.5-0.9,2.6-0.9c2,0,2.8,1.3,2.8,2.6c0,1.7-1.2,3-3.1,4.9l-0.7,0.7v0h4.1v1H671.2z"/>
				<path d="M684.4,335.2c0,3.1-1.1,4.8-3.2,4.8c-1.8,0-3-1.7-3-4.7c0-3.1,1.3-4.7,3.2-4.7C683.3,330.6,684.4,332.3,684.4,335.2z
					 M679.5,335.3c0,2.4,0.7,3.7,1.8,3.7c1.3,0,1.9-1.5,1.9-3.8c0-2.2-0.6-3.7-1.8-3.7C680.3,331.6,679.5,332.9,679.5,335.3z"/>
			</g>
		</g>
		<g>
			<rect x="645.6" y="320.7" class="st24" width="18.4" height="18.4"/>
			<g>
				<rect x="645.6" y="324.6" class="st6" width="18.4" height="12.3"/>
				<path d="M648.2,334.5v-0.8l1-0.9c2.3-2.2,3.4-3.4,3.4-4.8c0-0.9-0.4-1.8-1.8-1.8c-0.8,0-1.5,0.4-1.9,0.8l-0.4-0.9
					c0.6-0.5,1.5-0.9,2.6-0.9c2,0,2.8,1.3,2.8,2.6c0,1.7-1.2,3-3.1,4.9l-0.7,0.7v0h4.1v1H648.2z"/>
				<path d="M658.1,326.6L658.1,326.6l-1.6,0.9l-0.2-0.9l2-1.1h1v9.1h-1.2V326.6z"/>
			</g>
		</g>
		<g>
			<rect x="663.6" y="294.2" class="st24" width="18.4" height="18.4"/>
			<g>
				<rect x="663.6" y="298" class="st6" width="18.4" height="12.3"/>
				<path d="M666.2,308v-0.8l1-0.9c2.3-2.2,3.4-3.4,3.4-4.8c0-0.9-0.4-1.8-1.8-1.8c-0.8,0-1.5,0.4-1.9,0.8l-0.4-0.9
					c0.6-0.5,1.5-0.9,2.6-0.9c2,0,2.8,1.3,2.8,2.6c0,1.7-1.2,3-3.1,4.9l-0.7,0.7v0h4.1v1H666.2z"/>
				<path d="M673.4,308v-0.8l1-0.9c2.3-2.2,3.4-3.4,3.4-4.8c0-0.9-0.4-1.8-1.8-1.8c-0.8,0-1.5,0.4-1.9,0.8l-0.4-0.9
					c0.6-0.5,1.5-0.9,2.6-0.9c2,0,2.8,1.3,2.8,2.6c0,1.7-1.2,3-3.1,4.9l-0.7,0.7v0h4.1v1H673.4z"/>
			</g>
		</g>
		<g>
			<rect x="557.3" y="312.4" class="st24" width="18.4" height="18.4"/>
			<g>
				<rect x="557.3" y="316.3" class="st6" width="18.4" height="12.3"/>
				<path d="M560,326.2v-0.8l1-0.9c2.3-2.2,3.4-3.4,3.4-4.8c0-0.9-0.4-1.8-1.8-1.8c-0.8,0-1.5,0.4-1.9,0.8l-0.4-0.9
					c0.6-0.5,1.5-0.9,2.6-0.9c2,0,2.8,1.3,2.8,2.6c0,1.7-1.2,3-3.1,4.9l-0.7,0.7v0h4.1v1H560z"/>
				<path d="M567.4,324.8c0.3,0.2,1.2,0.6,2,0.6c1.6,0,2.1-1,2.1-1.8c0-1.3-1.2-1.8-2.4-1.8h-0.7v-0.9h0.7c0.9,0,2-0.5,2-1.5
					c0-0.7-0.5-1.4-1.6-1.4c-0.7,0-1.4,0.3-1.8,0.6l-0.3-0.9c0.5-0.3,1.4-0.7,2.4-0.7c1.8,0,2.6,1.1,2.6,2.2c0,0.9-0.6,1.7-1.7,2.1
					v0c1.1,0.2,2,1.1,2,2.3c0,1.5-1.1,2.7-3.3,2.7c-1,0-1.9-0.3-2.4-0.6L567.4,324.8z"/>
			</g>
		</g>
		<g>
			<rect x="557.3" y="281.8" class="st24" width="18.4" height="18.4"/>
			<g>
				<rect x="557.3" y="285.6" class="st6" width="18.4" height="12.3"/>
				<path d="M560,295.6v-0.8l1-0.9c2.3-2.2,3.4-3.4,3.4-4.8c0-0.9-0.4-1.8-1.8-1.8c-0.8,0-1.5,0.4-1.9,0.8l-0.4-0.9
					c0.6-0.5,1.5-0.9,2.6-0.9c2,0,2.8,1.3,2.8,2.6c0,1.7-1.2,3-3.1,4.9l-0.7,0.7v0h4.1v1H560z"/>
				<path d="M570.9,295.6v-2.5h-4.2v-0.8l4.1-5.8h1.3v5.7h1.3v1h-1.3v2.5H570.9z M570.9,292.1v-3c0-0.5,0-1,0-1.4h0
					c-0.3,0.5-0.5,0.9-0.8,1.3l-2.2,3.1v0H570.9z"/>
			</g>
		</g>
		<g>
			<rect x="521" y="281.8" class="st24" width="18.4" height="18.4"/>
			<g>
				<rect x="521" y="285.6" class="st6" width="18.4" height="12.3"/>
				<path d="M523.6,295.6v-0.8l1-0.9c2.3-2.2,3.4-3.4,3.4-4.8c0-0.9-0.4-1.8-1.8-1.8c-0.8,0-1.5,0.4-1.9,0.8l-0.4-0.9
					c0.6-0.5,1.5-0.9,2.6-0.9c2,0,2.8,1.3,2.8,2.6c0,1.7-1.2,3-3.1,4.9l-0.7,0.7v0h4.1v1H523.6z"/>
				<path d="M536.2,287.5h-3.5l-0.4,2.3c0.2,0,0.4-0.1,0.7-0.1c0.7,0,1.4,0.2,2,0.5c0.7,0.4,1.3,1.2,1.3,2.3c0,1.8-1.4,3.1-3.4,3.1
					c-1,0-1.8-0.3-2.3-0.6l0.3-0.9c0.4,0.2,1.1,0.5,1.9,0.5c1.2,0,2.2-0.8,2.2-2c0-1.2-0.8-2-2.6-2c-0.5,0-0.9,0.1-1.3,0.1l0.6-4.4
					h4.4V287.5z"/>
			</g>
		</g>
		<g>
			<rect x="691.5" y="288.8" class="st24" width="18.4" height="18.4"/>
			<g>
				<rect x="691.5" y="292.6" class="st6" width="18.4" height="12.3"/>
				<path d="M694.1,302.6v-0.8l1-0.9c2.3-2.2,3.4-3.4,3.4-4.8c0-0.9-0.4-1.8-1.8-1.8c-0.8,0-1.5,0.4-1.9,0.8l-0.4-0.9
					c0.6-0.5,1.5-0.9,2.6-0.9c2,0,2.8,1.3,2.8,2.6c0,1.7-1.2,3-3.1,4.9l-0.7,0.7v0h4.1v1H694.1z"/>
				<path d="M706.5,294.3c-0.3,0-0.6,0-0.9,0.1c-1.9,0.3-3,1.7-3.2,3.2h0c0.4-0.6,1.2-1.1,2.2-1.1c1.6,0,2.7,1.2,2.7,2.9
					c0,1.7-1.1,3.2-3,3.2c-1.9,0-3.2-1.5-3.2-3.9c0-1.8,0.6-3.2,1.5-4.1c0.8-0.7,1.8-1.2,2.9-1.3c0.4-0.1,0.7-0.1,0.9-0.1V294.3z
					 M706.2,299.6c0-1.3-0.7-2.1-1.9-2.1c-0.7,0-1.4,0.5-1.8,1.1c-0.1,0.1-0.1,0.3-0.1,0.5c0,1.5,0.7,2.6,2,2.6
					C705.5,301.8,706.2,300.9,706.2,299.6z"/>
			</g>
		</g>
		<g>
			<rect x="175.3" y="219.8" class="st24" width="18.4" height="18.4"/>
			<g>
				<rect x="175.3" y="223.7" class="st6" width="18.4" height="12.3"/>
				<path d="M184.2,225.7L184.2,225.7l-1.6,0.9l-0.2-0.9l2-1.1h1v9.1h-1.2V225.7z"/>
			</g>
		</g>
	</g>
	<g id="Bühnen_3_">
		<g>
			
				<rect x="599.4" y="393.3" transform="matrix(0.4424 0.8968 -0.8968 0.4424 702.3067 -329.6508)" class="st11" width="33.7" height="13.3"/>
			<g>
				
					<rect x="609.7" y="383.5" transform="matrix(0.8968 -0.4424 0.4424 0.8968 -113.5917 313.6001)" class="st6" width="11.7" height="33.7"/>
				<path d="M617.4,392.4c0.3,0.4,0.8,1.1,1.2,1.9c0.5,1.1,0.7,1.9,0.5,2.6c-0.1,0.6-0.5,1.1-1.1,1.4c-0.8,0.4-1.8,0.2-2.6-0.5l0,0
					c0.2,0.9,0,2.2-1.3,2.8c-0.7,0.4-1.4,0.3-2,0.1c-0.8-0.3-1.6-1.2-2.2-2.5c-0.4-0.8-0.6-1.4-0.7-1.7L617.4,392.4z M610.4,397.2
					c0.1,0.2,0.2,0.6,0.4,0.9c0.6,1.1,1.5,2,2.7,1.4c1.2-0.6,1.1-1.8,0.6-3l-0.4-0.9L610.4,397.2z M614.5,395.2l0.5,1
					c0.6,1.2,1.5,1.5,2.3,1.1c1-0.5,1-1.4,0.5-2.5c-0.2-0.5-0.4-0.8-0.6-0.9L614.5,395.2z"/>
				<path d="M613.9,406.3l2.2-1.1l-1.9-3.8l0.7-0.4l7,1.1l0.6,1.2l-5.1,2.5l0.6,1.1l-0.9,0.4l-0.6-1.1l-2.2,1.1L613.9,406.3z
					 M617,404.8l2.7-1.3c0.4-0.2,0.9-0.4,1.3-0.6l0,0c-0.6,0-1.1,0-1.5-0.1l-3.8-0.6l0,0L617,404.8z"/>
			</g>
		</g>
		<g>
			
				<rect x="674.6" y="190.7" transform="matrix(0.9515 0.3077 -0.3077 0.9515 94.2566 -203.1455)" class="st11" width="33.7" height="13.3"/>
			<g>
				
					<rect x="685.3" y="181.3" transform="matrix(0.3077 -0.9515 0.9515 0.3077 289.9708 794.8314)" class="st6" width="11.7" height="33.7"/>
				<path d="M686.7,191.3c0.5,0.1,1.4,0.2,2.2,0.5c1.2,0.4,1.8,0.8,2.3,1.5c0.4,0.5,0.5,1.1,0.2,1.8c-0.3,0.9-1.1,1.4-2.2,1.5l0,0
					c0.8,0.5,1.6,1.5,1.1,2.9c-0.2,0.8-0.7,1.3-1.3,1.6c-0.8,0.4-1.9,0.3-3.4-0.2c-0.8-0.3-1.4-0.5-1.8-0.7L686.7,191.3z
					 M685.3,199.7c0.2,0.1,0.5,0.2,1,0.4c1.2,0.4,2.4,0.3,2.9-1c0.4-1.2-0.5-2.1-1.8-2.5l-1-0.3L685.3,199.7z M686.7,195.4l1.1,0.3
					c1.2,0.4,2.2,0,2.4-0.9c0.3-1.1-0.3-1.7-1.5-2.1c-0.5-0.2-0.9-0.2-1.1-0.3L686.7,195.4z"/>
				<path d="M698.2,196.1c-0.2-0.1-0.5-0.2-0.9-0.2c-1.9-0.3-3.3,0.7-4,2.1l0,0c0.6-0.4,1.5-0.6,2.4-0.3c1.5,0.5,2.3,2,1.7,3.6
					c-0.5,1.6-2.1,2.7-3.9,2.1c-1.9-0.6-2.6-2.4-1.9-4.7c0.6-1.7,1.6-2.9,2.7-3.4c0.9-0.5,2-0.6,3.2-0.4c0.4,0.1,0.7,0.1,0.9,0.2
					L698.2,196.1z M696.2,201c0.4-1.2-0.1-2.2-1.1-2.6c-0.7-0.2-1.5,0-2,0.5c-0.1,0.1-0.2,0.3-0.3,0.5c-0.4,1.4-0.1,2.7,1.1,3.1
					C694.9,202.9,695.8,202.3,696.2,201z"/>
			</g>
		</g>
		<g>
			
				<rect x="722" y="457.8" transform="matrix(0.9804 0.1972 -0.1972 0.9804 106.0834 -136.5557)" class="st11" width="33.7" height="13.3"/>
			<g>
				
					<rect x="732.8" y="448.5" transform="matrix(0.1972 -0.9804 0.9804 0.1972 136.8658 1097.7313)" class="st6" width="11.7" height="33.7"/>
				<path d="M733.5,459c0.5,0,1.4,0.1,2.2,0.2c1.2,0.2,1.9,0.6,2.4,1.2c0.4,0.5,0.6,1.1,0.4,1.8c-0.2,0.9-0.9,1.6-2,1.7l0,0
					c0.8,0.4,1.7,1.3,1.4,2.7c-0.2,0.8-0.6,1.3-1.2,1.7c-0.8,0.5-1.9,0.5-3.4,0.2c-0.8-0.2-1.4-0.3-1.8-0.5L733.5,459z M733,467.4
					c0.2,0.1,0.6,0.2,1,0.3c1.2,0.2,2.5,0,2.7-1.3c0.3-1.3-0.7-2-2-2.3l-1-0.2L733,467.4z M733.9,463l1.1,0.2
					c1.3,0.3,2.1-0.3,2.3-1.1c0.2-1.1-0.5-1.7-1.7-1.9c-0.5-0.1-0.9-0.1-1.1-0.1L733.9,463z"/>
				<path d="M739.2,468.2c0.3,0.3,1,0.8,1.9,1c1.6,0.3,2.2-0.6,2.4-1.3c0.2-1.3-0.8-2-1.9-2.2l-0.7-0.1l0.2-0.9l0.7,0.1
					c0.9,0.2,2.1-0.1,2.3-1.1c0.1-0.7-0.2-1.4-1.3-1.7c-0.7-0.1-1.5,0-1.9,0.2l-0.1-0.9c0.5-0.2,1.5-0.4,2.5-0.2
					c1.8,0.4,2.3,1.6,2.1,2.6c-0.2,0.9-0.9,1.6-2.1,1.8l0,0c1.1,0.4,1.8,1.4,1.5,2.7c-0.3,1.4-1.7,2.5-3.8,2c-1-0.2-1.8-0.7-2.2-1.1
					L739.2,468.2z"/>
			</g>
		</g>
		<g>
			
				<rect x="772.7" y="294.1" transform="matrix(0.3032 0.9529 -0.9529 0.3032 836.7082 -542.7766)" class="st11" width="33.7" height="13.3"/>
			<g>
				
					<rect x="782.9" y="284.2" transform="matrix(0.9529 -0.3032 0.3032 0.9529 -54.1415 253.334)" class="st6" width="11.7" height="33.7"/>
				<path d="M791.8,293.4c0.3,0.5,0.6,1.2,0.9,2.1c0.4,1.2,0.4,2,0.1,2.7c-0.2,0.6-0.6,1-1.4,1.3c-0.9,0.3-1.8-0.1-2.5-0.9l0,0
					c0.1,0.9-0.3,2.1-1.7,2.6c-0.8,0.2-1.5,0.1-2-0.2c-0.8-0.4-1.4-1.4-1.8-2.8c-0.3-0.8-0.4-1.4-0.5-1.8L791.8,293.4z M784.1,297.1
					c0,0.2,0.1,0.6,0.3,1c0.4,1.2,1.2,2.2,2.5,1.8c1.2-0.4,1.4-1.6,1-2.9l-0.3-1L784.1,297.1z M788.4,295.8l0.3,1.1
					c0.4,1.2,1.3,1.7,2.1,1.5c1.1-0.3,1.2-1.3,0.8-2.4c-0.2-0.5-0.3-0.8-0.4-1L788.4,295.8z"/>
				<path d="M785,303.1l0.7-0.2l1.2,0.6c2.8,1.5,4.3,2.2,5.6,1.8c0.9-0.3,1.6-1,1.1-2.3c-0.3-0.8-0.9-1.3-1.3-1.6l0.7-0.6
					c0.7,0.4,1.3,1.2,1.7,2.2c0.6,1.9-0.4,3.1-1.7,3.5c-1.6,0.5-3.3-0.2-5.6-1.5l-0.9-0.5l0,0l1.2,3.9l-1,0.3L785,303.1z"/>
			</g>
		</g>
		<g>
			
				<rect x="749.3" y="262.7" transform="matrix(0.8206 0.5715 -0.5715 0.8206 291.4263 -389.5339)" class="st11" width="33.7" height="13.3"/>
			<g>
				
					<rect x="759.8" y="253.2" transform="matrix(0.5715 -0.8206 0.8206 0.5715 106.4357 743.9791)" class="st6" width="11.7" height="33.7"/>
				<path d="M763.4,262.1c0.5,0.2,1.2,0.6,1.9,1.1c1,0.7,1.5,1.3,1.7,2c0.2,0.6,0.1,1.2-0.3,1.8c-0.5,0.7-1.5,1.1-2.5,0.8l0,0
					c0.6,0.7,1,1.9,0.2,3.1c-0.5,0.7-1.1,1-1.7,1.1c-0.9,0.1-1.9-0.3-3.2-1.1c-0.7-0.5-1.2-0.9-1.5-1.2L763.4,262.1z M759.6,269.7
					c0.2,0.2,0.5,0.4,0.8,0.6c1,0.7,2.3,1,3-0.1c0.7-1.1,0.1-2.1-1-2.9l-0.8-0.6L759.6,269.7z M762.2,266l0.9,0.6
					c1.1,0.7,2.1,0.6,2.6-0.1c0.6-0.9,0.2-1.7-0.8-2.4c-0.5-0.3-0.7-0.5-0.9-0.5L762.2,266z"/>
				<path d="M770.7,268.9L770.7,268.9l-1.8-0.2l0.3-0.9l2.2,0.3l0.9,0.6l-5.2,7.5l-1-0.7L770.7,268.9z"/>
			</g>
		</g>
		<g>
			
				<rect x="504.1" y="316.9" transform="matrix(0.8529 0.5221 -0.5221 0.8529 245.6116 -224.3994)" class="st11" width="33.7" height="13.3"/>
			<g>
				
					<rect x="514.7" y="307.5" transform="matrix(0.5221 -0.8529 0.8529 0.5221 -27.8468 598.9499)" class="st6" width="11.7" height="33.7"/>
				<path d="M517.9,316.6c0.5,0.2,1.3,0.5,2,1c1,0.6,1.6,1.2,1.9,1.9c0.2,0.6,0.2,1.2-0.2,1.8c-0.5,0.8-1.4,1.1-2.4,0.9l0,0
					c0.6,0.7,1.2,1.8,0.4,3c-0.4,0.7-1,1.1-1.7,1.2c-0.9,0.2-1.9-0.1-3.2-1c-0.7-0.4-1.2-0.8-1.6-1.1L517.9,316.6z M514.6,324.4
					c0.2,0.2,0.5,0.4,0.8,0.6c1.1,0.7,2.3,0.9,3-0.3c0.7-1.1,0-2.1-1.1-2.8l-0.9-0.5L514.6,324.4z M517,320.5l0.9,0.6
					c1.1,0.7,2.1,0.5,2.6-0.3c0.6-0.9,0.1-1.8-1-2.4c-0.5-0.3-0.8-0.4-1-0.5L517,320.5z"/>
				<path d="M528,324.2l-3-1.8l-1.5,1.8c0.2,0.1,0.4,0.2,0.7,0.3c0.6,0.4,1.1,0.9,1.4,1.4c0.4,0.7,0.5,1.7-0.1,2.7
					c-0.9,1.5-2.8,1.9-4.5,0.9c-0.8-0.5-1.4-1.2-1.6-1.7l0.8-0.6c0.2,0.4,0.7,1,1.4,1.4c1,0.6,2.2,0.5,2.9-0.6
					c0.6-1,0.4-2.1-1.2-3.1c-0.4-0.3-0.8-0.4-1.1-0.6l2.8-3.4l3.7,2.3L528,324.2z"/>
			</g>
		</g>
	</g>
	<g>
		<path class="st29" d="M173.9,426.3h10.6v3.2h-6.6v3.9h6.2v3.2h-6.2v6.9h-3.9V426.3z"/>
		<path class="st29" d="M189.6,438.5c0.1,1.6,1.7,2.4,3.5,2.4c1.3,0,2.4-0.2,3.5-0.5l0.5,2.6c-1.3,0.5-2.8,0.8-4.5,0.8
			c-4.3,0-6.7-2.5-6.7-6.4c0-3.2,2-6.7,6.3-6.7c4,0,5.6,3.2,5.6,6.3c0,0.7-0.1,1.3-0.1,1.5H189.6z M194.2,435.9
			c0-0.9-0.4-2.5-2.2-2.5c-1.6,0-2.3,1.5-2.4,2.5H194.2z"/>
		<path class="st29" d="M200.1,440.2c0.7,0.4,2.2,0.9,3.4,0.9c1.2,0,1.7-0.4,1.7-1s-0.4-0.9-1.8-1.4c-2.6-0.9-3.6-2.3-3.6-3.8
			c0-2.3,2-4.1,5.1-4.1c1.5,0,2.8,0.3,3.5,0.7l-0.7,2.7c-0.6-0.3-1.6-0.7-2.7-0.7c-0.9,0-1.5,0.4-1.5,1c0,0.6,0.5,0.9,2,1.4
			c2.4,0.8,3.4,2,3.4,3.9c0,2.3-1.8,4-5.4,4c-1.6,0-3.1-0.4-4-0.9L200.1,440.2z"/>
		<path class="st29" d="M215.7,427.4v3.6h2.8v2.9h-2.8v4.5c0,1.5,0.4,2.2,1.5,2.2c0.5,0,0.9-0.1,1.2-0.1l0,2.9
			c-0.5,0.2-1.4,0.3-2.5,0.3c-1.3,0-2.3-0.4-2.9-1.1c-0.7-0.7-1.1-1.9-1.1-3.7v-5.1h-1.7V431h1.7v-2.7L215.7,427.4z"/>
		<path class="st29" d="M223.5,431l1,5.1c0.3,1.3,0.5,2.7,0.7,4.1h0.1c0.3-1.4,0.6-2.9,0.9-4.1l1.3-5.2h3.1l1.3,5
			c0.3,1.4,0.7,2.8,0.9,4.3h0.1c0.2-1.4,0.4-2.8,0.7-4.3l1.1-5h3.8l-3.8,12.5h-3.7l-1.2-4.4c-0.3-1.2-0.5-2.4-0.8-3.9h-0.1
			c-0.2,1.6-0.5,2.7-0.8,3.9l-1.3,4.4h-3.7l-3.6-12.5H223.5z"/>
		<path class="st29" d="M244.3,427.5c0,1.1-0.8,1.9-2.1,1.9c-1.2,0-2-0.9-2-1.9c0-1.1,0.8-2,2-2
			C243.5,425.6,244.3,426.4,244.3,427.5z M240.3,443.6V431h3.9v12.5H240.3z"/>
		<path class="st29" d="M247.3,435.2c0-1.8-0.1-3-0.1-4.1h3.4l0.1,2.3h0.1c0.6-1.8,2.2-2.6,3.4-2.6c0.4,0,0.5,0,0.8,0.1v3.7
			c-0.3-0.1-0.6-0.1-1.1-0.1c-1.4,0-2.4,0.8-2.7,2c-0.1,0.3-0.1,0.6-0.1,0.9v6.4h-3.9V435.2z"/>
		<path class="st29" d="M261.9,427.4v3.6h2.8v2.9h-2.8v4.5c0,1.5,0.4,2.2,1.5,2.2c0.5,0,0.9-0.1,1.2-0.1l0,2.9
			c-0.5,0.2-1.4,0.3-2.5,0.3c-1.3,0-2.3-0.4-2.9-1.1c-0.7-0.7-1.1-1.9-1.1-3.7v-5.1h-1.7V431h1.7v-2.7L261.9,427.4z"/>
		<path class="st29" d="M267,440.2c0.7,0.4,2.2,0.9,3.4,0.9c1.2,0,1.7-0.4,1.7-1s-0.4-0.9-1.8-1.4c-2.6-0.9-3.6-2.3-3.6-3.8
			c0-2.3,2-4.1,5.1-4.1c1.5,0,2.8,0.3,3.5,0.7l-0.7,2.7c-0.6-0.3-1.6-0.7-2.7-0.7c-0.9,0-1.5,0.4-1.5,1c0,0.6,0.5,0.9,2,1.4
			c2.4,0.8,3.4,2,3.4,3.9c0,2.3-1.8,4-5.4,4c-1.6,0-3.1-0.4-4-0.9L267,440.2z"/>
		<path class="st29" d="M287.5,443.3c-0.7,0.3-2,0.6-3.5,0.6c-4,0-6.6-2.5-6.6-6.4c0-3.7,2.5-6.7,7.2-6.7c1,0,2.2,0.2,3,0.5
			l-0.6,2.9c-0.5-0.2-1.2-0.4-2.2-0.4c-2,0-3.4,1.5-3.4,3.5c0,2.3,1.5,3.5,3.4,3.5c0.9,0,1.6-0.2,2.2-0.4L287.5,443.3z"/>
		<path class="st29" d="M289.7,425.4h3.9v7.1h0.1c0.4-0.5,0.9-0.9,1.5-1.3c0.6-0.3,1.3-0.5,2-0.5c2.5,0,4.4,1.7,4.4,5.5v7.3h-3.9
			v-6.9c0-1.6-0.6-2.8-2-2.8c-1,0-1.7,0.7-1.9,1.4c-0.1,0.3-0.1,0.6-0.1,0.9v7.4h-3.9V425.4z"/>
		<path class="st29" d="M311.8,443.6l-0.2-1.3h-0.1c-0.8,1-2.1,1.5-3.6,1.5c-2.5,0-4-1.8-4-3.8c0-3.3,2.9-4.8,7.4-4.8V435
			c0-0.7-0.4-1.6-2.3-1.6c-1.3,0-2.6,0.4-3.5,0.9l-0.7-2.5c0.9-0.5,2.6-1.1,4.9-1.1c4.2,0,5.5,2.5,5.5,5.4v4.4c0,1.2,0.1,2.4,0.2,3
			H311.8z M311.3,437.6c-2,0-3.6,0.5-3.6,2c0,1,0.7,1.5,1.5,1.5c1,0,1.8-0.6,2-1.4c0.1-0.2,0.1-0.4,0.1-0.7V437.6z"/>
		<path class="st29" d="M318.6,443.6v-9.7H317V431h1.6v-0.5c0-1.5,0.5-3.2,1.6-4.2c1-0.9,2.3-1.3,3.5-1.3c0.9,0,1.5,0.1,2.1,0.3
			l-0.2,3c-0.3-0.1-0.7-0.2-1.3-0.2c-1.3,0-1.8,1-1.8,2.2v0.6h2.5v2.9h-2.5v9.7H318.6z"/>
		<path class="st29" d="M331.7,427.4v3.6h2.8v2.9h-2.8v4.5c0,1.5,0.4,2.2,1.5,2.2c0.5,0,0.9-0.1,1.2-0.1l0,2.9
			c-0.5,0.2-1.4,0.3-2.5,0.3c-1.3,0-2.3-0.4-2.9-1.1c-0.7-0.7-1.1-1.9-1.1-3.7v-5.1h-1.7V431h1.7v-2.7L331.7,427.4z"/>
		<path class="st29" d="M339.6,438.5c0.1,1.6,1.7,2.4,3.5,2.4c1.3,0,2.4-0.2,3.5-0.5l0.5,2.6c-1.3,0.5-2.8,0.8-4.5,0.8
			c-4.3,0-6.7-2.5-6.7-6.4c0-3.2,2-6.7,6.3-6.7c4,0,5.6,3.2,5.6,6.3c0,0.7-0.1,1.3-0.1,1.5H339.6z M344.2,435.9
			c0-0.9-0.4-2.5-2.2-2.5c-1.6,0-2.3,1.5-2.4,2.5H344.2z"/>
		<path class="st29" d="M350.1,435c0-1.6-0.1-2.9-0.1-4h3.4l0.2,1.7h0.1c0.5-0.8,1.8-2,3.9-2c2.6,0,4.5,1.7,4.5,5.4v7.4h-3.9v-6.9
			c0-1.6-0.6-2.7-2-2.7c-1.1,0-1.7,0.7-2,1.5c-0.1,0.2-0.2,0.6-0.2,1v7.2h-3.9V435z"/>
	</g>
	<g>
		<rect x="119.2" y="415.2" class="st24" width="42.8" height="42.8"/>
	</g>
	<g>
		<g>
			<path class="st27" d="M250.1,234c7.5-12.2,15-24.4,22.5-36.6c3.5-5.7,7-11.3,10.5-17c2.2-3.6,2.9-4.8,7.1-5.7
				c2.6-0.6,5.2-1,7.8-1.4c7.5-1.1,15-1.6,22.3-3.8c10.6-3.2,21-7.1,31.7-10.1c9.2-2.6,18.4-5.5,28-5.5c11.7,0,23.7,1.9,35.1,4.3
				c20.1,4.2,39.8,11.2,58.4,19.6c4.9,2.2,9.9,0.9,15.2,0.3c6.3-0.6,12.7-1.2,19-1.9c9.9-1,19.8-2.1,29.7-3.4
				c12.9-1.6,25.7-3.3,38.5-5.7c16.8-3.1,34.6-4.9,51.4-0.4c20.4,5.5,33.2,21.1,43.8,38.4c18.6,30.3,31.9,64,43.5,97.5
				c0.5-1.2,1-2.4,1.4-3.5c-8.9,6.4-15.2,17.6-13.1,28.8c2.3,12.2,14,20.7,26.3,19.3c22.4-2.6,28-31.2,10.4-43.7
				c-3.3-2.3-6.4,3.1-3.2,5.4c12.4,8.8,8.8,28.8-6.6,31.9c-10,2-20-5.3-21-15.5c-0.8-8,3.9-16.2,10.3-20.8c1.1-0.8,1.9-2.1,1.4-3.5
				c-10.5-30.3-22.5-60.5-38-88.6c-9-16.3-19.8-34-35.9-44.2c-17.8-11.2-40.1-11.8-60.4-9.2c-11.8,1.5-23.4,4.1-35.2,5.7
				c-20.4,2.9-41,5-61.5,7c-3.4,0.3-7,1-10.4,1c-2.4,0-4.1-1.1-6.4-2.1c-5.3-2.3-10.7-4.4-16-6.5c-9-3.4-18.1-6.6-27.4-9.1
				c-12.1-3.3-24.4-5.3-36.8-6.7c-9.5-1-18.6-1.2-27.9,0.9c-12.6,2.8-25.2,6.7-37.4,11c-9.2,3.2-17.7,5-27.3,6.3
				c-2.6,0.3-5.2,0.7-7.8,1.2c-2.9,0.5-7.3,0.7-9.8,2.3c-2.4,1.5-3.9,5.6-5.3,7.9c-2.1,3.4-4.2,6.8-6.3,10.2
				c-8.7,14.2-17.4,28.4-26.2,42.5C242.5,234.3,247.9,237.4,250.1,234L250.1,234z"/>
		</g>
	</g>
	<rect y="310.4" class="st2" width="30.4" height="281"/>
</g>
<g id="Ebene_11">
</g>
<g id="Parade">
</g>
<g id="Bühne_3_x2C_4_x2C_5">
</g>
</svg>
